solid object
   facet normal 0 0 -1
      outer loop
         vertex 0.400000011920929 0.419999996423721 0.100000005960464
         vertex 0.700000011920929 0.419999996423721 0.100000005960464
         vertex 0.400000011920929 -0.01 0.100000005960464
      endloop
   endfacet
   facet normal 0 0 -1
      outer loop
         vertex 0.400000011920929 -0.01 0.100000005960464
         vertex 0.700000011920929 0.419999996423721 0.100000005960464
         vertex 0.700000011920929 -0.01 0.100000005960464
      endloop
   endfacet
   facet normal 1 0 -5.55111512312579E-16
      outer loop
         vertex 0.700000011920929 0.419999996423721 0.100000005960464
         vertex 0.700000011920929 0.419999996423721 0.300000005960464
         vertex 0.700000011920929 -0.01 0.100000005960464
      endloop
   endfacet
   facet normal 1 0 -5.55111512312579E-16
      outer loop
         vertex 0.700000011920929 -0.01 0.100000005960464
         vertex 0.700000011920929 0.419999996423721 0.300000005960464
         vertex 0.700000011920929 -0.01 0.300000005960464
      endloop
   endfacet
   facet normal 3.70074341541719E-16 0 1
      outer loop
         vertex 0.700000011920929 0.419999996423721 0.300000005960464
         vertex 0.400000011920929 0.419999996423721 0.300000005960464
         vertex 0.700000011920929 -0.01 0.300000005960464
      endloop
   endfacet
   facet normal 3.70074341541719E-16 0 1
      outer loop
         vertex 0.700000011920929 -0.01 0.300000005960464
         vertex 0.400000011920929 0.419999996423721 0.300000005960464
         vertex 0.400000011920929 -0.01 0.300000005960464
      endloop
   endfacet
   facet normal -1 0 0
      outer loop
         vertex 0.400000011920929 0.419999996423721 0.300000005960464
         vertex 0.400000011920929 0.419999996423721 0.100000005960464
         vertex 0.400000011920929 -0.01 0.300000005960464
      endloop
   endfacet
   facet normal -1 0 0
      outer loop
         vertex 0.400000011920929 -0.01 0.300000005960464
         vertex 0.400000011920929 0.419999996423721 0.100000005960464
         vertex 0.400000011920929 -0.01 0.100000005960464
      endloop
   endfacet
   facet normal 0 1 0
      outer loop
         vertex 0.400000011920929 0.419999996423721 0.100000005960464
         vertex 0.400000011920929 0.419999996423721 0.300000005960464
         vertex 0.700000011920929 0.419999996423721 0.100000005960464
      endloop
   endfacet
   facet normal 0 1 0
      outer loop
         vertex 0.700000011920929 0.419999996423721 0.100000005960464
         vertex 0.400000011920929 0.419999996423721 0.300000005960464
         vertex 0.700000011920929 0.419999996423721 0.300000005960464
      endloop
   endfacet
   facet normal 0 -1 0
      outer loop
         vertex 0.400000011920929 -0.01 0.300000005960464
         vertex 0.400000011920929 -0.01 0.100000005960464
         vertex 0.700000011920929 -0.01 0.300000005960464
      endloop
   endfacet
   facet normal 0 -1 0
      outer loop
         vertex 0.700000011920929 -0.01 0.300000005960464
         vertex 0.400000011920929 -0.01 0.100000005960464
         vertex 0.700000011920929 -0.01 0.100000005960464
      endloop
   endfacet
endsolid
