solid object
   facet normal -1 0 1.85037170770859E-16
      outer loop
         vertex 0.125000002980232 0.100000001490116 0.275000002980232
         vertex 0.125000002980232 0.100000001490116 0.125000002980232
         vertex 0.125000002980232 0 0.275000002980232
      endloop
   endfacet
   facet normal -1 0 1.85037170770859E-16
      outer loop
         vertex 0.125000002980232 0 0.275000002980232
         vertex 0.125000002980232 0.100000001490116 0.125000002980232
         vertex 0.125000002980232 0 0.125000002980232
      endloop
   endfacet
   facet normal -1.11022302462516E-16 0 -1
      outer loop
         vertex 0.125000002980232 0.100000001490116 0.125000002980232
         vertex 0.375000002980232 0.100000001490116 0.125000002980232
         vertex 0.125000002980232 0 0.125000002980232
      endloop
   endfacet
   facet normal -1.11022302462516E-16 0 -1
      outer loop
         vertex 0.125000002980232 0 0.125000002980232
         vertex 0.375000002980232 0.100000001490116 0.125000002980232
         vertex 0.375000002980232 0 0.125000002980232
      endloop
   endfacet
   facet normal 1 0 0
      outer loop
         vertex 0.375000002980232 0.100000001490116 0.125000002980232
         vertex 0.375000002980232 0.100000001490116 0.275000002980232
         vertex 0.375000002980232 0 0.125000002980232
      endloop
   endfacet
   facet normal 1 0 0
      outer loop
         vertex 0.375000002980232 0 0.125000002980232
         vertex 0.375000002980232 0.100000001490116 0.275000002980232
         vertex 0.375000002980232 0 0.275000002980232
      endloop
   endfacet
   facet normal 2.22044604925031E-16 0 1
      outer loop
         vertex 0.375000002980232 0.100000001490116 0.275000002980232
         vertex 0.125000002980232 0.100000001490116 0.275000002980232
         vertex 0.375000002980232 0 0.275000002980232
      endloop
   endfacet
   facet normal 2.22044604925031E-16 0 1
      outer loop
         vertex 0.375000002980232 0 0.275000002980232
         vertex 0.125000002980232 0.100000001490116 0.275000002980232
         vertex 0.125000002980232 0 0.275000002980232
      endloop
   endfacet
   facet normal 0 1 0
      outer loop
         vertex 0.125000002980232 0.100000001490116 0.125000002980232
         vertex 0.125000002980232 0.100000001490116 0.275000002980232
         vertex 0.375000002980232 0.100000001490116 0.125000002980232
      endloop
   endfacet
   facet normal 0 1 0
      outer loop
         vertex 0.375000002980232 0.100000001490116 0.125000002980232
         vertex 0.125000002980232 0.100000001490116 0.275000002980232
         vertex 0.375000002980232 0.100000001490116 0.275000002980232
      endloop
   endfacet
   facet normal 0 -1 0
      outer loop
         vertex 0.125000002980232 0 0.275000002980232
         vertex 0.125000002980232 0 0.125000002980232
         vertex 0.375000002980232 0 0.275000002980232
      endloop
   endfacet
   facet normal 0 -1 0
      outer loop
         vertex 0.375000002980232 0 0.275000002980232
         vertex 0.125000002980232 0 0.125000002980232
         vertex 0.375000002980232 0 0.125000002980232
      endloop
   endfacet
endsolid
