<?xml version="1.0" encoding="UTF-8" standalone="no"?>
<!DOCTYPE svg PUBLIC "-//W3C//DTD SVG 1.1//EN"
 "http://www.w3.org/Graphics/SVG/1.1/DTD/svg11.dtd">
<!-- Generated by graphviz version 2.43.0 (0)
 -->
<!-- Title: Foam::hexRef4::hexRef4 Pages: 1 -->
<svg width="338pt" height="172pt"
 viewBox="0.00 0.00 338.00 172.00" xmlns="http://www.w3.org/2000/svg" xmlns:xlink="http://www.w3.org/1999/xlink">
<g id="graph0" class="graph" transform="scale(1 1) rotate(0) translate(4 168)">
<title>Foam::hexRef4::hexRef4</title>
<!-- Node1 -->
<g id="Node000001" class="node">
<title>Node1</title>
<g id="a_Node000001"><a xlink:title=" ">
<polygon fill="#999999" stroke="#666666" points="127,-93.5 0,-93.5 0,-74.5 127,-74.5 127,-93.5"/>
<text text-anchor="middle" x="63.5" y="-81.5" font-family="Helvetica,sans-Serif" font-size="10.00">Foam::hexRef4::hexRef4</text>
</a>
</g>
</g>
<!-- Node2 -->
<g id="Node000002" class="node">
<title>Node2</title>
<g id="a_Node000002"><a xlink:href="classFoam_1_1refinementHistory4.html#a36dc562e4b88e438f48398c44874b51d" target="_top" xlink:title=" ">
<polygon fill="white" stroke="#666666" points="311.5,-164 181.5,-164 181.5,-134 311.5,-134 311.5,-164"/>
<text text-anchor="start" x="189.5" y="-152" font-family="Helvetica,sans-Serif" font-size="10.00">Foam::refinementHistory4</text>
<text text-anchor="middle" x="246.5" y="-141" font-family="Helvetica,sans-Serif" font-size="10.00">::active</text>
</a>
</g>
</g>
<!-- Node1&#45;&gt;Node2 -->
<g id="edge1_Node000001_Node000002" class="edge">
<title>Node1&#45;&gt;Node2</title>
<g id="a_edge1_Node000001_Node000002"><a xlink:title=" ">
<path fill="none" stroke="#63b8ff" d="M85.75,-93.65C105.52,-102.44 135.92,-115.46 163,-125 168.82,-127.05 174.91,-129.06 181.03,-131"/>
<polygon fill="#63b8ff" stroke="#63b8ff" points="180.06,-134.36 190.64,-133.97 182.12,-127.67 180.06,-134.36"/>
</a>
</g>
</g>
<!-- Node3 -->
<g id="Node000003" class="node">
<title>Node3</title>
<g id="a_Node000003"><a xlink:href="classFoam_1_1hexRef4.html#acaa1d0f209f7bca9cdeb1afadb37e98b" target="_top" xlink:title=" ">
<polygon fill="white" stroke="#666666" points="316.5,-115.5 176.5,-115.5 176.5,-96.5 316.5,-96.5 316.5,-115.5"/>
<text text-anchor="middle" x="246.5" y="-103.5" font-family="Helvetica,sans-Serif" font-size="10.00">Foam::hexRef4::checkMesh</text>
</a>
</g>
</g>
<!-- Node1&#45;&gt;Node3 -->
<g id="edge2_Node000001_Node000003" class="edge">
<title>Node1&#45;&gt;Node3</title>
<g id="a_edge2_Node000001_Node000003"><a xlink:title=" ">
<path fill="none" stroke="#63b8ff" d="M127.04,-91.6C139.75,-93.15 153.26,-94.79 166.45,-96.39"/>
<polygon fill="#63b8ff" stroke="#63b8ff" points="166.1,-99.88 176.45,-97.61 166.95,-92.93 166.1,-99.88"/>
</a>
</g>
</g>
<!-- Node4 -->
<g id="Node000004" class="node">
<title>Node4</title>
<g id="a_Node000004"><a xlink:href="classFoam_1_1hexRef4.html#a9841e45399611502be4a293dc87ee672" target="_top" xlink:title=" ">
<polygon fill="white" stroke="#666666" points="330,-78 163,-78 163,-48 330,-48 330,-78"/>
<text text-anchor="start" x="171" y="-66" font-family="Helvetica,sans-Serif" font-size="10.00">Foam::hexRef4::checkRefinement</text>
<text text-anchor="middle" x="246.5" y="-55" font-family="Helvetica,sans-Serif" font-size="10.00">Levels</text>
</a>
</g>
</g>
<!-- Node1&#45;&gt;Node4 -->
<g id="edge3_Node000001_Node000004" class="edge">
<title>Node1&#45;&gt;Node4</title>
<g id="a_edge3_Node000001_Node000004"><a xlink:title=" ">
<path fill="none" stroke="#63b8ff" d="M127.04,-76.74C135.34,-75.78 143.99,-74.78 152.66,-73.77"/>
<polygon fill="#63b8ff" stroke="#63b8ff" points="153.31,-77.22 162.84,-72.59 152.51,-70.27 153.31,-77.22"/>
</a>
</g>
</g>
<!-- Node5 -->
<g id="Node000005" class="node">
<title>Node5</title>
<g id="a_Node000005"><a xlink:href="classFoam_1_1refinementHistory4.html#a98422c3dd4831979709d1f366959e822" target="_top" xlink:title=" ">
<polygon fill="white" stroke="#666666" points="311.5,-30 181.5,-30 181.5,0 311.5,0 311.5,-30"/>
<text text-anchor="start" x="189.5" y="-18" font-family="Helvetica,sans-Serif" font-size="10.00">Foam::refinementHistory4</text>
<text text-anchor="middle" x="246.5" y="-7" font-family="Helvetica,sans-Serif" font-size="10.00">::visibleCells</text>
</a>
</g>
</g>
<!-- Node1&#45;&gt;Node5 -->
<g id="edge4_Node000001_Node000005" class="edge">
<title>Node1&#45;&gt;Node5</title>
<g id="a_edge4_Node000001_Node000005"><a xlink:title=" ">
<path fill="none" stroke="#63b8ff" d="M83.4,-74.36C102.98,-64.62 134.63,-49.54 163,-39 168.46,-36.97 174.18,-35 179.95,-33.12"/>
<polygon fill="#63b8ff" stroke="#63b8ff" points="181.19,-36.4 189.67,-30.04 179.08,-29.72 181.19,-36.4"/>
</a>
</g>
</g>
</g>
</svg>
