<?xml version="1.0" encoding="UTF-8" standalone="no"?>
<!DOCTYPE svg PUBLIC "-//W3C//DTD SVG 1.1//EN"
 "http://www.w3.org/Graphics/SVG/1.1/DTD/svg11.dtd">
<!-- Generated by graphviz version 2.43.0 (0)
 -->
<!-- Title: Foam::hexRef4::hexRef4 Pages: 1 -->
<svg width="338pt" height="220pt"
 viewBox="0.00 0.00 338.00 220.00" xmlns="http://www.w3.org/2000/svg" xmlns:xlink="http://www.w3.org/1999/xlink">
<g id="graph0" class="graph" transform="scale(1 1) rotate(0) translate(4 216)">
<title>Foam::hexRef4::hexRef4</title>
<!-- Node1 -->
<g id="Node000001" class="node">
<title>Node1</title>
<g id="a_Node000001"><a xlink:title=" ">
<polygon fill="#999999" stroke="#666666" points="127,-120.5 0,-120.5 0,-101.5 127,-101.5 127,-120.5"/>
<text text-anchor="middle" x="63.5" y="-108.5" font-family="Helvetica,sans-Serif" font-size="10.00">Foam::hexRef4::hexRef4</text>
</a>
</g>
</g>
<!-- Node2 -->
<g id="Node000002" class="node">
<title>Node2</title>
<g id="a_Node000002"><a xlink:href="classFoam_1_1refinementHistory4.html#a36dc562e4b88e438f48398c44874b51d" target="_top" xlink:title=" ">
<polygon fill="white" stroke="#666666" points="311.5,-212 181.5,-212 181.5,-182 311.5,-182 311.5,-212"/>
<text text-anchor="start" x="189.5" y="-200" font-family="Helvetica,sans-Serif" font-size="10.00">Foam::refinementHistory4</text>
<text text-anchor="middle" x="246.5" y="-189" font-family="Helvetica,sans-Serif" font-size="10.00">::active</text>
</a>
</g>
</g>
<!-- Node1&#45;&gt;Node2 -->
<g id="edge1_Node000001_Node000002" class="edge">
<title>Node1&#45;&gt;Node2</title>
<g id="a_edge1_Node000001_Node000002"><a xlink:title=" ">
<path fill="none" stroke="#63b8ff" d="M77.22,-120.65C95.39,-134.04 130.19,-158.25 163,-173 167.36,-174.96 171.93,-176.81 176.57,-178.54"/>
<polygon fill="#63b8ff" stroke="#63b8ff" points="175.59,-181.9 186.19,-181.92 177.92,-175.3 175.59,-181.9"/>
</a>
</g>
</g>
<!-- Node3 -->
<g id="Node000003" class="node">
<title>Node3</title>
<g id="a_Node000003"><a xlink:href="classFoam_1_1hexRef4.html#acaa1d0f209f7bca9cdeb1afadb37e98b" target="_top" xlink:title=" ">
<polygon fill="white" stroke="#666666" points="316.5,-163.5 176.5,-163.5 176.5,-144.5 316.5,-144.5 316.5,-163.5"/>
<text text-anchor="middle" x="246.5" y="-151.5" font-family="Helvetica,sans-Serif" font-size="10.00">Foam::hexRef4::checkMesh</text>
</a>
</g>
</g>
<!-- Node1&#45;&gt;Node3 -->
<g id="edge2_Node000001_Node000003" class="edge">
<title>Node1&#45;&gt;Node3</title>
<g id="a_edge2_Node000001_Node000003"><a xlink:title=" ">
<path fill="none" stroke="#63b8ff" d="M103.3,-120.57C121.43,-125.02 143.3,-130.33 163,-135 172.87,-137.34 183.41,-139.8 193.55,-142.14"/>
<polygon fill="#63b8ff" stroke="#63b8ff" points="192.98,-145.6 203.51,-144.44 194.55,-138.78 192.98,-145.6"/>
</a>
</g>
</g>
<!-- Node4 -->
<g id="Node000004" class="node">
<title>Node4</title>
<g id="a_Node000004"><a xlink:href="classFoam_1_1hexRef4.html#a9841e45399611502be4a293dc87ee672" target="_top" xlink:title=" ">
<polygon fill="white" stroke="#666666" points="330,-126 163,-126 163,-96 330,-96 330,-126"/>
<text text-anchor="start" x="171" y="-114" font-family="Helvetica,sans-Serif" font-size="10.00">Foam::hexRef4::checkRefinement</text>
<text text-anchor="middle" x="246.5" y="-103" font-family="Helvetica,sans-Serif" font-size="10.00">Levels</text>
</a>
</g>
</g>
<!-- Node1&#45;&gt;Node4 -->
<g id="edge3_Node000001_Node000004" class="edge">
<title>Node1&#45;&gt;Node4</title>
<g id="a_edge3_Node000001_Node000004"><a xlink:title=" ">
<path fill="none" stroke="#63b8ff" d="M127.04,-111C135.34,-111 143.99,-111 152.66,-111"/>
<polygon fill="#63b8ff" stroke="#63b8ff" points="152.84,-114.5 162.84,-111 152.84,-107.5 152.84,-114.5"/>
</a>
</g>
</g>
<!-- Node5 -->
<g id="Node000005" class="node">
<title>Node5</title>
<g id="a_Node000005"><a xlink:href="classFoam_1_1refinementHistory4.html#af43f161f17af794e24d585e3c999d5fb" target="_top" xlink:title=" ">
<polygon fill="white" stroke="#666666" points="311.5,-78 181.5,-78 181.5,-48 311.5,-48 311.5,-78"/>
<text text-anchor="start" x="189.5" y="-66" font-family="Helvetica,sans-Serif" font-size="10.00">Foam::refinementHistory4</text>
<text text-anchor="middle" x="246.5" y="-55" font-family="Helvetica,sans-Serif" font-size="10.00">::read</text>
</a>
</g>
</g>
<!-- Node1&#45;&gt;Node5 -->
<g id="edge4_Node000001_Node000005" class="edge">
<title>Node1&#45;&gt;Node5</title>
<g id="a_edge4_Node000001_Node000005"><a xlink:title=" ">
<path fill="none" stroke="#63b8ff" d="M100.69,-101.4C123.01,-95.48 152.33,-87.71 178.74,-80.7"/>
<polygon fill="#63b8ff" stroke="#63b8ff" points="179.93,-84.01 188.7,-78.06 178.14,-77.24 179.93,-84.01"/>
</a>
</g>
</g>
<!-- Node6 -->
<g id="Node000006" class="node">
<title>Node6</title>
<g id="a_Node000006"><a xlink:href="classFoam_1_1refinementHistory4.html#a98422c3dd4831979709d1f366959e822" target="_top" xlink:title=" ">
<polygon fill="white" stroke="#666666" points="311.5,-30 181.5,-30 181.5,0 311.5,0 311.5,-30"/>
<text text-anchor="start" x="189.5" y="-18" font-family="Helvetica,sans-Serif" font-size="10.00">Foam::refinementHistory4</text>
<text text-anchor="middle" x="246.5" y="-7" font-family="Helvetica,sans-Serif" font-size="10.00">::visibleCells</text>
</a>
</g>
</g>
<!-- Node1&#45;&gt;Node6 -->
<g id="edge5_Node000001_Node000006" class="edge">
<title>Node1&#45;&gt;Node6</title>
<g id="a_edge5_Node000001_Node000006"><a xlink:title=" ">
<path fill="none" stroke="#63b8ff" d="M74.91,-101.45C92.06,-86.2 127.84,-56.3 163,-39 166.84,-37.11 170.86,-35.34 174.96,-33.7"/>
<polygon fill="#63b8ff" stroke="#63b8ff" points="176.52,-36.85 184.65,-30.06 174.06,-30.3 176.52,-36.85"/>
</a>
</g>
</g>
</g>
</svg>
