<?xml version="1.0" encoding="UTF-8" standalone="no"?>
<!DOCTYPE svg PUBLIC "-//W3C//DTD SVG 1.1//EN"
 "http://www.w3.org/Graphics/SVG/1.1/DTD/svg11.dtd">
<!-- Generated by graphviz version 2.43.0 (0)
 -->
<!-- Title: Foam::hexRef4::write Pages: 1 -->
<svg width="298pt" height="86pt"
 viewBox="0.00 0.00 298.00 86.00" xmlns="http://www.w3.org/2000/svg" xmlns:xlink="http://www.w3.org/1999/xlink">
<g id="graph0" class="graph" transform="scale(1 1) rotate(0) translate(4 82)">
<title>Foam::hexRef4::write</title>
<!-- Node1 -->
<g id="Node000001" class="node">
<title>Node1</title>
<g id="a_Node000001"><a xlink:title=" ">
<polygon fill="#999999" stroke="#666666" points="290,-48.5 179,-48.5 179,-29.5 290,-29.5 290,-48.5"/>
<text text-anchor="middle" x="234.5" y="-36.5" font-family="Helvetica,sans-Serif" font-size="10.00">Foam::hexRef4::write</text>
</a>
</g>
</g>
<!-- Node2 -->
<g id="Node000002" class="node">
<title>Node2</title>
<g id="a_Node000002"><a xlink:href="classFoam_1_1fvMeshTopoChangers_1_1multiFieldRefiner2D.html#a4b8e89d9dca3825962bd53ac9c2a33a9" target="_top" xlink:title=" ">
<polygon fill="white" stroke="#666666" points="143,-78 0,-78 0,-48 143,-48 143,-78"/>
<text text-anchor="start" x="8" y="-66" font-family="Helvetica,sans-Serif" font-size="10.00">Foam::fvMeshTopoChangers</text>
<text text-anchor="middle" x="71.5" y="-55" font-family="Helvetica,sans-Serif" font-size="10.00">::multiFieldRefiner2D::write</text>
</a>
</g>
</g>
<!-- Node1&#45;&gt;Node2 -->
<g id="edge1_Node000001_Node000002" class="edge">
<title>Node1&#45;&gt;Node2</title>
<g id="a_edge1_Node000001_Node000002"><a xlink:title=" ">
<path fill="none" stroke="#63b8ff" d="M168.85,-48.64C160.42,-49.89 151.75,-51.19 143.22,-52.46"/>
<polygon fill="#63b8ff" stroke="#63b8ff" points="169.62,-52.06 178.99,-47.13 168.59,-45.14 169.62,-52.06"/>
</a>
</g>
</g>
<!-- Node3 -->
<g id="Node000003" class="node">
<title>Node3</title>
<g id="a_Node000003"><a xlink:href="classFoam_1_1fvMeshTopoChangers_1_1refiner2D.html#a5f2fa7deaa442cbf768587f3210fddaf" target="_top" xlink:title=" ">
<polygon fill="white" stroke="#666666" points="143,-30 0,-30 0,0 143,0 143,-30"/>
<text text-anchor="start" x="8" y="-18" font-family="Helvetica,sans-Serif" font-size="10.00">Foam::fvMeshTopoChangers</text>
<text text-anchor="middle" x="71.5" y="-7" font-family="Helvetica,sans-Serif" font-size="10.00">::refiner2D::write</text>
</a>
</g>
</g>
<!-- Node1&#45;&gt;Node3 -->
<g id="edge2_Node000001_Node000003" class="edge">
<title>Node1&#45;&gt;Node3</title>
<g id="a_edge2_Node000001_Node000003"><a xlink:title=" ">
<path fill="none" stroke="#63b8ff" d="M168.85,-29.36C160.42,-28.11 151.75,-26.81 143.22,-25.54"/>
<polygon fill="#63b8ff" stroke="#63b8ff" points="168.59,-32.86 178.99,-30.87 169.62,-25.94 168.59,-32.86"/>
</a>
</g>
</g>
</g>
</svg>
