<?xml version="1.0" encoding="UTF-8" standalone="no"?>
<!DOCTYPE svg PUBLIC "-//W3C//DTD SVG 1.1//EN"
 "http://www.w3.org/Graphics/SVG/1.1/DTD/svg11.dtd">
<!-- Generated by graphviz version 2.43.0 (0)
 -->
<!-- Title: Foam::hexRef4::hexRef4 Pages: 1 -->
<svg width="338pt" height="76pt"
 viewBox="0.00 0.00 338.00 75.50" xmlns="http://www.w3.org/2000/svg" xmlns:xlink="http://www.w3.org/1999/xlink">
<g id="graph0" class="graph" transform="scale(1 1) rotate(0) translate(4 71.5)">
<title>Foam::hexRef4::hexRef4</title>
<!-- Node1 -->
<g id="Node000001" class="node">
<title>Node1</title>
<g id="a_Node000001"><a xlink:title=" ">
<polygon fill="#999999" stroke="#666666" points="127,-45.5 0,-45.5 0,-26.5 127,-26.5 127,-45.5"/>
<text text-anchor="middle" x="63.5" y="-33.5" font-family="Helvetica,sans-Serif" font-size="10.00">Foam::hexRef4::hexRef4</text>
</a>
</g>
</g>
<!-- Node2 -->
<g id="Node000002" class="node">
<title>Node2</title>
<g id="a_Node000002"><a xlink:href="classFoam_1_1hexRef4.html#acaa1d0f209f7bca9cdeb1afadb37e98b" target="_top" xlink:title=" ">
<polygon fill="white" stroke="#666666" points="316.5,-67.5 176.5,-67.5 176.5,-48.5 316.5,-48.5 316.5,-67.5"/>
<text text-anchor="middle" x="246.5" y="-55.5" font-family="Helvetica,sans-Serif" font-size="10.00">Foam::hexRef4::checkMesh</text>
</a>
</g>
</g>
<!-- Node1&#45;&gt;Node2 -->
<g id="edge1_Node000001_Node000002" class="edge">
<title>Node1&#45;&gt;Node2</title>
<g id="a_edge1_Node000001_Node000002"><a xlink:title=" ">
<path fill="none" stroke="#63b8ff" d="M127.04,-43.6C139.75,-45.15 153.26,-46.79 166.45,-48.39"/>
<polygon fill="#63b8ff" stroke="#63b8ff" points="166.1,-51.88 176.45,-49.61 166.95,-44.93 166.1,-51.88"/>
</a>
</g>
</g>
<!-- Node3 -->
<g id="Node000003" class="node">
<title>Node3</title>
<g id="a_Node000003"><a xlink:href="classFoam_1_1hexRef4.html#a9841e45399611502be4a293dc87ee672" target="_top" xlink:title=" ">
<polygon fill="white" stroke="#666666" points="330,-30 163,-30 163,0 330,0 330,-30"/>
<text text-anchor="start" x="171" y="-18" font-family="Helvetica,sans-Serif" font-size="10.00">Foam::hexRef4::checkRefinement</text>
<text text-anchor="middle" x="246.5" y="-7" font-family="Helvetica,sans-Serif" font-size="10.00">Levels</text>
</a>
</g>
</g>
<!-- Node1&#45;&gt;Node3 -->
<g id="edge2_Node000001_Node000003" class="edge">
<title>Node1&#45;&gt;Node3</title>
<g id="a_edge2_Node000001_Node000003"><a xlink:title=" ">
<path fill="none" stroke="#63b8ff" d="M127.04,-28.74C135.34,-27.78 143.99,-26.78 152.66,-25.77"/>
<polygon fill="#63b8ff" stroke="#63b8ff" points="153.31,-29.22 162.84,-24.59 152.51,-22.27 153.31,-29.22"/>
</a>
</g>
</g>
</g>
</svg>
