<?xml version="1.0" encoding="UTF-8" standalone="no"?>
<!DOCTYPE svg PUBLIC "-//W3C//DTD SVG 1.1//EN"
 "http://www.w3.org/Graphics/SVG/1.1/DTD/svg11.dtd">
<!-- Generated by graphviz version 2.43.0 (0)
 -->
<!-- Title: Foam::refinementHistory4Constraint::add Pages: 1 -->
<svg width="658pt" height="81pt"
 viewBox="0.00 0.00 658.00 81.00" xmlns="http://www.w3.org/2000/svg" xmlns:xlink="http://www.w3.org/1999/xlink">
<g id="graph0" class="graph" transform="scale(1 1) rotate(0) translate(4 77)">
<title>Foam::refinementHistory4Constraint::add</title>
<!-- Node1 -->
<g id="Node000001" class="node">
<title>Node1</title>
<g id="a_Node000001"><a xlink:title=" ">
<polygon fill="#999999" stroke="#666666" points="130,-51 0,-51 0,-21 130,-21 130,-51"/>
<text text-anchor="start" x="8" y="-39" font-family="Helvetica,sans-Serif" font-size="10.00">Foam::refinementHistory4</text>
<text text-anchor="middle" x="65" y="-28" font-family="Helvetica,sans-Serif" font-size="10.00">Constraint::add</text>
</a>
</g>
</g>
<!-- Node2 -->
<g id="Node000002" class="node">
<title>Node2</title>
<g id="a_Node000002"><a xlink:href="classFoam_1_1refinementHistory4.html#a36dc562e4b88e438f48398c44874b51d" target="_top" xlink:title=" ">
<polygon fill="white" stroke="#666666" points="307,-73 177,-73 177,-43 307,-43 307,-73"/>
<text text-anchor="start" x="185" y="-61" font-family="Helvetica,sans-Serif" font-size="10.00">Foam::refinementHistory4</text>
<text text-anchor="middle" x="242" y="-50" font-family="Helvetica,sans-Serif" font-size="10.00">::active</text>
</a>
</g>
</g>
<!-- Node1&#45;&gt;Node2 -->
<g id="edge1_Node000001_Node000002" class="edge">
<title>Node1&#45;&gt;Node2</title>
<g id="a_edge1_Node000001_Node000002"><a xlink:title=" ">
<path fill="none" stroke="#63b8ff" d="M130.17,-44.07C142.06,-45.56 154.57,-47.13 166.73,-48.66"/>
<polygon fill="#63b8ff" stroke="#63b8ff" points="166.48,-52.16 176.84,-49.93 167.35,-45.21 166.48,-52.16"/>
</a>
</g>
</g>
<!-- Node3 -->
<g id="Node000003" class="node">
<title>Node3</title>
<g id="a_Node000003"><a xlink:href="classFoam_1_1refinementHistory4.html#a1cea1588a4ec11ca25e3298d400c2eb1" target="_top" xlink:title=" ">
<polygon fill="white" stroke="#666666" points="318,-24.5 166,-24.5 166,-5.5 318,-5.5 318,-24.5"/>
<text text-anchor="middle" x="242" y="-12.5" font-family="Helvetica,sans-Serif" font-size="10.00">Foam::refinementHistory4::add</text>
</a>
</g>
</g>
<!-- Node1&#45;&gt;Node3 -->
<g id="edge2_Node000001_Node000003" class="edge">
<title>Node1&#45;&gt;Node3</title>
<g id="a_edge2_Node000001_Node000003"><a xlink:title=" ">
<path fill="none" stroke="#63b8ff" d="M130.17,-28.3C138.51,-27.3 147.16,-26.26 155.78,-25.23"/>
<polygon fill="#63b8ff" stroke="#63b8ff" points="156.35,-28.68 165.87,-24.02 155.52,-21.73 156.35,-28.68"/>
</a>
</g>
</g>
<!-- Node4 -->
<g id="Node000004" class="node">
<title>Node4</title>
<g id="a_Node000004"><a xlink:href="classFoam_1_1refinementHistory4.html#a1e1622b373ed13946cab67446b177411" target="_top" xlink:title=" ">
<polygon fill="white" stroke="#666666" points="484,-30 354,-30 354,0 484,0 484,-30"/>
<text text-anchor="start" x="362" y="-18" font-family="Helvetica,sans-Serif" font-size="10.00">Foam::refinementHistory4</text>
<text text-anchor="middle" x="419" y="-7" font-family="Helvetica,sans-Serif" font-size="10.00">::markCommonCells</text>
</a>
</g>
</g>
<!-- Node3&#45;&gt;Node4 -->
<g id="edge3_Node000003_Node000004" class="edge">
<title>Node3&#45;&gt;Node4</title>
<g id="a_edge3_Node000003_Node000004"><a xlink:title=" ">
<path fill="none" stroke="#63b8ff" d="M318.23,-15C326.66,-15 335.25,-15 343.67,-15"/>
<polygon fill="#63b8ff" stroke="#63b8ff" points="343.83,-18.5 353.83,-15 343.83,-11.5 343.83,-18.5"/>
</a>
</g>
</g>
<!-- Node5 -->
<g id="Node000005" class="node">
<title>Node5</title>
<g id="a_Node000005"><a xlink:href="classFoam_1_1refinementHistory4.html#a80ec8f8d7ee18a579540efbc0e3259dd" target="_top" xlink:title=" ">
<polygon fill="white" stroke="#666666" points="650,-30 520,-30 520,0 650,0 650,-30"/>
<text text-anchor="start" x="528" y="-18" font-family="Helvetica,sans-Serif" font-size="10.00">Foam::refinementHistory4</text>
<text text-anchor="middle" x="585" y="-7" font-family="Helvetica,sans-Serif" font-size="10.00">::mark</text>
</a>
</g>
</g>
<!-- Node4&#45;&gt;Node5 -->
<g id="edge4_Node000004_Node000005" class="edge">
<title>Node4&#45;&gt;Node5</title>
<g id="a_edge4_Node000004_Node000005"><a xlink:title=" ">
<path fill="none" stroke="#63b8ff" d="M484.35,-15C492.64,-15 501.19,-15 509.62,-15"/>
<polygon fill="#63b8ff" stroke="#63b8ff" points="509.84,-18.5 519.84,-15 509.84,-11.5 509.84,-18.5"/>
</a>
</g>
</g>
<!-- Node5&#45;&gt;Node5 -->
<g id="edge5_Node000005_Node000005" class="edge">
<title>Node5&#45;&gt;Node5</title>
<g id="a_edge5_Node000005_Node000005"><a xlink:title=" ">
<path fill="none" stroke="#63b8ff" d="M555.82,-30.28C549.34,-39.41 559.06,-48 585,-48 600.4,-48 610.09,-44.97 614.06,-40.6"/>
<polygon fill="#63b8ff" stroke="#63b8ff" points="617.56,-40.32 614.18,-30.28 610.56,-40.23 617.56,-40.32"/>
</a>
</g>
</g>
</g>
</svg>
