<?xml version="1.0" encoding="UTF-8" standalone="no"?>
<!DOCTYPE svg PUBLIC "-//W3C//DTD SVG 1.1//EN"
 "http://www.w3.org/Graphics/SVG/1.1/DTD/svg11.dtd">
<!-- Generated by graphviz version 2.43.0 (0)
 -->
<!-- Title: Foam::refinementHistory4Constraint::apply Pages: 1 -->
<svg width="636pt" height="86pt"
 viewBox="0.00 0.00 636.00 86.00" xmlns="http://www.w3.org/2000/svg" xmlns:xlink="http://www.w3.org/1999/xlink">
<g id="graph0" class="graph" transform="scale(1 1) rotate(0) translate(4 82)">
<title>Foam::refinementHistory4Constraint::apply</title>
<!-- Node1 -->
<g id="Node000001" class="node">
<title>Node1</title>
<g id="a_Node000001"><a xlink:title=" ">
<polygon fill="#999999" stroke="#666666" points="130,-54 0,-54 0,-24 130,-24 130,-54"/>
<text text-anchor="start" x="8" y="-42" font-family="Helvetica,sans-Serif" font-size="10.00">Foam::refinementHistory4</text>
<text text-anchor="middle" x="65" y="-31" font-family="Helvetica,sans-Serif" font-size="10.00">Constraint::apply</text>
</a>
</g>
</g>
<!-- Node2 -->
<g id="Node000002" class="node">
<title>Node2</title>
<g id="a_Node000002"><a xlink:href="classFoam_1_1refinementHistory4.html#a36dc562e4b88e438f48398c44874b51d" target="_top" xlink:title=" ">
<polygon fill="white" stroke="#666666" points="296,-78 166,-78 166,-48 296,-48 296,-78"/>
<text text-anchor="start" x="174" y="-66" font-family="Helvetica,sans-Serif" font-size="10.00">Foam::refinementHistory4</text>
<text text-anchor="middle" x="231" y="-55" font-family="Helvetica,sans-Serif" font-size="10.00">::active</text>
</a>
</g>
</g>
<!-- Node1&#45;&gt;Node2 -->
<g id="edge1_Node000001_Node000002" class="edge">
<title>Node1&#45;&gt;Node2</title>
<g id="a_edge1_Node000001_Node000002"><a xlink:title=" ">
<path fill="none" stroke="#63b8ff" d="M130.35,-48.42C138.73,-49.64 147.37,-50.91 155.9,-52.16"/>
<polygon fill="#63b8ff" stroke="#63b8ff" points="155.44,-55.63 165.84,-53.61 156.45,-48.7 155.44,-55.63"/>
</a>
</g>
</g>
<!-- Node3 -->
<g id="Node000003" class="node">
<title>Node3</title>
<g id="a_Node000003"><a xlink:href="classFoam_1_1refinementHistory4.html#ac46b7ce994f28194874ad4bb351d9f43" target="_top" xlink:title=" ">
<polygon fill="white" stroke="#666666" points="296,-30 166,-30 166,0 296,0 296,-30"/>
<text text-anchor="start" x="174" y="-18" font-family="Helvetica,sans-Serif" font-size="10.00">Foam::refinementHistory4</text>
<text text-anchor="middle" x="231" y="-7" font-family="Helvetica,sans-Serif" font-size="10.00">::apply</text>
</a>
</g>
</g>
<!-- Node1&#45;&gt;Node3 -->
<g id="edge2_Node000001_Node000003" class="edge">
<title>Node1&#45;&gt;Node3</title>
<g id="a_edge2_Node000001_Node000003"><a xlink:title=" ">
<path fill="none" stroke="#63b8ff" d="M130.35,-29.58C138.73,-28.36 147.37,-27.09 155.9,-25.84"/>
<polygon fill="#63b8ff" stroke="#63b8ff" points="156.45,-29.3 165.84,-24.39 155.44,-22.37 156.45,-29.3"/>
</a>
</g>
</g>
<!-- Node4 -->
<g id="Node000004" class="node">
<title>Node4</title>
<g id="a_Node000004"><a xlink:href="classFoam_1_1refinementHistory4.html#a1e1622b373ed13946cab67446b177411" target="_top" xlink:title=" ">
<polygon fill="white" stroke="#666666" points="462,-30 332,-30 332,0 462,0 462,-30"/>
<text text-anchor="start" x="340" y="-18" font-family="Helvetica,sans-Serif" font-size="10.00">Foam::refinementHistory4</text>
<text text-anchor="middle" x="397" y="-7" font-family="Helvetica,sans-Serif" font-size="10.00">::markCommonCells</text>
</a>
</g>
</g>
<!-- Node3&#45;&gt;Node4 -->
<g id="edge3_Node000003_Node000004" class="edge">
<title>Node3&#45;&gt;Node4</title>
<g id="a_edge3_Node000003_Node000004"><a xlink:title=" ">
<path fill="none" stroke="#63b8ff" d="M296.35,-15C304.64,-15 313.19,-15 321.62,-15"/>
<polygon fill="#63b8ff" stroke="#63b8ff" points="321.84,-18.5 331.84,-15 321.84,-11.5 321.84,-18.5"/>
</a>
</g>
</g>
<!-- Node5 -->
<g id="Node000005" class="node">
<title>Node5</title>
<g id="a_Node000005"><a xlink:href="classFoam_1_1refinementHistory4.html#a80ec8f8d7ee18a579540efbc0e3259dd" target="_top" xlink:title=" ">
<polygon fill="white" stroke="#666666" points="628,-30 498,-30 498,0 628,0 628,-30"/>
<text text-anchor="start" x="506" y="-18" font-family="Helvetica,sans-Serif" font-size="10.00">Foam::refinementHistory4</text>
<text text-anchor="middle" x="563" y="-7" font-family="Helvetica,sans-Serif" font-size="10.00">::mark</text>
</a>
</g>
</g>
<!-- Node4&#45;&gt;Node5 -->
<g id="edge4_Node000004_Node000005" class="edge">
<title>Node4&#45;&gt;Node5</title>
<g id="a_edge4_Node000004_Node000005"><a xlink:title=" ">
<path fill="none" stroke="#63b8ff" d="M462.35,-15C470.64,-15 479.19,-15 487.62,-15"/>
<polygon fill="#63b8ff" stroke="#63b8ff" points="487.84,-18.5 497.84,-15 487.84,-11.5 487.84,-18.5"/>
</a>
</g>
</g>
<!-- Node5&#45;&gt;Node5 -->
<g id="edge5_Node000005_Node000005" class="edge">
<title>Node5&#45;&gt;Node5</title>
<g id="a_edge5_Node000005_Node000005"><a xlink:title=" ">
<path fill="none" stroke="#63b8ff" d="M533.82,-30.28C527.34,-39.41 537.06,-48 563,-48 578.4,-48 588.09,-44.97 592.06,-40.6"/>
<polygon fill="#63b8ff" stroke="#63b8ff" points="595.56,-40.32 592.18,-30.28 588.56,-40.23 595.56,-40.32"/>
</a>
</g>
</g>
</g>
</svg>
