<?xml version="1.0" encoding="UTF-8" standalone="no"?>
<!DOCTYPE svg PUBLIC "-//W3C//DTD SVG 1.1//EN"
 "http://www.w3.org/Graphics/SVG/1.1/DTD/svg11.dtd">
<!-- Generated by graphviz version 2.43.0 (0)
 -->
<!-- Title: Foam::refinementHistory4::apply Pages: 1 -->
<svg width="470pt" height="56pt"
 viewBox="0.00 0.00 470.00 56.00" xmlns="http://www.w3.org/2000/svg" xmlns:xlink="http://www.w3.org/1999/xlink">
<g id="graph0" class="graph" transform="scale(1 1) rotate(0) translate(4 52)">
<title>Foam::refinementHistory4::apply</title>
<!-- Node1 -->
<g id="Node000001" class="node">
<title>Node1</title>
<g id="a_Node000001"><a xlink:title=" ">
<polygon fill="#999999" stroke="#666666" points="130,-30 0,-30 0,0 130,0 130,-30"/>
<text text-anchor="start" x="8" y="-18" font-family="Helvetica,sans-Serif" font-size="10.00">Foam::refinementHistory4</text>
<text text-anchor="middle" x="65" y="-7" font-family="Helvetica,sans-Serif" font-size="10.00">::apply</text>
</a>
</g>
</g>
<!-- Node2 -->
<g id="Node000002" class="node">
<title>Node2</title>
<g id="a_Node000002"><a xlink:href="classFoam_1_1refinementHistory4.html#a1e1622b373ed13946cab67446b177411" target="_top" xlink:title=" ">
<polygon fill="white" stroke="#666666" points="296,-30 166,-30 166,0 296,0 296,-30"/>
<text text-anchor="start" x="174" y="-18" font-family="Helvetica,sans-Serif" font-size="10.00">Foam::refinementHistory4</text>
<text text-anchor="middle" x="231" y="-7" font-family="Helvetica,sans-Serif" font-size="10.00">::markCommonCells</text>
</a>
</g>
</g>
<!-- Node1&#45;&gt;Node2 -->
<g id="edge1_Node000001_Node000002" class="edge">
<title>Node1&#45;&gt;Node2</title>
<g id="a_edge1_Node000001_Node000002"><a xlink:title=" ">
<path fill="none" stroke="#63b8ff" d="M130.35,-15C138.64,-15 147.19,-15 155.62,-15"/>
<polygon fill="#63b8ff" stroke="#63b8ff" points="155.84,-18.5 165.84,-15 155.84,-11.5 155.84,-18.5"/>
</a>
</g>
</g>
<!-- Node3 -->
<g id="Node000003" class="node">
<title>Node3</title>
<g id="a_Node000003"><a xlink:href="classFoam_1_1refinementHistory4.html#a80ec8f8d7ee18a579540efbc0e3259dd" target="_top" xlink:title=" ">
<polygon fill="white" stroke="#666666" points="462,-30 332,-30 332,0 462,0 462,-30"/>
<text text-anchor="start" x="340" y="-18" font-family="Helvetica,sans-Serif" font-size="10.00">Foam::refinementHistory4</text>
<text text-anchor="middle" x="397" y="-7" font-family="Helvetica,sans-Serif" font-size="10.00">::mark</text>
</a>
</g>
</g>
<!-- Node2&#45;&gt;Node3 -->
<g id="edge2_Node000002_Node000003" class="edge">
<title>Node2&#45;&gt;Node3</title>
<g id="a_edge2_Node000002_Node000003"><a xlink:title=" ">
<path fill="none" stroke="#63b8ff" d="M296.35,-15C304.64,-15 313.19,-15 321.62,-15"/>
<polygon fill="#63b8ff" stroke="#63b8ff" points="321.84,-18.5 331.84,-15 321.84,-11.5 321.84,-18.5"/>
</a>
</g>
</g>
<!-- Node3&#45;&gt;Node3 -->
<g id="edge3_Node000003_Node000003" class="edge">
<title>Node3&#45;&gt;Node3</title>
<g id="a_edge3_Node000003_Node000003"><a xlink:title=" ">
<path fill="none" stroke="#63b8ff" d="M367.82,-30.28C361.34,-39.41 371.06,-48 397,-48 412.4,-48 422.09,-44.97 426.06,-40.6"/>
<polygon fill="#63b8ff" stroke="#63b8ff" points="429.56,-40.32 426.18,-30.28 422.56,-40.23 429.56,-40.32"/>
</a>
</g>
</g>
</g>
</svg>
