<?xml version="1.0" encoding="UTF-8" standalone="no"?>
<!DOCTYPE svg PUBLIC "-//W3C//DTD SVG 1.1//EN"
 "http://www.w3.org/Graphics/SVG/1.1/DTD/svg11.dtd">
<!-- Generated by graphviz version 2.43.0 (0)
 -->
<!-- Title: Foam::refinementHistory4::visibleCells Pages: 1 -->
<svg width="375pt" height="138pt"
 viewBox="0.00 0.00 375.00 138.00" xmlns="http://www.w3.org/2000/svg" xmlns:xlink="http://www.w3.org/1999/xlink">
<g id="graph0" class="graph" transform="scale(1 1) rotate(0) translate(4 134)">
<title>Foam::refinementHistory4::visibleCells</title>
<!-- Node1 -->
<g id="Node000001" class="node">
<title>Node1</title>
<g id="a_Node000001"><a xlink:title=" ">
<polygon fill="#999999" stroke="#666666" points="367,-79.5 237,-79.5 237,-49.5 367,-49.5 367,-79.5"/>
<text text-anchor="start" x="245" y="-67.5" font-family="Helvetica,sans-Serif" font-size="10.00">Foam::refinementHistory4</text>
<text text-anchor="middle" x="302" y="-56.5" font-family="Helvetica,sans-Serif" font-size="10.00">::visibleCells</text>
</a>
</g>
</g>
<!-- Node2 -->
<g id="Node000002" class="node">
<title>Node2</title>
<g id="a_Node000002"><a xlink:href="classFoam_1_1hexRef4.html#aa7678ed5c6c3f67cc6439d0389ef0551" target="_top" xlink:title=" ">
<polygon fill="white" stroke="#666666" points="201,-130 74,-130 74,-111 201,-111 201,-130"/>
<text text-anchor="middle" x="137.5" y="-118" font-family="Helvetica,sans-Serif" font-size="10.00">Foam::hexRef4::hexRef4</text>
</a>
</g>
</g>
<!-- Node1&#45;&gt;Node2 -->
<g id="edge1_Node000001_Node000002" class="edge">
<title>Node1&#45;&gt;Node2</title>
<g id="a_edge1_Node000001_Node000002"><a xlink:title=" ">
<path fill="none" stroke="#63b8ff" d="M253.8,-83.36C237.21,-89.74 218.38,-96.71 201,-102.5 192.22,-105.43 182.65,-108.33 173.7,-110.92"/>
<polygon fill="#63b8ff" stroke="#63b8ff" points="255.22,-86.56 263.28,-79.68 252.69,-80.03 255.22,-86.56"/>
</a>
</g>
</g>
<!-- Node3 -->
<g id="Node000003" class="node">
<title>Node3</title>
<g id="a_Node000003"><a xlink:href="classFoam_1_1hexRef4.html#a424b6af893ef48723f9fcd320707eb73" target="_top" xlink:title=" ">
<polygon fill="white" stroke="#666666" points="201,-93 74,-93 74,-74 201,-74 201,-93"/>
<text text-anchor="middle" x="137.5" y="-81" font-family="Helvetica,sans-Serif" font-size="10.00">Foam::hexRef4::hexRef4</text>
</a>
</g>
</g>
<!-- Node1&#45;&gt;Node3 -->
<g id="edge2_Node000001_Node000003" class="edge">
<title>Node1&#45;&gt;Node3</title>
<g id="a_edge2_Node000001_Node000003"><a xlink:title=" ">
<path fill="none" stroke="#63b8ff" d="M226.8,-73.18C218.24,-74.18 209.58,-75.19 201.2,-76.17"/>
<polygon fill="#63b8ff" stroke="#63b8ff" points="227.25,-76.65 236.78,-72.01 226.44,-69.69 227.25,-76.65"/>
</a>
</g>
</g>
<!-- Node4 -->
<g id="Node000004" class="node">
<title>Node4</title>
<g id="a_Node000004"><a xlink:href="reconstructParMesh2D_8C.html#aca1b4d7e38cdc9ee10c0302dd3fdac27" target="_top" xlink:title=" ">
<polygon fill="white" stroke="#666666" points="195.5,-56 79.5,-56 79.5,-37 195.5,-37 195.5,-56"/>
<text text-anchor="middle" x="137.5" y="-44" font-family="Helvetica,sans-Serif" font-size="10.00">loadRefinementHistory</text>
</a>
</g>
</g>
<!-- Node1&#45;&gt;Node4 -->
<g id="edge3_Node000001_Node000004" class="edge">
<title>Node1&#45;&gt;Node4</title>
<g id="a_edge3_Node000001_Node000004"><a xlink:title=" ">
<path fill="none" stroke="#63b8ff" d="M226.82,-56.28C216.36,-55.12 205.75,-53.95 195.67,-52.83"/>
<polygon fill="#63b8ff" stroke="#63b8ff" points="226.45,-59.76 236.78,-57.39 227.22,-52.81 226.45,-59.76"/>
</a>
</g>
</g>
<!-- Node6 -->
<g id="Node000006" class="node">
<title>Node6</title>
<g id="a_Node000006"><a xlink:href="decomposeParMesh2D_8C.html#a0ddf1224851353fc92bfbff6f499fa97" target="_top" xlink:title=" ">
<polygon fill="white" stroke="#666666" points="156.5,-19 118.5,-19 118.5,0 156.5,0 156.5,-19"/>
<text text-anchor="middle" x="137.5" y="-7" font-family="Helvetica,sans-Serif" font-size="10.00">main</text>
</a>
</g>
</g>
<!-- Node1&#45;&gt;Node6 -->
<g id="edge5_Node000001_Node000006" class="edge">
<title>Node1&#45;&gt;Node6</title>
<g id="a_edge5_Node000001_Node000006"><a xlink:title=" ">
<path fill="none" stroke="#63b8ff" d="M251.11,-45.98C235.16,-40.21 217.39,-33.94 201,-28.5 186.15,-23.57 169.14,-18.44 156.63,-14.75"/>
<polygon fill="#63b8ff" stroke="#63b8ff" points="250.18,-49.37 260.78,-49.5 252.57,-42.79 250.18,-49.37"/>
</a>
</g>
</g>
<!-- Node5 -->
<g id="Node000005" class="node">
<title>Node5</title>
<g id="a_Node000005"><a xlink:href="reconstructParMesh2D_8C.html#a0ddf1224851353fc92bfbff6f499fa97" target="_top" xlink:title=" ">
<polygon fill="white" stroke="#666666" points="38,-56 0,-56 0,-37 38,-37 38,-56"/>
<text text-anchor="middle" x="19" y="-44" font-family="Helvetica,sans-Serif" font-size="10.00">main</text>
</a>
</g>
</g>
<!-- Node4&#45;&gt;Node5 -->
<g id="edge4_Node000004_Node000005" class="edge">
<title>Node4&#45;&gt;Node5</title>
<g id="a_edge4_Node000004_Node000005"><a xlink:title=" ">
<path fill="none" stroke="#63b8ff" d="M69.14,-46.5C57.69,-46.5 46.73,-46.5 38.07,-46.5"/>
<polygon fill="#63b8ff" stroke="#63b8ff" points="69.27,-50 79.27,-46.5 69.27,-43 69.27,-50"/>
</a>
</g>
</g>
</g>
</svg>
