<?xml version="1.0" encoding="UTF-8" standalone="no"?>
<!DOCTYPE svg PUBLIC "-//W3C//DTD SVG 1.1//EN"
 "http://www.w3.org/Graphics/SVG/1.1/DTD/svg11.dtd">
<!-- Generated by graphviz version 2.43.0 (0)
 -->
<!-- Title: Foam::fvMeshTopoChangers::refiner2D Pages: 1 -->
<svg width="270pt" height="1636pt"
 viewBox="0.00 0.00 269.50 1636.00" xmlns="http://www.w3.org/2000/svg" xmlns:xlink="http://www.w3.org/1999/xlink">
<g id="graph0" class="graph" transform="scale(1 1) rotate(0) translate(4 1632)">
<title>Foam::fvMeshTopoChangers::refiner2D</title>
<!-- Node1 -->
<g id="Node000001" class="node">
<title>Node1</title>
<g id="a_Node000001"><a xlink:title=" ">
<polygon fill="#999999" stroke="transparent" points="137,-555 0,-555 0,0 137,0 137,-555"/>
<text text-anchor="start" x="5.5" y="-542.5" font-family="Helvetica,sans-Serif" font-size="10.00">Foam::fvMeshTopoChangers</text>
<text text-anchor="start" x="46" y="-531.5" font-family="Helvetica,sans-Serif" font-size="10.00">::refiner2D</text>
<text text-anchor="start" x="8" y="-516.5" font-family="Helvetica,sans-Serif" font-size="10.00">&#45;</text>
<text text-anchor="start" x="19.5" y="-516.5" font-family="Helvetica,sans-Serif" font-size="10.00">dict_</text>
<text text-anchor="start" x="8" y="-501.5" font-family="Helvetica,sans-Serif" font-size="10.00">&#45;</text>
<text text-anchor="start" x="19.5" y="-501.5" font-family="Helvetica,sans-Serif" font-size="10.00">refineInterval_</text>
<text text-anchor="start" x="8" y="-486.5" font-family="Helvetica,sans-Serif" font-size="10.00">&#45;</text>
<text text-anchor="start" x="19.5" y="-486.5" font-family="Helvetica,sans-Serif" font-size="10.00">maxCells_</text>
<text text-anchor="start" x="8" y="-471.5" font-family="Helvetica,sans-Serif" font-size="10.00">&#45;</text>
<text text-anchor="start" x="19.5" y="-471.5" font-family="Helvetica,sans-Serif" font-size="10.00">nBufferLayers_</text>
<text text-anchor="start" x="8" y="-456.5" font-family="Helvetica,sans-Serif" font-size="10.00">&#45;</text>
<text text-anchor="start" x="19.5" y="-456.5" font-family="Helvetica,sans-Serif" font-size="10.00">dumpLevel_</text>
<text text-anchor="start" x="8" y="-441.5" font-family="Helvetica,sans-Serif" font-size="10.00">&#45;</text>
<text text-anchor="start" x="19.5" y="-441.5" font-family="Helvetica,sans-Serif" font-size="10.00">correctFluxes_</text>
<text text-anchor="start" x="8" y="-426.5" font-family="Helvetica,sans-Serif" font-size="10.00">&#45;</text>
<text text-anchor="start" x="19.5" y="-426.5" font-family="Helvetica,sans-Serif" font-size="10.00">nRefinementIterations_</text>
<text text-anchor="start" x="8" y="-411.5" font-family="Helvetica,sans-Serif" font-size="10.00">&#45;</text>
<text text-anchor="start" x="19.5" y="-411.5" font-family="Helvetica,sans-Serif" font-size="10.00">protectedCells_</text>
<text text-anchor="start" x="8" y="-396.5" font-family="Helvetica,sans-Serif" font-size="10.00">&#45;</text>
<text text-anchor="start" x="19.5" y="-396.5" font-family="Helvetica,sans-Serif" font-size="10.00">changedSinceWrite_</text>
<text text-anchor="start" x="8" y="-381.5" font-family="Helvetica,sans-Serif" font-size="10.00">&#45;</text>
<text text-anchor="start" x="19.5" y="-381.5" font-family="Helvetica,sans-Serif" font-size="10.00">timeIndex_</text>
<text text-anchor="start" x="6.5" y="-366.5" font-family="Helvetica,sans-Serif" font-size="10.00">+</text>
<text text-anchor="start" x="19.5" y="-366.5" font-family="Helvetica,sans-Serif" font-size="10.00">TypeName()</text>
<text text-anchor="start" x="6.5" y="-351.5" font-family="Helvetica,sans-Serif" font-size="10.00">+</text>
<text text-anchor="start" x="19.5" y="-351.5" font-family="Helvetica,sans-Serif" font-size="10.00">refiner2D()</text>
<text text-anchor="start" x="6.5" y="-336.5" font-family="Helvetica,sans-Serif" font-size="10.00">+</text>
<text text-anchor="start" x="19.5" y="-336.5" font-family="Helvetica,sans-Serif" font-size="10.00">refiner2D()</text>
<text text-anchor="start" x="6.5" y="-321.5" font-family="Helvetica,sans-Serif" font-size="10.00">+</text>
<text text-anchor="start" x="19.5" y="-321.5" font-family="Helvetica,sans-Serif" font-size="10.00">~refiner2D()</text>
<text text-anchor="start" x="6.5" y="-306.5" font-family="Helvetica,sans-Serif" font-size="10.00">+</text>
<text text-anchor="start" x="19.5" y="-306.5" font-family="Helvetica,sans-Serif" font-size="10.00">meshCutter()</text>
<text text-anchor="start" x="6.5" y="-291.5" font-family="Helvetica,sans-Serif" font-size="10.00">+</text>
<text text-anchor="start" x="19.5" y="-291.5" font-family="Helvetica,sans-Serif" font-size="10.00">protectedCell()</text>
<text text-anchor="start" x="6.5" y="-276.5" font-family="Helvetica,sans-Serif" font-size="10.00">+</text>
<text text-anchor="start" x="19.5" y="-276.5" font-family="Helvetica,sans-Serif" font-size="10.00">protectedCell()</text>
<text text-anchor="start" x="6.5" y="-261.5" font-family="Helvetica,sans-Serif" font-size="10.00">+</text>
<text text-anchor="start" x="19.5" y="-261.5" font-family="Helvetica,sans-Serif" font-size="10.00">update()</text>
<text text-anchor="start" x="6.5" y="-246.5" font-family="Helvetica,sans-Serif" font-size="10.00">+</text>
<text text-anchor="start" x="19.5" y="-246.5" font-family="Helvetica,sans-Serif" font-size="10.00">topoChange()</text>
<text text-anchor="start" x="6.5" y="-231.5" font-family="Helvetica,sans-Serif" font-size="10.00">+</text>
<text text-anchor="start" x="19.5" y="-231.5" font-family="Helvetica,sans-Serif" font-size="10.00">mapMesh()</text>
<text text-anchor="start" x="6.5" y="-216.5" font-family="Helvetica,sans-Serif" font-size="10.00">+</text>
<text text-anchor="start" x="19.5" y="-216.5" font-family="Helvetica,sans-Serif" font-size="10.00">distribute()</text>
<text text-anchor="start" x="6.5" y="-201.5" font-family="Helvetica,sans-Serif" font-size="10.00">+</text>
<text text-anchor="start" x="19.5" y="-201.5" font-family="Helvetica,sans-Serif" font-size="10.00">write()</text>
<text text-anchor="start" x="6.5" y="-186.5" font-family="Helvetica,sans-Serif" font-size="10.00">+</text>
<text text-anchor="start" x="19.5" y="-186.5" font-family="Helvetica,sans-Serif" font-size="10.00">operator=()</text>
<text text-anchor="start" x="8" y="-171.5" font-family="Helvetica,sans-Serif" font-size="10.00">&#45;</text>
<text text-anchor="start" x="19.5" y="-171.5" font-family="Helvetica,sans-Serif" font-size="10.00">calculateProtectedCells()</text>
<text text-anchor="start" x="8" y="-156.5" font-family="Helvetica,sans-Serif" font-size="10.00">&#45;</text>
<text text-anchor="start" x="19.5" y="-156.5" font-family="Helvetica,sans-Serif" font-size="10.00">readDict()</text>
<text text-anchor="start" x="8" y="-141.5" font-family="Helvetica,sans-Serif" font-size="10.00">&#45;</text>
<text text-anchor="start" x="19.5" y="-141.5" font-family="Helvetica,sans-Serif" font-size="10.00">refine()</text>
<text text-anchor="start" x="8" y="-126.5" font-family="Helvetica,sans-Serif" font-size="10.00">&#45;</text>
<text text-anchor="start" x="19.5" y="-126.5" font-family="Helvetica,sans-Serif" font-size="10.00">unrefine()</text>
<text text-anchor="start" x="8" y="-111.5" font-family="Helvetica,sans-Serif" font-size="10.00">&#45;</text>
<text text-anchor="start" x="19.5" y="-111.5" font-family="Helvetica,sans-Serif" font-size="10.00">Uname()</text>
<text text-anchor="start" x="8" y="-96.5" font-family="Helvetica,sans-Serif" font-size="10.00">&#45;</text>
<text text-anchor="start" x="19.5" y="-96.5" font-family="Helvetica,sans-Serif" font-size="10.00">refineFluxes()</text>
<text text-anchor="start" x="8" y="-81.5" font-family="Helvetica,sans-Serif" font-size="10.00">&#45;</text>
<text text-anchor="start" x="19.5" y="-81.5" font-family="Helvetica,sans-Serif" font-size="10.00">refineUfs()</text>
<text text-anchor="start" x="8" y="-66.5" font-family="Helvetica,sans-Serif" font-size="10.00">&#45;</text>
<text text-anchor="start" x="19.5" y="-66.5" font-family="Helvetica,sans-Serif" font-size="10.00">unrefineFluxes()</text>
<text text-anchor="start" x="8" y="-51.5" font-family="Helvetica,sans-Serif" font-size="10.00">&#45;</text>
<text text-anchor="start" x="19.5" y="-51.5" font-family="Helvetica,sans-Serif" font-size="10.00">unrefineUfs()</text>
<text text-anchor="start" x="8" y="-36.5" font-family="Helvetica,sans-Serif" font-size="10.00">&#45;</text>
<text text-anchor="start" x="19.5" y="-36.5" font-family="Helvetica,sans-Serif" font-size="10.00">findCellZone()</text>
<text text-anchor="start" x="19.5" y="-21.5" font-family="Helvetica,sans-Serif" font-size="10.00">and 7 more...</text>
<text text-anchor="start" x="8" y="-6.5" font-family="Helvetica,sans-Serif" font-size="10.00">&#45;</text>
<text text-anchor="start" x="19.5" y="-6.5" font-family="Helvetica,sans-Serif" font-size="10.00">count()</text>
<polygon fill="#666666" stroke="#666666" points="0.5,-526.5 0.5,-526.5 137.5,-526.5 137.5,-526.5 0.5,-526.5"/>
<polygon fill="#666666" stroke="#666666" points="0.5,-376.5 0.5,-376.5 17.5,-376.5 17.5,-376.5 0.5,-376.5"/>
<polygon fill="#666666" stroke="#666666" points="17.5,-376.5 17.5,-376.5 137.5,-376.5 137.5,-376.5 17.5,-376.5"/>
<polygon fill="none" stroke="#666666" points="0,0 0,-555 137,-555 137,0 0,0"/>
</a>
</g>
</g>
<!-- Node2 -->
<g id="Node000002" class="node">
<title>Node2</title>
<g id="a_Node000002"><a xlink:title=" ">
<polygon fill="white" stroke="transparent" points="103,-883.5 2,-883.5 2,-834.5 103,-834.5 103,-883.5"/>
<text text-anchor="start" x="7.5" y="-871" font-family="Helvetica,sans-Serif" font-size="10.00">fvMeshTopoChanger</text>
<text text-anchor="start" x="51" y="-856" font-family="Helvetica,sans-Serif" font-size="10.00"> </text>
<text text-anchor="start" x="51" y="-841" font-family="Helvetica,sans-Serif" font-size="10.00"> </text>
<polygon fill="#666666" stroke="#666666" points="2.5,-866 2.5,-866 103.5,-866 103.5,-866 2.5,-866"/>
<polygon fill="#666666" stroke="#666666" points="2.5,-851 2.5,-851 103.5,-851 103.5,-851 2.5,-851"/>
<polygon fill="none" stroke="#666666" points="2,-834.5 2,-883.5 103,-883.5 103,-834.5 2,-834.5"/>
</a>
</g>
</g>
<!-- Node2&#45;&gt;Node1 -->
<g id="edge1_Node000001_Node000002" class="edge">
<title>Node2&#45;&gt;Node1</title>
<g id="a_edge1_Node000001_Node000002"><a xlink:title=" ">
<path fill="none" stroke="#63b8ff" d="M53.44,-823.94C54.92,-770.37 57.92,-661.53 60.86,-555.07"/>
<polygon fill="none" stroke="#63b8ff" points="49.93,-824.11 53.16,-834.2 56.93,-824.3 49.93,-824.11"/>
</a>
</g>
</g>
<!-- Node3 -->
<g id="Node000003" class="node">
<title>Node3</title>
<g id="a_Node000003"><a xlink:href="classFoam_1_1hexRef4.html" target="_top" xlink:title=" ">
<polygon fill="white" stroke="transparent" points="261.5,-1116 121.5,-1116 121.5,-602 261.5,-602 261.5,-1116"/>
<text text-anchor="start" x="157.5" y="-1104" font-family="Helvetica,sans-Serif" font-size="10.00">Foam::hexRef4</text>
<text text-anchor="start" x="127" y="-1089" font-family="Helvetica,sans-Serif" font-size="10.00">&#45;</text>
<text text-anchor="start" x="136.5" y="-1089" font-family="Helvetica,sans-Serif" font-size="10.00">mesh_</text>
<text text-anchor="start" x="127" y="-1074" font-family="Helvetica,sans-Serif" font-size="10.00">&#45;</text>
<text text-anchor="start" x="136.5" y="-1074" font-family="Helvetica,sans-Serif" font-size="10.00">cellLevel_</text>
<text text-anchor="start" x="127" y="-1059" font-family="Helvetica,sans-Serif" font-size="10.00">&#45;</text>
<text text-anchor="start" x="136.5" y="-1059" font-family="Helvetica,sans-Serif" font-size="10.00">pointLevel_</text>
<text text-anchor="start" x="127" y="-1044" font-family="Helvetica,sans-Serif" font-size="10.00">&#45;</text>
<text text-anchor="start" x="136.5" y="-1044" font-family="Helvetica,sans-Serif" font-size="10.00">level0Edge_</text>
<text text-anchor="start" x="127" y="-1029" font-family="Helvetica,sans-Serif" font-size="10.00">&#45;</text>
<text text-anchor="start" x="136.5" y="-1029" font-family="Helvetica,sans-Serif" font-size="10.00">faceRemover_</text>
<text text-anchor="start" x="127" y="-1014" font-family="Helvetica,sans-Serif" font-size="10.00">&#45;</text>
<text text-anchor="start" x="136.5" y="-1014" font-family="Helvetica,sans-Serif" font-size="10.00">savedPointLevel_</text>
<text text-anchor="start" x="127" y="-999" font-family="Helvetica,sans-Serif" font-size="10.00">&#45;</text>
<text text-anchor="start" x="136.5" y="-999" font-family="Helvetica,sans-Serif" font-size="10.00">savedCellLevel_</text>
<text text-anchor="start" x="127" y="-984" font-family="Helvetica,sans-Serif" font-size="10.00">&#45;</text>
<text text-anchor="start" x="136.5" y="-984" font-family="Helvetica,sans-Serif" font-size="10.00">cellShapesPtr_</text>
<text text-anchor="start" x="125.5" y="-969" font-family="Helvetica,sans-Serif" font-size="10.00">+</text>
<text text-anchor="start" x="136.5" y="-969" font-family="Helvetica,sans-Serif" font-size="10.00">ClassName()</text>
<text text-anchor="start" x="125.5" y="-954" font-family="Helvetica,sans-Serif" font-size="10.00">+</text>
<text text-anchor="start" x="136.5" y="-954" font-family="Helvetica,sans-Serif" font-size="10.00">hexRef4()</text>
<text text-anchor="start" x="125.5" y="-939" font-family="Helvetica,sans-Serif" font-size="10.00">+</text>
<text text-anchor="start" x="136.5" y="-939" font-family="Helvetica,sans-Serif" font-size="10.00">hexRef4()</text>
<text text-anchor="start" x="125.5" y="-924" font-family="Helvetica,sans-Serif" font-size="10.00">+</text>
<text text-anchor="start" x="136.5" y="-924" font-family="Helvetica,sans-Serif" font-size="10.00">hexRef4()</text>
<text text-anchor="start" x="125.5" y="-909" font-family="Helvetica,sans-Serif" font-size="10.00">+</text>
<text text-anchor="start" x="136.5" y="-909" font-family="Helvetica,sans-Serif" font-size="10.00">hexRef4()</text>
<text text-anchor="start" x="125.5" y="-894" font-family="Helvetica,sans-Serif" font-size="10.00">+</text>
<text text-anchor="start" x="136.5" y="-894" font-family="Helvetica,sans-Serif" font-size="10.00">mesh()</text>
<text text-anchor="start" x="125.5" y="-879" font-family="Helvetica,sans-Serif" font-size="10.00">+</text>
<text text-anchor="start" x="136.5" y="-879" font-family="Helvetica,sans-Serif" font-size="10.00">cellLevel()</text>
<text text-anchor="start" x="125.5" y="-864" font-family="Helvetica,sans-Serif" font-size="10.00">+</text>
<text text-anchor="start" x="136.5" y="-864" font-family="Helvetica,sans-Serif" font-size="10.00">pointLevel()</text>
<text text-anchor="start" x="125.5" y="-849" font-family="Helvetica,sans-Serif" font-size="10.00">+</text>
<text text-anchor="start" x="136.5" y="-849" font-family="Helvetica,sans-Serif" font-size="10.00">history()</text>
<text text-anchor="start" x="125.5" y="-834" font-family="Helvetica,sans-Serif" font-size="10.00">+</text>
<text text-anchor="start" x="136.5" y="-834" font-family="Helvetica,sans-Serif" font-size="10.00">level0EdgeLength()</text>
<text text-anchor="start" x="136.5" y="-819" font-family="Helvetica,sans-Serif" font-size="10.00">and 20 more...</text>
<text text-anchor="start" x="127" y="-804" font-family="Helvetica,sans-Serif" font-size="10.00">&#45;</text>
<text text-anchor="start" x="136.5" y="-804" font-family="Helvetica,sans-Serif" font-size="10.00">getFaceInfo()</text>
<text text-anchor="start" x="127" y="-789" font-family="Helvetica,sans-Serif" font-size="10.00">&#45;</text>
<text text-anchor="start" x="136.5" y="-789" font-family="Helvetica,sans-Serif" font-size="10.00">addFace()</text>
<text text-anchor="start" x="127" y="-774" font-family="Helvetica,sans-Serif" font-size="10.00">&#45;</text>
<text text-anchor="start" x="136.5" y="-774" font-family="Helvetica,sans-Serif" font-size="10.00">addInternalFace()</text>
<text text-anchor="start" x="127" y="-759" font-family="Helvetica,sans-Serif" font-size="10.00">&#45;</text>
<text text-anchor="start" x="136.5" y="-759" font-family="Helvetica,sans-Serif" font-size="10.00">modFace()</text>
<text text-anchor="start" x="127" y="-744" font-family="Helvetica,sans-Serif" font-size="10.00">&#45;</text>
<text text-anchor="start" x="136.5" y="-744" font-family="Helvetica,sans-Serif" font-size="10.00">getLevel0EdgeLength()</text>
<text text-anchor="start" x="127" y="-729" font-family="Helvetica,sans-Serif" font-size="10.00">&#45;</text>
<text text-anchor="start" x="136.5" y="-729" font-family="Helvetica,sans-Serif" font-size="10.00">getAnchorCell()</text>
<text text-anchor="start" x="127" y="-714" font-family="Helvetica,sans-Serif" font-size="10.00">&#45;</text>
<text text-anchor="start" x="136.5" y="-714" font-family="Helvetica,sans-Serif" font-size="10.00">getFaceNeighbours()</text>
<text text-anchor="start" x="127" y="-699" font-family="Helvetica,sans-Serif" font-size="10.00">&#45;</text>
<text text-anchor="start" x="136.5" y="-699" font-family="Helvetica,sans-Serif" font-size="10.00">findMinLevel()</text>
<text text-anchor="start" x="127" y="-684" font-family="Helvetica,sans-Serif" font-size="10.00">&#45;</text>
<text text-anchor="start" x="136.5" y="-684" font-family="Helvetica,sans-Serif" font-size="10.00">findMaxLevel()</text>
<text text-anchor="start" x="127" y="-669" font-family="Helvetica,sans-Serif" font-size="10.00">&#45;</text>
<text text-anchor="start" x="136.5" y="-669" font-family="Helvetica,sans-Serif" font-size="10.00">countAnchors()</text>
<text text-anchor="start" x="136.5" y="-654" font-family="Helvetica,sans-Serif" font-size="10.00">and 13 more...</text>
<text text-anchor="start" x="127" y="-639" font-family="Helvetica,sans-Serif" font-size="10.00">&#45;</text>
<text text-anchor="start" x="136.5" y="-639" font-family="Helvetica,sans-Serif" font-size="10.00">reorder()</text>
<text text-anchor="start" x="127" y="-624" font-family="Helvetica,sans-Serif" font-size="10.00">&#45;</text>
<text text-anchor="start" x="136.5" y="-624" font-family="Helvetica,sans-Serif" font-size="10.00">checkInternalOrientation()</text>
<text text-anchor="start" x="127" y="-609" font-family="Helvetica,sans-Serif" font-size="10.00">&#45;</text>
<text text-anchor="start" x="136.5" y="-609" font-family="Helvetica,sans-Serif" font-size="10.00">checkBoundaryOrientation()</text>
<polygon fill="#666666" stroke="#666666" points="121.5,-1099 121.5,-1099 261.5,-1099 261.5,-1099 121.5,-1099"/>
<polygon fill="#666666" stroke="#666666" points="121.5,-979 121.5,-979 134.5,-979 134.5,-979 121.5,-979"/>
<polygon fill="#666666" stroke="#666666" points="134.5,-979 134.5,-979 261.5,-979 261.5,-979 134.5,-979"/>
<polygon fill="none" stroke="#666666" points="121.5,-602 121.5,-1116 261.5,-1116 261.5,-602 121.5,-602"/>
</a>
</g>
</g>
<!-- Node3&#45;&gt;Node1 -->
<g id="edge2_Node000001_Node000003" class="edge">
<title>Node3&#45;&gt;Node1</title>
<g id="a_edge2_Node000001_Node000003"><a xlink:title=" ">
<path fill="none" stroke="#63b8ff" d="M137.1,-601.71C134.67,-590.25 132.22,-578.71 129.77,-567.17"/>
<polygon fill="none" stroke="#63b8ff" points="129.71,-566.89 124.55,-561.85 127.22,-555.15 132.38,-560.19 129.71,-566.89"/>
</a>
</g>
<text text-anchor="middle" x="163" y="-576" font-family="Helvetica,sans-Serif" font-size="10.00" fill="grey"> &#45;meshCutter_</text>
</g>
<!-- Node4 -->
<g id="Node000004" class="node">
<title>Node4</title>
<g id="a_Node000004"><a xlink:href="classFoam_1_1refinementHistory4.html" target="_top" xlink:title=" ">
<polygon fill="white" stroke="transparent" points="253.5,-1542 129.5,-1542 129.5,-1163 253.5,-1163 253.5,-1542"/>
<text text-anchor="start" x="134.5" y="-1529.5" font-family="Helvetica,sans-Serif" font-size="10.00">Foam::refinementHistory4</text>
<text text-anchor="start" x="138.5" y="-1514.5" font-family="Helvetica,sans-Serif" font-size="10.00">&#45;</text>
<text text-anchor="start" x="151.5" y="-1514.5" font-family="Helvetica,sans-Serif" font-size="10.00">active_</text>
<text text-anchor="start" x="138.5" y="-1499.5" font-family="Helvetica,sans-Serif" font-size="10.00">&#45;</text>
<text text-anchor="start" x="151.5" y="-1499.5" font-family="Helvetica,sans-Serif" font-size="10.00">splitCells_</text>
<text text-anchor="start" x="138.5" y="-1484.5" font-family="Helvetica,sans-Serif" font-size="10.00">&#45;</text>
<text text-anchor="start" x="151.5" y="-1484.5" font-family="Helvetica,sans-Serif" font-size="10.00">freeSplitCells_</text>
<text text-anchor="start" x="138.5" y="-1469.5" font-family="Helvetica,sans-Serif" font-size="10.00">&#45;</text>
<text text-anchor="start" x="151.5" y="-1469.5" font-family="Helvetica,sans-Serif" font-size="10.00">visibleCells_</text>
<text text-anchor="start" x="137" y="-1454.5" font-family="Helvetica,sans-Serif" font-size="10.00">+</text>
<text text-anchor="start" x="151.5" y="-1454.5" font-family="Helvetica,sans-Serif" font-size="10.00">TypeName()</text>
<text text-anchor="start" x="137" y="-1439.5" font-family="Helvetica,sans-Serif" font-size="10.00">+</text>
<text text-anchor="start" x="151.5" y="-1439.5" font-family="Helvetica,sans-Serif" font-size="10.00">refinementHistory4()</text>
<text text-anchor="start" x="137" y="-1424.5" font-family="Helvetica,sans-Serif" font-size="10.00">+</text>
<text text-anchor="start" x="151.5" y="-1424.5" font-family="Helvetica,sans-Serif" font-size="10.00">refinementHistory4()</text>
<text text-anchor="start" x="137" y="-1409.5" font-family="Helvetica,sans-Serif" font-size="10.00">+</text>
<text text-anchor="start" x="151.5" y="-1409.5" font-family="Helvetica,sans-Serif" font-size="10.00">refinementHistory4()</text>
<text text-anchor="start" x="137" y="-1394.5" font-family="Helvetica,sans-Serif" font-size="10.00">+</text>
<text text-anchor="start" x="151.5" y="-1394.5" font-family="Helvetica,sans-Serif" font-size="10.00">refinementHistory4()</text>
<text text-anchor="start" x="137" y="-1379.5" font-family="Helvetica,sans-Serif" font-size="10.00">+</text>
<text text-anchor="start" x="151.5" y="-1379.5" font-family="Helvetica,sans-Serif" font-size="10.00">refinementHistory4()</text>
<text text-anchor="start" x="137" y="-1364.5" font-family="Helvetica,sans-Serif" font-size="10.00">+</text>
<text text-anchor="start" x="151.5" y="-1364.5" font-family="Helvetica,sans-Serif" font-size="10.00">refinementHistory4()</text>
<text text-anchor="start" x="137" y="-1349.5" font-family="Helvetica,sans-Serif" font-size="10.00">+</text>
<text text-anchor="start" x="151.5" y="-1349.5" font-family="Helvetica,sans-Serif" font-size="10.00">refinementHistory4()</text>
<text text-anchor="start" x="137" y="-1334.5" font-family="Helvetica,sans-Serif" font-size="10.00">+</text>
<text text-anchor="start" x="151.5" y="-1334.5" font-family="Helvetica,sans-Serif" font-size="10.00">visibleCells()</text>
<text text-anchor="start" x="137" y="-1319.5" font-family="Helvetica,sans-Serif" font-size="10.00">+</text>
<text text-anchor="start" x="151.5" y="-1319.5" font-family="Helvetica,sans-Serif" font-size="10.00">splitCells()</text>
<text text-anchor="start" x="151.5" y="-1304.5" font-family="Helvetica,sans-Serif" font-size="10.00">and 19 more...</text>
<text text-anchor="start" x="138.5" y="-1289.5" font-family="Helvetica,sans-Serif" font-size="10.00">&#45;</text>
<text text-anchor="start" x="151.5" y="-1289.5" font-family="Helvetica,sans-Serif" font-size="10.00">checkIndices()</text>
<text text-anchor="start" x="138.5" y="-1274.5" font-family="Helvetica,sans-Serif" font-size="10.00">&#45;</text>
<text text-anchor="start" x="151.5" y="-1274.5" font-family="Helvetica,sans-Serif" font-size="10.00">allocateSplitCell()</text>
<text text-anchor="start" x="138.5" y="-1259.5" font-family="Helvetica,sans-Serif" font-size="10.00">&#45;</text>
<text text-anchor="start" x="151.5" y="-1259.5" font-family="Helvetica,sans-Serif" font-size="10.00">freeSplitCell()</text>
<text text-anchor="start" x="138.5" y="-1244.5" font-family="Helvetica,sans-Serif" font-size="10.00">&#45;</text>
<text text-anchor="start" x="151.5" y="-1244.5" font-family="Helvetica,sans-Serif" font-size="10.00">markSplit()</text>
<text text-anchor="start" x="138.5" y="-1229.5" font-family="Helvetica,sans-Serif" font-size="10.00">&#45;</text>
<text text-anchor="start" x="151.5" y="-1229.5" font-family="Helvetica,sans-Serif" font-size="10.00">countProc()</text>
<text text-anchor="start" x="138.5" y="-1214.5" font-family="Helvetica,sans-Serif" font-size="10.00">&#45;</text>
<text text-anchor="start" x="151.5" y="-1214.5" font-family="Helvetica,sans-Serif" font-size="10.00">mark()</text>
<text text-anchor="start" x="138.5" y="-1199.5" font-family="Helvetica,sans-Serif" font-size="10.00">&#45;</text>
<text text-anchor="start" x="151.5" y="-1199.5" font-family="Helvetica,sans-Serif" font-size="10.00">markCommonCells()</text>
<text text-anchor="start" x="138.5" y="-1184.5" font-family="Helvetica,sans-Serif" font-size="10.00">&#45;</text>
<text text-anchor="start" x="151.5" y="-1184.5" font-family="Helvetica,sans-Serif" font-size="10.00">writeEntry()</text>
<text text-anchor="start" x="138.5" y="-1169.5" font-family="Helvetica,sans-Serif" font-size="10.00">&#45;</text>
<text text-anchor="start" x="151.5" y="-1169.5" font-family="Helvetica,sans-Serif" font-size="10.00">writeDebug()</text>
<polygon fill="#666666" stroke="#666666" points="129.5,-1524.5 129.5,-1524.5 253.5,-1524.5 253.5,-1524.5 129.5,-1524.5"/>
<polygon fill="#666666" stroke="#666666" points="129.5,-1464.5 129.5,-1464.5 149.5,-1464.5 149.5,-1464.5 129.5,-1464.5"/>
<polygon fill="#666666" stroke="#666666" points="149.5,-1464.5 149.5,-1464.5 253.5,-1464.5 253.5,-1464.5 149.5,-1464.5"/>
<polygon fill="none" stroke="#666666" points="129.5,-1163 129.5,-1542 253.5,-1542 253.5,-1163 129.5,-1163"/>
</a>
</g>
</g>
<!-- Node4&#45;&gt;Node3 -->
<g id="edge3_Node000003_Node000004" class="edge">
<title>Node4&#45;&gt;Node3</title>
<g id="a_edge3_Node000003_Node000004"><a xlink:title=" ">
<path fill="none" stroke="#63b8ff" d="M191.5,-1162.88C191.5,-1151.53 191.5,-1140 191.5,-1128.41"/>
<polygon fill="none" stroke="#63b8ff" points="191.5,-1128.31 187.5,-1122.31 191.5,-1116.31 195.5,-1122.31 191.5,-1128.31"/>
</a>
</g>
<text text-anchor="middle" x="212" y="-1137" font-family="Helvetica,sans-Serif" font-size="10.00" fill="grey"> &#45;history_</text>
</g>
<!-- Node5 -->
<g id="Node000005" class="node">
<title>Node5</title>
<g id="a_Node000005"><a xlink:title=" ">
<polygon fill="white" stroke="transparent" points="222,-1628 161,-1628 161,-1579 222,-1579 222,-1628"/>
<text text-anchor="start" x="166.5" y="-1615.5" font-family="Helvetica,sans-Serif" font-size="10.00">regIOobject</text>
<text text-anchor="start" x="190" y="-1600.5" font-family="Helvetica,sans-Serif" font-size="10.00"> </text>
<text text-anchor="start" x="190" y="-1585.5" font-family="Helvetica,sans-Serif" font-size="10.00"> </text>
<polygon fill="#666666" stroke="#666666" points="161.5,-1610.5 161.5,-1610.5 222.5,-1610.5 222.5,-1610.5 161.5,-1610.5"/>
<polygon fill="#666666" stroke="#666666" points="161.5,-1595.5 161.5,-1595.5 222.5,-1595.5 222.5,-1595.5 161.5,-1595.5"/>
<polygon fill="none" stroke="#666666" points="161,-1579 161,-1628 222,-1628 222,-1579 161,-1579"/>
</a>
</g>
</g>
<!-- Node5&#45;&gt;Node4 -->
<g id="edge4_Node000004_Node000005" class="edge">
<title>Node5&#45;&gt;Node4</title>
<g id="a_edge4_Node000004_Node000005"><a xlink:title=" ">
<path fill="none" stroke="#63b8ff" d="M191.5,-1568.55C191.5,-1560.65 191.5,-1551.69 191.5,-1542.03"/>
<polygon fill="none" stroke="#63b8ff" points="188,-1568.62 191.5,-1578.62 195,-1568.62 188,-1568.62"/>
</a>
</g>
</g>
</g>
</svg>
