<?xml version="1.0" encoding="UTF-8" standalone="no"?>
<!DOCTYPE svg PUBLIC "-//W3C//DTD SVG 1.1//EN"
 "http://www.w3.org/Graphics/SVG/1.1/DTD/svg11.dtd">
<!-- Generated by graphviz version 2.43.0 (0)
 -->
<!-- Title: Foam::hexRef4::checkRefinementLevels Pages: 1 -->
<svg width="338pt" height="101pt"
 viewBox="0.00 0.00 338.00 101.00" xmlns="http://www.w3.org/2000/svg" xmlns:xlink="http://www.w3.org/1999/xlink">
<g id="graph0" class="graph" transform="scale(1 1) rotate(0) translate(4 97)">
<title>Foam::hexRef4::checkRefinementLevels</title>
<!-- Node1 -->
<g id="Node000001" class="node">
<title>Node1</title>
<g id="a_Node000001"><a xlink:title=" ">
<polygon fill="#999999" stroke="#666666" points="330,-61.5 163,-61.5 163,-31.5 330,-31.5 330,-61.5"/>
<text text-anchor="start" x="171" y="-49.5" font-family="Helvetica,sans-Serif" font-size="10.00">Foam::hexRef4::checkRefinement</text>
<text text-anchor="middle" x="246.5" y="-38.5" font-family="Helvetica,sans-Serif" font-size="10.00">Levels</text>
</a>
</g>
</g>
<!-- Node2 -->
<g id="Node000002" class="node">
<title>Node2</title>
<g id="a_Node000002"><a xlink:href="classFoam_1_1hexRef4.html#aa7678ed5c6c3f67cc6439d0389ef0551" target="_top" xlink:title=" ">
<polygon fill="white" stroke="#666666" points="127,-93 0,-93 0,-74 127,-74 127,-93"/>
<text text-anchor="middle" x="63.5" y="-81" font-family="Helvetica,sans-Serif" font-size="10.00">Foam::hexRef4::hexRef4</text>
</a>
</g>
</g>
<!-- Node1&#45;&gt;Node2 -->
<g id="edge1_Node000001_Node000002" class="edge">
<title>Node1&#45;&gt;Node2</title>
<g id="a_edge1_Node000001_Node000002"><a xlink:title=" ">
<path fill="none" stroke="#63b8ff" d="M161.69,-63.63C144.28,-67.19 126.53,-70.82 111.05,-73.98"/>
<polygon fill="#63b8ff" stroke="#63b8ff" points="162.78,-66.98 171.88,-61.55 161.38,-60.12 162.78,-66.98"/>
</a>
</g>
</g>
<!-- Node3 -->
<g id="Node000003" class="node">
<title>Node3</title>
<g id="a_Node000003"><a xlink:href="classFoam_1_1hexRef4.html#a424b6af893ef48723f9fcd320707eb73" target="_top" xlink:title=" ">
<polygon fill="white" stroke="#666666" points="127,-56 0,-56 0,-37 127,-37 127,-56"/>
<text text-anchor="middle" x="63.5" y="-44" font-family="Helvetica,sans-Serif" font-size="10.00">Foam::hexRef4::hexRef4</text>
</a>
</g>
</g>
<!-- Node1&#45;&gt;Node3 -->
<g id="edge2_Node000001_Node000003" class="edge">
<title>Node1&#45;&gt;Node3</title>
<g id="a_edge2_Node000001_Node000003"><a xlink:title=" ">
<path fill="none" stroke="#63b8ff" d="M152.77,-46.5C144.1,-46.5 135.45,-46.5 127.16,-46.5"/>
<polygon fill="#63b8ff" stroke="#63b8ff" points="152.95,-50 162.94,-46.5 152.94,-43 152.95,-50"/>
</a>
</g>
</g>
<!-- Node4 -->
<g id="Node000004" class="node">
<title>Node4</title>
<g id="a_Node000004"><a xlink:href="classFoam_1_1hexRef4.html#aada8545a1553326ebec09b37b191367c" target="_top" xlink:title=" ">
<polygon fill="white" stroke="#666666" points="127,-19 0,-19 0,0 127,0 127,-19"/>
<text text-anchor="middle" x="63.5" y="-7" font-family="Helvetica,sans-Serif" font-size="10.00">Foam::hexRef4::hexRef4</text>
</a>
</g>
</g>
<!-- Node1&#45;&gt;Node4 -->
<g id="edge3_Node000001_Node000004" class="edge">
<title>Node1&#45;&gt;Node4</title>
<g id="a_edge3_Node000001_Node000004"><a xlink:title=" ">
<path fill="none" stroke="#63b8ff" d="M161.69,-29.37C144.28,-25.81 126.53,-22.18 111.05,-19.02"/>
<polygon fill="#63b8ff" stroke="#63b8ff" points="161.38,-32.88 171.88,-31.45 162.78,-26.02 161.38,-32.88"/>
</a>
</g>
</g>
</g>
</svg>
