<?xml version="1.0" encoding="UTF-8" standalone="no"?>
<!DOCTYPE svg PUBLIC "-//W3C//DTD SVG 1.1//EN"
 "http://www.w3.org/Graphics/SVG/1.1/DTD/svg11.dtd">
<!-- Generated by graphviz version 2.43.0 (0)
 -->
<!-- Title: Foam::hexRef4::cellLevel Pages: 1 -->
<svg width="315pt" height="98pt"
 viewBox="0.00 0.00 315.00 97.50" xmlns="http://www.w3.org/2000/svg" xmlns:xlink="http://www.w3.org/1999/xlink">
<g id="graph0" class="graph" transform="scale(1 1) rotate(0) translate(4 93.5)">
<title>Foam::hexRef4::cellLevel</title>
<!-- Node1 -->
<g id="Node000001" class="node">
<title>Node1</title>
<g id="a_Node000001"><a xlink:title=" ">
<polygon fill="#999999" stroke="#666666" points="307,-51.5 179,-51.5 179,-32.5 307,-32.5 307,-51.5"/>
<text text-anchor="middle" x="243" y="-39.5" font-family="Helvetica,sans-Serif" font-size="10.00">Foam::hexRef4::cellLevel</text>
</a>
</g>
</g>
<!-- Node2 -->
<g id="Node000002" class="node">
<title>Node2</title>
<g id="a_Node000002"><a xlink:href="classFoam_1_1fvMeshTopoChangers_1_1multiFieldRefiner2D.html#a59e08004965a78ddf98ab6caf35f511c" target="_top" xlink:title=" ">
<polygon fill="white" stroke="#666666" points="143,-89.5 0,-89.5 0,-48.5 143,-48.5 143,-89.5"/>
<text text-anchor="start" x="8" y="-77.5" font-family="Helvetica,sans-Serif" font-size="10.00">Foam::fvMeshTopoChangers</text>
<text text-anchor="start" x="8" y="-66.5" font-family="Helvetica,sans-Serif" font-size="10.00">::multiFieldRefiner2D::</text>
<text text-anchor="middle" x="71.5" y="-55.5" font-family="Helvetica,sans-Serif" font-size="10.00">multiFieldRefiner2D</text>
</a>
</g>
</g>
<!-- Node1&#45;&gt;Node2 -->
<g id="edge1_Node000001_Node000002" class="edge">
<title>Node1&#45;&gt;Node2</title>
<g id="a_edge1_Node000001_Node000002"><a xlink:title=" ">
<path fill="none" stroke="#63b8ff" d="M172.29,-53.1C162.64,-54.64 152.71,-56.22 143.03,-57.76"/>
<polygon fill="#63b8ff" stroke="#63b8ff" points="172.92,-56.55 182.24,-51.52 171.81,-49.64 172.92,-56.55"/>
</a>
</g>
</g>
<!-- Node3 -->
<g id="Node000003" class="node">
<title>Node3</title>
<g id="a_Node000003"><a xlink:href="classFoam_1_1fvMeshTopoChangers_1_1refiner2D.html#a5801e4b71cf2a98d66a6e8cce068753c" target="_top" xlink:title=" ">
<polygon fill="white" stroke="#666666" points="143,-30 0,-30 0,0 143,0 143,-30"/>
<text text-anchor="start" x="8" y="-18" font-family="Helvetica,sans-Serif" font-size="10.00">Foam::fvMeshTopoChangers</text>
<text text-anchor="middle" x="71.5" y="-7" font-family="Helvetica,sans-Serif" font-size="10.00">::refiner2D::refiner2D</text>
</a>
</g>
</g>
<!-- Node1&#45;&gt;Node3 -->
<g id="edge2_Node000001_Node000003" class="edge">
<title>Node1&#45;&gt;Node3</title>
<g id="a_edge2_Node000001_Node000003"><a xlink:title=" ">
<path fill="none" stroke="#63b8ff" d="M172.29,-30.9C162.64,-29.36 152.71,-27.78 143.03,-26.24"/>
<polygon fill="#63b8ff" stroke="#63b8ff" points="171.81,-34.36 182.24,-32.48 172.92,-27.45 171.81,-34.36"/>
</a>
</g>
</g>
</g>
</svg>
