<?xml version="1.0" encoding="UTF-8" standalone="no"?>
<!DOCTYPE svg PUBLIC "-//W3C//DTD SVG 1.1//EN"
 "http://www.w3.org/Graphics/SVG/1.1/DTD/svg11.dtd">
<!-- Generated by graphviz version 2.43.0 (0)
 -->
<!-- Title: Foam::refinementHistory4::mark Pages: 1 -->
<svg width="658pt" height="86pt"
 viewBox="0.00 0.00 658.00 86.00" xmlns="http://www.w3.org/2000/svg" xmlns:xlink="http://www.w3.org/1999/xlink">
<g id="graph0" class="graph" transform="scale(1 1) rotate(0) translate(4 82)">
<title>Foam::refinementHistory4::mark</title>
<!-- Node1 -->
<g id="Node000001" class="node">
<title>Node1</title>
<g id="a_Node000001"><a xlink:title=" ">
<polygon fill="#999999" stroke="#666666" points="650,-53 520,-53 520,-23 650,-23 650,-53"/>
<text text-anchor="start" x="528" y="-41" font-family="Helvetica,sans-Serif" font-size="10.00">Foam::refinementHistory4</text>
<text text-anchor="middle" x="585" y="-30" font-family="Helvetica,sans-Serif" font-size="10.00">::mark</text>
</a>
</g>
</g>
<!-- Node1&#45;&gt;Node1 -->
<g id="edge1_Node000001_Node000001" class="edge">
<title>Node1&#45;&gt;Node1</title>
<g id="a_edge1_Node000001_Node000001"><a xlink:title=" ">
<path fill="none" stroke="#63b8ff" d="M614.06,-63.6C610.09,-67.97 600.4,-71 585,-71 559.06,-71 549.34,-62.41 555.82,-53.28"/>
<polygon fill="#63b8ff" stroke="#63b8ff" points="617.56,-63.32 614.18,-53.28 610.56,-63.23 617.56,-63.32"/>
</a>
</g>
</g>
<!-- Node2 -->
<g id="Node000002" class="node">
<title>Node2</title>
<g id="a_Node000002"><a xlink:href="classFoam_1_1refinementHistory4.html#a1e1622b373ed13946cab67446b177411" target="_top" xlink:title=" ">
<polygon fill="white" stroke="#666666" points="484,-53 354,-53 354,-23 484,-23 484,-53"/>
<text text-anchor="start" x="362" y="-41" font-family="Helvetica,sans-Serif" font-size="10.00">Foam::refinementHistory4</text>
<text text-anchor="middle" x="419" y="-30" font-family="Helvetica,sans-Serif" font-size="10.00">::markCommonCells</text>
</a>
</g>
</g>
<!-- Node1&#45;&gt;Node2 -->
<g id="edge2_Node000001_Node000002" class="edge">
<title>Node1&#45;&gt;Node2</title>
<g id="a_edge2_Node000001_Node000002"><a xlink:title=" ">
<path fill="none" stroke="#63b8ff" d="M509.44,-38C501,-38 492.45,-38 484.16,-38"/>
<polygon fill="#63b8ff" stroke="#63b8ff" points="509.65,-41.5 519.65,-38 509.65,-34.5 509.65,-41.5"/>
</a>
</g>
</g>
<!-- Node3 -->
<g id="Node000003" class="node">
<title>Node3</title>
<g id="a_Node000003"><a xlink:href="classFoam_1_1refinementHistory4.html#a1cea1588a4ec11ca25e3298d400c2eb1" target="_top" xlink:title=" ">
<polygon fill="white" stroke="#666666" points="318,-70.5 166,-70.5 166,-51.5 318,-51.5 318,-70.5"/>
<text text-anchor="middle" x="242" y="-58.5" font-family="Helvetica,sans-Serif" font-size="10.00">Foam::refinementHistory4::add</text>
</a>
</g>
</g>
<!-- Node2&#45;&gt;Node3 -->
<g id="edge3_Node000002_Node000003" class="edge">
<title>Node2&#45;&gt;Node3</title>
<g id="a_edge3_Node000002_Node000003"><a xlink:title=" ">
<path fill="none" stroke="#63b8ff" d="M343.76,-47.76C334.38,-48.99 324.79,-50.25 315.44,-51.48"/>
<polygon fill="#63b8ff" stroke="#63b8ff" points="344.37,-51.21 353.83,-46.43 343.46,-44.27 344.37,-51.21"/>
</a>
</g>
</g>
<!-- Node5 -->
<g id="Node000005" class="node">
<title>Node5</title>
<g id="a_Node000005"><a xlink:href="classFoam_1_1refinementHistory4.html#ac46b7ce994f28194874ad4bb351d9f43" target="_top" xlink:title=" ">
<polygon fill="white" stroke="#666666" points="307,-32 177,-32 177,-2 307,-2 307,-32"/>
<text text-anchor="start" x="185" y="-20" font-family="Helvetica,sans-Serif" font-size="10.00">Foam::refinementHistory4</text>
<text text-anchor="middle" x="242" y="-9" font-family="Helvetica,sans-Serif" font-size="10.00">::apply</text>
</a>
</g>
</g>
<!-- Node2&#45;&gt;Node5 -->
<g id="edge5_Node000002_Node000005" class="edge">
<title>Node2&#45;&gt;Node5</title>
<g id="a_edge5_Node000002_Node000005"><a xlink:title=" ">
<path fill="none" stroke="#63b8ff" d="M343.72,-29.09C331.56,-27.63 319.05,-26.13 307.16,-24.7"/>
<polygon fill="#63b8ff" stroke="#63b8ff" points="343.48,-32.58 353.83,-30.3 344.32,-25.63 343.48,-32.58"/>
</a>
</g>
</g>
<!-- Node4 -->
<g id="Node000004" class="node">
<title>Node4</title>
<g id="a_Node000004"><a xlink:href="classFoam_1_1refinementHistory4Constraint.html#a33c85e79ae6300e7f9578188d3f356e2" target="_top" xlink:title=" ">
<polygon fill="white" stroke="#666666" points="130,-78 0,-78 0,-48 130,-48 130,-78"/>
<text text-anchor="start" x="8" y="-66" font-family="Helvetica,sans-Serif" font-size="10.00">Foam::refinementHistory4</text>
<text text-anchor="middle" x="65" y="-55" font-family="Helvetica,sans-Serif" font-size="10.00">Constraint::add</text>
</a>
</g>
</g>
<!-- Node3&#45;&gt;Node4 -->
<g id="edge4_Node000003_Node000004" class="edge">
<title>Node3&#45;&gt;Node4</title>
<g id="a_edge4_Node000003_Node000004"><a xlink:title=" ">
<path fill="none" stroke="#63b8ff" d="M155.71,-61.97C147.11,-62.07 138.49,-62.17 130.17,-62.27"/>
<polygon fill="#63b8ff" stroke="#63b8ff" points="155.81,-65.47 165.77,-61.86 155.73,-58.47 155.81,-65.47"/>
</a>
</g>
</g>
<!-- Node6 -->
<g id="Node000006" class="node">
<title>Node6</title>
<g id="a_Node000006"><a xlink:href="classFoam_1_1refinementHistory4Constraint.html#a400ed17f26d19e2729516ac3154bf736" target="_top" xlink:title=" ">
<polygon fill="white" stroke="#666666" points="130,-30 0,-30 0,0 130,0 130,-30"/>
<text text-anchor="start" x="8" y="-18" font-family="Helvetica,sans-Serif" font-size="10.00">Foam::refinementHistory4</text>
<text text-anchor="middle" x="65" y="-7" font-family="Helvetica,sans-Serif" font-size="10.00">Constraint::apply</text>
</a>
</g>
</g>
<!-- Node5&#45;&gt;Node6 -->
<g id="edge6_Node000005_Node000006" class="edge">
<title>Node5&#45;&gt;Node6</title>
<g id="a_edge6_Node000005_Node000006"><a xlink:title=" ">
<path fill="none" stroke="#63b8ff" d="M166.72,-16.15C154.56,-16.01 142.05,-15.87 130.16,-15.73"/>
<polygon fill="#63b8ff" stroke="#63b8ff" points="166.79,-19.65 176.83,-16.27 166.87,-12.65 166.79,-19.65"/>
</a>
</g>
</g>
</g>
</svg>
