<?xml version="1.0" encoding="UTF-8" standalone="no"?>
<!DOCTYPE svg PUBLIC "-//W3C//DTD SVG 1.1//EN"
 "http://www.w3.org/Graphics/SVG/1.1/DTD/svg11.dtd">
<!-- Generated by graphviz version 2.43.0 (0)
 -->
<!-- Title: Foam::fvMeshTopoChangers::refiner2D::refiner2D Pages: 1 -->
<svg width="363pt" height="162pt"
 viewBox="0.00 0.00 363.00 161.50" xmlns="http://www.w3.org/2000/svg" xmlns:xlink="http://www.w3.org/1999/xlink">
<g id="graph0" class="graph" transform="scale(1 1) rotate(0) translate(4 157.5)">
<title>Foam::fvMeshTopoChangers::refiner2D::refiner2D</title>
<!-- Node1 -->
<g id="Node000001" class="node">
<title>Node1</title>
<g id="a_Node000001"><a xlink:title=" ">
<polygon fill="#999999" stroke="#666666" points="143,-94 0,-94 0,-64 143,-64 143,-94"/>
<text text-anchor="start" x="8" y="-82" font-family="Helvetica,sans-Serif" font-size="10.00">Foam::fvMeshTopoChangers</text>
<text text-anchor="middle" x="71.5" y="-71" font-family="Helvetica,sans-Serif" font-size="10.00">::refiner2D::refiner2D</text>
</a>
</g>
</g>
<!-- Node2 -->
<g id="Node000002" class="node">
<title>Node2</title>
<g id="a_Node000002"><a xlink:href="classFoam_1_1hexRef4.html#a2c3c5ae0133bd4d47643ff0d576bce8c" target="_top" xlink:title=" ">
<polygon fill="white" stroke="#666666" points="331,-153.5 203,-153.5 203,-134.5 331,-134.5 331,-153.5"/>
<text text-anchor="middle" x="267" y="-141.5" font-family="Helvetica,sans-Serif" font-size="10.00">Foam::hexRef4::cellLevel</text>
</a>
</g>
</g>
<!-- Node1&#45;&gt;Node2 -->
<g id="edge1_Node000001_Node000002" class="edge">
<title>Node1&#45;&gt;Node2</title>
<g id="a_edge1_Node000001_Node000002"><a xlink:title=" ">
<path fill="none" stroke="#63b8ff" d="M103.12,-94.1C124.08,-103.97 152.73,-116.55 179,-125 187.23,-127.65 196.02,-130.05 204.73,-132.18"/>
<polygon fill="#63b8ff" stroke="#63b8ff" points="203.96,-135.59 214.5,-134.47 205.56,-128.78 203.96,-135.59"/>
</a>
</g>
</g>
<!-- Node3 -->
<g id="Node000003" class="node">
<title>Node3</title>
<g id="a_Node000003"><a xlink:href="classFoam_1_1fvMeshTopoChangers_1_1refiner2D.html#a942d6cafe3e60416e1790d3fec3772a2" target="_top" xlink:title=" ">
<polygon fill="white" stroke="#666666" points="355,-116 179,-116 179,-86 355,-86 355,-116"/>
<text text-anchor="start" x="187" y="-104" font-family="Helvetica,sans-Serif" font-size="10.00">Foam::fvMeshTopoChangers</text>
<text text-anchor="middle" x="267" y="-93" font-family="Helvetica,sans-Serif" font-size="10.00">::refiner2D::checkEightAnchorPoints</text>
</a>
</g>
</g>
<!-- Node1&#45;&gt;Node3 -->
<g id="edge2_Node000001_Node000003" class="edge">
<title>Node1&#45;&gt;Node3</title>
<g id="a_edge2_Node000001_Node000003"><a xlink:title=" ">
<path fill="none" stroke="#63b8ff" d="M143.18,-87.04C151.48,-87.98 160.06,-88.96 168.65,-89.93"/>
<polygon fill="#63b8ff" stroke="#63b8ff" points="168.38,-93.42 178.71,-91.08 169.17,-86.47 168.38,-93.42"/>
</a>
</g>
</g>
<!-- Node4 -->
<g id="Node000004" class="node">
<title>Node4</title>
<g id="a_Node000004"><a xlink:href="classFoam_1_1hexRef4.html#a9295a14afd053d6bb2e2f7292d0ca3e1" target="_top" xlink:title=" ">
<polygon fill="white" stroke="#666666" points="334,-67.5 200,-67.5 200,-48.5 334,-48.5 334,-67.5"/>
<text text-anchor="middle" x="267" y="-55.5" font-family="Helvetica,sans-Serif" font-size="10.00">Foam::hexRef4::pointLevel</text>
</a>
</g>
</g>
<!-- Node1&#45;&gt;Node4 -->
<g id="edge3_Node000001_Node000004" class="edge">
<title>Node1&#45;&gt;Node4</title>
<g id="a_edge3_Node000001_Node000004"><a xlink:title=" ">
<path fill="none" stroke="#63b8ff" d="M143.18,-71.33C158.32,-69.69 174.39,-67.94 189.73,-66.28"/>
<polygon fill="#63b8ff" stroke="#63b8ff" points="190.13,-69.75 199.7,-65.2 189.38,-62.8 190.13,-69.75"/>
</a>
</g>
</g>
<!-- Node5 -->
<g id="Node000005" class="node">
<title>Node5</title>
<g id="a_Node000005"><a xlink:href="classFoam_1_1fvMeshTopoChangers_1_1refiner2D.html#a21660fd28fe9974c5d4798850d3e2733" target="_top" xlink:title=" ">
<polygon fill="white" stroke="#666666" points="338.5,-30 195.5,-30 195.5,0 338.5,0 338.5,-30"/>
<text text-anchor="start" x="203.5" y="-18" font-family="Helvetica,sans-Serif" font-size="10.00">Foam::fvMeshTopoChangers</text>
<text text-anchor="middle" x="267" y="-7" font-family="Helvetica,sans-Serif" font-size="10.00">::refiner2D::readDict</text>
</a>
</g>
</g>
<!-- Node1&#45;&gt;Node5 -->
<g id="edge4_Node000001_Node000005" class="edge">
<title>Node1&#45;&gt;Node5</title>
<g id="a_edge4_Node000001_Node000005"><a xlink:title=" ">
<path fill="none" stroke="#63b8ff" d="M111.72,-63.88C131.73,-56.36 156.54,-47.33 179,-40 186.35,-37.6 194.1,-35.2 201.8,-32.89"/>
<polygon fill="#63b8ff" stroke="#63b8ff" points="202.92,-36.2 211.52,-30.01 200.94,-29.49 202.92,-36.2"/>
</a>
</g>
</g>
</g>
</svg>
