<?xml version="1.0" encoding="UTF-8" standalone="no"?>
<!DOCTYPE svg PUBLIC "-//W3C//DTD SVG 1.1//EN"
 "http://www.w3.org/Graphics/SVG/1.1/DTD/svg11.dtd">
<!-- Generated by graphviz version 2.43.0 (0)
 -->
<!-- Title: Foam::hexRef4Data Pages: 1 -->
<svg width="107pt" height="237pt"
 viewBox="0.00 0.00 107.00 237.00" xmlns="http://www.w3.org/2000/svg" xmlns:xlink="http://www.w3.org/1999/xlink">
<g id="graph0" class="graph" transform="scale(1 1) rotate(0) translate(4 233)">
<title>Foam::hexRef4Data</title>
<!-- Node1 -->
<g id="Node000001" class="node">
<title>Node1</title>
<g id="a_Node000001"><a xlink:title=" ">
<polygon fill="#999999" stroke="transparent" points="99,-229 0,-229 0,0 99,0 99,-229"/>
<text text-anchor="start" x="5.5" y="-216.5" font-family="Helvetica,sans-Serif" font-size="10.00">Foam::hexRef4Data</text>
<text text-anchor="start" x="8.5" y="-201.5" font-family="Helvetica,sans-Serif" font-size="10.00">&#45;</text>
<text text-anchor="start" x="20.5" y="-201.5" font-family="Helvetica,sans-Serif" font-size="10.00">cellLevelPtr_</text>
<text text-anchor="start" x="8.5" y="-186.5" font-family="Helvetica,sans-Serif" font-size="10.00">&#45;</text>
<text text-anchor="start" x="20.5" y="-186.5" font-family="Helvetica,sans-Serif" font-size="10.00">pointLevelPtr_</text>
<text text-anchor="start" x="8.5" y="-171.5" font-family="Helvetica,sans-Serif" font-size="10.00">&#45;</text>
<text text-anchor="start" x="20.5" y="-171.5" font-family="Helvetica,sans-Serif" font-size="10.00">level0EdgePtr_</text>
<text text-anchor="start" x="8.5" y="-156.5" font-family="Helvetica,sans-Serif" font-size="10.00">&#45;</text>
<text text-anchor="start" x="20.5" y="-156.5" font-family="Helvetica,sans-Serif" font-size="10.00">refHistoryPtr_</text>
<text text-anchor="start" x="7" y="-141.5" font-family="Helvetica,sans-Serif" font-size="10.00">+</text>
<text text-anchor="start" x="20.5" y="-141.5" font-family="Helvetica,sans-Serif" font-size="10.00">hexRef4Data()</text>
<text text-anchor="start" x="7" y="-126.5" font-family="Helvetica,sans-Serif" font-size="10.00">+</text>
<text text-anchor="start" x="20.5" y="-126.5" font-family="Helvetica,sans-Serif" font-size="10.00">hexRef4Data()</text>
<text text-anchor="start" x="7" y="-111.5" font-family="Helvetica,sans-Serif" font-size="10.00">+</text>
<text text-anchor="start" x="20.5" y="-111.5" font-family="Helvetica,sans-Serif" font-size="10.00">hexRef4Data()</text>
<text text-anchor="start" x="7" y="-96.5" font-family="Helvetica,sans-Serif" font-size="10.00">+</text>
<text text-anchor="start" x="20.5" y="-96.5" font-family="Helvetica,sans-Serif" font-size="10.00">hexRef4Data()</text>
<text text-anchor="start" x="7" y="-81.5" font-family="Helvetica,sans-Serif" font-size="10.00">+</text>
<text text-anchor="start" x="20.5" y="-81.5" font-family="Helvetica,sans-Serif" font-size="10.00">~hexRef4Data()</text>
<text text-anchor="start" x="7" y="-66.5" font-family="Helvetica,sans-Serif" font-size="10.00">+</text>
<text text-anchor="start" x="20.5" y="-66.5" font-family="Helvetica,sans-Serif" font-size="10.00">sync()</text>
<text text-anchor="start" x="7" y="-51.5" font-family="Helvetica,sans-Serif" font-size="10.00">+</text>
<text text-anchor="start" x="20.5" y="-51.5" font-family="Helvetica,sans-Serif" font-size="10.00">topoChange()</text>
<text text-anchor="start" x="7" y="-36.5" font-family="Helvetica,sans-Serif" font-size="10.00">+</text>
<text text-anchor="start" x="20.5" y="-36.5" font-family="Helvetica,sans-Serif" font-size="10.00">distribute()</text>
<text text-anchor="start" x="7" y="-21.5" font-family="Helvetica,sans-Serif" font-size="10.00">+</text>
<text text-anchor="start" x="20.5" y="-21.5" font-family="Helvetica,sans-Serif" font-size="10.00">write()</text>
<text text-anchor="start" x="7" y="-6.5" font-family="Helvetica,sans-Serif" font-size="10.00">+</text>
<text text-anchor="start" x="20.5" y="-6.5" font-family="Helvetica,sans-Serif" font-size="10.00">operator=()</text>
<polygon fill="#666666" stroke="#666666" points="0.5,-211.5 0.5,-211.5 99.5,-211.5 99.5,-211.5 0.5,-211.5"/>
<polygon fill="#666666" stroke="#666666" points="0.5,-151.5 0.5,-151.5 18.5,-151.5 18.5,-151.5 0.5,-151.5"/>
<polygon fill="#666666" stroke="#666666" points="18.5,-151.5 18.5,-151.5 99.5,-151.5 99.5,-151.5 18.5,-151.5"/>
<polygon fill="none" stroke="#666666" points="0,0 0,-229 99,-229 99,0 0,0"/>
</a>
</g>
</g>
</g>
</svg>
