<?xml version="1.0" encoding="UTF-8" standalone="no"?>
<!DOCTYPE svg PUBLIC "-//W3C//DTD SVG 1.1//EN"
 "http://www.w3.org/Graphics/SVG/1.1/DTD/svg11.dtd">
<!-- Generated by graphviz version 2.43.0 (0)
 -->
<!-- Title: Foam::refinementHistory4::checkIndices Pages: 1 -->
<svg width="304pt" height="268pt"
 viewBox="0.00 0.00 304.00 267.50" xmlns="http://www.w3.org/2000/svg" xmlns:xlink="http://www.w3.org/1999/xlink">
<g id="graph0" class="graph" transform="scale(1 1) rotate(0) translate(4 263.5)">
<title>Foam::refinementHistory4::checkIndices</title>
<!-- Node1 -->
<g id="Node000001" class="node">
<title>Node1</title>
<g id="a_Node000001"><a xlink:title=" ">
<polygon fill="#999999" stroke="#666666" points="296,-150 166,-150 166,-120 296,-120 296,-150"/>
<text text-anchor="start" x="174" y="-138" font-family="Helvetica,sans-Serif" font-size="10.00">Foam::refinementHistory4</text>
<text text-anchor="middle" x="231" y="-127" font-family="Helvetica,sans-Serif" font-size="10.00">::checkIndices</text>
</a>
</g>
</g>
<!-- Node2 -->
<g id="Node000002" class="node">
<title>Node2</title>
<g id="a_Node000002"><a xlink:href="namespaceFoam.html#a8815b7e9d2367a7a93e2193e3a47d5e4" target="_top" xlink:title=" ">
<polygon fill="white" stroke="#666666" points="112.5,-259.5 17.5,-259.5 17.5,-240.5 112.5,-240.5 112.5,-259.5"/>
<text text-anchor="middle" x="65" y="-247.5" font-family="Helvetica,sans-Serif" font-size="10.00">Foam::operator&gt;&gt;</text>
</a>
</g>
</g>
<!-- Node1&#45;&gt;Node2 -->
<g id="edge1_Node000001_Node000002" class="edge">
<title>Node1&#45;&gt;Node2</title>
<g id="a_edge1_Node000001_Node000002"><a xlink:title=" ">
<path fill="none" stroke="#63b8ff" d="M211.65,-158.1C193.19,-179.86 162.84,-211.9 130,-231 123.39,-234.85 115.93,-237.97 108.5,-240.49"/>
<polygon fill="#63b8ff" stroke="#63b8ff" points="214.42,-160.24 218.12,-150.31 209.04,-155.76 214.42,-160.24"/>
</a>
</g>
</g>
<!-- Node3 -->
<g id="Node000003" class="node">
<title>Node3</title>
<g id="a_Node000003"><a xlink:href="classFoam_1_1refinementHistory4.html#a0ee0254f44e52d6542cf5db923770255" target="_top" xlink:title=" ">
<polygon fill="white" stroke="#666666" points="130,-222 0,-222 0,-192 130,-192 130,-222"/>
<text text-anchor="start" x="8" y="-210" font-family="Helvetica,sans-Serif" font-size="10.00">Foam::refinementHistory4</text>
<text text-anchor="middle" x="65" y="-199" font-family="Helvetica,sans-Serif" font-size="10.00">::refinementHistory4</text>
</a>
</g>
</g>
<!-- Node1&#45;&gt;Node3 -->
<g id="edge2_Node000001_Node000003" class="edge">
<title>Node1&#45;&gt;Node3</title>
<g id="a_edge2_Node000001_Node000003"><a xlink:title=" ">
<path fill="none" stroke="#63b8ff" d="M190.93,-154.75C172.6,-163.75 150.36,-174.31 130,-183 122.91,-186.03 115.29,-189.06 107.87,-191.91"/>
<polygon fill="#63b8ff" stroke="#63b8ff" points="192.71,-157.77 200.12,-150.2 189.61,-151.49 192.71,-157.77"/>
</a>
</g>
</g>
<!-- Node4 -->
<g id="Node000004" class="node">
<title>Node4</title>
<g id="a_Node000004"><a xlink:href="classFoam_1_1refinementHistory4.html#aa54cfdfbefdc4434d553be7e488c5102" target="_top" xlink:title=" ">
<polygon fill="white" stroke="#666666" points="130,-174 0,-174 0,-144 130,-144 130,-174"/>
<text text-anchor="start" x="8" y="-162" font-family="Helvetica,sans-Serif" font-size="10.00">Foam::refinementHistory4</text>
<text text-anchor="middle" x="65" y="-151" font-family="Helvetica,sans-Serif" font-size="10.00">::refinementHistory4</text>
</a>
</g>
</g>
<!-- Node1&#45;&gt;Node4 -->
<g id="edge3_Node000001_Node000004" class="edge">
<title>Node1&#45;&gt;Node4</title>
<g id="a_edge3_Node000001_Node000004"><a xlink:title=" ">
<path fill="none" stroke="#63b8ff" d="M155.71,-145.87C147.18,-147.12 138.54,-148.38 130.16,-149.61"/>
<polygon fill="#63b8ff" stroke="#63b8ff" points="156.27,-149.33 165.65,-144.42 155.25,-142.4 156.27,-149.33"/>
</a>
</g>
</g>
<!-- Node5 -->
<g id="Node000005" class="node">
<title>Node5</title>
<g id="a_Node000005"><a xlink:href="classFoam_1_1refinementHistory4.html#aeb3bd2d3f25b0e34489ef8e955d596eb" target="_top" xlink:title=" ">
<polygon fill="white" stroke="#666666" points="130,-126 0,-126 0,-96 130,-96 130,-126"/>
<text text-anchor="start" x="8" y="-114" font-family="Helvetica,sans-Serif" font-size="10.00">Foam::refinementHistory4</text>
<text text-anchor="middle" x="65" y="-103" font-family="Helvetica,sans-Serif" font-size="10.00">::refinementHistory4</text>
</a>
</g>
</g>
<!-- Node1&#45;&gt;Node5 -->
<g id="edge4_Node000001_Node000005" class="edge">
<title>Node1&#45;&gt;Node5</title>
<g id="a_edge4_Node000001_Node000005"><a xlink:title=" ">
<path fill="none" stroke="#63b8ff" d="M155.71,-124.13C147.18,-122.88 138.54,-121.62 130.16,-120.39"/>
<polygon fill="#63b8ff" stroke="#63b8ff" points="155.25,-127.6 165.65,-125.58 156.27,-120.67 155.25,-127.6"/>
</a>
</g>
</g>
<!-- Node6 -->
<g id="Node000006" class="node">
<title>Node6</title>
<g id="a_Node000006"><a xlink:href="classFoam_1_1refinementHistory4.html#acff2f6a3d49da82b36d45321a1821983" target="_top" xlink:title=" ">
<polygon fill="white" stroke="#666666" points="130,-78 0,-78 0,-48 130,-48 130,-78"/>
<text text-anchor="start" x="8" y="-66" font-family="Helvetica,sans-Serif" font-size="10.00">Foam::refinementHistory4</text>
<text text-anchor="middle" x="65" y="-55" font-family="Helvetica,sans-Serif" font-size="10.00">::refinementHistory4</text>
</a>
</g>
</g>
<!-- Node1&#45;&gt;Node6 -->
<g id="edge5_Node000001_Node000006" class="edge">
<title>Node1&#45;&gt;Node6</title>
<g id="a_edge5_Node000001_Node000006"><a xlink:title=" ">
<path fill="none" stroke="#63b8ff" d="M190.93,-115.25C172.6,-106.25 150.36,-95.69 130,-87 122.91,-83.97 115.29,-80.94 107.87,-78.09"/>
<polygon fill="#63b8ff" stroke="#63b8ff" points="189.61,-118.51 200.12,-119.8 192.71,-112.23 189.61,-118.51"/>
</a>
</g>
</g>
<!-- Node7 -->
<g id="Node000007" class="node">
<title>Node7</title>
<g id="a_Node000007"><a xlink:href="classFoam_1_1refinementHistory4.html#a5f6e5b2ce2796123f391e6d08e9588e0" target="_top" xlink:title=" ">
<polygon fill="white" stroke="#666666" points="130,-30 0,-30 0,0 130,0 130,-30"/>
<text text-anchor="start" x="8" y="-18" font-family="Helvetica,sans-Serif" font-size="10.00">Foam::refinementHistory4</text>
<text text-anchor="middle" x="65" y="-7" font-family="Helvetica,sans-Serif" font-size="10.00">::refinementHistory4</text>
</a>
</g>
</g>
<!-- Node1&#45;&gt;Node7 -->
<g id="edge6_Node000001_Node000007" class="edge">
<title>Node1&#45;&gt;Node7</title>
<g id="a_edge6_Node000001_Node000007"><a xlink:title=" ">
<path fill="none" stroke="#63b8ff" d="M211.03,-112.04C192.32,-90.66 161.96,-59.12 130,-39 124.68,-35.65 118.82,-32.66 112.87,-30.02"/>
<polygon fill="#63b8ff" stroke="#63b8ff" points="208.44,-114.4 217.61,-119.7 213.74,-109.83 208.44,-114.4"/>
</a>
</g>
</g>
</g>
</svg>
