<?xml version="1.0" encoding="UTF-8" standalone="no"?>
<!DOCTYPE svg PUBLIC "-//W3C//DTD SVG 1.1//EN"
 "http://www.w3.org/Graphics/SVG/1.1/DTD/svg11.dtd">
<!-- Generated by graphviz version 2.43.0 (0)
 -->
<!-- Title: Foam::fvMeshTopoChangers::multiFieldRefiner2D::multiFieldRefiner2D Pages: 1 -->
<svg width="330pt" height="182pt"
 viewBox="0.00 0.00 330.00 182.00" xmlns="http://www.w3.org/2000/svg" xmlns:xlink="http://www.w3.org/1999/xlink">
<g id="graph0" class="graph" transform="scale(1 1) rotate(0) translate(4 178)">
<title>Foam::fvMeshTopoChangers::multiFieldRefiner2D::multiFieldRefiner2D</title>
<!-- Node1 -->
<g id="Node000001" class="node">
<title>Node1</title>
<g id="a_Node000001"><a xlink:title=" ">
<polygon fill="#999999" stroke="#666666" points="143,-113 0,-113 0,-72 143,-72 143,-113"/>
<text text-anchor="start" x="8" y="-101" font-family="Helvetica,sans-Serif" font-size="10.00">Foam::fvMeshTopoChangers</text>
<text text-anchor="start" x="8" y="-90" font-family="Helvetica,sans-Serif" font-size="10.00">::multiFieldRefiner2D::</text>
<text text-anchor="middle" x="71.5" y="-79" font-family="Helvetica,sans-Serif" font-size="10.00">multiFieldRefiner2D</text>
</a>
</g>
</g>
<!-- Node2 -->
<g id="Node000002" class="node">
<title>Node2</title>
<g id="a_Node000002"><a xlink:href="classFoam_1_1hexRef4.html#a2c3c5ae0133bd4d47643ff0d576bce8c" target="_top" xlink:title=" ">
<polygon fill="white" stroke="#666666" points="314.5,-174 186.5,-174 186.5,-155 314.5,-155 314.5,-174"/>
<text text-anchor="middle" x="250.5" y="-162" font-family="Helvetica,sans-Serif" font-size="10.00">Foam::hexRef4::cellLevel</text>
</a>
</g>
</g>
<!-- Node1&#45;&gt;Node2 -->
<g id="edge1_Node000001_Node000002" class="edge">
<title>Node1&#45;&gt;Node2</title>
<g id="a_edge1_Node000001_Node000002"><a xlink:title=" ">
<path fill="none" stroke="#63b8ff" d="M108.08,-113.02C128.37,-124.08 154.55,-137.31 179,-146.5 184.45,-148.55 190.23,-150.45 196.04,-152.18"/>
<polygon fill="#63b8ff" stroke="#63b8ff" points="195.21,-155.58 205.79,-154.93 197.12,-148.84 195.21,-155.58"/>
</a>
</g>
</g>
<!-- Node3 -->
<g id="Node000003" class="node">
<title>Node3</title>
<g id="a_Node000003"><a xlink:href="classFoam_1_1fvMeshTopoChangers_1_1multiFieldRefiner2D.html#a6ff23b7efbcdff14dfeb6898e3358187" target="_top" xlink:title=" ">
<polygon fill="white" stroke="#666666" points="322,-137 179,-137 179,-96 322,-96 322,-137"/>
<text text-anchor="start" x="187" y="-125" font-family="Helvetica,sans-Serif" font-size="10.00">Foam::fvMeshTopoChangers</text>
<text text-anchor="start" x="187" y="-114" font-family="Helvetica,sans-Serif" font-size="10.00">::multiFieldRefiner2D::</text>
<text text-anchor="middle" x="250.5" y="-103" font-family="Helvetica,sans-Serif" font-size="10.00">checkEightAnchorPoints</text>
</a>
</g>
</g>
<!-- Node1&#45;&gt;Node3 -->
<g id="edge2_Node000001_Node000003" class="edge">
<title>Node1&#45;&gt;Node3</title>
<g id="a_edge2_Node000001_Node000003"><a xlink:title=" ">
<path fill="none" stroke="#63b8ff" d="M143.22,-102.09C151.66,-103.23 160.33,-104.41 168.9,-105.57"/>
<polygon fill="#63b8ff" stroke="#63b8ff" points="168.51,-109.05 178.89,-106.93 169.46,-102.11 168.51,-109.05"/>
</a>
</g>
</g>
<!-- Node4 -->
<g id="Node000004" class="node">
<title>Node4</title>
<g id="a_Node000004"><a xlink:href="classFoam_1_1hexRef4.html#a9295a14afd053d6bb2e2f7292d0ca3e1" target="_top" xlink:title=" ">
<polygon fill="white" stroke="#666666" points="317.5,-78 183.5,-78 183.5,-59 317.5,-59 317.5,-78"/>
<text text-anchor="middle" x="250.5" y="-66" font-family="Helvetica,sans-Serif" font-size="10.00">Foam::hexRef4::pointLevel</text>
</a>
</g>
</g>
<!-- Node1&#45;&gt;Node4 -->
<g id="edge3_Node000001_Node000004" class="edge">
<title>Node1&#45;&gt;Node4</title>
<g id="a_edge3_Node000001_Node000004"><a xlink:title=" ">
<path fill="none" stroke="#63b8ff" d="M143.22,-82.91C153.18,-81.56 163.46,-80.17 173.52,-78.8"/>
<polygon fill="#63b8ff" stroke="#63b8ff" points="174.05,-82.26 183.49,-77.45 173.11,-75.33 174.05,-82.26"/>
</a>
</g>
</g>
<!-- Node5 -->
<g id="Node000005" class="node">
<title>Node5</title>
<g id="a_Node000005"><a xlink:href="classFoam_1_1fvMeshTopoChangers_1_1multiFieldRefiner2D.html#af76c86f84cb2f75bfcd7b51f6d4f47e9" target="_top" xlink:title=" ">
<polygon fill="white" stroke="#666666" points="322,-41 179,-41 179,0 322,0 322,-41"/>
<text text-anchor="start" x="187" y="-29" font-family="Helvetica,sans-Serif" font-size="10.00">Foam::fvMeshTopoChangers</text>
<text text-anchor="start" x="187" y="-18" font-family="Helvetica,sans-Serif" font-size="10.00">::multiFieldRefiner2D::</text>
<text text-anchor="middle" x="250.5" y="-7" font-family="Helvetica,sans-Serif" font-size="10.00">readDict</text>
</a>
</g>
</g>
<!-- Node1&#45;&gt;Node5 -->
<g id="edge4_Node000001_Node000005" class="edge">
<title>Node1&#45;&gt;Node5</title>
<g id="a_edge4_Node000001_Node000005"><a xlink:title=" ">
<path fill="none" stroke="#63b8ff" d="M123.22,-71.87C143.95,-63.43 168.09,-53.61 189.68,-44.83"/>
<polygon fill="#63b8ff" stroke="#63b8ff" points="191.13,-48.02 199.08,-41.01 188.5,-41.54 191.13,-48.02"/>
</a>
</g>
</g>
</g>
</svg>
