<?xml version="1.0" encoding="UTF-8" standalone="no"?>
<!DOCTYPE svg PUBLIC "-//W3C//DTD SVG 1.1//EN"
 "http://www.w3.org/Graphics/SVG/1.1/DTD/svg11.dtd">
<!-- Generated by graphviz version 2.43.0 (0)
 -->
<!-- Title: Foam::fvMeshTopoChangers::multiFieldRefiner3D::multiFieldRefiner3D Pages: 1 -->
<svg width="330pt" height="108pt"
 viewBox="0.00 0.00 330.00 108.00" xmlns="http://www.w3.org/2000/svg" xmlns:xlink="http://www.w3.org/1999/xlink">
<g id="graph0" class="graph" transform="scale(1 1) rotate(0) translate(4 104)">
<title>Foam::fvMeshTopoChangers::multiFieldRefiner3D::multiFieldRefiner3D</title>
<!-- Node1 -->
<g id="Node000001" class="node">
<title>Node1</title>
<g id="a_Node000001"><a xlink:title=" ">
<polygon fill="#999999" stroke="#666666" points="143,-70 0,-70 0,-29 143,-29 143,-70"/>
<text text-anchor="start" x="8" y="-58" font-family="Helvetica,sans-Serif" font-size="10.00">Foam::fvMeshTopoChangers</text>
<text text-anchor="start" x="8" y="-47" font-family="Helvetica,sans-Serif" font-size="10.00">::multiFieldRefiner3D::</text>
<text text-anchor="middle" x="71.5" y="-36" font-family="Helvetica,sans-Serif" font-size="10.00">multiFieldRefiner3D</text>
</a>
</g>
</g>
<!-- Node2 -->
<g id="Node000002" class="node">
<title>Node2</title>
<g id="a_Node000002"><a xlink:href="classFoam_1_1fvMeshTopoChangers_1_1multiFieldRefiner3D.html#a4a3a8119446721f91c7068d0097fbc68" target="_top" xlink:title=" ">
<polygon fill="white" stroke="#666666" points="322,-100 179,-100 179,-59 322,-59 322,-100"/>
<text text-anchor="start" x="187" y="-88" font-family="Helvetica,sans-Serif" font-size="10.00">Foam::fvMeshTopoChangers</text>
<text text-anchor="start" x="187" y="-77" font-family="Helvetica,sans-Serif" font-size="10.00">::multiFieldRefiner3D::</text>
<text text-anchor="middle" x="250.5" y="-66" font-family="Helvetica,sans-Serif" font-size="10.00">checkEightAnchorPoints</text>
</a>
</g>
</g>
<!-- Node1&#45;&gt;Node2 -->
<g id="edge1_Node000001_Node000002" class="edge">
<title>Node1&#45;&gt;Node2</title>
<g id="a_edge1_Node000001_Node000002"><a xlink:title=" ">
<path fill="none" stroke="#63b8ff" d="M143.22,-61.49C151.66,-62.92 160.33,-64.39 168.9,-65.84"/>
<polygon fill="#63b8ff" stroke="#63b8ff" points="168.45,-69.31 178.89,-67.53 169.62,-62.41 168.45,-69.31"/>
</a>
</g>
</g>
<!-- Node3 -->
<g id="Node000003" class="node">
<title>Node3</title>
<g id="a_Node000003"><a xlink:href="classFoam_1_1fvMeshTopoChangers_1_1multiFieldRefiner3D.html#a5734ce3c5f637909f821a8a1d11f4b77" target="_top" xlink:title=" ">
<polygon fill="white" stroke="#666666" points="322,-41 179,-41 179,0 322,0 322,-41"/>
<text text-anchor="start" x="187" y="-29" font-family="Helvetica,sans-Serif" font-size="10.00">Foam::fvMeshTopoChangers</text>
<text text-anchor="start" x="187" y="-18" font-family="Helvetica,sans-Serif" font-size="10.00">::multiFieldRefiner3D::</text>
<text text-anchor="middle" x="250.5" y="-7" font-family="Helvetica,sans-Serif" font-size="10.00">readDict</text>
</a>
</g>
</g>
<!-- Node1&#45;&gt;Node3 -->
<g id="edge2_Node000001_Node000003" class="edge">
<title>Node1&#45;&gt;Node3</title>
<g id="a_edge2_Node000001_Node000003"><a xlink:title=" ">
<path fill="none" stroke="#63b8ff" d="M143.22,-37.91C151.66,-36.53 160.33,-35.11 168.9,-33.71"/>
<polygon fill="#63b8ff" stroke="#63b8ff" points="169.59,-37.14 178.89,-32.07 168.46,-30.23 169.59,-37.14"/>
</a>
</g>
</g>
</g>
</svg>
