<?xml version="1.0" encoding="UTF-8" standalone="no"?>
<!DOCTYPE svg PUBLIC "-//W3C//DTD SVG 1.1//EN"
 "http://www.w3.org/Graphics/SVG/1.1/DTD/svg11.dtd">
<!-- Generated by graphviz version 2.43.0 (0)
 -->
<!-- Title: Foam::hexRef4 Pages: 1 -->
<svg width="148pt" height="1034pt"
 viewBox="0.00 0.00 148.00 1034.00" xmlns="http://www.w3.org/2000/svg" xmlns:xlink="http://www.w3.org/1999/xlink">
<g id="graph0" class="graph" transform="scale(1 1) rotate(0) translate(4 1030)">
<title>Foam::hexRef4</title>
<!-- Node1 -->
<g id="Node000001" class="node">
<title>Node1</title>
<g id="a_Node000001"><a xlink:title=" ">
<polygon fill="#999999" stroke="transparent" points="140,-514 0,-514 0,0 140,0 140,-514"/>
<text text-anchor="start" x="36" y="-502" font-family="Helvetica,sans-Serif" font-size="10.00">Foam::hexRef4</text>
<text text-anchor="start" x="5.5" y="-487" font-family="Helvetica,sans-Serif" font-size="10.00">&#45;</text>
<text text-anchor="start" x="15" y="-487" font-family="Helvetica,sans-Serif" font-size="10.00">mesh_</text>
<text text-anchor="start" x="5.5" y="-472" font-family="Helvetica,sans-Serif" font-size="10.00">&#45;</text>
<text text-anchor="start" x="15" y="-472" font-family="Helvetica,sans-Serif" font-size="10.00">cellLevel_</text>
<text text-anchor="start" x="5.5" y="-457" font-family="Helvetica,sans-Serif" font-size="10.00">&#45;</text>
<text text-anchor="start" x="15" y="-457" font-family="Helvetica,sans-Serif" font-size="10.00">pointLevel_</text>
<text text-anchor="start" x="5.5" y="-442" font-family="Helvetica,sans-Serif" font-size="10.00">&#45;</text>
<text text-anchor="start" x="15" y="-442" font-family="Helvetica,sans-Serif" font-size="10.00">level0Edge_</text>
<text text-anchor="start" x="5.5" y="-427" font-family="Helvetica,sans-Serif" font-size="10.00">&#45;</text>
<text text-anchor="start" x="15" y="-427" font-family="Helvetica,sans-Serif" font-size="10.00">faceRemover_</text>
<text text-anchor="start" x="5.5" y="-412" font-family="Helvetica,sans-Serif" font-size="10.00">&#45;</text>
<text text-anchor="start" x="15" y="-412" font-family="Helvetica,sans-Serif" font-size="10.00">savedPointLevel_</text>
<text text-anchor="start" x="5.5" y="-397" font-family="Helvetica,sans-Serif" font-size="10.00">&#45;</text>
<text text-anchor="start" x="15" y="-397" font-family="Helvetica,sans-Serif" font-size="10.00">savedCellLevel_</text>
<text text-anchor="start" x="5.5" y="-382" font-family="Helvetica,sans-Serif" font-size="10.00">&#45;</text>
<text text-anchor="start" x="15" y="-382" font-family="Helvetica,sans-Serif" font-size="10.00">cellShapesPtr_</text>
<text text-anchor="start" x="4" y="-367" font-family="Helvetica,sans-Serif" font-size="10.00">+</text>
<text text-anchor="start" x="15" y="-367" font-family="Helvetica,sans-Serif" font-size="10.00">ClassName()</text>
<text text-anchor="start" x="4" y="-352" font-family="Helvetica,sans-Serif" font-size="10.00">+</text>
<text text-anchor="start" x="15" y="-352" font-family="Helvetica,sans-Serif" font-size="10.00">hexRef4()</text>
<text text-anchor="start" x="4" y="-337" font-family="Helvetica,sans-Serif" font-size="10.00">+</text>
<text text-anchor="start" x="15" y="-337" font-family="Helvetica,sans-Serif" font-size="10.00">hexRef4()</text>
<text text-anchor="start" x="4" y="-322" font-family="Helvetica,sans-Serif" font-size="10.00">+</text>
<text text-anchor="start" x="15" y="-322" font-family="Helvetica,sans-Serif" font-size="10.00">hexRef4()</text>
<text text-anchor="start" x="4" y="-307" font-family="Helvetica,sans-Serif" font-size="10.00">+</text>
<text text-anchor="start" x="15" y="-307" font-family="Helvetica,sans-Serif" font-size="10.00">hexRef4()</text>
<text text-anchor="start" x="4" y="-292" font-family="Helvetica,sans-Serif" font-size="10.00">+</text>
<text text-anchor="start" x="15" y="-292" font-family="Helvetica,sans-Serif" font-size="10.00">mesh()</text>
<text text-anchor="start" x="4" y="-277" font-family="Helvetica,sans-Serif" font-size="10.00">+</text>
<text text-anchor="start" x="15" y="-277" font-family="Helvetica,sans-Serif" font-size="10.00">cellLevel()</text>
<text text-anchor="start" x="4" y="-262" font-family="Helvetica,sans-Serif" font-size="10.00">+</text>
<text text-anchor="start" x="15" y="-262" font-family="Helvetica,sans-Serif" font-size="10.00">pointLevel()</text>
<text text-anchor="start" x="4" y="-247" font-family="Helvetica,sans-Serif" font-size="10.00">+</text>
<text text-anchor="start" x="15" y="-247" font-family="Helvetica,sans-Serif" font-size="10.00">history()</text>
<text text-anchor="start" x="4" y="-232" font-family="Helvetica,sans-Serif" font-size="10.00">+</text>
<text text-anchor="start" x="15" y="-232" font-family="Helvetica,sans-Serif" font-size="10.00">level0EdgeLength()</text>
<text text-anchor="start" x="15" y="-217" font-family="Helvetica,sans-Serif" font-size="10.00">and 20 more...</text>
<text text-anchor="start" x="5.5" y="-202" font-family="Helvetica,sans-Serif" font-size="10.00">&#45;</text>
<text text-anchor="start" x="15" y="-202" font-family="Helvetica,sans-Serif" font-size="10.00">getFaceInfo()</text>
<text text-anchor="start" x="5.5" y="-187" font-family="Helvetica,sans-Serif" font-size="10.00">&#45;</text>
<text text-anchor="start" x="15" y="-187" font-family="Helvetica,sans-Serif" font-size="10.00">addFace()</text>
<text text-anchor="start" x="5.5" y="-172" font-family="Helvetica,sans-Serif" font-size="10.00">&#45;</text>
<text text-anchor="start" x="15" y="-172" font-family="Helvetica,sans-Serif" font-size="10.00">addInternalFace()</text>
<text text-anchor="start" x="5.5" y="-157" font-family="Helvetica,sans-Serif" font-size="10.00">&#45;</text>
<text text-anchor="start" x="15" y="-157" font-family="Helvetica,sans-Serif" font-size="10.00">modFace()</text>
<text text-anchor="start" x="5.5" y="-142" font-family="Helvetica,sans-Serif" font-size="10.00">&#45;</text>
<text text-anchor="start" x="15" y="-142" font-family="Helvetica,sans-Serif" font-size="10.00">getLevel0EdgeLength()</text>
<text text-anchor="start" x="5.5" y="-127" font-family="Helvetica,sans-Serif" font-size="10.00">&#45;</text>
<text text-anchor="start" x="15" y="-127" font-family="Helvetica,sans-Serif" font-size="10.00">getAnchorCell()</text>
<text text-anchor="start" x="5.5" y="-112" font-family="Helvetica,sans-Serif" font-size="10.00">&#45;</text>
<text text-anchor="start" x="15" y="-112" font-family="Helvetica,sans-Serif" font-size="10.00">getFaceNeighbours()</text>
<text text-anchor="start" x="5.5" y="-97" font-family="Helvetica,sans-Serif" font-size="10.00">&#45;</text>
<text text-anchor="start" x="15" y="-97" font-family="Helvetica,sans-Serif" font-size="10.00">findMinLevel()</text>
<text text-anchor="start" x="5.5" y="-82" font-family="Helvetica,sans-Serif" font-size="10.00">&#45;</text>
<text text-anchor="start" x="15" y="-82" font-family="Helvetica,sans-Serif" font-size="10.00">findMaxLevel()</text>
<text text-anchor="start" x="5.5" y="-67" font-family="Helvetica,sans-Serif" font-size="10.00">&#45;</text>
<text text-anchor="start" x="15" y="-67" font-family="Helvetica,sans-Serif" font-size="10.00">countAnchors()</text>
<text text-anchor="start" x="15" y="-52" font-family="Helvetica,sans-Serif" font-size="10.00">and 13 more...</text>
<text text-anchor="start" x="5.5" y="-37" font-family="Helvetica,sans-Serif" font-size="10.00">&#45;</text>
<text text-anchor="start" x="15" y="-37" font-family="Helvetica,sans-Serif" font-size="10.00">reorder()</text>
<text text-anchor="start" x="5.5" y="-22" font-family="Helvetica,sans-Serif" font-size="10.00">&#45;</text>
<text text-anchor="start" x="15" y="-22" font-family="Helvetica,sans-Serif" font-size="10.00">checkInternalOrientation()</text>
<text text-anchor="start" x="5.5" y="-7" font-family="Helvetica,sans-Serif" font-size="10.00">&#45;</text>
<text text-anchor="start" x="15" y="-7" font-family="Helvetica,sans-Serif" font-size="10.00">checkBoundaryOrientation()</text>
<polygon fill="#666666" stroke="#666666" points="0,-497 0,-497 140,-497 140,-497 0,-497"/>
<polygon fill="#666666" stroke="#666666" points="0,-377 0,-377 13,-377 13,-377 0,-377"/>
<polygon fill="#666666" stroke="#666666" points="13,-377 13,-377 140,-377 140,-377 13,-377"/>
<polygon fill="none" stroke="#666666" points="0,0 0,-514 140,-514 140,0 0,0"/>
</a>
</g>
</g>
<!-- Node2 -->
<g id="Node000002" class="node">
<title>Node2</title>
<g id="a_Node000002"><a xlink:href="classFoam_1_1refinementHistory4.html" target="_top" xlink:title=" ">
<polygon fill="white" stroke="transparent" points="132,-940 8,-940 8,-561 132,-561 132,-940"/>
<text text-anchor="start" x="13" y="-927.5" font-family="Helvetica,sans-Serif" font-size="10.00">Foam::refinementHistory4</text>
<text text-anchor="start" x="17" y="-912.5" font-family="Helvetica,sans-Serif" font-size="10.00">&#45;</text>
<text text-anchor="start" x="30" y="-912.5" font-family="Helvetica,sans-Serif" font-size="10.00">active_</text>
<text text-anchor="start" x="17" y="-897.5" font-family="Helvetica,sans-Serif" font-size="10.00">&#45;</text>
<text text-anchor="start" x="30" y="-897.5" font-family="Helvetica,sans-Serif" font-size="10.00">splitCells_</text>
<text text-anchor="start" x="17" y="-882.5" font-family="Helvetica,sans-Serif" font-size="10.00">&#45;</text>
<text text-anchor="start" x="30" y="-882.5" font-family="Helvetica,sans-Serif" font-size="10.00">freeSplitCells_</text>
<text text-anchor="start" x="17" y="-867.5" font-family="Helvetica,sans-Serif" font-size="10.00">&#45;</text>
<text text-anchor="start" x="30" y="-867.5" font-family="Helvetica,sans-Serif" font-size="10.00">visibleCells_</text>
<text text-anchor="start" x="15.5" y="-852.5" font-family="Helvetica,sans-Serif" font-size="10.00">+</text>
<text text-anchor="start" x="30" y="-852.5" font-family="Helvetica,sans-Serif" font-size="10.00">TypeName()</text>
<text text-anchor="start" x="15.5" y="-837.5" font-family="Helvetica,sans-Serif" font-size="10.00">+</text>
<text text-anchor="start" x="30" y="-837.5" font-family="Helvetica,sans-Serif" font-size="10.00">refinementHistory4()</text>
<text text-anchor="start" x="15.5" y="-822.5" font-family="Helvetica,sans-Serif" font-size="10.00">+</text>
<text text-anchor="start" x="30" y="-822.5" font-family="Helvetica,sans-Serif" font-size="10.00">refinementHistory4()</text>
<text text-anchor="start" x="15.5" y="-807.5" font-family="Helvetica,sans-Serif" font-size="10.00">+</text>
<text text-anchor="start" x="30" y="-807.5" font-family="Helvetica,sans-Serif" font-size="10.00">refinementHistory4()</text>
<text text-anchor="start" x="15.5" y="-792.5" font-family="Helvetica,sans-Serif" font-size="10.00">+</text>
<text text-anchor="start" x="30" y="-792.5" font-family="Helvetica,sans-Serif" font-size="10.00">refinementHistory4()</text>
<text text-anchor="start" x="15.5" y="-777.5" font-family="Helvetica,sans-Serif" font-size="10.00">+</text>
<text text-anchor="start" x="30" y="-777.5" font-family="Helvetica,sans-Serif" font-size="10.00">refinementHistory4()</text>
<text text-anchor="start" x="15.5" y="-762.5" font-family="Helvetica,sans-Serif" font-size="10.00">+</text>
<text text-anchor="start" x="30" y="-762.5" font-family="Helvetica,sans-Serif" font-size="10.00">refinementHistory4()</text>
<text text-anchor="start" x="15.5" y="-747.5" font-family="Helvetica,sans-Serif" font-size="10.00">+</text>
<text text-anchor="start" x="30" y="-747.5" font-family="Helvetica,sans-Serif" font-size="10.00">refinementHistory4()</text>
<text text-anchor="start" x="15.5" y="-732.5" font-family="Helvetica,sans-Serif" font-size="10.00">+</text>
<text text-anchor="start" x="30" y="-732.5" font-family="Helvetica,sans-Serif" font-size="10.00">visibleCells()</text>
<text text-anchor="start" x="15.5" y="-717.5" font-family="Helvetica,sans-Serif" font-size="10.00">+</text>
<text text-anchor="start" x="30" y="-717.5" font-family="Helvetica,sans-Serif" font-size="10.00">splitCells()</text>
<text text-anchor="start" x="30" y="-702.5" font-family="Helvetica,sans-Serif" font-size="10.00">and 19 more...</text>
<text text-anchor="start" x="17" y="-687.5" font-family="Helvetica,sans-Serif" font-size="10.00">&#45;</text>
<text text-anchor="start" x="30" y="-687.5" font-family="Helvetica,sans-Serif" font-size="10.00">checkIndices()</text>
<text text-anchor="start" x="17" y="-672.5" font-family="Helvetica,sans-Serif" font-size="10.00">&#45;</text>
<text text-anchor="start" x="30" y="-672.5" font-family="Helvetica,sans-Serif" font-size="10.00">allocateSplitCell()</text>
<text text-anchor="start" x="17" y="-657.5" font-family="Helvetica,sans-Serif" font-size="10.00">&#45;</text>
<text text-anchor="start" x="30" y="-657.5" font-family="Helvetica,sans-Serif" font-size="10.00">freeSplitCell()</text>
<text text-anchor="start" x="17" y="-642.5" font-family="Helvetica,sans-Serif" font-size="10.00">&#45;</text>
<text text-anchor="start" x="30" y="-642.5" font-family="Helvetica,sans-Serif" font-size="10.00">markSplit()</text>
<text text-anchor="start" x="17" y="-627.5" font-family="Helvetica,sans-Serif" font-size="10.00">&#45;</text>
<text text-anchor="start" x="30" y="-627.5" font-family="Helvetica,sans-Serif" font-size="10.00">countProc()</text>
<text text-anchor="start" x="17" y="-612.5" font-family="Helvetica,sans-Serif" font-size="10.00">&#45;</text>
<text text-anchor="start" x="30" y="-612.5" font-family="Helvetica,sans-Serif" font-size="10.00">mark()</text>
<text text-anchor="start" x="17" y="-597.5" font-family="Helvetica,sans-Serif" font-size="10.00">&#45;</text>
<text text-anchor="start" x="30" y="-597.5" font-family="Helvetica,sans-Serif" font-size="10.00">markCommonCells()</text>
<text text-anchor="start" x="17" y="-582.5" font-family="Helvetica,sans-Serif" font-size="10.00">&#45;</text>
<text text-anchor="start" x="30" y="-582.5" font-family="Helvetica,sans-Serif" font-size="10.00">writeEntry()</text>
<text text-anchor="start" x="17" y="-567.5" font-family="Helvetica,sans-Serif" font-size="10.00">&#45;</text>
<text text-anchor="start" x="30" y="-567.5" font-family="Helvetica,sans-Serif" font-size="10.00">writeDebug()</text>
<polygon fill="#666666" stroke="#666666" points="8,-922.5 8,-922.5 132,-922.5 132,-922.5 8,-922.5"/>
<polygon fill="#666666" stroke="#666666" points="8,-862.5 8,-862.5 28,-862.5 28,-862.5 8,-862.5"/>
<polygon fill="#666666" stroke="#666666" points="28,-862.5 28,-862.5 132,-862.5 132,-862.5 28,-862.5"/>
<polygon fill="none" stroke="#666666" points="8,-561 8,-940 132,-940 132,-561 8,-561"/>
</a>
</g>
</g>
<!-- Node2&#45;&gt;Node1 -->
<g id="edge1_Node000001_Node000002" class="edge">
<title>Node2&#45;&gt;Node1</title>
<g id="a_edge1_Node000001_Node000002"><a xlink:title=" ">
<path fill="none" stroke="#63b8ff" d="M70,-560.88C70,-549.53 70,-538 70,-526.41"/>
<polygon fill="none" stroke="#63b8ff" points="70,-526.31 66,-520.31 70,-514.31 74,-520.31 70,-526.31"/>
</a>
</g>
<text text-anchor="middle" x="90.5" y="-535" font-family="Helvetica,sans-Serif" font-size="10.00" fill="grey"> &#45;history_</text>
</g>
<!-- Node3 -->
<g id="Node000003" class="node">
<title>Node3</title>
<g id="a_Node000003"><a xlink:title=" ">
<polygon fill="white" stroke="transparent" points="100.5,-1026 39.5,-1026 39.5,-977 100.5,-977 100.5,-1026"/>
<text text-anchor="start" x="45" y="-1013.5" font-family="Helvetica,sans-Serif" font-size="10.00">regIOobject</text>
<text text-anchor="start" x="68.5" y="-998.5" font-family="Helvetica,sans-Serif" font-size="10.00"> </text>
<text text-anchor="start" x="68.5" y="-983.5" font-family="Helvetica,sans-Serif" font-size="10.00"> </text>
<polygon fill="#666666" stroke="#666666" points="40,-1008.5 40,-1008.5 101,-1008.5 101,-1008.5 40,-1008.5"/>
<polygon fill="#666666" stroke="#666666" points="40,-993.5 40,-993.5 101,-993.5 101,-993.5 40,-993.5"/>
<polygon fill="none" stroke="#666666" points="39.5,-977 39.5,-1026 100.5,-1026 100.5,-977 39.5,-977"/>
</a>
</g>
</g>
<!-- Node3&#45;&gt;Node2 -->
<g id="edge2_Node000002_Node000003" class="edge">
<title>Node3&#45;&gt;Node2</title>
<g id="a_edge2_Node000002_Node000003"><a xlink:title=" ">
<path fill="none" stroke="#63b8ff" d="M70,-966.55C70,-958.65 70,-949.69 70,-940.03"/>
<polygon fill="none" stroke="#63b8ff" points="66.5,-966.62 70,-976.62 73.5,-966.62 66.5,-966.62"/>
</a>
</g>
</g>
</g>
</svg>
