<?xml version="1.0" encoding="UTF-8" standalone="no"?>
<!DOCTYPE svg PUBLIC "-//W3C//DTD SVG 1.1//EN"
 "http://www.w3.org/Graphics/SVG/1.1/DTD/svg11.dtd">
<!-- Generated by graphviz version 2.43.0 (0)
 -->
<!-- Title: Foam::refinementHistory4::topoChange Pages: 1 -->
<svg width="317pt" height="98pt"
 viewBox="0.00 0.00 317.00 97.50" xmlns="http://www.w3.org/2000/svg" xmlns:xlink="http://www.w3.org/1999/xlink">
<g id="graph0" class="graph" transform="scale(1 1) rotate(0) translate(4 93.5)">
<title>Foam::refinementHistory4::topoChange</title>
<!-- Node1 -->
<g id="Node000001" class="node">
<title>Node1</title>
<g id="a_Node000001"><a xlink:title=" ">
<polygon fill="#999999" stroke="#666666" points="309,-57 179,-57 179,-27 309,-27 309,-57"/>
<text text-anchor="start" x="187" y="-45" font-family="Helvetica,sans-Serif" font-size="10.00">Foam::refinementHistory4</text>
<text text-anchor="middle" x="244" y="-34" font-family="Helvetica,sans-Serif" font-size="10.00">::topoChange</text>
</a>
</g>
</g>
<!-- Node2 -->
<g id="Node000002" class="node">
<title>Node2</title>
<g id="a_Node000002"><a xlink:href="classFoam_1_1fvMeshTopoChangers_1_1multiFieldRefiner2D.html#a85b5f4a19786dd04d0560dab43c8b679" target="_top" xlink:title=" ">
<polygon fill="white" stroke="#666666" points="143,-89.5 0,-89.5 0,-48.5 143,-48.5 143,-89.5"/>
<text text-anchor="start" x="8" y="-77.5" font-family="Helvetica,sans-Serif" font-size="10.00">Foam::fvMeshTopoChangers</text>
<text text-anchor="start" x="8" y="-66.5" font-family="Helvetica,sans-Serif" font-size="10.00">::multiFieldRefiner2D::</text>
<text text-anchor="middle" x="71.5" y="-55.5" font-family="Helvetica,sans-Serif" font-size="10.00">topoChange</text>
</a>
</g>
</g>
<!-- Node1&#45;&gt;Node2 -->
<g id="edge1_Node000001_Node000002" class="edge">
<title>Node1&#45;&gt;Node2</title>
<g id="a_edge1_Node000001_Node000002"><a xlink:title=" ">
<path fill="none" stroke="#63b8ff" d="M168.65,-53.77C160.14,-55.12 151.49,-56.49 143.04,-57.83"/>
<polygon fill="#63b8ff" stroke="#63b8ff" points="169.21,-57.23 178.54,-52.21 168.12,-50.31 169.21,-57.23"/>
</a>
</g>
</g>
<!-- Node3 -->
<g id="Node000003" class="node">
<title>Node3</title>
<g id="a_Node000003"><a xlink:href="classFoam_1_1fvMeshTopoChangers_1_1refiner2D.html#abed3eed555cdd23306f8a836ee56a4df" target="_top" xlink:title=" ">
<polygon fill="white" stroke="#666666" points="143,-30 0,-30 0,0 143,0 143,-30"/>
<text text-anchor="start" x="8" y="-18" font-family="Helvetica,sans-Serif" font-size="10.00">Foam::fvMeshTopoChangers</text>
<text text-anchor="middle" x="71.5" y="-7" font-family="Helvetica,sans-Serif" font-size="10.00">::refiner2D::topoChange</text>
</a>
</g>
</g>
<!-- Node1&#45;&gt;Node3 -->
<g id="edge2_Node000001_Node000003" class="edge">
<title>Node1&#45;&gt;Node3</title>
<g id="a_edge2_Node000001_Node000003"><a xlink:title=" ">
<path fill="none" stroke="#63b8ff" d="M168.65,-30.23C160.14,-28.88 151.49,-27.51 143.04,-26.17"/>
<polygon fill="#63b8ff" stroke="#63b8ff" points="168.12,-33.69 178.54,-31.79 169.21,-26.77 168.12,-33.69"/>
</a>
</g>
</g>
</g>
</svg>
