<?xml version="1.0" encoding="UTF-8" standalone="no"?>
<!DOCTYPE svg PUBLIC "-//W3C//DTD SVG 1.1//EN"
 "http://www.w3.org/Graphics/SVG/1.1/DTD/svg11.dtd">
<!-- Generated by graphviz version 2.43.0 (0)
 -->
<!-- Title: Foam::fvMeshDistributors::distributorRollingMPI::update Pages: 1 -->
<svg width="448pt" height="138pt"
 viewBox="0.00 0.00 448.00 138.00" xmlns="http://www.w3.org/2000/svg" xmlns:xlink="http://www.w3.org/1999/xlink">
<g id="graph0" class="graph" transform="scale(1 1) rotate(0) translate(4 134)">
<title>Foam::fvMeshDistributors::distributorRollingMPI::update</title>
<!-- Node1 -->
<g id="Node000001" class="node">
<title>Node1</title>
<g id="a_Node000001"><a xlink:title=" ">
<polygon fill="#999999" stroke="#666666" points="130,-85 0,-85 0,-44 130,-44 130,-85"/>
<text text-anchor="start" x="8" y="-73" font-family="Helvetica,sans-Serif" font-size="10.00">Foam::fvMeshDistributors</text>
<text text-anchor="start" x="8" y="-62" font-family="Helvetica,sans-Serif" font-size="10.00">::distributorRollingMPI</text>
<text text-anchor="middle" x="65" y="-51" font-family="Helvetica,sans-Serif" font-size="10.00">::update</text>
</a>
</g>
</g>
<!-- Node2 -->
<g id="Node000002" class="node">
<title>Node2</title>
<g id="a_Node000002"><a xlink:href="namespaceFoam.html#a779c4da5cd9d61fa770b78faf74178e3" target="_top" xlink:title=" ">
<polygon fill="white" stroke="#666666" points="268,-74 166,-74 166,-55 268,-55 268,-74"/>
<text text-anchor="middle" x="217" y="-62" font-family="Helvetica,sans-Serif" font-size="10.00">Foam::getMPIStats</text>
</a>
</g>
</g>
<!-- Node1&#45;&gt;Node2 -->
<g id="edge1_Node000001_Node000002" class="edge">
<title>Node1&#45;&gt;Node2</title>
<g id="a_edge1_Node000001_Node000002"><a xlink:title=" ">
<path fill="none" stroke="#63b8ff" d="M130.05,-64.5C138.54,-64.5 147.22,-64.5 155.65,-64.5"/>
<polygon fill="#63b8ff" stroke="#63b8ff" points="155.77,-68 165.77,-64.5 155.77,-61 155.77,-68"/>
</a>
</g>
</g>
<!-- Node3 -->
<g id="Node000003" class="node">
<title>Node3</title>
<g id="a_Node000003"><a xlink:href="namespaceFoam.html#a062bf82f84bf3078fa2eb1835777c33f" target="_top" xlink:title=" ">
<polygon fill="white" stroke="#666666" points="430,-130 314,-130 314,-111 430,-111 430,-130"/>
<text text-anchor="middle" x="372" y="-118" font-family="Helvetica,sans-Serif" font-size="10.00">Foam::prevRankTimes</text>
</a>
</g>
</g>
<!-- Node2&#45;&gt;Node3 -->
<g id="edge2_Node000002_Node000003" class="edge">
<title>Node2&#45;&gt;Node3</title>
<g id="a_edge2_Node000002_Node000003"><a xlink:title=" ">
<path fill="none" stroke="#63b8ff" d="M237.46,-74.13C254.67,-82.39 280.6,-94.24 304,-102.5 309.6,-104.48 315.53,-106.36 321.46,-108.11"/>
<polygon fill="#63b8ff" stroke="#63b8ff" points="320.79,-111.56 331.37,-110.93 322.71,-104.83 320.79,-111.56"/>
</a>
</g>
</g>
<!-- Node4 -->
<g id="Node000004" class="node">
<title>Node4</title>
<g id="a_Node000004"><a xlink:href="namespaceFoam.html#a417291a4c78876a1f80a6b6a2aad4634" target="_top" xlink:title=" ">
<polygon fill="white" stroke="#666666" points="440,-93 304,-93 304,-74 440,-74 440,-93"/>
<text text-anchor="middle" x="372" y="-81" font-family="Helvetica,sans-Serif" font-size="10.00">Foam::prevRankWaitTimes</text>
</a>
</g>
</g>
<!-- Node2&#45;&gt;Node4 -->
<g id="edge3_Node000002_Node000004" class="edge">
<title>Node2&#45;&gt;Node4</title>
<g id="a_edge3_Node000002_Node000004"><a xlink:title=" ">
<path fill="none" stroke="#63b8ff" d="M268.1,-70.72C276.3,-71.74 284.97,-72.82 293.65,-73.89"/>
<polygon fill="#63b8ff" stroke="#63b8ff" points="293.47,-77.4 303.83,-75.16 294.33,-70.45 293.47,-77.4"/>
</a>
</g>
</g>
<!-- Node5 -->
<g id="Node000005" class="node">
<title>Node5</title>
<g id="a_Node000005"><a xlink:href="namespaceFoam.html#a08d408856c805b0bb4446710726e009e" target="_top" xlink:title=" ">
<polygon fill="white" stroke="#666666" points="418.5,-56 325.5,-56 325.5,-37 418.5,-37 418.5,-56"/>
<text text-anchor="middle" x="372" y="-44" font-family="Helvetica,sans-Serif" font-size="10.00">Foam::rankTimes</text>
</a>
</g>
</g>
<!-- Node2&#45;&gt;Node5 -->
<g id="edge4_Node000002_Node000005" class="edge">
<title>Node2&#45;&gt;Node5</title>
<g id="a_edge4_Node000002_Node000005"><a xlink:title=" ">
<path fill="none" stroke="#63b8ff" d="M268.1,-58.61C283.25,-56.82 299.99,-54.85 315.47,-53.03"/>
<polygon fill="#63b8ff" stroke="#63b8ff" points="315.92,-56.5 325.44,-51.86 315.1,-49.55 315.92,-56.5"/>
</a>
</g>
</g>
<!-- Node6 -->
<g id="Node000006" class="node">
<title>Node6</title>
<g id="a_Node000006"><a xlink:href="namespaceFoam.html#a06c8001bcbc4685dfaac232b1dee6646" target="_top" xlink:title=" ">
<polygon fill="white" stroke="#666666" points="428.5,-19 315.5,-19 315.5,0 428.5,0 428.5,-19"/>
<text text-anchor="middle" x="372" y="-7" font-family="Helvetica,sans-Serif" font-size="10.00">Foam::rankWaitTimes</text>
</a>
</g>
</g>
<!-- Node2&#45;&gt;Node6 -->
<g id="edge5_Node000002_Node000006" class="edge">
<title>Node2&#45;&gt;Node6</title>
<g id="a_edge5_Node000002_Node000006"><a xlink:title=" ">
<path fill="none" stroke="#63b8ff" d="M238.93,-54.91C256.18,-47.2 281.39,-36.41 304,-28.5 310.52,-26.22 317.46,-24.01 324.32,-21.96"/>
<polygon fill="#63b8ff" stroke="#63b8ff" points="325.62,-25.22 334.24,-19.07 323.66,-18.5 325.62,-25.22"/>
</a>
</g>
</g>
</g>
</svg>
