<?xml version="1.0" encoding="UTF-8" standalone="no"?>
<!DOCTYPE svg PUBLIC "-//W3C//DTD SVG 1.1//EN"
 "http://www.w3.org/Graphics/SVG/1.1/DTD/svg11.dtd">
<!-- Generated by graphviz version 2.43.0 (0)
 -->
<!-- Title: Foam::refinementHistory4::active Pages: 1 -->
<svg width="304pt" height="209pt"
 viewBox="0.00 0.00 304.00 209.00" xmlns="http://www.w3.org/2000/svg" xmlns:xlink="http://www.w3.org/1999/xlink">
<g id="graph0" class="graph" transform="scale(1 1) rotate(0) translate(4 205)">
<title>Foam::refinementHistory4::active</title>
<!-- Node1 -->
<g id="Node000001" class="node">
<title>Node1</title>
<g id="a_Node000001"><a xlink:title=" ">
<polygon fill="#999999" stroke="#666666" points="296,-110 166,-110 166,-80 296,-80 296,-110"/>
<text text-anchor="start" x="174" y="-98" font-family="Helvetica,sans-Serif" font-size="10.00">Foam::refinementHistory4</text>
<text text-anchor="middle" x="231" y="-87" font-family="Helvetica,sans-Serif" font-size="10.00">::active</text>
</a>
</g>
</g>
<!-- Node2 -->
<g id="Node000002" class="node">
<title>Node2</title>
<g id="a_Node000002"><a xlink:href="classFoam_1_1refinementHistory4Constraint.html#a33c85e79ae6300e7f9578188d3f356e2" target="_top" xlink:title=" ">
<polygon fill="white" stroke="#666666" points="130,-201 0,-201 0,-171 130,-171 130,-201"/>
<text text-anchor="start" x="8" y="-189" font-family="Helvetica,sans-Serif" font-size="10.00">Foam::refinementHistory4</text>
<text text-anchor="middle" x="65" y="-178" font-family="Helvetica,sans-Serif" font-size="10.00">Constraint::add</text>
</a>
</g>
</g>
<!-- Node1&#45;&gt;Node2 -->
<g id="edge1_Node000001_Node000002" class="edge">
<title>Node1&#45;&gt;Node2</title>
<g id="a_edge1_Node000001_Node000002"><a xlink:title=" ">
<path fill="none" stroke="#63b8ff" d="M202.41,-116.03C182.9,-130.25 155.75,-148.77 130,-162 123.77,-165.2 117.02,-168.2 110.3,-170.92"/>
<polygon fill="#63b8ff" stroke="#63b8ff" points="204.57,-118.78 210.54,-110.03 200.41,-113.15 204.57,-118.78"/>
</a>
</g>
</g>
<!-- Node3 -->
<g id="Node000003" class="node">
<title>Node3</title>
<g id="a_Node000003"><a xlink:href="classFoam_1_1refinementHistory4Constraint.html#a400ed17f26d19e2729516ac3154bf736" target="_top" xlink:title=" ">
<polygon fill="white" stroke="#666666" points="130,-153 0,-153 0,-123 130,-123 130,-153"/>
<text text-anchor="start" x="8" y="-141" font-family="Helvetica,sans-Serif" font-size="10.00">Foam::refinementHistory4</text>
<text text-anchor="middle" x="65" y="-130" font-family="Helvetica,sans-Serif" font-size="10.00">Constraint::apply</text>
</a>
</g>
</g>
<!-- Node1&#45;&gt;Node3 -->
<g id="edge2_Node000001_Node000003" class="edge">
<title>Node1&#45;&gt;Node3</title>
<g id="a_edge2_Node000001_Node000003"><a xlink:title=" ">
<path fill="none" stroke="#63b8ff" d="M162.76,-112.63C149.67,-116.06 136.06,-119.63 123.33,-122.97"/>
<polygon fill="#63b8ff" stroke="#63b8ff" points="163.86,-115.96 172.64,-110.04 162.08,-109.19 163.86,-115.96"/>
</a>
</g>
</g>
<!-- Node4 -->
<g id="Node000004" class="node">
<title>Node4</title>
<g id="a_Node000004"><a xlink:href="classFoam_1_1hexRef4.html#aa7678ed5c6c3f67cc6439d0389ef0551" target="_top" xlink:title=" ">
<polygon fill="white" stroke="#666666" points="128.5,-104.5 1.5,-104.5 1.5,-85.5 128.5,-85.5 128.5,-104.5"/>
<text text-anchor="middle" x="65" y="-92.5" font-family="Helvetica,sans-Serif" font-size="10.00">Foam::hexRef4::hexRef4</text>
</a>
</g>
</g>
<!-- Node1&#45;&gt;Node4 -->
<g id="edge3_Node000001_Node000004" class="edge">
<title>Node1&#45;&gt;Node4</title>
<g id="a_edge3_Node000001_Node000004"><a xlink:title=" ">
<path fill="none" stroke="#63b8ff" d="M155.54,-95C146.52,-95 137.38,-95 128.55,-95"/>
<polygon fill="#63b8ff" stroke="#63b8ff" points="155.65,-98.5 165.65,-95 155.65,-91.5 155.65,-98.5"/>
</a>
</g>
</g>
<!-- Node5 -->
<g id="Node000005" class="node">
<title>Node5</title>
<g id="a_Node000005"><a xlink:href="classFoam_1_1hexRef4.html#a424b6af893ef48723f9fcd320707eb73" target="_top" xlink:title=" ">
<polygon fill="white" stroke="#666666" points="128.5,-67.5 1.5,-67.5 1.5,-48.5 128.5,-48.5 128.5,-67.5"/>
<text text-anchor="middle" x="65" y="-55.5" font-family="Helvetica,sans-Serif" font-size="10.00">Foam::hexRef4::hexRef4</text>
</a>
</g>
</g>
<!-- Node1&#45;&gt;Node5 -->
<g id="edge4_Node000001_Node000005" class="edge">
<title>Node1&#45;&gt;Node5</title>
<g id="a_edge4_Node000001_Node000005"><a xlink:title=" ">
<path fill="none" stroke="#63b8ff" d="M155.65,-78.23C139.47,-74.58 122.89,-70.84 108.46,-67.58"/>
<polygon fill="#63b8ff" stroke="#63b8ff" points="155.13,-81.7 165.65,-80.48 156.67,-74.87 155.13,-81.7"/>
</a>
</g>
</g>
<!-- Node6 -->
<g id="Node000006" class="node">
<title>Node6</title>
<g id="a_Node000006"><a xlink:href="classFoam_1_1refinementHistory4.html#acff2f6a3d49da82b36d45321a1821983" target="_top" xlink:title=" ">
<polygon fill="white" stroke="#666666" points="130,-30 0,-30 0,0 130,0 130,-30"/>
<text text-anchor="start" x="8" y="-18" font-family="Helvetica,sans-Serif" font-size="10.00">Foam::refinementHistory4</text>
<text text-anchor="middle" x="65" y="-7" font-family="Helvetica,sans-Serif" font-size="10.00">::refinementHistory4</text>
</a>
</g>
</g>
<!-- Node1&#45;&gt;Node6 -->
<g id="edge5_Node000001_Node000006" class="edge">
<title>Node1&#45;&gt;Node6</title>
<g id="a_edge5_Node000001_Node000006"><a xlink:title=" ">
<path fill="none" stroke="#63b8ff" d="M195.69,-74.68C176.65,-63.77 152.36,-50.46 130,-40 122.65,-36.56 114.69,-33.19 106.96,-30.08"/>
<polygon fill="#63b8ff" stroke="#63b8ff" points="194.17,-77.84 204.58,-79.81 197.67,-71.78 194.17,-77.84"/>
</a>
</g>
</g>
</g>
</svg>
