<?xml version="1.0" encoding="UTF-8" standalone="no"?>
<!DOCTYPE svg PUBLIC "-//W3C//DTD SVG 1.1//EN"
 "http://www.w3.org/Graphics/SVG/1.1/DTD/svg11.dtd">
<!-- Generated by graphviz version 2.43.0 (0)
 -->
<!-- Title: Foam::refinementHistory4::splitCells Pages: 1 -->
<svg width="378pt" height="131pt"
 viewBox="0.00 0.00 378.00 130.50" xmlns="http://www.w3.org/2000/svg" xmlns:xlink="http://www.w3.org/1999/xlink">
<g id="graph0" class="graph" transform="scale(1 1) rotate(0) translate(4 126.5)">
<title>Foam::refinementHistory4::splitCells</title>
<!-- Node1 -->
<g id="Node000001" class="node">
<title>Node1</title>
<g id="a_Node000001"><a xlink:title=" ">
<polygon fill="#999999" stroke="#666666" points="370,-91 240,-91 240,-61 370,-61 370,-91"/>
<text text-anchor="start" x="248" y="-79" font-family="Helvetica,sans-Serif" font-size="10.00">Foam::refinementHistory4</text>
<text text-anchor="middle" x="305" y="-68" font-family="Helvetica,sans-Serif" font-size="10.00">::splitCells</text>
</a>
</g>
</g>
<!-- Node2 -->
<g id="Node000002" class="node">
<title>Node2</title>
<g id="a_Node000002"><a xlink:href="reconstructParMesh2D_8C.html#aca1b4d7e38cdc9ee10c0302dd3fdac27" target="_top" xlink:title=" ">
<polygon fill="white" stroke="#666666" points="197,-122.5 81,-122.5 81,-103.5 197,-103.5 197,-122.5"/>
<text text-anchor="middle" x="139" y="-110.5" font-family="Helvetica,sans-Serif" font-size="10.00">loadRefinementHistory</text>
</a>
</g>
</g>
<!-- Node1&#45;&gt;Node2 -->
<g id="edge1_Node000001_Node000002" class="edge">
<title>Node1&#45;&gt;Node2</title>
<g id="a_edge1_Node000001_Node000002"><a xlink:title=" ">
<path fill="none" stroke="#63b8ff" d="M229.65,-92.77C213.47,-96.42 196.89,-100.16 182.46,-103.42"/>
<polygon fill="#63b8ff" stroke="#63b8ff" points="230.67,-96.13 239.65,-90.52 229.13,-89.3 230.67,-96.13"/>
</a>
</g>
</g>
<!-- Node4 -->
<g id="Node000004" class="node">
<title>Node4</title>
<g id="a_Node000004"><a xlink:href="decomposeParMesh2D_8C.html#a0ddf1224851353fc92bfbff6f499fa97" target="_top" xlink:title=" ">
<polygon fill="white" stroke="#666666" points="158,-85.5 120,-85.5 120,-66.5 158,-66.5 158,-85.5"/>
<text text-anchor="middle" x="139" y="-73.5" font-family="Helvetica,sans-Serif" font-size="10.00">main</text>
</a>
</g>
</g>
<!-- Node1&#45;&gt;Node4 -->
<g id="edge3_Node000001_Node000004" class="edge">
<title>Node1&#45;&gt;Node4</title>
<g id="a_edge3_Node000001_Node000004"><a xlink:title=" ">
<path fill="none" stroke="#63b8ff" d="M229.61,-76C203.22,-76 175.77,-76 158.32,-76"/>
<polygon fill="#63b8ff" stroke="#63b8ff" points="229.65,-79.5 239.65,-76 229.65,-72.5 229.65,-79.5"/>
</a>
</g>
</g>
<!-- Node5 -->
<g id="Node000005" class="node">
<title>Node5</title>
<g id="a_Node000005"><a xlink:href="classFoam_1_1refinementHistory4.html#ab9dd236af6be73e2b627ffe98bd25cc6" target="_top" xlink:title=" ">
<polygon fill="white" stroke="#666666" points="204,-30 74,-30 74,0 204,0 204,-30"/>
<text text-anchor="start" x="82" y="-18" font-family="Helvetica,sans-Serif" font-size="10.00">Foam::refinementHistory4</text>
<text text-anchor="middle" x="139" y="-7" font-family="Helvetica,sans-Serif" font-size="10.00">::writeEntry</text>
</a>
</g>
</g>
<!-- Node1&#45;&gt;Node5 -->
<g id="edge4_Node000001_Node000005" class="edge">
<title>Node1&#45;&gt;Node5</title>
<g id="a_edge4_Node000001_Node000005"><a xlink:title=" ">
<path fill="none" stroke="#63b8ff" d="M253.97,-57.39C230.37,-48.61 202.59,-38.28 180.36,-30.01"/>
<polygon fill="#63b8ff" stroke="#63b8ff" points="252.87,-60.72 263.46,-60.92 255.31,-54.15 252.87,-60.72"/>
</a>
</g>
</g>
<!-- Node3 -->
<g id="Node000003" class="node">
<title>Node3</title>
<g id="a_Node000003"><a xlink:href="reconstructParMesh2D_8C.html#a0ddf1224851353fc92bfbff6f499fa97" target="_top" xlink:title=" ">
<polygon fill="white" stroke="#666666" points="38,-122.5 0,-122.5 0,-103.5 38,-103.5 38,-122.5"/>
<text text-anchor="middle" x="19" y="-110.5" font-family="Helvetica,sans-Serif" font-size="10.00">main</text>
</a>
</g>
</g>
<!-- Node2&#45;&gt;Node3 -->
<g id="edge2_Node000002_Node000003" class="edge">
<title>Node2&#45;&gt;Node3</title>
<g id="a_edge2_Node000002_Node000003"><a xlink:title=" ">
<path fill="none" stroke="#63b8ff" d="M70.58,-113C58.57,-113 47.04,-113 38.03,-113"/>
<polygon fill="#63b8ff" stroke="#63b8ff" points="70.73,-116.5 80.73,-113 70.73,-109.5 70.73,-116.5"/>
</a>
</g>
</g>
<!-- Node5&#45;&gt;Node5 -->
<g id="edge5_Node000005_Node000005" class="edge">
<title>Node5&#45;&gt;Node5</title>
<g id="a_edge5_Node000005_Node000005"><a xlink:title=" ">
<path fill="none" stroke="#63b8ff" d="M160,-40.6C157.13,-44.97 150.13,-48 139,-48 120.25,-48 113.22,-39.41 117.91,-30.28"/>
<polygon fill="#63b8ff" stroke="#63b8ff" points="163.51,-40.31 160.09,-30.28 156.51,-40.24 163.51,-40.31"/>
</a>
</g>
</g>
</g>
</svg>
