<?xml version="1.0" encoding="UTF-8" standalone="no"?>
<!DOCTYPE svg PUBLIC "-//W3C//DTD SVG 1.1//EN"
 "http://www.w3.org/Graphics/SVG/1.1/DTD/svg11.dtd">
<!-- Generated by graphviz version 2.43.0 (0)
 -->
<!-- Title: main Pages: 1 -->
<svg width="201pt" height="64pt"
 viewBox="0.00 0.00 201.00 64.00" xmlns="http://www.w3.org/2000/svg" xmlns:xlink="http://www.w3.org/1999/xlink">
<g id="graph0" class="graph" transform="scale(1 1) rotate(0) translate(4 60)">
<title>main</title>
<!-- Node1 -->
<g id="Node000001" class="node">
<title>Node1</title>
<g id="a_Node000001"><a xlink:title=" ">
<polygon fill="#999999" stroke="#666666" points="38,-37 0,-37 0,-18 38,-18 38,-37"/>
<text text-anchor="middle" x="19" y="-25" font-family="Helvetica,sans-Serif" font-size="10.00">main</text>
</a>
</g>
</g>
<!-- Node2 -->
<g id="Node000002" class="node">
<title>Node2</title>
<g id="a_Node000002"><a xlink:href="decomposeParMesh3D_8C.html#a86f38513e4433701a2aa31856352a1bb" target="_top" xlink:title=" ">
<polygon fill="white" stroke="#666666" points="178,-56 89,-56 89,-37 178,-37 178,-56"/>
<text text-anchor="middle" x="133.5" y="-44" font-family="Helvetica,sans-Serif" font-size="10.00">markParentCells</text>
</a>
</g>
</g>
<!-- Node1&#45;&gt;Node2 -->
<g id="edge1_Node000001_Node000002" class="edge">
<title>Node1&#45;&gt;Node2</title>
<g id="a_edge1_Node000001_Node000002"><a xlink:title=" ">
<path fill="none" stroke="#63b8ff" d="M38.08,-30.55C49.18,-32.43 64.04,-34.94 78.68,-37.41"/>
<polygon fill="#63b8ff" stroke="#63b8ff" points="78.28,-40.89 88.73,-39.11 79.45,-33.99 78.28,-40.89"/>
</a>
</g>
</g>
<!-- Node3 -->
<g id="Node000003" class="node">
<title>Node3</title>
<g id="a_Node000003"><a xlink:href="decomposeParMesh3D_8C.html#a60da695937bf076958ce31095ea2d919" target="_top" xlink:title=" ">
<polygon fill="white" stroke="#666666" points="193,-19 74,-19 74,0 193,0 193,-19"/>
<text text-anchor="middle" x="133.5" y="-7" font-family="Helvetica,sans-Serif" font-size="10.00">writeRefinementHistory</text>
</a>
</g>
</g>
<!-- Node1&#45;&gt;Node3 -->
<g id="edge2_Node000001_Node000003" class="edge">
<title>Node1&#45;&gt;Node3</title>
<g id="a_edge2_Node000001_Node000003"><a xlink:title=" ">
<path fill="none" stroke="#63b8ff" d="M38.08,-24.61C45.36,-23.44 54.26,-22.02 63.65,-20.52"/>
<polygon fill="#63b8ff" stroke="#63b8ff" points="64.25,-23.96 73.58,-18.93 63.15,-17.05 64.25,-23.96"/>
</a>
</g>
</g>
</g>
</svg>
