<?xml version="1.0" encoding="UTF-8" standalone="no"?>
<!DOCTYPE svg PUBLIC "-//W3C//DTD SVG 1.1//EN"
 "http://www.w3.org/Graphics/SVG/1.1/DTD/svg11.dtd">
<!-- Generated by graphviz version 2.43.0 (0)
 -->
<!-- Title: libfvMeshTopoChangers/applications/utilities/parallelProcessing/decomposeParMesh3D/decomposeParMesh3D.C Pages: 1 -->
<svg width="673pt" height="115pt"
 viewBox="0.00 0.00 673.00 115.00" xmlns="http://www.w3.org/2000/svg" xmlns:xlink="http://www.w3.org/1999/xlink">
<g id="graph0" class="graph" transform="scale(1 1) rotate(0) translate(4 111)">
<title>libfvMeshTopoChangers/applications/utilities/parallelProcessing/decomposeParMesh3D/decomposeParMesh3D.C</title>
<!-- Node1 -->
<g id="Node000001" class="node">
<title>Node1</title>
<g id="a_Node000001"><a xlink:title=" ">
<polygon fill="#999999" stroke="#666666" points="381.5,-107 212.5,-107 212.5,-55 381.5,-55 381.5,-107"/>
<text text-anchor="start" x="220.5" y="-95" font-family="Helvetica,sans-Serif" font-size="10.00">libfvMeshTopoChangers</text>
<text text-anchor="start" x="220.5" y="-84" font-family="Helvetica,sans-Serif" font-size="10.00">/applications/utilities</text>
<text text-anchor="start" x="220.5" y="-73" font-family="Helvetica,sans-Serif" font-size="10.00">/parallelProcessing/decomposePar</text>
<text text-anchor="middle" x="297" y="-62" font-family="Helvetica,sans-Serif" font-size="10.00">Mesh3D/decomposeParMesh3D.C</text>
</a>
</g>
</g>
<!-- Node2 -->
<g id="Node000002" class="node">
<title>Node2</title>
<g id="a_Node000002"><a xlink:title=" ">
<polygon fill="#e0e0e0" stroke="#999999" points="56,-19 0,-19 0,0 56,0 56,-19"/>
<text text-anchor="middle" x="28" y="-7" font-family="Helvetica,sans-Serif" font-size="10.00">argList.H</text>
</a>
</g>
</g>
<!-- Node1&#45;&gt;Node2 -->
<g id="edge1_Node000001_Node000002" class="edge">
<title>Node1&#45;&gt;Node2</title>
<g id="a_edge1_Node000001_Node000002"><a xlink:title=" ">
<path fill="none" stroke="#63b8ff" d="M212.26,-58.11C163.27,-45.45 104.03,-30.14 66.19,-20.37"/>
<polygon fill="#63b8ff" stroke="#63b8ff" points="66.66,-16.87 56.11,-17.76 64.91,-23.65 66.66,-16.87"/>
</a>
</g>
</g>
<!-- Node3 -->
<g id="Node000003" class="node">
<title>Node3</title>
<g id="a_Node000003"><a xlink:title=" ">
<polygon fill="#e0e0e0" stroke="#999999" points="155.5,-19 74.5,-19 74.5,0 155.5,0 155.5,-19"/>
<text text-anchor="middle" x="115" y="-7" font-family="Helvetica,sans-Serif" font-size="10.00">timeSelector.H</text>
</a>
</g>
</g>
<!-- Node1&#45;&gt;Node3 -->
<g id="edge2_Node000001_Node000003" class="edge">
<title>Node1&#45;&gt;Node3</title>
<g id="a_edge2_Node000001_Node000003"><a xlink:title=" ">
<path fill="none" stroke="#63b8ff" d="M231.29,-54.91C202.61,-43.95 170.28,-31.61 147,-22.72"/>
<polygon fill="#63b8ff" stroke="#63b8ff" points="148.2,-19.43 137.61,-19.14 145.71,-25.97 148.2,-19.43"/>
</a>
</g>
</g>
<!-- Node4 -->
<g id="Node000004" class="node">
<title>Node4</title>
<g id="a_Node000004"><a xlink:title=" ">
<polygon fill="#e0e0e0" stroke="#999999" points="230,-19 174,-19 174,0 230,0 230,-19"/>
<text text-anchor="middle" x="202" y="-7" font-family="Helvetica,sans-Serif" font-size="10.00">fvCFD.H</text>
</a>
</g>
</g>
<!-- Node1&#45;&gt;Node4 -->
<g id="edge3_Node000001_Node000004" class="edge">
<title>Node1&#45;&gt;Node4</title>
<g id="a_edge3_Node000001_Node000004"><a xlink:title=" ">
<path fill="none" stroke="#63b8ff" d="M262.7,-54.91C249.15,-44.99 234.04,-33.94 222.29,-25.34"/>
<polygon fill="#63b8ff" stroke="#63b8ff" points="224.17,-22.38 214.03,-19.3 220.04,-28.03 224.17,-22.38"/>
</a>
</g>
</g>
<!-- Node5 -->
<g id="Node000005" class="node">
<title>Node5</title>
<g id="a_Node000005"><a xlink:title=" ">
<polygon fill="#e0e0e0" stroke="#999999" points="346,-19 248,-19 248,0 346,0 346,-19"/>
<text text-anchor="middle" x="297" y="-7" font-family="Helvetica,sans-Serif" font-size="10.00">regionProperties.H</text>
</a>
</g>
</g>
<!-- Node1&#45;&gt;Node5 -->
<g id="edge4_Node000001_Node000005" class="edge">
<title>Node1&#45;&gt;Node5</title>
<g id="a_edge4_Node000001_Node000005"><a xlink:title=" ">
<path fill="none" stroke="#63b8ff" d="M297,-54.91C297,-46.55 297,-37.38 297,-29.55"/>
<polygon fill="#63b8ff" stroke="#63b8ff" points="300.5,-29.3 297,-19.3 293.5,-29.3 300.5,-29.3"/>
</a>
</g>
</g>
<!-- Node6 -->
<g id="Node000006" class="node">
<title>Node6</title>
<g id="a_Node000006"><a xlink:title=" ">
<polygon fill="#e0e0e0" stroke="#999999" points="467.5,-19 364.5,-19 364.5,0 467.5,0 467.5,-19"/>
<text text-anchor="middle" x="416" y="-7" font-family="Helvetica,sans-Serif" font-size="10.00">refinementHistory.H</text>
</a>
</g>
</g>
<!-- Node1&#45;&gt;Node6 -->
<g id="edge5_Node000001_Node000006" class="edge">
<title>Node1&#45;&gt;Node6</title>
<g id="a_edge5_Node000001_Node000006"><a xlink:title=" ">
<path fill="none" stroke="#63b8ff" d="M339.96,-54.91C357.55,-44.64 377.23,-33.15 392.16,-24.43"/>
<polygon fill="#63b8ff" stroke="#63b8ff" points="394.34,-27.2 401.21,-19.14 390.81,-21.16 394.34,-27.2"/>
</a>
</g>
</g>
<!-- Node7 -->
<g id="Node000007" class="node">
<title>Node7</title>
<g id="a_Node000007"><a xlink:title=" ">
<polygon fill="#e0e0e0" stroke="#999999" points="570.5,-19 485.5,-19 485.5,0 570.5,0 570.5,-19"/>
<text text-anchor="middle" x="528" y="-7" font-family="Helvetica,sans-Serif" font-size="10.00">setRootCase.H</text>
</a>
</g>
</g>
<!-- Node1&#45;&gt;Node7 -->
<g id="edge6_Node000001_Node000007" class="edge">
<title>Node1&#45;&gt;Node7</title>
<g id="a_edge6_Node000001_Node000007"><a xlink:title=" ">
<path fill="none" stroke="#63b8ff" d="M380.4,-54.91C417.74,-43.67 459.94,-30.98 489.62,-22.05"/>
<polygon fill="#63b8ff" stroke="#63b8ff" points="491.01,-25.29 499.57,-19.05 488.99,-18.58 491.01,-25.29"/>
</a>
</g>
</g>
<!-- Node8 -->
<g id="Node000008" class="node">
<title>Node8</title>
<g id="a_Node000008"><a xlink:title=" ">
<polygon fill="#e0e0e0" stroke="#999999" points="665,-19 589,-19 589,0 665,0 665,-19"/>
<text text-anchor="middle" x="627" y="-7" font-family="Helvetica,sans-Serif" font-size="10.00">createTime.H</text>
</a>
</g>
</g>
<!-- Node1&#45;&gt;Node8 -->
<g id="edge7_Node000001_Node000008" class="edge">
<title>Node1&#45;&gt;Node8</title>
<g id="a_edge7_Node000001_Node000008"><a xlink:title=" ">
<path fill="none" stroke="#63b8ff" d="M381.55,-62.19C444.22,-49 527.37,-31.48 579.01,-20.61"/>
<polygon fill="#63b8ff" stroke="#63b8ff" points="579.84,-24.01 588.91,-18.52 578.4,-17.16 579.84,-24.01"/>
</a>
</g>
</g>
</g>
</svg>
