<?xml version="1.0" encoding="UTF-8" standalone="no"?>
<!DOCTYPE svg PUBLIC "-//W3C//DTD SVG 1.1//EN"
 "http://www.w3.org/Graphics/SVG/1.1/DTD/svg11.dtd">
<!-- Generated by graphviz version 2.43.0 (0)
 -->
<!-- Title: libfvMeshTopoChangers/libfvMeshTopoChangers3D/fvMeshTopoChangers/refiner3D/fvMeshTopoChangersMultiFieldRefiner3D.C Pages: 1 -->
<svg width="1175pt" height="181pt"
 viewBox="0.00 0.00 1175.00 181.00" xmlns="http://www.w3.org/2000/svg" xmlns:xlink="http://www.w3.org/1999/xlink">
<g id="graph0" class="graph" transform="scale(1 1) rotate(0) translate(4 177)">
<title>libfvMeshTopoChangers/libfvMeshTopoChangers3D/fvMeshTopoChangers/refiner3D/fvMeshTopoChangersMultiFieldRefiner3D.C</title>
<!-- Node1 -->
<g id="Node000001" class="node">
<title>Node1</title>
<g id="a_Node000001"><a xlink:title=" ">
<polygon fill="#999999" stroke="#666666" points="785,-173 573,-173 573,-121 785,-121 785,-173"/>
<text text-anchor="start" x="581" y="-161" font-family="Helvetica,sans-Serif" font-size="10.00">libfvMeshTopoChangers</text>
<text text-anchor="start" x="581" y="-150" font-family="Helvetica,sans-Serif" font-size="10.00">/libfvMeshTopoChangers3D</text>
<text text-anchor="start" x="581" y="-139" font-family="Helvetica,sans-Serif" font-size="10.00">/fvMeshTopoChangers/refiner3D</text>
<text text-anchor="middle" x="679" y="-128" font-family="Helvetica,sans-Serif" font-size="10.00">/fvMeshTopoChangersMultiFieldRefiner3D.C</text>
</a>
</g>
</g>
<!-- Node2 -->
<g id="Node000002" class="node">
<title>Node2</title>
<g id="a_Node000002"><a xlink:href="fvMeshTopoChangersMultiFieldRefiner3D_8H.html" target="_top" xlink:title=" ">
<polygon fill="white" stroke="#666666" points="292,-85 138,-85 138,-55 292,-55 292,-85"/>
<text text-anchor="start" x="146" y="-73" font-family="Helvetica,sans-Serif" font-size="10.00">fvMeshTopoChangersMultiField</text>
<text text-anchor="middle" x="215" y="-62" font-family="Helvetica,sans-Serif" font-size="10.00">Refiner3D.H</text>
</a>
</g>
</g>
<!-- Node1&#45;&gt;Node2 -->
<g id="edge1_Node000001_Node000002" class="edge">
<title>Node1&#45;&gt;Node2</title>
<g id="a_edge1_Node000001_Node000002"><a xlink:title=" ">
<path fill="none" stroke="#63b8ff" d="M572.84,-128.84C490.91,-115.6 378.97,-97.5 302.23,-85.1"/>
<polygon fill="#63b8ff" stroke="#63b8ff" points="302.54,-81.6 292.11,-83.46 301.42,-88.51 302.54,-81.6"/>
</a>
</g>
</g>
<!-- Node7 -->
<g id="Node000007" class="node">
<title>Node7</title>
<g id="a_Node000007"><a xlink:title=" ">
<polygon fill="#e0e0e0" stroke="#999999" points="415.5,-79.5 310.5,-79.5 310.5,-60.5 415.5,-60.5 415.5,-79.5"/>
<text text-anchor="middle" x="363" y="-67.5" font-family="Helvetica,sans-Serif" font-size="10.00">surfaceInterpolate.H</text>
</a>
</g>
</g>
<!-- Node1&#45;&gt;Node7 -->
<g id="edge6_Node000001_Node000007" class="edge">
<title>Node1&#45;&gt;Node7</title>
<g id="a_edge6_Node000001_Node000007"><a xlink:title=" ">
<path fill="none" stroke="#63b8ff" d="M573.34,-120.92C517.53,-107.68 451.89,-92.1 408.97,-81.91"/>
<polygon fill="#63b8ff" stroke="#63b8ff" points="409.64,-78.47 399.1,-79.57 408.03,-85.28 409.64,-78.47"/>
</a>
</g>
</g>
<!-- Node8 -->
<g id="Node000008" class="node">
<title>Node8</title>
<g id="a_Node000008"><a xlink:title=" ">
<polygon fill="#e0e0e0" stroke="#999999" points="534,-79.5 434,-79.5 434,-60.5 534,-60.5 534,-79.5"/>
<text text-anchor="middle" x="484" y="-67.5" font-family="Helvetica,sans-Serif" font-size="10.00">polyTopoChange.H</text>
</a>
</g>
</g>
<!-- Node1&#45;&gt;Node8 -->
<g id="edge7_Node000001_Node000008" class="edge">
<title>Node1&#45;&gt;Node8</title>
<g id="a_edge7_Node000001_Node000008"><a xlink:title=" ">
<path fill="none" stroke="#63b8ff" d="M613.8,-120.92C580.81,-108.23 542.26,-93.41 515.8,-83.23"/>
<polygon fill="#63b8ff" stroke="#63b8ff" points="516.87,-79.89 506.28,-79.57 514.36,-86.43 516.87,-79.89"/>
</a>
</g>
</g>
<!-- Node9 -->
<g id="Node000009" class="node">
<title>Node9</title>
<g id="a_Node000009"><a xlink:title=" ">
<polygon fill="#e0e0e0" stroke="#999999" points="623.5,-79.5 552.5,-79.5 552.5,-60.5 623.5,-60.5 623.5,-79.5"/>
<text text-anchor="middle" x="588" y="-67.5" font-family="Helvetica,sans-Serif" font-size="10.00">syncTools.H</text>
</a>
</g>
</g>
<!-- Node1&#45;&gt;Node9 -->
<g id="edge8_Node000001_Node000009" class="edge">
<title>Node1&#45;&gt;Node9</title>
<g id="a_edge8_Node000001_Node000009"><a xlink:title=" ">
<path fill="none" stroke="#63b8ff" d="M648.45,-120.82C634.48,-109.31 618.41,-96.07 606.35,-86.13"/>
<polygon fill="#63b8ff" stroke="#63b8ff" points="608.31,-83.2 598.37,-79.54 603.86,-88.61 608.31,-83.2"/>
</a>
</g>
</g>
<!-- Node10 -->
<g id="Node000010" class="node">
<title>Node10</title>
<g id="a_Node000010"><a xlink:title=" ">
<polygon fill="#e0e0e0" stroke="#999999" points="716,-79.5 642,-79.5 642,-60.5 716,-60.5 716,-79.5"/>
<text text-anchor="middle" x="679" y="-67.5" font-family="Helvetica,sans-Serif" font-size="10.00">pointFields.H</text>
</a>
</g>
</g>
<!-- Node1&#45;&gt;Node10 -->
<g id="edge9_Node000001_Node000010" class="edge">
<title>Node1&#45;&gt;Node10</title>
<g id="a_edge9_Node000001_Node000010"><a xlink:title=" ">
<path fill="none" stroke="#63b8ff" d="M679,-120.61C679,-110.58 679,-99.25 679,-89.96"/>
<polygon fill="#63b8ff" stroke="#63b8ff" points="682.5,-89.85 679,-79.85 675.5,-89.85 682.5,-89.85"/>
</a>
</g>
</g>
<!-- Node11 -->
<g id="Node000011" class="node">
<title>Node11</title>
<g id="a_Node000011"><a xlink:title=" ">
<polygon fill="#e0e0e0" stroke="#999999" points="790,-79.5 734,-79.5 734,-60.5 790,-60.5 790,-79.5"/>
<text text-anchor="middle" x="762" y="-67.5" font-family="Helvetica,sans-Serif" font-size="10.00">sigFpe.H</text>
</a>
</g>
</g>
<!-- Node1&#45;&gt;Node11 -->
<g id="edge10_Node000001_Node000011" class="edge">
<title>Node1&#45;&gt;Node11</title>
<g id="a_edge10_Node000001_Node000011"><a xlink:title=" ">
<path fill="none" stroke="#63b8ff" d="M707.1,-120.61C719.54,-109.37 733.78,-96.5 744.64,-86.68"/>
<polygon fill="#63b8ff" stroke="#63b8ff" points="747.13,-89.15 752.2,-79.85 742.44,-83.96 747.13,-89.15"/>
</a>
</g>
</g>
<!-- Node12 -->
<g id="Node000012" class="node">
<title>Node12</title>
<g id="a_Node000012"><a xlink:title=" ">
<polygon fill="#e0e0e0" stroke="#999999" points="865.5,-79.5 808.5,-79.5 808.5,-60.5 865.5,-60.5 865.5,-79.5"/>
<text text-anchor="middle" x="837" y="-67.5" font-family="Helvetica,sans-Serif" font-size="10.00">cellSet.H</text>
</a>
</g>
</g>
<!-- Node1&#45;&gt;Node12 -->
<g id="edge11_Node000001_Node000012" class="edge">
<title>Node1&#45;&gt;Node12</title>
<g id="a_edge11_Node000001_Node000012"><a xlink:title=" ">
<path fill="none" stroke="#63b8ff" d="M732.05,-120.82C758.17,-108.42 788.55,-94 809.88,-83.87"/>
<polygon fill="#63b8ff" stroke="#63b8ff" points="811.47,-86.99 819,-79.54 808.47,-80.67 811.47,-86.99"/>
</a>
</g>
</g>
<!-- Node13 -->
<g id="Node000013" class="node">
<title>Node13</title>
<g id="a_Node000013"><a xlink:title=" ">
<polygon fill="#e0e0e0" stroke="#999999" points="1040.5,-79.5 883.5,-79.5 883.5,-60.5 1040.5,-60.5 1040.5,-79.5"/>
<text text-anchor="middle" x="962" y="-67.5" font-family="Helvetica,sans-Serif" font-size="10.00">addToRunTimeSelectionTable.H</text>
</a>
</g>
</g>
<!-- Node1&#45;&gt;Node13 -->
<g id="edge12_Node000001_Node000013" class="edge">
<title>Node1&#45;&gt;Node13</title>
<g id="a_edge12_Node000001_Node000013"><a xlink:title=" ">
<path fill="none" stroke="#63b8ff" d="M773.63,-120.92C823.19,-107.79 881.4,-92.36 919.85,-82.17"/>
<polygon fill="#63b8ff" stroke="#63b8ff" points="920.9,-85.51 929.67,-79.57 919.1,-78.75 920.9,-85.51"/>
</a>
</g>
</g>
<!-- Node14 -->
<g id="Node000014" class="node">
<title>Node14</title>
<g id="a_Node000014"><a xlink:title=" ">
<polygon fill="#e0e0e0" stroke="#999999" points="1167,-79.5 1059,-79.5 1059,-60.5 1167,-60.5 1167,-79.5"/>
<text text-anchor="middle" x="1113" y="-67.5" font-family="Helvetica,sans-Serif" font-size="10.00">searchableSurface.H</text>
</a>
</g>
</g>
<!-- Node1&#45;&gt;Node14 -->
<g id="edge13_Node000001_Node000014" class="edge">
<title>Node1&#45;&gt;Node14</title>
<g id="a_edge13_Node000001_Node000014"><a xlink:title=" ">
<path fill="none" stroke="#63b8ff" d="M785.22,-130.14C859.56,-118.65 961.08,-102.18 1050,-85 1055.29,-83.98 1060.82,-82.84 1066.31,-81.68"/>
<polygon fill="#63b8ff" stroke="#63b8ff" points="1067.06,-85.1 1076.09,-79.56 1065.58,-78.26 1067.06,-85.1"/>
</a>
</g>
</g>
<!-- Node3 -->
<g id="Node000003" class="node">
<title>Node3</title>
<g id="a_Node000003"><a xlink:title=" ">
<polygon fill="#e0e0e0" stroke="#999999" points="116,-19 0,-19 0,0 116,0 116,-19"/>
<text text-anchor="middle" x="58" y="-7" font-family="Helvetica,sans-Serif" font-size="10.00">fvMeshTopoChanger.H</text>
</a>
</g>
</g>
<!-- Node2&#45;&gt;Node3 -->
<g id="edge2_Node000002_Node000003" class="edge">
<title>Node2&#45;&gt;Node3</title>
<g id="a_edge2_Node000002_Node000003"><a xlink:title=" ">
<path fill="none" stroke="#63b8ff" d="M177.39,-54.99C150.97,-45.14 115.96,-32.1 90.69,-22.68"/>
<polygon fill="#63b8ff" stroke="#63b8ff" points="91.78,-19.35 81.19,-19.14 89.33,-25.91 91.78,-19.35"/>
</a>
</g>
</g>
<!-- Node4 -->
<g id="Node000004" class="node">
<title>Node4</title>
<g id="a_Node000004"><a xlink:title=" ">
<polygon fill="#e0e0e0" stroke="#999999" points="198,-19 134,-19 134,0 198,0 198,-19"/>
<text text-anchor="middle" x="166" y="-7" font-family="Helvetica,sans-Serif" font-size="10.00">hexRef8.H</text>
</a>
</g>
</g>
<!-- Node2&#45;&gt;Node4 -->
<g id="edge3_Node000002_Node000004" class="edge">
<title>Node2&#45;&gt;Node4</title>
<g id="a_edge3_Node000002_Node000004"><a xlink:title=" ">
<path fill="none" stroke="#63b8ff" d="M203.14,-54.84C196.1,-46.43 187.14,-35.74 179.79,-26.96"/>
<polygon fill="#63b8ff" stroke="#63b8ff" points="182.45,-24.68 173.34,-19.27 177.08,-29.18 182.45,-24.68"/>
</a>
</g>
</g>
<!-- Node5 -->
<g id="Node000005" class="node">
<title>Node5</title>
<g id="a_Node000005"><a xlink:title=" ">
<polygon fill="#e0e0e0" stroke="#999999" points="311.5,-19 216.5,-19 216.5,0 311.5,0 311.5,-19"/>
<text text-anchor="middle" x="264" y="-7" font-family="Helvetica,sans-Serif" font-size="10.00">PackedBoolList.H</text>
</a>
</g>
</g>
<!-- Node2&#45;&gt;Node5 -->
<g id="edge4_Node000002_Node000005" class="edge">
<title>Node2&#45;&gt;Node5</title>
<g id="a_edge4_Node000002_Node000005"><a xlink:title=" ">
<path fill="none" stroke="#63b8ff" d="M226.86,-54.84C233.9,-46.43 242.86,-35.74 250.21,-26.96"/>
<polygon fill="#63b8ff" stroke="#63b8ff" points="252.92,-29.18 256.66,-19.27 247.55,-24.68 252.92,-29.18"/>
</a>
</g>
</g>
<!-- Node6 -->
<g id="Node000006" class="node">
<title>Node6</title>
<g id="a_Node000006"><a xlink:title=" ">
<polygon fill="#e0e0e0" stroke="#999999" points="386.5,-19 329.5,-19 329.5,0 386.5,0 386.5,-19"/>
<text text-anchor="middle" x="358" y="-7" font-family="Helvetica,sans-Serif" font-size="10.00">Switch.H</text>
</a>
</g>
</g>
<!-- Node2&#45;&gt;Node6 -->
<g id="edge5_Node000002_Node000006" class="edge">
<title>Node2&#45;&gt;Node6</title>
<g id="a_edge5_Node000002_Node000006"><a xlink:title=" ">
<path fill="none" stroke="#63b8ff" d="M249.25,-54.99C273.11,-45.23 304.65,-32.33 327.61,-22.93"/>
<polygon fill="#63b8ff" stroke="#63b8ff" points="328.95,-26.17 336.88,-19.14 326.3,-19.69 328.95,-26.17"/>
</a>
</g>
</g>
</g>
</svg>
