<?xml version="1.0" encoding="UTF-8" standalone="no"?>
<!DOCTYPE svg PUBLIC "-//W3C//DTD SVG 1.1//EN"
 "http://www.w3.org/Graphics/SVG/1.1/DTD/svg11.dtd">
<!-- Generated by graphviz version 2.43.0 (0)
 -->
<!-- Title: libfvMeshTopoChangers/libfvMeshTopoChangers3D/fvMeshTopoChangers/refiner3D/fvMeshTopoChangersMultiFieldRefiner3D.H Pages: 1 -->
<svg width="395pt" height="115pt"
 viewBox="0.00 0.00 394.50 115.00" xmlns="http://www.w3.org/2000/svg" xmlns:xlink="http://www.w3.org/1999/xlink">
<g id="graph0" class="graph" transform="scale(1 1) rotate(0) translate(4 111)">
<title>libfvMeshTopoChangers/libfvMeshTopoChangers3D/fvMeshTopoChangers/refiner3D/fvMeshTopoChangersMultiFieldRefiner3D.H</title>
<!-- Node1 -->
<g id="Node000001" class="node">
<title>Node1</title>
<g id="a_Node000001"><a xlink:title=" ">
<polygon fill="#999999" stroke="#666666" points="321,-107 109,-107 109,-55 321,-55 321,-107"/>
<text text-anchor="start" x="117" y="-95" font-family="Helvetica,sans-Serif" font-size="10.00">libfvMeshTopoChangers</text>
<text text-anchor="start" x="117" y="-84" font-family="Helvetica,sans-Serif" font-size="10.00">/libfvMeshTopoChangers3D</text>
<text text-anchor="start" x="117" y="-73" font-family="Helvetica,sans-Serif" font-size="10.00">/fvMeshTopoChangers/refiner3D</text>
<text text-anchor="middle" x="215" y="-62" font-family="Helvetica,sans-Serif" font-size="10.00">/fvMeshTopoChangersMultiFieldRefiner3D.H</text>
</a>
</g>
</g>
<!-- Node2 -->
<g id="Node000002" class="node">
<title>Node2</title>
<g id="a_Node000002"><a xlink:title=" ">
<polygon fill="#e0e0e0" stroke="#999999" points="116,-19 0,-19 0,0 116,0 116,-19"/>
<text text-anchor="middle" x="58" y="-7" font-family="Helvetica,sans-Serif" font-size="10.00">fvMeshTopoChanger.H</text>
</a>
</g>
</g>
<!-- Node1&#45;&gt;Node2 -->
<g id="edge1_Node000001_Node000002" class="edge">
<title>Node1&#45;&gt;Node2</title>
<g id="a_edge1_Node000001_Node000002"><a xlink:title=" ">
<path fill="none" stroke="#63b8ff" d="M158.32,-54.91C134.01,-44.15 106.68,-32.05 86.69,-23.2"/>
<polygon fill="#63b8ff" stroke="#63b8ff" points="88.07,-19.98 77.51,-19.14 85.23,-26.38 88.07,-19.98"/>
</a>
</g>
</g>
<!-- Node3 -->
<g id="Node000003" class="node">
<title>Node3</title>
<g id="a_Node000003"><a xlink:title=" ">
<polygon fill="#e0e0e0" stroke="#999999" points="198,-19 134,-19 134,0 198,0 198,-19"/>
<text text-anchor="middle" x="166" y="-7" font-family="Helvetica,sans-Serif" font-size="10.00">hexRef8.H</text>
</a>
</g>
</g>
<!-- Node1&#45;&gt;Node3 -->
<g id="edge2_Node000001_Node000003" class="edge">
<title>Node1&#45;&gt;Node3</title>
<g id="a_edge2_Node000001_Node000003"><a xlink:title=" ">
<path fill="none" stroke="#63b8ff" d="M197.31,-54.91C190.94,-45.87 183.89,-35.88 178.11,-27.67"/>
<polygon fill="#63b8ff" stroke="#63b8ff" points="180.83,-25.46 172.21,-19.3 175.11,-29.49 180.83,-25.46"/>
</a>
</g>
</g>
<!-- Node4 -->
<g id="Node000004" class="node">
<title>Node4</title>
<g id="a_Node000004"><a xlink:title=" ">
<polygon fill="#e0e0e0" stroke="#999999" points="311.5,-19 216.5,-19 216.5,0 311.5,0 311.5,-19"/>
<text text-anchor="middle" x="264" y="-7" font-family="Helvetica,sans-Serif" font-size="10.00">PackedBoolList.H</text>
</a>
</g>
</g>
<!-- Node1&#45;&gt;Node4 -->
<g id="edge3_Node000001_Node000004" class="edge">
<title>Node1&#45;&gt;Node4</title>
<g id="a_edge3_Node000001_Node000004"><a xlink:title=" ">
<path fill="none" stroke="#63b8ff" d="M232.69,-54.91C239.06,-45.87 246.11,-35.88 251.89,-27.67"/>
<polygon fill="#63b8ff" stroke="#63b8ff" points="254.89,-29.49 257.79,-19.3 249.17,-25.46 254.89,-29.49"/>
</a>
</g>
</g>
<!-- Node5 -->
<g id="Node000005" class="node">
<title>Node5</title>
<g id="a_Node000005"><a xlink:title=" ">
<polygon fill="#e0e0e0" stroke="#999999" points="386.5,-19 329.5,-19 329.5,0 386.5,0 386.5,-19"/>
<text text-anchor="middle" x="358" y="-7" font-family="Helvetica,sans-Serif" font-size="10.00">Switch.H</text>
</a>
</g>
</g>
<!-- Node1&#45;&gt;Node5 -->
<g id="edge4_Node000001_Node000005" class="edge">
<title>Node1&#45;&gt;Node5</title>
<g id="a_edge4_Node000001_Node000005"><a xlink:title=" ">
<path fill="none" stroke="#63b8ff" d="M266.63,-54.91C288.36,-44.35 312.76,-32.49 330.87,-23.68"/>
<polygon fill="#63b8ff" stroke="#63b8ff" points="332.77,-26.65 340.23,-19.14 329.71,-20.36 332.77,-26.65"/>
</a>
</g>
</g>
</g>
</svg>
