<?xml version="1.0" encoding="UTF-8" standalone="no"?>
<!DOCTYPE svg PUBLIC "-//W3C//DTD SVG 1.1//EN"
 "http://www.w3.org/Graphics/SVG/1.1/DTD/svg11.dtd">
<!-- Generated by graphviz version 2.43.0 (0)
 -->
<!-- Title: libfvMeshDistributorsMPI/fvMeshDistributors/distributorMPI/fvMeshDistributorsDistributorMPI.C Pages: 1 -->
<svg width="833pt" height="170pt"
 viewBox="0.00 0.00 832.50 170.00" xmlns="http://www.w3.org/2000/svg" xmlns:xlink="http://www.w3.org/1999/xlink">
<g id="graph0" class="graph" transform="scale(1 1) rotate(0) translate(4 166)">
<title>libfvMeshDistributorsMPI/fvMeshDistributors/distributorMPI/fvMeshDistributorsDistributorMPI.C</title>
<!-- Node1 -->
<g id="Node000001" class="node">
<title>Node1</title>
<g id="a_Node000001"><a xlink:title=" ">
<polygon fill="#999999" stroke="#666666" points="538,-162 344,-162 344,-121 538,-121 538,-162"/>
<text text-anchor="start" x="352" y="-150" font-family="Helvetica,sans-Serif" font-size="10.00">libfvMeshDistributorsMPI</text>
<text text-anchor="start" x="352" y="-139" font-family="Helvetica,sans-Serif" font-size="10.00">/fvMeshDistributors/distributor</text>
<text text-anchor="middle" x="441" y="-128" font-family="Helvetica,sans-Serif" font-size="10.00">MPI/fvMeshDistributorsDistributorMPI.C</text>
</a>
</g>
</g>
<!-- Node2 -->
<g id="Node000002" class="node">
<title>Node2</title>
<g id="a_Node000002"><a xlink:href="fvMeshDistributorsDistributorMPI_8H.html" target="_top" xlink:title=" ">
<polygon fill="white" stroke="#666666" points="170,-85 26,-85 26,-55 170,-55 170,-85"/>
<text text-anchor="start" x="34" y="-73" font-family="Helvetica,sans-Serif" font-size="10.00">fvMeshDistributorsDistributor</text>
<text text-anchor="middle" x="98" y="-62" font-family="Helvetica,sans-Serif" font-size="10.00">MPI.H</text>
</a>
</g>
</g>
<!-- Node1&#45;&gt;Node2 -->
<g id="edge1_Node000001_Node000002" class="edge">
<title>Node1&#45;&gt;Node2</title>
<g id="a_edge1_Node000001_Node000002"><a xlink:title=" ">
<path fill="none" stroke="#63b8ff" d="M344.54,-120.96C291.71,-110.25 227.04,-97.15 177.2,-87.05"/>
<polygon fill="#63b8ff" stroke="#63b8ff" points="177.61,-83.56 167.11,-85 176.22,-90.42 177.61,-83.56"/>
</a>
</g>
</g>
<!-- Node5 -->
<g id="Node000005" class="node">
<title>Node5</title>
<g id="a_Node000005"><a xlink:title=" ">
<polygon fill="#e0e0e0" stroke="#999999" points="310,-79.5 188,-79.5 188,-60.5 310,-60.5 310,-79.5"/>
<text text-anchor="middle" x="249" y="-67.5" font-family="Helvetica,sans-Serif" font-size="10.00">decompositionMethod.H</text>
</a>
</g>
</g>
<!-- Node1&#45;&gt;Node5 -->
<g id="edge4_Node000001_Node000005" class="edge">
<title>Node1&#45;&gt;Node5</title>
<g id="a_edge4_Node000001_Node000005"><a xlink:title=" ">
<path fill="none" stroke="#63b8ff" d="M387.01,-120.96C353.27,-108.74 310.92,-93.41 282.09,-82.98"/>
<polygon fill="#63b8ff" stroke="#63b8ff" points="283.09,-79.62 272.49,-79.5 280.7,-86.2 283.09,-79.62"/>
</a>
</g>
</g>
<!-- Node6 -->
<g id="Node000006" class="node">
<title>Node6</title>
<g id="a_Node000006"><a xlink:title=" ">
<polygon fill="#e0e0e0" stroke="#999999" points="429.5,-79.5 328.5,-79.5 328.5,-60.5 429.5,-60.5 429.5,-79.5"/>
<text text-anchor="middle" x="379" y="-67.5" font-family="Helvetica,sans-Serif" font-size="10.00">fvMeshDistribute.H</text>
</a>
</g>
</g>
<!-- Node1&#45;&gt;Node6 -->
<g id="edge5_Node000001_Node000006" class="edge">
<title>Node1&#45;&gt;Node6</title>
<g id="a_edge5_Node000001_Node000006"><a xlink:title=" ">
<path fill="none" stroke="#63b8ff" d="M423.4,-120.77C414,-110.24 402.57,-97.42 393.66,-87.43"/>
<polygon fill="#63b8ff" stroke="#63b8ff" points="396.14,-84.95 386.87,-79.82 390.91,-89.61 396.14,-84.95"/>
</a>
</g>
</g>
<!-- Node7 -->
<g id="Node000007" class="node">
<title>Node7</title>
<g id="a_Node000007"><a xlink:title=" ">
<polygon fill="#e0e0e0" stroke="#999999" points="560.5,-79.5 447.5,-79.5 447.5,-60.5 560.5,-60.5 560.5,-79.5"/>
<text text-anchor="middle" x="504" y="-67.5" font-family="Helvetica,sans-Serif" font-size="10.00">polyDistributionMap.H</text>
</a>
</g>
</g>
<!-- Node1&#45;&gt;Node7 -->
<g id="edge6_Node000001_Node000007" class="edge">
<title>Node1&#45;&gt;Node7</title>
<g id="a_edge6_Node000001_Node000007"><a xlink:title=" ">
<path fill="none" stroke="#63b8ff" d="M458.88,-120.77C468.43,-110.24 480.05,-97.42 489.1,-87.43"/>
<polygon fill="#63b8ff" stroke="#63b8ff" points="491.88,-89.58 496.01,-79.82 486.7,-84.88 491.88,-89.58"/>
</a>
</g>
</g>
<!-- Node8 -->
<g id="Node000008" class="node">
<title>Node8</title>
<g id="a_Node000008"><a xlink:title=" ">
<polygon fill="#e0e0e0" stroke="#999999" points="735.5,-79.5 578.5,-79.5 578.5,-60.5 735.5,-60.5 735.5,-79.5"/>
<text text-anchor="middle" x="657" y="-67.5" font-family="Helvetica,sans-Serif" font-size="10.00">addToRunTimeSelectionTable.H</text>
</a>
</g>
</g>
<!-- Node1&#45;&gt;Node8 -->
<g id="edge7_Node000001_Node000008" class="edge">
<title>Node1&#45;&gt;Node8</title>
<g id="a_edge7_Node000001_Node000008"><a xlink:title=" ">
<path fill="none" stroke="#63b8ff" d="M501.74,-120.96C540.19,-108.58 588.59,-93.01 621.04,-82.57"/>
<polygon fill="#63b8ff" stroke="#63b8ff" points="622.12,-85.9 630.57,-79.5 619.98,-79.23 622.12,-85.9"/>
</a>
</g>
</g>
<!-- Node9 -->
<g id="Node000009" class="node">
<title>Node9</title>
<g id="a_Node000009"><a xlink:title=" ">
<polygon fill="#e0e0e0" stroke="#999999" points="824.5,-79.5 753.5,-79.5 753.5,-60.5 824.5,-60.5 824.5,-79.5"/>
<text text-anchor="middle" x="789" y="-67.5" font-family="Helvetica,sans-Serif" font-size="10.00">UPstream.H</text>
</a>
</g>
</g>
<!-- Node1&#45;&gt;Node9 -->
<g id="edge8_Node000001_Node000009" class="edge">
<title>Node1&#45;&gt;Node9</title>
<g id="a_edge8_Node000001_Node000009"><a xlink:title=" ">
<path fill="none" stroke="#63b8ff" d="M538.2,-126C598.2,-116.24 676.55,-102.07 745,-85 748.01,-84.25 751.12,-83.4 754.23,-82.51"/>
<polygon fill="#63b8ff" stroke="#63b8ff" points="755.47,-85.79 764.03,-79.55 753.44,-79.09 755.47,-85.79"/>
</a>
</g>
</g>
<!-- Node3 -->
<g id="Node000003" class="node">
<title>Node3</title>
<g id="a_Node000003"><a xlink:title=" ">
<polygon fill="#e0e0e0" stroke="#999999" points="104,-19 0,-19 0,0 104,0 104,-19"/>
<text text-anchor="middle" x="52" y="-7" font-family="Helvetica,sans-Serif" font-size="10.00">fvMeshDistributor.H</text>
</a>
</g>
</g>
<!-- Node2&#45;&gt;Node3 -->
<g id="edge2_Node000002_Node000003" class="edge">
<title>Node2&#45;&gt;Node3</title>
<g id="a_edge2_Node000002_Node000003"><a xlink:title=" ">
<path fill="none" stroke="#63b8ff" d="M86.86,-54.84C80.32,-46.52 72.02,-35.96 65.16,-27.23"/>
<polygon fill="#63b8ff" stroke="#63b8ff" points="67.83,-24.96 58.89,-19.27 62.32,-29.29 67.83,-24.96"/>
</a>
</g>
</g>
<!-- Node4 -->
<g id="Node000004" class="node">
<title>Node4</title>
<g id="a_Node000004"><a xlink:title=" ">
<polygon fill="#e0e0e0" stroke="#999999" points="168,-19 122,-19 122,0 168,0 168,-19"/>
<text text-anchor="middle" x="145" y="-7" font-family="Helvetica,sans-Serif" font-size="10.00">chrono</text>
</a>
</g>
</g>
<!-- Node2&#45;&gt;Node4 -->
<g id="edge3_Node000002_Node000004" class="edge">
<title>Node2&#45;&gt;Node4</title>
<g id="a_edge3_Node000002_Node000004"><a xlink:title=" ">
<path fill="none" stroke="#63b8ff" d="M109.38,-54.84C116.06,-46.52 124.55,-35.96 131.56,-27.23"/>
<polygon fill="#63b8ff" stroke="#63b8ff" points="134.42,-29.25 137.96,-19.27 128.97,-24.87 134.42,-29.25"/>
</a>
</g>
</g>
</g>
</svg>
