<?xml version="1.0" encoding="UTF-8" standalone="no"?>
<!DOCTYPE svg PUBLIC "-//W3C//DTD SVG 1.1//EN"
 "http://www.w3.org/Graphics/SVG/1.1/DTD/svg11.dtd">
<!-- Generated by graphviz version 2.43.0 (0)
 -->
<!-- Title: libfvMeshDistributorsRollingMPI/fvMeshDistributors/distributorRollingMPI/fvMeshDistributorsDistributorRollingMPI.H Pages: 1 -->
<svg width="204pt" height="115pt"
 viewBox="0.00 0.00 203.50 115.00" xmlns="http://www.w3.org/2000/svg" xmlns:xlink="http://www.w3.org/1999/xlink">
<g id="graph0" class="graph" transform="scale(1 1) rotate(0) translate(4 111)">
<title>libfvMeshDistributorsRollingMPI/fvMeshDistributors/distributorRollingMPI/fvMeshDistributorsDistributorRollingMPI.H</title>
<!-- Node1 -->
<g id="Node000001" class="node">
<title>Node1</title>
<g id="a_Node000001"><a xlink:title=" ">
<polygon fill="#999999" stroke="#666666" points="195.5,-107 0.5,-107 0.5,-55 195.5,-55 195.5,-107"/>
<text text-anchor="start" x="8.5" y="-95" font-family="Helvetica,sans-Serif" font-size="10.00">libfvMeshDistributorsRolling</text>
<text text-anchor="start" x="8.5" y="-84" font-family="Helvetica,sans-Serif" font-size="10.00">MPI/fvMeshDistributors/distributor</text>
<text text-anchor="start" x="8.5" y="-73" font-family="Helvetica,sans-Serif" font-size="10.00">RollingMPI/fvMeshDistributorsDistributor</text>
<text text-anchor="middle" x="98" y="-62" font-family="Helvetica,sans-Serif" font-size="10.00">RollingMPI.H</text>
</a>
</g>
</g>
<!-- Node2 -->
<g id="Node000002" class="node">
<title>Node2</title>
<g id="a_Node000002"><a xlink:title=" ">
<polygon fill="#e0e0e0" stroke="#999999" points="104,-19 0,-19 0,0 104,0 104,-19"/>
<text text-anchor="middle" x="52" y="-7" font-family="Helvetica,sans-Serif" font-size="10.00">fvMeshDistributor.H</text>
</a>
</g>
</g>
<!-- Node1&#45;&gt;Node2 -->
<g id="edge1_Node000001_Node000002" class="edge">
<title>Node1&#45;&gt;Node2</title>
<g id="a_edge1_Node000001_Node000002"><a xlink:title=" ">
<path fill="none" stroke="#63b8ff" d="M81.39,-54.91C75.41,-45.87 68.8,-35.88 63.37,-27.67"/>
<polygon fill="#63b8ff" stroke="#63b8ff" points="66.26,-25.71 57.83,-19.3 60.43,-29.57 66.26,-25.71"/>
</a>
</g>
</g>
<!-- Node3 -->
<g id="Node000003" class="node">
<title>Node3</title>
<g id="a_Node000003"><a xlink:title=" ">
<polygon fill="#e0e0e0" stroke="#999999" points="168,-19 122,-19 122,0 168,0 168,-19"/>
<text text-anchor="middle" x="145" y="-7" font-family="Helvetica,sans-Serif" font-size="10.00">chrono</text>
</a>
</g>
</g>
<!-- Node1&#45;&gt;Node3 -->
<g id="edge2_Node000001_Node000003" class="edge">
<title>Node1&#45;&gt;Node3</title>
<g id="a_edge2_Node000001_Node000003"><a xlink:title=" ">
<path fill="none" stroke="#63b8ff" d="M114.97,-54.91C121.08,-45.87 127.84,-35.88 133.39,-27.67"/>
<polygon fill="#63b8ff" stroke="#63b8ff" points="136.34,-29.55 139.05,-19.3 130.55,-25.63 136.34,-29.55"/>
</a>
</g>
</g>
</g>
</svg>
