<?xml version="1.0" encoding="UTF-8" standalone="no"?>
<!DOCTYPE svg PUBLIC "-//W3C//DTD SVG 1.1//EN"
 "http://www.w3.org/Graphics/SVG/1.1/DTD/svg11.dtd">
<!-- Generated by graphviz version 2.43.0 (0)
 -->
<!-- Title: libfvMeshDistributorsRollingMPI/fvMeshDistributors/distributorRollingMPI/fvMeshDistributorsDistributorRollingMPI.C Pages: 1 -->
<svg width="833pt" height="181pt"
 viewBox="0.00 0.00 832.50 181.00" xmlns="http://www.w3.org/2000/svg" xmlns:xlink="http://www.w3.org/1999/xlink">
<g id="graph0" class="graph" transform="scale(1 1) rotate(0) translate(4 177)">
<title>libfvMeshDistributorsRollingMPI/fvMeshDistributors/distributorRollingMPI/fvMeshDistributorsDistributorRollingMPI.C</title>
<!-- Node1 -->
<g id="Node000001" class="node">
<title>Node1</title>
<g id="a_Node000001"><a xlink:title=" ">
<polygon fill="#999999" stroke="#666666" points="538.5,-173 343.5,-173 343.5,-121 538.5,-121 538.5,-173"/>
<text text-anchor="start" x="351.5" y="-161" font-family="Helvetica,sans-Serif" font-size="10.00">libfvMeshDistributorsRolling</text>
<text text-anchor="start" x="351.5" y="-150" font-family="Helvetica,sans-Serif" font-size="10.00">MPI/fvMeshDistributors/distributor</text>
<text text-anchor="start" x="351.5" y="-139" font-family="Helvetica,sans-Serif" font-size="10.00">RollingMPI/fvMeshDistributorsDistributor</text>
<text text-anchor="middle" x="441" y="-128" font-family="Helvetica,sans-Serif" font-size="10.00">RollingMPI.C</text>
</a>
</g>
</g>
<!-- Node2 -->
<g id="Node000002" class="node">
<title>Node2</title>
<g id="a_Node000002"><a xlink:href="fvMeshDistributorsDistributorRollingMPI_8H.html" target="_top" xlink:title=" ">
<polygon fill="white" stroke="#666666" points="170,-85 26,-85 26,-55 170,-55 170,-85"/>
<text text-anchor="start" x="34" y="-73" font-family="Helvetica,sans-Serif" font-size="10.00">fvMeshDistributorsDistributor</text>
<text text-anchor="middle" x="98" y="-62" font-family="Helvetica,sans-Serif" font-size="10.00">RollingMPI.H</text>
</a>
</g>
</g>
<!-- Node1&#45;&gt;Node2 -->
<g id="edge1_Node000001_Node000002" class="edge">
<title>Node1&#45;&gt;Node2</title>
<g id="a_edge1_Node000001_Node000002"><a xlink:title=" ">
<path fill="none" stroke="#63b8ff" d="M343.17,-124.61C288.69,-112.69 221.95,-98.1 171.87,-87.15"/>
<polygon fill="#63b8ff" stroke="#63b8ff" points="172.61,-83.73 162.09,-85.01 171.11,-90.57 172.61,-83.73"/>
</a>
</g>
</g>
<!-- Node5 -->
<g id="Node000005" class="node">
<title>Node5</title>
<g id="a_Node000005"><a xlink:title=" ">
<polygon fill="#e0e0e0" stroke="#999999" points="310,-79.5 188,-79.5 188,-60.5 310,-60.5 310,-79.5"/>
<text text-anchor="middle" x="249" y="-67.5" font-family="Helvetica,sans-Serif" font-size="10.00">decompositionMethod.H</text>
</a>
</g>
</g>
<!-- Node1&#45;&gt;Node5 -->
<g id="edge4_Node000001_Node000005" class="edge">
<title>Node1&#45;&gt;Node5</title>
<g id="a_edge4_Node000001_Node000005"><a xlink:title=" ">
<path fill="none" stroke="#63b8ff" d="M376.8,-120.92C344.32,-108.23 306.37,-93.41 280.31,-83.23"/>
<polygon fill="#63b8ff" stroke="#63b8ff" points="281.53,-79.95 270.94,-79.57 278.98,-86.47 281.53,-79.95"/>
</a>
</g>
</g>
<!-- Node6 -->
<g id="Node000006" class="node">
<title>Node6</title>
<g id="a_Node000006"><a xlink:title=" ">
<polygon fill="#e0e0e0" stroke="#999999" points="429.5,-79.5 328.5,-79.5 328.5,-60.5 429.5,-60.5 429.5,-79.5"/>
<text text-anchor="middle" x="379" y="-67.5" font-family="Helvetica,sans-Serif" font-size="10.00">fvMeshDistribute.H</text>
</a>
</g>
</g>
<!-- Node1&#45;&gt;Node6 -->
<g id="edge5_Node000001_Node000006" class="edge">
<title>Node1&#45;&gt;Node6</title>
<g id="a_edge5_Node000001_Node000006"><a xlink:title=" ">
<path fill="none" stroke="#63b8ff" d="M420.01,-120.61C411.08,-109.81 400.91,-97.5 392.93,-87.85"/>
<polygon fill="#63b8ff" stroke="#63b8ff" points="395.39,-85.33 386.32,-79.85 389.99,-89.79 395.39,-85.33"/>
</a>
</g>
</g>
<!-- Node7 -->
<g id="Node000007" class="node">
<title>Node7</title>
<g id="a_Node000007"><a xlink:title=" ">
<polygon fill="#e0e0e0" stroke="#999999" points="560.5,-79.5 447.5,-79.5 447.5,-60.5 560.5,-60.5 560.5,-79.5"/>
<text text-anchor="middle" x="504" y="-67.5" font-family="Helvetica,sans-Serif" font-size="10.00">polyDistributionMap.H</text>
</a>
</g>
</g>
<!-- Node1&#45;&gt;Node7 -->
<g id="edge6_Node000001_Node000007" class="edge">
<title>Node1&#45;&gt;Node7</title>
<g id="a_edge6_Node000001_Node000007"><a xlink:title=" ">
<path fill="none" stroke="#63b8ff" d="M462.33,-120.61C471.5,-109.7 481.95,-97.25 490.09,-87.56"/>
<polygon fill="#63b8ff" stroke="#63b8ff" points="492.81,-89.76 496.56,-79.85 487.45,-85.26 492.81,-89.76"/>
</a>
</g>
</g>
<!-- Node8 -->
<g id="Node000008" class="node">
<title>Node8</title>
<g id="a_Node000008"><a xlink:title=" ">
<polygon fill="#e0e0e0" stroke="#999999" points="735.5,-79.5 578.5,-79.5 578.5,-60.5 735.5,-60.5 735.5,-79.5"/>
<text text-anchor="middle" x="657" y="-67.5" font-family="Helvetica,sans-Serif" font-size="10.00">addToRunTimeSelectionTable.H</text>
</a>
</g>
</g>
<!-- Node1&#45;&gt;Node8 -->
<g id="edge7_Node000001_Node000008" class="edge">
<title>Node1&#45;&gt;Node8</title>
<g id="a_edge7_Node000001_Node000008"><a xlink:title=" ">
<path fill="none" stroke="#63b8ff" d="M513.23,-120.92C550.09,-108.12 593.22,-93.15 622.55,-82.96"/>
<polygon fill="#63b8ff" stroke="#63b8ff" points="624.02,-86.16 632.32,-79.57 621.73,-79.54 624.02,-86.16"/>
</a>
</g>
</g>
<!-- Node9 -->
<g id="Node000009" class="node">
<title>Node9</title>
<g id="a_Node000009"><a xlink:title=" ">
<polygon fill="#e0e0e0" stroke="#999999" points="824.5,-79.5 753.5,-79.5 753.5,-60.5 824.5,-60.5 824.5,-79.5"/>
<text text-anchor="middle" x="789" y="-67.5" font-family="Helvetica,sans-Serif" font-size="10.00">UPstream.H</text>
</a>
</g>
</g>
<!-- Node1&#45;&gt;Node9 -->
<g id="edge8_Node000001_Node000009" class="edge">
<title>Node1&#45;&gt;Node9</title>
<g id="a_edge8_Node000001_Node000009"><a xlink:title=" ">
<path fill="none" stroke="#63b8ff" d="M538.83,-129.2C598.72,-118.21 676.73,-102.65 745,-85 747.84,-84.27 750.76,-83.46 753.69,-82.61"/>
<polygon fill="#63b8ff" stroke="#63b8ff" points="754.99,-85.87 763.54,-79.62 752.96,-79.17 754.99,-85.87"/>
</a>
</g>
</g>
<!-- Node3 -->
<g id="Node000003" class="node">
<title>Node3</title>
<g id="a_Node000003"><a xlink:title=" ">
<polygon fill="#e0e0e0" stroke="#999999" points="104,-19 0,-19 0,0 104,0 104,-19"/>
<text text-anchor="middle" x="52" y="-7" font-family="Helvetica,sans-Serif" font-size="10.00">fvMeshDistributor.H</text>
</a>
</g>
</g>
<!-- Node2&#45;&gt;Node3 -->
<g id="edge2_Node000002_Node000003" class="edge">
<title>Node2&#45;&gt;Node3</title>
<g id="a_edge2_Node000002_Node000003"><a xlink:title=" ">
<path fill="none" stroke="#63b8ff" d="M86.86,-54.84C80.32,-46.52 72.02,-35.96 65.16,-27.23"/>
<polygon fill="#63b8ff" stroke="#63b8ff" points="67.83,-24.96 58.89,-19.27 62.32,-29.29 67.83,-24.96"/>
</a>
</g>
</g>
<!-- Node4 -->
<g id="Node000004" class="node">
<title>Node4</title>
<g id="a_Node000004"><a xlink:title=" ">
<polygon fill="#e0e0e0" stroke="#999999" points="168,-19 122,-19 122,0 168,0 168,-19"/>
<text text-anchor="middle" x="145" y="-7" font-family="Helvetica,sans-Serif" font-size="10.00">chrono</text>
</a>
</g>
</g>
<!-- Node2&#45;&gt;Node4 -->
<g id="edge3_Node000002_Node000004" class="edge">
<title>Node2&#45;&gt;Node4</title>
<g id="a_edge3_Node000002_Node000004"><a xlink:title=" ">
<path fill="none" stroke="#63b8ff" d="M109.38,-54.84C116.06,-46.52 124.55,-35.96 131.56,-27.23"/>
<polygon fill="#63b8ff" stroke="#63b8ff" points="134.42,-29.25 137.96,-19.27 128.97,-24.87 134.42,-29.25"/>
</a>
</g>
</g>
</g>
</svg>
