<?xml version="1.0" encoding="UTF-8" standalone="no"?>
<!DOCTYPE svg PUBLIC "-//W3C//DTD SVG 1.1//EN"
 "http://www.w3.org/Graphics/SVG/1.1/DTD/svg11.dtd">
<!-- Generated by graphviz version 2.43.0 (0)
 -->
<!-- Title: libfvMeshDistributorsMPI/fvMeshDistributors/distributorMPI/fvMeshDistributorsDistributorMPI.H Pages: 1 -->
<svg width="203pt" height="104pt"
 viewBox="0.00 0.00 203.00 104.00" xmlns="http://www.w3.org/2000/svg" xmlns:xlink="http://www.w3.org/1999/xlink">
<g id="graph0" class="graph" transform="scale(1 1) rotate(0) translate(4 100)">
<title>libfvMeshDistributorsMPI/fvMeshDistributors/distributorMPI/fvMeshDistributorsDistributorMPI.H</title>
<!-- Node1 -->
<g id="Node000001" class="node">
<title>Node1</title>
<g id="a_Node000001"><a xlink:title=" ">
<polygon fill="#999999" stroke="#666666" points="195,-96 1,-96 1,-55 195,-55 195,-96"/>
<text text-anchor="start" x="9" y="-84" font-family="Helvetica,sans-Serif" font-size="10.00">libfvMeshDistributorsMPI</text>
<text text-anchor="start" x="9" y="-73" font-family="Helvetica,sans-Serif" font-size="10.00">/fvMeshDistributors/distributor</text>
<text text-anchor="middle" x="98" y="-62" font-family="Helvetica,sans-Serif" font-size="10.00">MPI/fvMeshDistributorsDistributorMPI.H</text>
</a>
</g>
</g>
<!-- Node2 -->
<g id="Node000002" class="node">
<title>Node2</title>
<g id="a_Node000002"><a xlink:title=" ">
<polygon fill="#e0e0e0" stroke="#999999" points="104,-19 0,-19 0,0 104,0 104,-19"/>
<text text-anchor="middle" x="52" y="-7" font-family="Helvetica,sans-Serif" font-size="10.00">fvMeshDistributor.H</text>
</a>
</g>
</g>
<!-- Node1&#45;&gt;Node2 -->
<g id="edge1_Node000001_Node000002" class="edge">
<title>Node1&#45;&gt;Node2</title>
<g id="a_edge1_Node000001_Node000002"><a xlink:title=" ">
<path fill="none" stroke="#63b8ff" d="M83.95,-54.95C77.66,-46.2 70.32,-35.99 64.26,-27.56"/>
<polygon fill="#63b8ff" stroke="#63b8ff" points="66.98,-25.34 58.3,-19.26 61.29,-29.42 66.98,-25.34"/>
</a>
</g>
</g>
<!-- Node3 -->
<g id="Node000003" class="node">
<title>Node3</title>
<g id="a_Node000003"><a xlink:title=" ">
<polygon fill="#e0e0e0" stroke="#999999" points="168,-19 122,-19 122,0 168,0 168,-19"/>
<text text-anchor="middle" x="145" y="-7" font-family="Helvetica,sans-Serif" font-size="10.00">chrono</text>
</a>
</g>
</g>
<!-- Node1&#45;&gt;Node3 -->
<g id="edge2_Node000001_Node000003" class="edge">
<title>Node1&#45;&gt;Node3</title>
<g id="a_edge2_Node000001_Node000003"><a xlink:title=" ">
<path fill="none" stroke="#63b8ff" d="M112.36,-54.95C118.78,-46.2 126.28,-35.99 132.48,-27.56"/>
<polygon fill="#63b8ff" stroke="#63b8ff" points="135.47,-29.39 138.57,-19.26 129.83,-25.25 135.47,-29.39"/>
</a>
</g>
</g>
</g>
</svg>
