<?xml version="1.0" encoding="UTF-8" standalone="no"?>
<!DOCTYPE svg PUBLIC "-//W3C//DTD SVG 1.1//EN"
 "http://www.w3.org/Graphics/SVG/1.1/DTD/svg11.dtd">
<!-- Generated by graphviz version 2.43.0 (0)
 -->
<!-- Title: libfvMeshTopoChangers/libfvMeshTopoChangers2D/fvMeshTopoChangers/refiner2D/fvMeshTopoChangersMultiFieldRefiner2D.H Pages: 1 -->
<svg width="988pt" height="225pt"
 viewBox="0.00 0.00 987.50 225.00" xmlns="http://www.w3.org/2000/svg" xmlns:xlink="http://www.w3.org/1999/xlink">
<g id="graph0" class="graph" transform="scale(1 1) rotate(0) translate(4 221)">
<title>libfvMeshTopoChangers/libfvMeshTopoChangers2D/fvMeshTopoChangers/refiner2D/fvMeshTopoChangersMultiFieldRefiner2D.H</title>
<!-- Node1 -->
<g id="Node000001" class="node">
<title>Node1</title>
<g id="a_Node000001"><a xlink:title=" ">
<polygon fill="#999999" stroke="#666666" points="565,-217 353,-217 353,-165 565,-165 565,-217"/>
<text text-anchor="start" x="361" y="-205" font-family="Helvetica,sans-Serif" font-size="10.00">libfvMeshTopoChangers</text>
<text text-anchor="start" x="361" y="-194" font-family="Helvetica,sans-Serif" font-size="10.00">/libfvMeshTopoChangers2D</text>
<text text-anchor="start" x="361" y="-183" font-family="Helvetica,sans-Serif" font-size="10.00">/fvMeshTopoChangers/refiner2D</text>
<text text-anchor="middle" x="459" y="-172" font-family="Helvetica,sans-Serif" font-size="10.00">/fvMeshTopoChangersMultiFieldRefiner2D.H</text>
</a>
</g>
</g>
<!-- Node2 -->
<g id="Node000002" class="node">
<title>Node2</title>
<g id="a_Node000002"><a xlink:title=" ">
<polygon fill="#e0e0e0" stroke="#999999" points="379,-129 263,-129 263,-110 379,-110 379,-129"/>
<text text-anchor="middle" x="321" y="-117" font-family="Helvetica,sans-Serif" font-size="10.00">fvMeshTopoChanger.H</text>
</a>
</g>
</g>
<!-- Node1&#45;&gt;Node2 -->
<g id="edge1_Node000001_Node000002" class="edge">
<title>Node1&#45;&gt;Node2</title>
<g id="a_edge1_Node000001_Node000002"><a xlink:title=" ">
<path fill="none" stroke="#63b8ff" d="M409.18,-164.91C388.2,-154.35 364.66,-142.49 347.18,-133.68"/>
<polygon fill="#63b8ff" stroke="#63b8ff" points="348.65,-130.51 338.15,-129.14 345.5,-136.76 348.65,-130.51"/>
</a>
</g>
</g>
<!-- Node3 -->
<g id="Node000003" class="node">
<title>Node3</title>
<g id="a_Node000003"><a xlink:href="hexRef4_8H.html" target="_top" xlink:title=" ">
<polygon fill="white" stroke="#666666" points="461,-129 397,-129 397,-110 461,-110 461,-129"/>
<text text-anchor="middle" x="429" y="-117" font-family="Helvetica,sans-Serif" font-size="10.00">hexRef4.H</text>
</a>
</g>
</g>
<!-- Node1&#45;&gt;Node3 -->
<g id="edge2_Node000001_Node000003" class="edge">
<title>Node1&#45;&gt;Node3</title>
<g id="a_edge2_Node000001_Node000003"><a xlink:title=" ">
<path fill="none" stroke="#63b8ff" d="M448.17,-164.91C444.43,-156.26 440.33,-146.74 436.87,-138.74"/>
<polygon fill="#63b8ff" stroke="#63b8ff" points="439.98,-137.1 432.8,-129.3 433.55,-139.87 439.98,-137.1"/>
</a>
</g>
</g>
<!-- Node17 -->
<g id="Node000017" class="node">
<title>Node17</title>
<g id="a_Node000017"><a xlink:title=" ">
<polygon fill="#e0e0e0" stroke="#999999" points="979.5,-74 884.5,-74 884.5,-55 979.5,-55 979.5,-74"/>
<text text-anchor="middle" x="932" y="-62" font-family="Helvetica,sans-Serif" font-size="10.00">PackedBoolList.H</text>
</a>
</g>
</g>
<!-- Node1&#45;&gt;Node17 -->
<g id="edge20_Node000001_Node000017" class="edge">
<title>Node1&#45;&gt;Node17</title>
<g id="a_edge20_Node000001_Node000017"><a xlink:title=" ">
<path fill="none" stroke="#63b8ff" d="M467.36,-164.99C474.92,-146.54 487.98,-122.53 508,-110 575.01,-68.03 778.65,-82.89 874.41,-73.86"/>
<polygon fill="#63b8ff" stroke="#63b8ff" points="874.87,-77.33 884.44,-72.78 874.12,-70.37 874.87,-77.33"/>
</a>
</g>
</g>
<!-- Node20 -->
<g id="Node000020" class="node">
<title>Node20</title>
<g id="a_Node000020"><a xlink:title=" ">
<polygon fill="#e0e0e0" stroke="#999999" points="574.5,-129 517.5,-129 517.5,-110 574.5,-110 574.5,-129"/>
<text text-anchor="middle" x="546" y="-117" font-family="Helvetica,sans-Serif" font-size="10.00">Switch.H</text>
</a>
</g>
</g>
<!-- Node1&#45;&gt;Node20 -->
<g id="edge21_Node000001_Node000020" class="edge">
<title>Node1&#45;&gt;Node20</title>
<g id="a_edge21_Node000001_Node000020"><a xlink:title=" ">
<path fill="none" stroke="#63b8ff" d="M490.41,-164.91C502.7,-155.09 516.39,-144.16 527.11,-135.59"/>
<polygon fill="#63b8ff" stroke="#63b8ff" points="529.35,-138.28 534.98,-129.3 524.98,-132.81 529.35,-138.28"/>
</a>
</g>
</g>
<!-- Node4 -->
<g id="Node000004" class="node">
<title>Node4</title>
<g id="a_Node000004"><a xlink:title=" ">
<polygon fill="#e0e0e0" stroke="#999999" points="74,-74 0,-74 0,-55 74,-55 74,-74"/>
<text text-anchor="middle" x="37" y="-62" font-family="Helvetica,sans-Serif" font-size="10.00">labelIOList.H</text>
</a>
</g>
</g>
<!-- Node3&#45;&gt;Node4 -->
<g id="edge3_Node000003_Node000004" class="edge">
<title>Node3&#45;&gt;Node4</title>
<g id="a_edge3_Node000003_Node000004"><a xlink:title=" ">
<path fill="none" stroke="#63b8ff" d="M396.82,-111.55C393.84,-110.99 390.87,-110.47 388,-110 256.43,-88.64 219.67,-94.13 84.06,-74.06"/>
<polygon fill="#63b8ff" stroke="#63b8ff" points="84.53,-70.6 74.12,-72.57 83.49,-77.52 84.53,-70.6"/>
</a>
</g>
</g>
<!-- Node5 -->
<g id="Node000005" class="node">
<title>Node5</title>
<g id="a_Node000005"><a xlink:title=" ">
<polygon fill="#e0e0e0" stroke="#999999" points="138,-74 92,-74 92,-55 138,-55 138,-74"/>
<text text-anchor="middle" x="115" y="-62" font-family="Helvetica,sans-Serif" font-size="10.00">face.H</text>
</a>
</g>
</g>
<!-- Node3&#45;&gt;Node5 -->
<g id="edge4_Node000003_Node000005" class="edge">
<title>Node3&#45;&gt;Node5</title>
<g id="a_edge4_Node000003_Node000005"><a xlink:title=" ">
<path fill="none" stroke="#63b8ff" d="M396.8,-111.65C393.83,-111.07 390.86,-110.51 388,-110 284.5,-91.56 254.78,-95.67 148.21,-74.05"/>
<polygon fill="#63b8ff" stroke="#63b8ff" points="148.85,-70.61 138.35,-72.02 147.44,-77.47 148.85,-70.61"/>
</a>
</g>
</g>
<!-- Node6 -->
<g id="Node000006" class="node">
<title>Node6</title>
<g id="a_Node000006"><a xlink:title=" ">
<polygon fill="#e0e0e0" stroke="#999999" points="221.5,-74 156.5,-74 156.5,-55 221.5,-55 221.5,-74"/>
<text text-anchor="middle" x="189" y="-62" font-family="Helvetica,sans-Serif" font-size="10.00">HashSet.H</text>
</a>
</g>
</g>
<!-- Node3&#45;&gt;Node6 -->
<g id="edge5_Node000003_Node000006" class="edge">
<title>Node3&#45;&gt;Node6</title>
<g id="a_edge5_Node000003_Node000006"><a xlink:title=" ">
<path fill="none" stroke="#63b8ff" d="M396.63,-111.35C353.96,-101.93 278.77,-85.32 231.54,-74.89"/>
<polygon fill="#63b8ff" stroke="#63b8ff" points="232.14,-71.44 221.62,-72.7 230.63,-78.28 232.14,-71.44"/>
</a>
</g>
</g>
<!-- Node7 -->
<g id="Node000007" class="node">
<title>Node7</title>
<g id="a_Node000007"><a xlink:title=" ">
<polygon fill="#e0e0e0" stroke="#999999" points="311,-19 229,-19 229,0 311,0 311,-19"/>
<text text-anchor="middle" x="270" y="-7" font-family="Helvetica,sans-Serif" font-size="10.00">DynamicList.H</text>
</a>
</g>
</g>
<!-- Node3&#45;&gt;Node7 -->
<g id="edge6_Node000003_Node000007" class="edge">
<title>Node3&#45;&gt;Node7</title>
<g id="a_edge6_Node000003_Node000007"><a xlink:title=" ">
<path fill="none" stroke="#63b8ff" d="M396.77,-111.71C352.34,-102.04 276.83,-84.3 269,-74 259.42,-61.39 260.9,-42.95 264.05,-29.18"/>
<polygon fill="#63b8ff" stroke="#63b8ff" points="267.48,-29.91 266.75,-19.35 260.73,-28.06 267.48,-29.91"/>
</a>
</g>
</g>
<!-- Node8 -->
<g id="Node000008" class="node">
<title>Node8</title>
<g id="a_Node000008"><a xlink:title=" ">
<polygon fill="#e0e0e0" stroke="#999999" points="367.5,-74 278.5,-74 278.5,-55 367.5,-55 367.5,-74"/>
<text text-anchor="middle" x="323" y="-62" font-family="Helvetica,sans-Serif" font-size="10.00">primitivePatch.H</text>
</a>
</g>
</g>
<!-- Node3&#45;&gt;Node8 -->
<g id="edge7_Node000003_Node000008" class="edge">
<title>Node3&#45;&gt;Node8</title>
<g id="a_edge7_Node000003_Node000008"><a xlink:title=" ">
<path fill="none" stroke="#63b8ff" d="M411.97,-109.98C395.07,-101.54 368.94,-88.47 349.36,-78.68"/>
<polygon fill="#63b8ff" stroke="#63b8ff" points="350.85,-75.51 340.34,-74.17 347.72,-81.77 350.85,-75.51"/>
</a>
</g>
</g>
<!-- Node9 -->
<g id="Node000009" class="node">
<title>Node9</title>
<g id="a_Node000009"><a xlink:title=" ">
<polygon fill="#e0e0e0" stroke="#999999" points="472,-74 386,-74 386,-55 472,-55 472,-74"/>
<text text-anchor="middle" x="429" y="-62" font-family="Helvetica,sans-Serif" font-size="10.00">removeFaces.H</text>
</a>
</g>
</g>
<!-- Node3&#45;&gt;Node9 -->
<g id="edge8_Node000003_Node000009" class="edge">
<title>Node3&#45;&gt;Node9</title>
<g id="a_edge8_Node000003_Node000009"><a xlink:title=" ">
<path fill="none" stroke="#63b8ff" d="M429,-109.75C429,-102.8 429,-92.85 429,-84.13"/>
<polygon fill="#63b8ff" stroke="#63b8ff" points="432.5,-84.09 429,-74.09 425.5,-84.09 432.5,-84.09"/>
</a>
</g>
</g>
<!-- Node10 -->
<g id="Node000010" class="node">
<title>Node10</title>
<g id="a_Node000010"><a xlink:href="refinementHistory4_8H.html" target="_top" xlink:title=" ">
<polygon fill="white" stroke="#666666" points="600,-74 490,-74 490,-55 600,-55 600,-74"/>
<text text-anchor="middle" x="545" y="-62" font-family="Helvetica,sans-Serif" font-size="10.00">refinementHistory4.H</text>
</a>
</g>
</g>
<!-- Node3&#45;&gt;Node10 -->
<g id="edge9_Node000003_Node000010" class="edge">
<title>Node3&#45;&gt;Node10</title>
<g id="a_edge9_Node000003_Node000010"><a xlink:title=" ">
<path fill="none" stroke="#63b8ff" d="M447.64,-109.98C466.3,-101.46 495.25,-88.23 516.74,-78.41"/>
<polygon fill="#63b8ff" stroke="#63b8ff" points="518.38,-81.51 526.02,-74.17 515.47,-75.14 518.38,-81.51"/>
</a>
</g>
</g>
<!-- Node3&#45;&gt;Node17 -->
<g id="edge17_Node000003_Node000017" class="edge">
<title>Node3&#45;&gt;Node17</title>
<g id="a_edge17_Node000003_Node000017"><a xlink:title=" ">
<path fill="none" stroke="#63b8ff" d="M461.11,-112.17C465.76,-111.37 470.49,-110.62 475,-110 648.65,-86.19 696.06,-94.84 874.46,-73.99"/>
<polygon fill="#63b8ff" stroke="#63b8ff" points="874.92,-77.46 884.44,-72.8 874.1,-70.5 874.92,-77.46"/>
</a>
</g>
</g>
<!-- Node18 -->
<g id="Node000018" class="node">
<title>Node18</title>
<g id="a_Node000018"><a xlink:title=" ">
<polygon fill="#e0e0e0" stroke="#999999" points="761.5,-74 618.5,-74 618.5,-55 761.5,-55 761.5,-74"/>
<text text-anchor="middle" x="690" y="-62" font-family="Helvetica,sans-Serif" font-size="10.00">uniformDimensionedFields.H</text>
</a>
</g>
</g>
<!-- Node3&#45;&gt;Node18 -->
<g id="edge18_Node000003_Node000018" class="edge">
<title>Node3&#45;&gt;Node18</title>
<g id="a_edge18_Node000003_Node000018"><a xlink:title=" ">
<path fill="none" stroke="#63b8ff" d="M461,-112C505.12,-103.04 585.15,-86.79 637.94,-76.07"/>
<polygon fill="#63b8ff" stroke="#63b8ff" points="638.69,-79.49 647.79,-74.07 637.3,-72.63 638.69,-79.49"/>
</a>
</g>
</g>
<!-- Node19 -->
<g id="Node000019" class="node">
<title>Node19</title>
<g id="a_Node000019"><a xlink:title=" ">
<polygon fill="#e0e0e0" stroke="#999999" points="866,-74 780,-74 780,-55 866,-55 866,-74"/>
<text text-anchor="middle" x="823" y="-62" font-family="Helvetica,sans-Serif" font-size="10.00">cellShapeList.H</text>
</a>
</g>
</g>
<!-- Node3&#45;&gt;Node19 -->
<g id="edge19_Node000003_Node000019" class="edge">
<title>Node3&#45;&gt;Node19</title>
<g id="a_edge19_Node000003_Node000019"><a xlink:title=" ">
<path fill="none" stroke="#63b8ff" d="M461.13,-112.3C465.77,-111.48 470.5,-110.69 475,-110 605.56,-89.99 639.21,-92.46 770,-74 770.1,-73.99 770.2,-73.97 770.3,-73.96"/>
<polygon fill="#63b8ff" stroke="#63b8ff" points="770.54,-77.46 779.92,-72.55 769.52,-70.53 770.54,-77.46"/>
</a>
</g>
</g>
<!-- Node10&#45;&gt;Node7 -->
<g id="edge10_Node000010_Node000007" class="edge">
<title>Node10&#45;&gt;Node7</title>
<g id="a_edge10_Node000010_Node000007"><a xlink:title=" ">
<path fill="none" stroke="#63b8ff" d="M500.82,-54.98C451.85,-45.55 372.99,-30.35 321.33,-20.39"/>
<polygon fill="#63b8ff" stroke="#63b8ff" points="321.86,-16.93 311.37,-18.47 320.53,-23.8 321.86,-16.93"/>
</a>
</g>
</g>
<!-- Node11 -->
<g id="Node000011" class="node">
<title>Node11</title>
<g id="a_Node000011"><a xlink:title=" ">
<polygon fill="#e0e0e0" stroke="#999999" points="402.5,-19 339.5,-19 339.5,0 402.5,0 402.5,-19"/>
<text text-anchor="middle" x="371" y="-7" font-family="Helvetica,sans-Serif" font-size="10.00">labelList.H</text>
</a>
</g>
</g>
<!-- Node10&#45;&gt;Node11 -->
<g id="edge11_Node000010_Node000011" class="edge">
<title>Node10&#45;&gt;Node11</title>
<g id="a_edge11_Node000010_Node000011"><a xlink:title=" ">
<path fill="none" stroke="#63b8ff" d="M517.04,-54.98C487.7,-46.05 441.4,-31.94 408.81,-22.02"/>
<polygon fill="#63b8ff" stroke="#63b8ff" points="409.76,-18.65 399.18,-19.08 407.72,-25.34 409.76,-18.65"/>
</a>
</g>
</g>
<!-- Node12 -->
<g id="Node000012" class="node">
<title>Node12</title>
<g id="a_Node000012"><a xlink:title=" ">
<polygon fill="#e0e0e0" stroke="#999999" points="487.5,-19 420.5,-19 420.5,0 487.5,0 487.5,-19"/>
<text text-anchor="middle" x="454" y="-7" font-family="Helvetica,sans-Serif" font-size="10.00">FixedList.H</text>
</a>
</g>
</g>
<!-- Node10&#45;&gt;Node12 -->
<g id="edge12_Node000010_Node000012" class="edge">
<title>Node10&#45;&gt;Node12</title>
<g id="a_edge12_Node000010_Node000012"><a xlink:title=" ">
<path fill="none" stroke="#63b8ff" d="M530.38,-54.98C516.14,-46.69 494.25,-33.94 477.55,-24.22"/>
<polygon fill="#63b8ff" stroke="#63b8ff" points="479.29,-21.18 468.89,-19.17 475.77,-27.23 479.29,-21.18"/>
</a>
</g>
</g>
<!-- Node13 -->
<g id="Node000013" class="node">
<title>Node13</title>
<g id="a_Node000013"><a xlink:title=" ">
<polygon fill="#e0e0e0" stroke="#999999" points="564,-19 506,-19 506,0 564,0 564,-19"/>
<text text-anchor="middle" x="535" y="-7" font-family="Helvetica,sans-Serif" font-size="10.00">autoPtr.H</text>
</a>
</g>
</g>
<!-- Node10&#45;&gt;Node13 -->
<g id="edge13_Node000010_Node000013" class="edge">
<title>Node10&#45;&gt;Node13</title>
<g id="a_edge13_Node000010_Node000013"><a xlink:title=" ">
<path fill="none" stroke="#63b8ff" d="M543.35,-54.75C542.04,-47.8 540.16,-37.85 538.52,-29.13"/>
<polygon fill="#63b8ff" stroke="#63b8ff" points="541.91,-28.27 536.62,-19.09 535.04,-29.56 541.91,-28.27"/>
</a>
</g>
</g>
<!-- Node14 -->
<g id="Node000014" class="node">
<title>Node14</title>
<g id="a_Node000014"><a xlink:title=" ">
<polygon fill="#e0e0e0" stroke="#999999" points="659.5,-19 582.5,-19 582.5,0 659.5,0 659.5,-19"/>
<text text-anchor="middle" x="621" y="-7" font-family="Helvetica,sans-Serif" font-size="10.00">regIOobject.H</text>
</a>
</g>
</g>
<!-- Node10&#45;&gt;Node14 -->
<g id="edge14_Node000010_Node000014" class="edge">
<title>Node10&#45;&gt;Node14</title>
<g id="a_edge14_Node000010_Node000014"><a xlink:title=" ">
<path fill="none" stroke="#63b8ff" d="M557.21,-54.98C568.78,-46.92 586.38,-34.65 600.16,-25.03"/>
<polygon fill="#63b8ff" stroke="#63b8ff" points="602.37,-27.76 608.57,-19.17 598.36,-22.02 602.37,-27.76"/>
</a>
</g>
</g>
<!-- Node15 -->
<g id="Node000015" class="node">
<title>Node15</title>
<g id="a_Node000015"><a xlink:title=" ">
<polygon fill="#e0e0e0" stroke="#999999" points="738.5,-19 677.5,-19 677.5,0 738.5,0 738.5,-19"/>
<text text-anchor="middle" x="708" y="-7" font-family="Helvetica,sans-Serif" font-size="10.00">boolList.H</text>
</a>
</g>
</g>
<!-- Node10&#45;&gt;Node15 -->
<g id="edge15_Node000010_Node000015" class="edge">
<title>Node10&#45;&gt;Node15</title>
<g id="a_edge15_Node000010_Node000015"><a xlink:title=" ">
<path fill="none" stroke="#63b8ff" d="M571.19,-54.98C598.44,-46.13 641.3,-32.19 671.78,-22.28"/>
<polygon fill="#63b8ff" stroke="#63b8ff" points="673.18,-25.5 681.61,-19.08 671.01,-18.85 673.18,-25.5"/>
</a>
</g>
</g>
<!-- Node16 -->
<g id="Node000016" class="node">
<title>Node16</title>
<g id="a_Node000016"><a xlink:title=" ">
<polygon fill="#e0e0e0" stroke="#999999" points="821,-19 757,-19 757,0 821,0 821,-19"/>
<text text-anchor="middle" x="789" y="-7" font-family="Helvetica,sans-Serif" font-size="10.00">labelPair.H</text>
</a>
</g>
</g>
<!-- Node10&#45;&gt;Node16 -->
<g id="edge16_Node000010_Node000016" class="edge">
<title>Node10&#45;&gt;Node16</title>
<g id="a_edge16_Node000010_Node000016"><a xlink:title=" ">
<path fill="none" stroke="#63b8ff" d="M584.2,-54.98C628.79,-45.3 701.31,-29.55 747.02,-19.62"/>
<polygon fill="#63b8ff" stroke="#63b8ff" points="747.88,-23.01 756.91,-17.47 746.39,-16.17 747.88,-23.01"/>
</a>
</g>
</g>
</g>
</svg>
