<?xml version="1.0" encoding="UTF-8" standalone="no"?>
<!DOCTYPE svg PUBLIC "-//W3C//DTD SVG 1.1//EN"
 "http://www.w3.org/Graphics/SVG/1.1/DTD/svg11.dtd">
<!-- Generated by graphviz version 2.43.0 (0)
 -->
<!-- Title: libfvMeshTopoChangers/libfvMeshTopoChangers2D/fvMeshTopoChangers/refiner2D/fvMeshTopoChangersRefiner2D.C Pages: 1 -->
<svg width="1299pt" height="280pt"
 viewBox="0.00 0.00 1298.50 280.00" xmlns="http://www.w3.org/2000/svg" xmlns:xlink="http://www.w3.org/1999/xlink">
<g id="graph0" class="graph" transform="scale(1 1) rotate(0) translate(4 276)">
<title>libfvMeshTopoChangers/libfvMeshTopoChangers2D/fvMeshTopoChangers/refiner2D/fvMeshTopoChangersRefiner2D.C</title>
<!-- Node1 -->
<g id="Node000001" class="node">
<title>Node1</title>
<g id="a_Node000001"><a xlink:title=" ">
<polygon fill="#999999" stroke="#666666" points="968,-272 798,-272 798,-220 968,-220 968,-272"/>
<text text-anchor="start" x="806" y="-260" font-family="Helvetica,sans-Serif" font-size="10.00">libfvMeshTopoChangers</text>
<text text-anchor="start" x="806" y="-249" font-family="Helvetica,sans-Serif" font-size="10.00">/libfvMeshTopoChangers2D</text>
<text text-anchor="start" x="806" y="-238" font-family="Helvetica,sans-Serif" font-size="10.00">/fvMeshTopoChangers/refiner2D</text>
<text text-anchor="middle" x="883" y="-227" font-family="Helvetica,sans-Serif" font-size="10.00">/fvMeshTopoChangersRefiner2D.C</text>
</a>
</g>
</g>
<!-- Node2 -->
<g id="Node000002" class="node">
<title>Node2</title>
<g id="a_Node000002"><a xlink:href="fvMeshTopoChangersRefiner2D_8H.html" target="_top" xlink:title=" ">
<polygon fill="white" stroke="#666666" points="542.5,-184 375.5,-184 375.5,-165 542.5,-165 542.5,-184"/>
<text text-anchor="middle" x="459" y="-172" font-family="Helvetica,sans-Serif" font-size="10.00">fvMeshTopoChangersRefiner2D.H</text>
</a>
</g>
</g>
<!-- Node1&#45;&gt;Node2 -->
<g id="edge1_Node000001_Node000002" class="edge">
<title>Node1&#45;&gt;Node2</title>
<g id="a_edge1_Node000001_Node000002"><a xlink:title=" ">
<path fill="none" stroke="#63b8ff" d="M797.96,-231.06C716,-217.63 593.94,-197.62 520.84,-185.64"/>
<polygon fill="#63b8ff" stroke="#63b8ff" points="521.3,-182.16 510.86,-184 520.16,-189.07 521.3,-182.16"/>
</a>
</g>
</g>
<!-- Node22 -->
<g id="Node000022" class="node">
<title>Node22</title>
<g id="a_Node000022"><a xlink:title=" ">
<polygon fill="#e0e0e0" stroke="#999999" points="665.5,-184 560.5,-184 560.5,-165 665.5,-165 665.5,-184"/>
<text text-anchor="middle" x="613" y="-172" font-family="Helvetica,sans-Serif" font-size="10.00">surfaceInterpolate.H</text>
</a>
</g>
</g>
<!-- Node1&#45;&gt;Node22 -->
<g id="edge23_Node000001_Node000022" class="edge">
<title>Node1&#45;&gt;Node22</title>
<g id="a_edge23_Node000001_Node000022"><a xlink:title=" ">
<path fill="none" stroke="#63b8ff" d="M797.94,-223.11C750.69,-210.94 693.94,-196.33 655.87,-186.54"/>
<polygon fill="#63b8ff" stroke="#63b8ff" points="656.69,-183.13 646.13,-184.03 654.95,-189.91 656.69,-183.13"/>
</a>
</g>
</g>
<!-- Node23 -->
<g id="Node000023" class="node">
<title>Node23</title>
<g id="a_Node000023"><a xlink:title=" ">
<polygon fill="#e0e0e0" stroke="#999999" points="784,-184 684,-184 684,-165 784,-165 784,-184"/>
<text text-anchor="middle" x="734" y="-172" font-family="Helvetica,sans-Serif" font-size="10.00">polyTopoChange.H</text>
</a>
</g>
</g>
<!-- Node1&#45;&gt;Node23 -->
<g id="edge24_Node000001_Node000023" class="edge">
<title>Node1&#45;&gt;Node23</title>
<g id="a_edge24_Node000001_Node000023"><a xlink:title=" ">
<path fill="none" stroke="#63b8ff" d="M829.21,-219.91C806.35,-209.25 780.67,-197.27 761.74,-188.44"/>
<polygon fill="#63b8ff" stroke="#63b8ff" points="763.06,-185.19 752.51,-184.14 760.1,-191.53 763.06,-185.19"/>
</a>
</g>
</g>
<!-- Node24 -->
<g id="Node000024" class="node">
<title>Node24</title>
<g id="a_Node000024"><a xlink:title=" ">
<polygon fill="#e0e0e0" stroke="#999999" points="873.5,-184 802.5,-184 802.5,-165 873.5,-165 873.5,-184"/>
<text text-anchor="middle" x="838" y="-172" font-family="Helvetica,sans-Serif" font-size="10.00">syncTools.H</text>
</a>
</g>
</g>
<!-- Node1&#45;&gt;Node24 -->
<g id="edge25_Node000001_Node000024" class="edge">
<title>Node1&#45;&gt;Node24</title>
<g id="a_edge25_Node000001_Node000024"><a xlink:title=" ">
<path fill="none" stroke="#63b8ff" d="M866.75,-219.91C860.96,-210.97 854.57,-201.1 849.29,-192.94"/>
<polygon fill="#63b8ff" stroke="#63b8ff" points="852.07,-190.79 843.7,-184.3 846.2,-194.6 852.07,-190.79"/>
</a>
</g>
</g>
<!-- Node25 -->
<g id="Node000025" class="node">
<title>Node25</title>
<g id="a_Node000025"><a xlink:title=" ">
<polygon fill="#e0e0e0" stroke="#999999" points="966,-184 892,-184 892,-165 966,-165 966,-184"/>
<text text-anchor="middle" x="929" y="-172" font-family="Helvetica,sans-Serif" font-size="10.00">pointFields.H</text>
</a>
</g>
</g>
<!-- Node1&#45;&gt;Node25 -->
<g id="edge26_Node000001_Node000025" class="edge">
<title>Node1&#45;&gt;Node25</title>
<g id="a_edge26_Node000001_Node000025"><a xlink:title=" ">
<path fill="none" stroke="#63b8ff" d="M899.61,-219.91C905.59,-210.87 912.2,-200.88 917.63,-192.67"/>
<polygon fill="#63b8ff" stroke="#63b8ff" points="920.57,-194.57 923.17,-184.3 914.74,-190.71 920.57,-194.57"/>
</a>
</g>
</g>
<!-- Node26 -->
<g id="Node000026" class="node">
<title>Node26</title>
<g id="a_Node000026"><a xlink:title=" ">
<polygon fill="#e0e0e0" stroke="#999999" points="1040,-184 984,-184 984,-165 1040,-165 1040,-184"/>
<text text-anchor="middle" x="1012" y="-172" font-family="Helvetica,sans-Serif" font-size="10.00">sigFpe.H</text>
</a>
</g>
</g>
<!-- Node1&#45;&gt;Node26 -->
<g id="edge27_Node000001_Node000026" class="edge">
<title>Node1&#45;&gt;Node26</title>
<g id="a_edge27_Node000001_Node000026"><a xlink:title=" ">
<path fill="none" stroke="#63b8ff" d="M929.57,-219.91C949,-209.44 970.78,-197.71 987.07,-188.93"/>
<polygon fill="#63b8ff" stroke="#63b8ff" points="988.83,-191.96 995.97,-184.14 985.51,-185.8 988.83,-191.96"/>
</a>
</g>
</g>
<!-- Node27 -->
<g id="Node000027" class="node">
<title>Node27</title>
<g id="a_Node000027"><a xlink:title=" ">
<polygon fill="#e0e0e0" stroke="#999999" points="1115.5,-184 1058.5,-184 1058.5,-165 1115.5,-165 1115.5,-184"/>
<text text-anchor="middle" x="1087" y="-172" font-family="Helvetica,sans-Serif" font-size="10.00">cellSet.H</text>
</a>
</g>
</g>
<!-- Node1&#45;&gt;Node27 -->
<g id="edge28_Node000001_Node000027" class="edge">
<title>Node1&#45;&gt;Node27</title>
<g id="a_edge28_Node000001_Node000027"><a xlink:title=" ">
<path fill="none" stroke="#63b8ff" d="M956.65,-219.91C989.23,-208.81 1026.01,-196.28 1052.18,-187.36"/>
<polygon fill="#63b8ff" stroke="#63b8ff" points="1053.32,-190.67 1061.65,-184.14 1051.06,-184.05 1053.32,-190.67"/>
</a>
</g>
</g>
<!-- Node28 -->
<g id="Node000028" class="node">
<title>Node28</title>
<g id="a_Node000028"><a xlink:title=" ">
<polygon fill="#e0e0e0" stroke="#999999" points="1290.5,-184 1133.5,-184 1133.5,-165 1290.5,-165 1290.5,-184"/>
<text text-anchor="middle" x="1212" y="-172" font-family="Helvetica,sans-Serif" font-size="10.00">addToRunTimeSelectionTable.H</text>
</a>
</g>
</g>
<!-- Node1&#45;&gt;Node28 -->
<g id="edge29_Node000001_Node000028" class="edge">
<title>Node1&#45;&gt;Node28</title>
<g id="a_edge29_Node000001_Node000028"><a xlink:title=" ">
<path fill="none" stroke="#63b8ff" d="M968.15,-227.01C1029.56,-214.04 1110.35,-196.97 1161.75,-186.12"/>
<polygon fill="#63b8ff" stroke="#63b8ff" points="1162.56,-189.52 1171.62,-184.03 1161.11,-182.67 1162.56,-189.52"/>
</a>
</g>
</g>
<!-- Node3 -->
<g id="Node000003" class="node">
<title>Node3</title>
<g id="a_Node000003"><a xlink:title=" ">
<polygon fill="#e0e0e0" stroke="#999999" points="379,-129 263,-129 263,-110 379,-110 379,-129"/>
<text text-anchor="middle" x="321" y="-117" font-family="Helvetica,sans-Serif" font-size="10.00">fvMeshTopoChanger.H</text>
</a>
</g>
</g>
<!-- Node2&#45;&gt;Node3 -->
<g id="edge2_Node000002_Node000003" class="edge">
<title>Node2&#45;&gt;Node3</title>
<g id="a_edge2_Node000002_Node000003"><a xlink:title=" ">
<path fill="none" stroke="#63b8ff" d="M436.83,-164.98C414.23,-156.3 378.94,-142.75 353.25,-132.88"/>
<polygon fill="#63b8ff" stroke="#63b8ff" points="354.17,-129.49 343.58,-129.17 351.66,-136.02 354.17,-129.49"/>
</a>
</g>
</g>
<!-- Node4 -->
<g id="Node000004" class="node">
<title>Node4</title>
<g id="a_Node000004"><a xlink:href="hexRef4_8H.html" target="_top" xlink:title=" ">
<polygon fill="white" stroke="#666666" points="461,-129 397,-129 397,-110 461,-110 461,-129"/>
<text text-anchor="middle" x="429" y="-117" font-family="Helvetica,sans-Serif" font-size="10.00">hexRef4.H</text>
</a>
</g>
</g>
<!-- Node2&#45;&gt;Node4 -->
<g id="edge3_Node000002_Node000004" class="edge">
<title>Node2&#45;&gt;Node4</title>
<g id="a_edge3_Node000002_Node000004"><a xlink:title=" ">
<path fill="none" stroke="#63b8ff" d="M454.05,-164.75C449.94,-157.49 443.97,-146.95 438.9,-137.98"/>
<polygon fill="#63b8ff" stroke="#63b8ff" points="441.83,-136.07 433.86,-129.09 435.74,-139.52 441.83,-136.07"/>
</a>
</g>
</g>
<!-- Node18 -->
<g id="Node000018" class="node">
<title>Node18</title>
<g id="a_Node000018"><a xlink:title=" ">
<polygon fill="#e0e0e0" stroke="#999999" points="979.5,-74 884.5,-74 884.5,-55 979.5,-55 979.5,-74"/>
<text text-anchor="middle" x="932" y="-62" font-family="Helvetica,sans-Serif" font-size="10.00">PackedBoolList.H</text>
</a>
</g>
</g>
<!-- Node2&#45;&gt;Node18 -->
<g id="edge21_Node000002_Node000018" class="edge">
<title>Node2&#45;&gt;Node18</title>
<g id="a_edge21_Node000002_Node000018"><a xlink:title=" ">
<path fill="none" stroke="#63b8ff" d="M462.9,-164.67C469.74,-150.38 485.34,-122.55 508,-110 577.17,-71.7 778.8,-83.15 874.42,-73.87"/>
<polygon fill="#63b8ff" stroke="#63b8ff" points="874.88,-77.35 884.44,-72.78 874.12,-70.39 874.88,-77.35"/>
</a>
</g>
</g>
<!-- Node21 -->
<g id="Node000021" class="node">
<title>Node21</title>
<g id="a_Node000021"><a xlink:title=" ">
<polygon fill="#e0e0e0" stroke="#999999" points="574.5,-129 517.5,-129 517.5,-110 574.5,-110 574.5,-129"/>
<text text-anchor="middle" x="546" y="-117" font-family="Helvetica,sans-Serif" font-size="10.00">Switch.H</text>
</a>
</g>
</g>
<!-- Node2&#45;&gt;Node21 -->
<g id="edge22_Node000002_Node000021" class="edge">
<title>Node2&#45;&gt;Node21</title>
<g id="a_edge22_Node000002_Node000021"><a xlink:title=" ">
<path fill="none" stroke="#63b8ff" d="M472.98,-164.98C486.47,-156.77 507.13,-144.18 523.04,-134.49"/>
<polygon fill="#63b8ff" stroke="#63b8ff" points="525.05,-137.36 531.77,-129.17 521.41,-131.38 525.05,-137.36"/>
</a>
</g>
</g>
<!-- Node5 -->
<g id="Node000005" class="node">
<title>Node5</title>
<g id="a_Node000005"><a xlink:title=" ">
<polygon fill="#e0e0e0" stroke="#999999" points="74,-74 0,-74 0,-55 74,-55 74,-74"/>
<text text-anchor="middle" x="37" y="-62" font-family="Helvetica,sans-Serif" font-size="10.00">labelIOList.H</text>
</a>
</g>
</g>
<!-- Node4&#45;&gt;Node5 -->
<g id="edge4_Node000004_Node000005" class="edge">
<title>Node4&#45;&gt;Node5</title>
<g id="a_edge4_Node000004_Node000005"><a xlink:title=" ">
<path fill="none" stroke="#63b8ff" d="M396.82,-111.55C393.84,-110.99 390.87,-110.47 388,-110 256.43,-88.64 219.67,-94.13 84.06,-74.06"/>
<polygon fill="#63b8ff" stroke="#63b8ff" points="84.53,-70.6 74.12,-72.57 83.49,-77.52 84.53,-70.6"/>
</a>
</g>
</g>
<!-- Node6 -->
<g id="Node000006" class="node">
<title>Node6</title>
<g id="a_Node000006"><a xlink:title=" ">
<polygon fill="#e0e0e0" stroke="#999999" points="138,-74 92,-74 92,-55 138,-55 138,-74"/>
<text text-anchor="middle" x="115" y="-62" font-family="Helvetica,sans-Serif" font-size="10.00">face.H</text>
</a>
</g>
</g>
<!-- Node4&#45;&gt;Node6 -->
<g id="edge5_Node000004_Node000006" class="edge">
<title>Node4&#45;&gt;Node6</title>
<g id="a_edge5_Node000004_Node000006"><a xlink:title=" ">
<path fill="none" stroke="#63b8ff" d="M396.8,-111.65C393.83,-111.07 390.86,-110.51 388,-110 284.5,-91.56 254.78,-95.67 148.21,-74.05"/>
<polygon fill="#63b8ff" stroke="#63b8ff" points="148.85,-70.61 138.35,-72.02 147.44,-77.47 148.85,-70.61"/>
</a>
</g>
</g>
<!-- Node7 -->
<g id="Node000007" class="node">
<title>Node7</title>
<g id="a_Node000007"><a xlink:title=" ">
<polygon fill="#e0e0e0" stroke="#999999" points="221.5,-74 156.5,-74 156.5,-55 221.5,-55 221.5,-74"/>
<text text-anchor="middle" x="189" y="-62" font-family="Helvetica,sans-Serif" font-size="10.00">HashSet.H</text>
</a>
</g>
</g>
<!-- Node4&#45;&gt;Node7 -->
<g id="edge6_Node000004_Node000007" class="edge">
<title>Node4&#45;&gt;Node7</title>
<g id="a_edge6_Node000004_Node000007"><a xlink:title=" ">
<path fill="none" stroke="#63b8ff" d="M396.63,-111.35C353.96,-101.93 278.77,-85.32 231.54,-74.89"/>
<polygon fill="#63b8ff" stroke="#63b8ff" points="232.14,-71.44 221.62,-72.7 230.63,-78.28 232.14,-71.44"/>
</a>
</g>
</g>
<!-- Node8 -->
<g id="Node000008" class="node">
<title>Node8</title>
<g id="a_Node000008"><a xlink:title=" ">
<polygon fill="#e0e0e0" stroke="#999999" points="311,-19 229,-19 229,0 311,0 311,-19"/>
<text text-anchor="middle" x="270" y="-7" font-family="Helvetica,sans-Serif" font-size="10.00">DynamicList.H</text>
</a>
</g>
</g>
<!-- Node4&#45;&gt;Node8 -->
<g id="edge7_Node000004_Node000008" class="edge">
<title>Node4&#45;&gt;Node8</title>
<g id="a_edge7_Node000004_Node000008"><a xlink:title=" ">
<path fill="none" stroke="#63b8ff" d="M396.77,-111.71C352.34,-102.04 276.83,-84.3 269,-74 259.42,-61.39 260.9,-42.95 264.05,-29.18"/>
<polygon fill="#63b8ff" stroke="#63b8ff" points="267.48,-29.91 266.75,-19.35 260.73,-28.06 267.48,-29.91"/>
</a>
</g>
</g>
<!-- Node9 -->
<g id="Node000009" class="node">
<title>Node9</title>
<g id="a_Node000009"><a xlink:title=" ">
<polygon fill="#e0e0e0" stroke="#999999" points="367.5,-74 278.5,-74 278.5,-55 367.5,-55 367.5,-74"/>
<text text-anchor="middle" x="323" y="-62" font-family="Helvetica,sans-Serif" font-size="10.00">primitivePatch.H</text>
</a>
</g>
</g>
<!-- Node4&#45;&gt;Node9 -->
<g id="edge8_Node000004_Node000009" class="edge">
<title>Node4&#45;&gt;Node9</title>
<g id="a_edge8_Node000004_Node000009"><a xlink:title=" ">
<path fill="none" stroke="#63b8ff" d="M411.97,-109.98C395.07,-101.54 368.94,-88.47 349.36,-78.68"/>
<polygon fill="#63b8ff" stroke="#63b8ff" points="350.85,-75.51 340.34,-74.17 347.72,-81.77 350.85,-75.51"/>
</a>
</g>
</g>
<!-- Node10 -->
<g id="Node000010" class="node">
<title>Node10</title>
<g id="a_Node000010"><a xlink:title=" ">
<polygon fill="#e0e0e0" stroke="#999999" points="472,-74 386,-74 386,-55 472,-55 472,-74"/>
<text text-anchor="middle" x="429" y="-62" font-family="Helvetica,sans-Serif" font-size="10.00">removeFaces.H</text>
</a>
</g>
</g>
<!-- Node4&#45;&gt;Node10 -->
<g id="edge9_Node000004_Node000010" class="edge">
<title>Node4&#45;&gt;Node10</title>
<g id="a_edge9_Node000004_Node000010"><a xlink:title=" ">
<path fill="none" stroke="#63b8ff" d="M429,-109.75C429,-102.8 429,-92.85 429,-84.13"/>
<polygon fill="#63b8ff" stroke="#63b8ff" points="432.5,-84.09 429,-74.09 425.5,-84.09 432.5,-84.09"/>
</a>
</g>
</g>
<!-- Node11 -->
<g id="Node000011" class="node">
<title>Node11</title>
<g id="a_Node000011"><a xlink:href="refinementHistory4_8H.html" target="_top" xlink:title=" ">
<polygon fill="white" stroke="#666666" points="600,-74 490,-74 490,-55 600,-55 600,-74"/>
<text text-anchor="middle" x="545" y="-62" font-family="Helvetica,sans-Serif" font-size="10.00">refinementHistory4.H</text>
</a>
</g>
</g>
<!-- Node4&#45;&gt;Node11 -->
<g id="edge10_Node000004_Node000011" class="edge">
<title>Node4&#45;&gt;Node11</title>
<g id="a_edge10_Node000004_Node000011"><a xlink:title=" ">
<path fill="none" stroke="#63b8ff" d="M447.64,-109.98C466.3,-101.46 495.25,-88.23 516.74,-78.41"/>
<polygon fill="#63b8ff" stroke="#63b8ff" points="518.38,-81.51 526.02,-74.17 515.47,-75.14 518.38,-81.51"/>
</a>
</g>
</g>
<!-- Node4&#45;&gt;Node18 -->
<g id="edge18_Node000004_Node000018" class="edge">
<title>Node4&#45;&gt;Node18</title>
<g id="a_edge18_Node000004_Node000018"><a xlink:title=" ">
<path fill="none" stroke="#63b8ff" d="M461.11,-112.17C465.76,-111.37 470.49,-110.62 475,-110 648.65,-86.19 696.06,-94.84 874.46,-73.99"/>
<polygon fill="#63b8ff" stroke="#63b8ff" points="874.92,-77.46 884.44,-72.8 874.1,-70.5 874.92,-77.46"/>
</a>
</g>
</g>
<!-- Node19 -->
<g id="Node000019" class="node">
<title>Node19</title>
<g id="a_Node000019"><a xlink:title=" ">
<polygon fill="#e0e0e0" stroke="#999999" points="761.5,-74 618.5,-74 618.5,-55 761.5,-55 761.5,-74"/>
<text text-anchor="middle" x="690" y="-62" font-family="Helvetica,sans-Serif" font-size="10.00">uniformDimensionedFields.H</text>
</a>
</g>
</g>
<!-- Node4&#45;&gt;Node19 -->
<g id="edge19_Node000004_Node000019" class="edge">
<title>Node4&#45;&gt;Node19</title>
<g id="a_edge19_Node000004_Node000019"><a xlink:title=" ">
<path fill="none" stroke="#63b8ff" d="M461,-112C505.12,-103.04 585.15,-86.79 637.94,-76.07"/>
<polygon fill="#63b8ff" stroke="#63b8ff" points="638.69,-79.49 647.79,-74.07 637.3,-72.63 638.69,-79.49"/>
</a>
</g>
</g>
<!-- Node20 -->
<g id="Node000020" class="node">
<title>Node20</title>
<g id="a_Node000020"><a xlink:title=" ">
<polygon fill="#e0e0e0" stroke="#999999" points="866,-74 780,-74 780,-55 866,-55 866,-74"/>
<text text-anchor="middle" x="823" y="-62" font-family="Helvetica,sans-Serif" font-size="10.00">cellShapeList.H</text>
</a>
</g>
</g>
<!-- Node4&#45;&gt;Node20 -->
<g id="edge20_Node000004_Node000020" class="edge">
<title>Node4&#45;&gt;Node20</title>
<g id="a_edge20_Node000004_Node000020"><a xlink:title=" ">
<path fill="none" stroke="#63b8ff" d="M461.13,-112.3C465.77,-111.48 470.5,-110.69 475,-110 605.56,-89.99 639.21,-92.46 770,-74 770.1,-73.99 770.2,-73.97 770.3,-73.96"/>
<polygon fill="#63b8ff" stroke="#63b8ff" points="770.54,-77.46 779.92,-72.55 769.52,-70.53 770.54,-77.46"/>
</a>
</g>
</g>
<!-- Node11&#45;&gt;Node8 -->
<g id="edge11_Node000011_Node000008" class="edge">
<title>Node11&#45;&gt;Node8</title>
<g id="a_edge11_Node000011_Node000008"><a xlink:title=" ">
<path fill="none" stroke="#63b8ff" d="M500.82,-54.98C451.85,-45.55 372.99,-30.35 321.33,-20.39"/>
<polygon fill="#63b8ff" stroke="#63b8ff" points="321.86,-16.93 311.37,-18.47 320.53,-23.8 321.86,-16.93"/>
</a>
</g>
</g>
<!-- Node12 -->
<g id="Node000012" class="node">
<title>Node12</title>
<g id="a_Node000012"><a xlink:title=" ">
<polygon fill="#e0e0e0" stroke="#999999" points="402.5,-19 339.5,-19 339.5,0 402.5,0 402.5,-19"/>
<text text-anchor="middle" x="371" y="-7" font-family="Helvetica,sans-Serif" font-size="10.00">labelList.H</text>
</a>
</g>
</g>
<!-- Node11&#45;&gt;Node12 -->
<g id="edge12_Node000011_Node000012" class="edge">
<title>Node11&#45;&gt;Node12</title>
<g id="a_edge12_Node000011_Node000012"><a xlink:title=" ">
<path fill="none" stroke="#63b8ff" d="M517.04,-54.98C487.7,-46.05 441.4,-31.94 408.81,-22.02"/>
<polygon fill="#63b8ff" stroke="#63b8ff" points="409.76,-18.65 399.18,-19.08 407.72,-25.34 409.76,-18.65"/>
</a>
</g>
</g>
<!-- Node13 -->
<g id="Node000013" class="node">
<title>Node13</title>
<g id="a_Node000013"><a xlink:title=" ">
<polygon fill="#e0e0e0" stroke="#999999" points="487.5,-19 420.5,-19 420.5,0 487.5,0 487.5,-19"/>
<text text-anchor="middle" x="454" y="-7" font-family="Helvetica,sans-Serif" font-size="10.00">FixedList.H</text>
</a>
</g>
</g>
<!-- Node11&#45;&gt;Node13 -->
<g id="edge13_Node000011_Node000013" class="edge">
<title>Node11&#45;&gt;Node13</title>
<g id="a_edge13_Node000011_Node000013"><a xlink:title=" ">
<path fill="none" stroke="#63b8ff" d="M530.38,-54.98C516.14,-46.69 494.25,-33.94 477.55,-24.22"/>
<polygon fill="#63b8ff" stroke="#63b8ff" points="479.29,-21.18 468.89,-19.17 475.77,-27.23 479.29,-21.18"/>
</a>
</g>
</g>
<!-- Node14 -->
<g id="Node000014" class="node">
<title>Node14</title>
<g id="a_Node000014"><a xlink:title=" ">
<polygon fill="#e0e0e0" stroke="#999999" points="564,-19 506,-19 506,0 564,0 564,-19"/>
<text text-anchor="middle" x="535" y="-7" font-family="Helvetica,sans-Serif" font-size="10.00">autoPtr.H</text>
</a>
</g>
</g>
<!-- Node11&#45;&gt;Node14 -->
<g id="edge14_Node000011_Node000014" class="edge">
<title>Node11&#45;&gt;Node14</title>
<g id="a_edge14_Node000011_Node000014"><a xlink:title=" ">
<path fill="none" stroke="#63b8ff" d="M543.35,-54.75C542.04,-47.8 540.16,-37.85 538.52,-29.13"/>
<polygon fill="#63b8ff" stroke="#63b8ff" points="541.91,-28.27 536.62,-19.09 535.04,-29.56 541.91,-28.27"/>
</a>
</g>
</g>
<!-- Node15 -->
<g id="Node000015" class="node">
<title>Node15</title>
<g id="a_Node000015"><a xlink:title=" ">
<polygon fill="#e0e0e0" stroke="#999999" points="659.5,-19 582.5,-19 582.5,0 659.5,0 659.5,-19"/>
<text text-anchor="middle" x="621" y="-7" font-family="Helvetica,sans-Serif" font-size="10.00">regIOobject.H</text>
</a>
</g>
</g>
<!-- Node11&#45;&gt;Node15 -->
<g id="edge15_Node000011_Node000015" class="edge">
<title>Node11&#45;&gt;Node15</title>
<g id="a_edge15_Node000011_Node000015"><a xlink:title=" ">
<path fill="none" stroke="#63b8ff" d="M557.21,-54.98C568.78,-46.92 586.38,-34.65 600.16,-25.03"/>
<polygon fill="#63b8ff" stroke="#63b8ff" points="602.37,-27.76 608.57,-19.17 598.36,-22.02 602.37,-27.76"/>
</a>
</g>
</g>
<!-- Node16 -->
<g id="Node000016" class="node">
<title>Node16</title>
<g id="a_Node000016"><a xlink:title=" ">
<polygon fill="#e0e0e0" stroke="#999999" points="738.5,-19 677.5,-19 677.5,0 738.5,0 738.5,-19"/>
<text text-anchor="middle" x="708" y="-7" font-family="Helvetica,sans-Serif" font-size="10.00">boolList.H</text>
</a>
</g>
</g>
<!-- Node11&#45;&gt;Node16 -->
<g id="edge16_Node000011_Node000016" class="edge">
<title>Node11&#45;&gt;Node16</title>
<g id="a_edge16_Node000011_Node000016"><a xlink:title=" ">
<path fill="none" stroke="#63b8ff" d="M571.19,-54.98C598.44,-46.13 641.3,-32.19 671.78,-22.28"/>
<polygon fill="#63b8ff" stroke="#63b8ff" points="673.18,-25.5 681.61,-19.08 671.01,-18.85 673.18,-25.5"/>
</a>
</g>
</g>
<!-- Node17 -->
<g id="Node000017" class="node">
<title>Node17</title>
<g id="a_Node000017"><a xlink:title=" ">
<polygon fill="#e0e0e0" stroke="#999999" points="821,-19 757,-19 757,0 821,0 821,-19"/>
<text text-anchor="middle" x="789" y="-7" font-family="Helvetica,sans-Serif" font-size="10.00">labelPair.H</text>
</a>
</g>
</g>
<!-- Node11&#45;&gt;Node17 -->
<g id="edge17_Node000011_Node000017" class="edge">
<title>Node11&#45;&gt;Node17</title>
<g id="a_edge17_Node000011_Node000017"><a xlink:title=" ">
<path fill="none" stroke="#63b8ff" d="M584.2,-54.98C628.79,-45.3 701.31,-29.55 747.02,-19.62"/>
<polygon fill="#63b8ff" stroke="#63b8ff" points="747.88,-23.01 756.91,-17.47 746.39,-16.17 747.88,-23.01"/>
</a>
</g>
</g>
</g>
</svg>
