<?xml version="1.0" encoding="UTF-8" standalone="no"?>
<!DOCTYPE svg PUBLIC "-//W3C//DTD SVG 1.1//EN"
 "http://www.w3.org/Graphics/SVG/1.1/DTD/svg11.dtd">
<!-- Generated by graphviz version 2.43.0 (0)
 -->
<!-- Title: libfvMeshTopoChangers/libfvMeshTopoChangers2D/dynamicMesh/polyTopoChange/polyTopoChange/hexRef4/hexRef4.H Pages: 1 -->
<svg width="608pt" height="236pt"
 viewBox="0.00 0.00 608.00 236.00" xmlns="http://www.w3.org/2000/svg" xmlns:xlink="http://www.w3.org/1999/xlink">
<g id="graph0" class="graph" transform="scale(1 1) rotate(0) translate(4 232)">
<title>libfvMeshTopoChangers/libfvMeshTopoChangers2D/dynamicMesh/polyTopoChange/polyTopoChange/hexRef4/hexRef4.H</title>
<!-- Node1 -->
<g id="Node000001" class="node">
<title>Node1</title>
<g id="a_Node000001"><a xlink:title=" ">
<polygon fill="#999999" stroke="#666666" points="397,-228 215,-228 215,-176 397,-176 397,-228"/>
<text text-anchor="start" x="223" y="-216" font-family="Helvetica,sans-Serif" font-size="10.00">libfvMeshTopoChangers</text>
<text text-anchor="start" x="223" y="-205" font-family="Helvetica,sans-Serif" font-size="10.00">/libfvMeshTopoChangers2D</text>
<text text-anchor="start" x="223" y="-194" font-family="Helvetica,sans-Serif" font-size="10.00">/dynamicMesh/polyTopoChange</text>
<text text-anchor="middle" x="306" y="-183" font-family="Helvetica,sans-Serif" font-size="10.00">/polyTopoChange/hexRef4/hexRef4.H</text>
</a>
</g>
</g>
<!-- Node2 -->
<g id="Node000002" class="node">
<title>Node2</title>
<g id="a_Node000002"><a xlink:href="hexRef4_8C.html" target="_top" xlink:title=" ">
<polygon fill="white" stroke="#666666" points="182,-140 0,-140 0,-88 182,-88 182,-140"/>
<text text-anchor="start" x="8" y="-128" font-family="Helvetica,sans-Serif" font-size="10.00">libfvMeshTopoChangers</text>
<text text-anchor="start" x="8" y="-117" font-family="Helvetica,sans-Serif" font-size="10.00">/libfvMeshTopoChangers2D</text>
<text text-anchor="start" x="8" y="-106" font-family="Helvetica,sans-Serif" font-size="10.00">/dynamicMesh/polyTopoChange</text>
<text text-anchor="middle" x="91" y="-95" font-family="Helvetica,sans-Serif" font-size="10.00">/polyTopoChange/hexRef4/hexRef4.C</text>
</a>
</g>
</g>
<!-- Node1&#45;&gt;Node2 -->
<g id="edge1_Node000001_Node000002" class="edge">
<title>Node1&#45;&gt;Node2</title>
<g id="a_edge1_Node000001_Node000002"><a xlink:title=" ">
<path fill="none" stroke="#63b8ff" d="M233.84,-172.14C207.92,-161.77 178.91,-150.16 153.84,-140.14"/>
<polygon fill="#63b8ff" stroke="#63b8ff" points="232.65,-175.43 243.24,-175.89 235.25,-168.93 232.65,-175.43"/>
</a>
</g>
</g>
<!-- Node3 -->
<g id="Node000003" class="node">
<title>Node3</title>
<g id="a_Node000003"><a xlink:href="fvMeshTopoChangersMultiFieldRefiner2D_8H.html" target="_top" xlink:title=" ">
<polygon fill="white" stroke="#666666" points="412,-140 200,-140 200,-88 412,-88 412,-140"/>
<text text-anchor="start" x="208" y="-128" font-family="Helvetica,sans-Serif" font-size="10.00">libfvMeshTopoChangers</text>
<text text-anchor="start" x="208" y="-117" font-family="Helvetica,sans-Serif" font-size="10.00">/libfvMeshTopoChangers2D</text>
<text text-anchor="start" x="208" y="-106" font-family="Helvetica,sans-Serif" font-size="10.00">/fvMeshTopoChangers/refiner2D</text>
<text text-anchor="middle" x="306" y="-95" font-family="Helvetica,sans-Serif" font-size="10.00">/fvMeshTopoChangersMultiFieldRefiner2D.H</text>
</a>
</g>
</g>
<!-- Node1&#45;&gt;Node3 -->
<g id="edge2_Node000001_Node000003" class="edge">
<title>Node1&#45;&gt;Node3</title>
<g id="a_edge2_Node000001_Node000003"><a xlink:title=" ">
<path fill="none" stroke="#63b8ff" d="M306,-165.56C306,-157.04 306,-148.1 306,-140.16"/>
<polygon fill="#63b8ff" stroke="#63b8ff" points="302.5,-165.66 306,-175.66 309.5,-165.66 302.5,-165.66"/>
</a>
</g>
</g>
<!-- Node5 -->
<g id="Node000005" class="node">
<title>Node5</title>
<g id="a_Node000005"><a xlink:href="fvMeshTopoChangersRefiner2D_8H.html" target="_top" xlink:title=" ">
<polygon fill="white" stroke="#666666" points="600,-140 430,-140 430,-88 600,-88 600,-140"/>
<text text-anchor="start" x="438" y="-128" font-family="Helvetica,sans-Serif" font-size="10.00">libfvMeshTopoChangers</text>
<text text-anchor="start" x="438" y="-117" font-family="Helvetica,sans-Serif" font-size="10.00">/libfvMeshTopoChangers2D</text>
<text text-anchor="start" x="438" y="-106" font-family="Helvetica,sans-Serif" font-size="10.00">/fvMeshTopoChangers/refiner2D</text>
<text text-anchor="middle" x="515" y="-95" font-family="Helvetica,sans-Serif" font-size="10.00">/fvMeshTopoChangersRefiner2D.H</text>
</a>
</g>
</g>
<!-- Node1&#45;&gt;Node5 -->
<g id="edge4_Node000001_Node000005" class="edge">
<title>Node1&#45;&gt;Node5</title>
<g id="a_edge4_Node000001_Node000005"><a xlink:title=" ">
<path fill="none" stroke="#63b8ff" d="M376.48,-172C401.59,-161.66 429.65,-150.12 453.91,-140.14"/>
<polygon fill="#63b8ff" stroke="#63b8ff" points="374.93,-168.85 367.01,-175.89 377.59,-175.33 374.93,-168.85"/>
</a>
</g>
</g>
<!-- Node4 -->
<g id="Node000004" class="node">
<title>Node4</title>
<g id="a_Node000004"><a xlink:href="fvMeshTopoChangersMultiFieldRefiner2D_8C.html" target="_top" xlink:title=" ">
<polygon fill="white" stroke="#666666" points="412,-52 200,-52 200,0 412,0 412,-52"/>
<text text-anchor="start" x="208" y="-40" font-family="Helvetica,sans-Serif" font-size="10.00">libfvMeshTopoChangers</text>
<text text-anchor="start" x="208" y="-29" font-family="Helvetica,sans-Serif" font-size="10.00">/libfvMeshTopoChangers2D</text>
<text text-anchor="start" x="208" y="-18" font-family="Helvetica,sans-Serif" font-size="10.00">/fvMeshTopoChangers/refiner2D</text>
<text text-anchor="middle" x="306" y="-7" font-family="Helvetica,sans-Serif" font-size="10.00">/fvMeshTopoChangersMultiFieldRefiner2D.C</text>
</a>
</g>
</g>
<!-- Node3&#45;&gt;Node4 -->
<g id="edge3_Node000003_Node000004" class="edge">
<title>Node3&#45;&gt;Node4</title>
<g id="a_edge3_Node000003_Node000004"><a xlink:title=" ">
<path fill="none" stroke="#63b8ff" d="M306,-77.56C306,-69.04 306,-60.1 306,-52.16"/>
<polygon fill="#63b8ff" stroke="#63b8ff" points="302.5,-77.66 306,-87.66 309.5,-77.66 302.5,-77.66"/>
</a>
</g>
</g>
<!-- Node6 -->
<g id="Node000006" class="node">
<title>Node6</title>
<g id="a_Node000006"><a xlink:href="fvMeshTopoChangersRefiner2D_8C.html" target="_top" xlink:title=" ">
<polygon fill="white" stroke="#666666" points="600,-52 430,-52 430,0 600,0 600,-52"/>
<text text-anchor="start" x="438" y="-40" font-family="Helvetica,sans-Serif" font-size="10.00">libfvMeshTopoChangers</text>
<text text-anchor="start" x="438" y="-29" font-family="Helvetica,sans-Serif" font-size="10.00">/libfvMeshTopoChangers2D</text>
<text text-anchor="start" x="438" y="-18" font-family="Helvetica,sans-Serif" font-size="10.00">/fvMeshTopoChangers/refiner2D</text>
<text text-anchor="middle" x="515" y="-7" font-family="Helvetica,sans-Serif" font-size="10.00">/fvMeshTopoChangersRefiner2D.C</text>
</a>
</g>
</g>
<!-- Node5&#45;&gt;Node6 -->
<g id="edge5_Node000005_Node000006" class="edge">
<title>Node5&#45;&gt;Node6</title>
<g id="a_edge5_Node000005_Node000006"><a xlink:title=" ">
<path fill="none" stroke="#63b8ff" d="M515,-77.56C515,-69.04 515,-60.1 515,-52.16"/>
<polygon fill="#63b8ff" stroke="#63b8ff" points="511.5,-77.66 515,-87.66 518.5,-77.66 511.5,-77.66"/>
</a>
</g>
</g>
</g>
</svg>
