<?xml version="1.0" encoding="UTF-8" standalone="no"?>
<!DOCTYPE svg PUBLIC "-//W3C//DTD SVG 1.1//EN"
 "http://www.w3.org/Graphics/SVG/1.1/DTD/svg11.dtd">
<!-- Generated by graphviz version 2.43.0 (0)
 -->
<!-- Title: libfvMeshTopoChangers/libfvMeshTopoChangers2D/dynamicMesh/polyTopoChange/polyTopoChange/hexRef4/hexRef4.C Pages: 1 -->
<svg width="2245pt" height="225pt"
 viewBox="0.00 0.00 2245.00 225.00" xmlns="http://www.w3.org/2000/svg" xmlns:xlink="http://www.w3.org/1999/xlink">
<g id="graph0" class="graph" transform="scale(1 1) rotate(0) translate(4 221)">
<title>libfvMeshTopoChangers/libfvMeshTopoChangers2D/dynamicMesh/polyTopoChange/polyTopoChange/hexRef4/hexRef4.C</title>
<!-- Node1 -->
<g id="Node000001" class="node">
<title>Node1</title>
<g id="a_Node000001"><a xlink:title=" ">
<polygon fill="#999999" stroke="#666666" points="1353,-217 1171,-217 1171,-165 1353,-165 1353,-217"/>
<text text-anchor="start" x="1179" y="-205" font-family="Helvetica,sans-Serif" font-size="10.00">libfvMeshTopoChangers</text>
<text text-anchor="start" x="1179" y="-194" font-family="Helvetica,sans-Serif" font-size="10.00">/libfvMeshTopoChangers2D</text>
<text text-anchor="start" x="1179" y="-183" font-family="Helvetica,sans-Serif" font-size="10.00">/dynamicMesh/polyTopoChange</text>
<text text-anchor="middle" x="1262" y="-172" font-family="Helvetica,sans-Serif" font-size="10.00">/polyTopoChange/hexRef4/hexRef4.C</text>
</a>
</g>
</g>
<!-- Node2 -->
<g id="Node000002" class="node">
<title>Node2</title>
<g id="a_Node000002"><a xlink:href="hexRef4_8H.html" target="_top" xlink:title=" ">
<polygon fill="white" stroke="#666666" points="408,-129 344,-129 344,-110 408,-110 408,-129"/>
<text text-anchor="middle" x="376" y="-117" font-family="Helvetica,sans-Serif" font-size="10.00">hexRef4.H</text>
</a>
</g>
</g>
<!-- Node1&#45;&gt;Node2 -->
<g id="edge1_Node000001_Node000002" class="edge">
<title>Node1&#45;&gt;Node2</title>
<g id="a_edge1_Node000001_Node000002"><a xlink:title=" ">
<path fill="none" stroke="#63b8ff" d="M1170.93,-187.38C1017.42,-182.08 697.4,-167.3 418.08,-128.96"/>
<polygon fill="#63b8ff" stroke="#63b8ff" points="418.54,-125.49 408.16,-127.59 417.58,-132.43 418.54,-125.49"/>
</a>
</g>
</g>
<!-- Node19 -->
<g id="Node000019" class="node">
<title>Node19</title>
<g id="a_Node000019"><a xlink:title=" ">
<polygon fill="#e0e0e0" stroke="#999999" points="495.5,-129 426.5,-129 426.5,-110 495.5,-110 495.5,-129"/>
<text text-anchor="middle" x="461" y="-117" font-family="Helvetica,sans-Serif" font-size="10.00">polyMesh.H</text>
</a>
</g>
</g>
<!-- Node1&#45;&gt;Node19 -->
<g id="edge19_Node000001_Node000019" class="edge">
<title>Node1&#45;&gt;Node19</title>
<g id="a_edge19_Node000001_Node000019"><a xlink:title=" ">
<path fill="none" stroke="#63b8ff" d="M1170.76,-185.91C1030.12,-178.87 751.81,-162.09 505.74,-128.93"/>
<polygon fill="#63b8ff" stroke="#63b8ff" points="505.91,-125.42 495.53,-127.54 504.96,-132.36 505.91,-125.42"/>
</a>
</g>
</g>
<!-- Node20 -->
<g id="Node000020" class="node">
<title>Node20</title>
<g id="a_Node000020"><a xlink:title=" ">
<polygon fill="#e0e0e0" stroke="#999999" points="614,-129 514,-129 514,-110 614,-110 614,-129"/>
<text text-anchor="middle" x="564" y="-117" font-family="Helvetica,sans-Serif" font-size="10.00">polyTopoChange.H</text>
</a>
</g>
</g>
<!-- Node1&#45;&gt;Node20 -->
<g id="edge20_Node000001_Node000020" class="edge">
<title>Node1&#45;&gt;Node20</title>
<g id="a_edge20_Node000001_Node000020"><a xlink:title=" ">
<path fill="none" stroke="#63b8ff" d="M1170.85,-182.68C1048.8,-172.57 825.32,-152.97 624.35,-129.11"/>
<polygon fill="#63b8ff" stroke="#63b8ff" points="624.53,-125.61 614.19,-127.9 623.71,-132.56 624.53,-125.61"/>
</a>
</g>
</g>
<!-- Node21 -->
<g id="Node000021" class="node">
<title>Node21</title>
<g id="a_Node000021"><a xlink:title=" ">
<polygon fill="#e0e0e0" stroke="#999999" points="706,-129 632,-129 632,-110 706,-110 706,-129"/>
<text text-anchor="middle" x="669" y="-117" font-family="Helvetica,sans-Serif" font-size="10.00">meshTools.H</text>
</a>
</g>
</g>
<!-- Node1&#45;&gt;Node21 -->
<g id="edge21_Node000001_Node000021" class="edge">
<title>Node1&#45;&gt;Node21</title>
<g id="a_edge21_Node000001_Node000021"><a xlink:title=" ">
<path fill="none" stroke="#63b8ff" d="M1170.76,-181.84C1064.09,-171.85 882.03,-153.37 716.02,-129.06"/>
<polygon fill="#63b8ff" stroke="#63b8ff" points="716.52,-125.59 706.12,-127.59 715.5,-132.52 716.52,-125.59"/>
</a>
</g>
</g>
<!-- Node22 -->
<g id="Node000022" class="node">
<title>Node22</title>
<g id="a_Node000022"><a xlink:title=" ">
<polygon fill="#e0e0e0" stroke="#999999" points="808,-129 724,-129 724,-110 808,-110 808,-129"/>
<text text-anchor="middle" x="766" y="-117" font-family="Helvetica,sans-Serif" font-size="10.00">polyAddFace.H</text>
</a>
</g>
</g>
<!-- Node1&#45;&gt;Node22 -->
<g id="edge22_Node000001_Node000022" class="edge">
<title>Node1&#45;&gt;Node22</title>
<g id="a_edge22_Node000001_Node000022"><a xlink:title=" ">
<path fill="none" stroke="#63b8ff" d="M1170.92,-178.18C1083.38,-166.65 947.09,-148.3 818.32,-129.01"/>
<polygon fill="#63b8ff" stroke="#63b8ff" points="818.68,-125.53 808.27,-127.5 817.64,-132.45 818.68,-125.53"/>
</a>
</g>
</g>
<!-- Node23 -->
<g id="Node000023" class="node">
<title>Node23</title>
<g id="a_Node000023"><a xlink:title=" ">
<polygon fill="#e0e0e0" stroke="#999999" points="911.5,-129 826.5,-129 826.5,-110 911.5,-110 911.5,-129"/>
<text text-anchor="middle" x="869" y="-117" font-family="Helvetica,sans-Serif" font-size="10.00">polyAddPoint.H</text>
</a>
</g>
</g>
<!-- Node1&#45;&gt;Node23 -->
<g id="edge23_Node000001_Node000023" class="edge">
<title>Node1&#45;&gt;Node23</title>
<g id="a_edge23_Node000001_Node000023"><a xlink:title=" ">
<path fill="none" stroke="#63b8ff" d="M1170.85,-173.88C1093.63,-160.23 985.6,-141.12 921.9,-129.86"/>
<polygon fill="#63b8ff" stroke="#63b8ff" points="922.15,-126.34 911.69,-128.05 920.93,-133.24 922.15,-126.34"/>
</a>
</g>
</g>
<!-- Node24 -->
<g id="Node000024" class="node">
<title>Node24</title>
<g id="a_Node000024"><a xlink:title=" ">
<polygon fill="#e0e0e0" stroke="#999999" points="1010,-129 930,-129 930,-110 1010,-110 1010,-129"/>
<text text-anchor="middle" x="970" y="-117" font-family="Helvetica,sans-Serif" font-size="10.00">polyAddCell.H</text>
</a>
</g>
</g>
<!-- Node1&#45;&gt;Node24 -->
<g id="edge24_Node000001_Node000024" class="edge">
<title>Node1&#45;&gt;Node24</title>
<g id="a_edge24_Node000001_Node000024"><a xlink:title=" ">
<path fill="none" stroke="#63b8ff" d="M1170.81,-168.3C1119.33,-156.04 1057.22,-141.26 1015.83,-131.41"/>
<polygon fill="#63b8ff" stroke="#63b8ff" points="1016.58,-127.99 1006.04,-129.08 1014.96,-134.8 1016.58,-127.99"/>
</a>
</g>
</g>
<!-- Node25 -->
<g id="Node000025" class="node">
<title>Node25</title>
<g id="a_Node000025"><a xlink:title=" ">
<polygon fill="#e0e0e0" stroke="#999999" points="1124,-129 1028,-129 1028,-110 1124,-110 1124,-129"/>
<text text-anchor="middle" x="1076" y="-117" font-family="Helvetica,sans-Serif" font-size="10.00">polyModifyFace.H</text>
</a>
</g>
</g>
<!-- Node1&#45;&gt;Node25 -->
<g id="edge25_Node000001_Node000025" class="edge">
<title>Node1&#45;&gt;Node25</title>
<g id="a_edge25_Node000001_Node000025"><a xlink:title=" ">
<path fill="none" stroke="#63b8ff" d="M1194.85,-164.91C1165.53,-153.95 1132.49,-141.61 1108.7,-132.72"/>
<polygon fill="#63b8ff" stroke="#63b8ff" points="1109.7,-129.36 1099.11,-129.14 1107.25,-135.91 1109.7,-129.36"/>
</a>
</g>
</g>
<!-- Node26 -->
<g id="Node000026" class="node">
<title>Node26</title>
<g id="a_Node000026"><a xlink:title=" ">
<polygon fill="#e0e0e0" stroke="#999999" points="1213.5,-129 1142.5,-129 1142.5,-110 1213.5,-110 1213.5,-129"/>
<text text-anchor="middle" x="1178" y="-117" font-family="Helvetica,sans-Serif" font-size="10.00">syncTools.H</text>
</a>
</g>
</g>
<!-- Node1&#45;&gt;Node26 -->
<g id="edge26_Node000001_Node000026" class="edge">
<title>Node1&#45;&gt;Node26</title>
<g id="a_edge26_Node000001_Node000026"><a xlink:title=" ">
<path fill="none" stroke="#63b8ff" d="M1231.67,-164.91C1219.93,-155.19 1206.85,-144.37 1196.55,-135.85"/>
<polygon fill="#63b8ff" stroke="#63b8ff" points="1198.57,-132.98 1188.64,-129.3 1194.11,-138.37 1198.57,-132.98"/>
</a>
</g>
</g>
<!-- Node27 -->
<g id="Node000027" class="node">
<title>Node27</title>
<g id="a_Node000027"><a xlink:title=" ">
<polygon fill="#e0e0e0" stroke="#999999" points="1292.5,-129 1231.5,-129 1231.5,-110 1292.5,-110 1292.5,-129"/>
<text text-anchor="middle" x="1262" y="-117" font-family="Helvetica,sans-Serif" font-size="10.00">faceSet.H</text>
</a>
</g>
</g>
<!-- Node1&#45;&gt;Node27 -->
<g id="edge27_Node000001_Node000027" class="edge">
<title>Node1&#45;&gt;Node27</title>
<g id="a_edge27_Node000001_Node000027"><a xlink:title=" ">
<path fill="none" stroke="#63b8ff" d="M1262,-164.91C1262,-156.55 1262,-147.38 1262,-139.55"/>
<polygon fill="#63b8ff" stroke="#63b8ff" points="1265.5,-139.3 1262,-129.3 1258.5,-139.3 1265.5,-139.3"/>
</a>
</g>
</g>
<!-- Node28 -->
<g id="Node000028" class="node">
<title>Node28</title>
<g id="a_Node000028"><a xlink:title=" ">
<polygon fill="#e0e0e0" stroke="#999999" points="1367.5,-129 1310.5,-129 1310.5,-110 1367.5,-110 1367.5,-129"/>
<text text-anchor="middle" x="1339" y="-117" font-family="Helvetica,sans-Serif" font-size="10.00">cellSet.H</text>
</a>
</g>
</g>
<!-- Node1&#45;&gt;Node28 -->
<g id="edge28_Node000001_Node000028" class="edge">
<title>Node1&#45;&gt;Node28</title>
<g id="a_edge28_Node000001_Node000028"><a xlink:title=" ">
<path fill="none" stroke="#63b8ff" d="M1289.8,-164.91C1300.46,-155.29 1312.31,-144.59 1321.71,-136.11"/>
<polygon fill="#63b8ff" stroke="#63b8ff" points="1324.17,-138.6 1329.25,-129.3 1319.48,-133.4 1324.17,-138.6"/>
</a>
</g>
</g>
<!-- Node29 -->
<g id="Node000029" class="node">
<title>Node29</title>
<g id="a_Node000029"><a xlink:title=" ">
<polygon fill="#e0e0e0" stroke="#999999" points="1448.5,-129 1385.5,-129 1385.5,-110 1448.5,-110 1448.5,-129"/>
<text text-anchor="middle" x="1417" y="-117" font-family="Helvetica,sans-Serif" font-size="10.00">pointSet.H</text>
</a>
</g>
</g>
<!-- Node1&#45;&gt;Node29 -->
<g id="edge29_Node000001_Node000029" class="edge">
<title>Node1&#45;&gt;Node29</title>
<g id="a_edge29_Node000001_Node000029"><a xlink:title=" ">
<path fill="none" stroke="#63b8ff" d="M1317.96,-164.91C1341.85,-154.2 1368.7,-142.16 1388.41,-133.32"/>
<polygon fill="#63b8ff" stroke="#63b8ff" points="1390.05,-136.42 1397.74,-129.14 1387.18,-130.03 1390.05,-136.42"/>
</a>
</g>
</g>
<!-- Node30 -->
<g id="Node000030" class="node">
<title>Node30</title>
<g id="a_Node000030"><a xlink:title=" ">
<polygon fill="#e0e0e0" stroke="#999999" points="1537.5,-129 1466.5,-129 1466.5,-110 1537.5,-110 1537.5,-129"/>
<text text-anchor="middle" x="1502" y="-117" font-family="Helvetica,sans-Serif" font-size="10.00">OFstream.H</text>
</a>
</g>
</g>
<!-- Node1&#45;&gt;Node30 -->
<g id="edge30_Node000001_Node000030" class="edge">
<title>Node1&#45;&gt;Node30</title>
<g id="a_edge30_Node000001_Node000030"><a xlink:title=" ">
<path fill="none" stroke="#63b8ff" d="M1348.65,-164.91C1387.61,-153.63 1431.67,-140.87 1462.53,-131.93"/>
<polygon fill="#63b8ff" stroke="#63b8ff" points="1463.83,-135.2 1472.47,-129.05 1461.89,-128.47 1463.83,-135.2"/>
</a>
</g>
</g>
<!-- Node31 -->
<g id="Node000031" class="node">
<title>Node31</title>
<g id="a_Node000031"><a xlink:title=" ">
<polygon fill="#e0e0e0" stroke="#999999" points="1604.5,-129 1555.5,-129 1555.5,-110 1604.5,-110 1604.5,-129"/>
<text text-anchor="middle" x="1580" y="-117" font-family="Helvetica,sans-Serif" font-size="10.00">Time.H</text>
</a>
</g>
</g>
<!-- Node1&#45;&gt;Node31 -->
<g id="edge31_Node000001_Node000031" class="edge">
<title>Node1&#45;&gt;Node31</title>
<g id="a_edge31_Node000001_Node000031"><a xlink:title=" ">
<path fill="none" stroke="#63b8ff" d="M1353.02,-171.52C1406.57,-160.41 1475.81,-145.63 1545.35,-129.33"/>
<polygon fill="#63b8ff" stroke="#63b8ff" points="1546.23,-132.71 1555.16,-127.01 1544.62,-125.9 1546.23,-132.71"/>
</a>
</g>
</g>
<!-- Node32 -->
<g id="Node000032" class="node">
<title>Node32</title>
<g id="a_Node000032"><a xlink:title=" ">
<polygon fill="#e0e0e0" stroke="#999999" points="1713.5,-129 1622.5,-129 1622.5,-110 1713.5,-110 1713.5,-129"/>
<text text-anchor="middle" x="1668" y="-117" font-family="Helvetica,sans-Serif" font-size="10.00">FaceCellWave.H</text>
</a>
</g>
</g>
<!-- Node1&#45;&gt;Node32 -->
<g id="edge32_Node000001_Node000032" class="edge">
<title>Node1&#45;&gt;Node32</title>
<g id="a_edge32_Node000001_Node000032"><a xlink:title=" ">
<path fill="none" stroke="#63b8ff" d="M1353.11,-174.4C1432.73,-160.77 1545.72,-141.43 1612.49,-130"/>
<polygon fill="#63b8ff" stroke="#63b8ff" points="1613.12,-133.44 1622.39,-128.31 1611.94,-126.55 1613.12,-133.44"/>
</a>
</g>
</g>
<!-- Node33 -->
<g id="Node000033" class="node">
<title>Node33</title>
<g id="a_Node000033"><a xlink:title=" ">
<polygon fill="#e0e0e0" stroke="#999999" points="1844.5,-129 1731.5,-129 1731.5,-110 1844.5,-110 1844.5,-129"/>
<text text-anchor="middle" x="1788" y="-117" font-family="Helvetica,sans-Serif" font-size="10.00">polyDistributionMap.H</text>
</a>
</g>
</g>
<!-- Node1&#45;&gt;Node33 -->
<g id="edge33_Node000001_Node000033" class="edge">
<title>Node1&#45;&gt;Node33</title>
<g id="a_edge33_Node000001_Node000033"><a xlink:title=" ">
<path fill="none" stroke="#63b8ff" d="M1353.02,-177.97C1457.89,-164.12 1627.7,-141.68 1721.11,-129.34"/>
<polygon fill="#63b8ff" stroke="#63b8ff" points="1721.83,-132.77 1731.29,-127.99 1720.92,-125.83 1721.83,-132.77"/>
</a>
</g>
</g>
<!-- Node34 -->
<g id="Node000034" class="node">
<title>Node34</title>
<g id="a_Node000034"><a xlink:title=" ">
<polygon fill="#e0e0e0" stroke="#999999" points="1957,-129 1863,-129 1863,-110 1957,-110 1957,-129"/>
<text text-anchor="middle" x="1910" y="-117" font-family="Helvetica,sans-Serif" font-size="10.00">refinementData.H</text>
</a>
</g>
</g>
<!-- Node1&#45;&gt;Node34 -->
<g id="edge34_Node000001_Node000034" class="edge">
<title>Node1&#45;&gt;Node34</title>
<g id="a_edge34_Node000001_Node000034"><a xlink:title=" ">
<path fill="none" stroke="#63b8ff" d="M1353.18,-181.97C1467.47,-171.6 1669.6,-152.25 1852.87,-129.09"/>
<polygon fill="#63b8ff" stroke="#63b8ff" points="1853.49,-132.54 1862.97,-127.81 1852.61,-125.59 1853.49,-132.54"/>
</a>
</g>
</g>
<!-- Node35 -->
<g id="Node000035" class="node">
<title>Node35</title>
<g id="a_Node000035"><a xlink:title=" ">
<polygon fill="#e0e0e0" stroke="#999999" points="2108.5,-129 1975.5,-129 1975.5,-110 2108.5,-110 2108.5,-129"/>
<text text-anchor="middle" x="2042" y="-117" font-family="Helvetica,sans-Serif" font-size="10.00">refinementDistanceData.H</text>
</a>
</g>
</g>
<!-- Node1&#45;&gt;Node35 -->
<g id="edge35_Node000001_Node000035" class="edge">
<title>Node1&#45;&gt;Node35</title>
<g id="a_edge35_Node000001_Node000035"><a xlink:title=" ">
<path fill="none" stroke="#63b8ff" d="M1353.2,-182.83C1485.51,-172.26 1738.7,-151.43 1965.2,-129.06"/>
<polygon fill="#63b8ff" stroke="#63b8ff" points="1965.68,-132.53 1975.28,-128.06 1964.99,-125.56 1965.68,-132.53"/>
</a>
</g>
</g>
<!-- Node36 -->
<g id="Node000036" class="node">
<title>Node36</title>
<g id="a_Node000036"><a xlink:title=" ">
<polygon fill="#e0e0e0" stroke="#999999" points="2237,-129 2127,-129 2127,-110 2237,-110 2237,-129"/>
<text text-anchor="middle" x="2182" y="-117" font-family="Helvetica,sans-Serif" font-size="10.00">degenerateMatcher.H</text>
</a>
</g>
</g>
<!-- Node1&#45;&gt;Node36 -->
<g id="edge36_Node000001_Node000036" class="edge">
<title>Node1&#45;&gt;Node36</title>
<g id="a_edge36_Node000001_Node000036"><a xlink:title=" ">
<path fill="none" stroke="#63b8ff" d="M1353.06,-185.34C1507.8,-177.01 1832.19,-157.81 2116.76,-129.07"/>
<polygon fill="#63b8ff" stroke="#63b8ff" points="2117.27,-132.53 2126.87,-128.04 2116.56,-125.57 2117.27,-132.53"/>
</a>
</g>
</g>
<!-- Node3 -->
<g id="Node000003" class="node">
<title>Node3</title>
<g id="a_Node000003"><a xlink:title=" ">
<polygon fill="#e0e0e0" stroke="#999999" points="74,-74 0,-74 0,-55 74,-55 74,-74"/>
<text text-anchor="middle" x="37" y="-62" font-family="Helvetica,sans-Serif" font-size="10.00">labelIOList.H</text>
</a>
</g>
</g>
<!-- Node2&#45;&gt;Node3 -->
<g id="edge2_Node000002_Node000003" class="edge">
<title>Node2&#45;&gt;Node3</title>
<g id="a_edge2_Node000002_Node000003"><a xlink:title=" ">
<path fill="none" stroke="#63b8ff" d="M343.86,-113.96C291.62,-106.51 184.8,-90.97 84.17,-74.15"/>
<polygon fill="#63b8ff" stroke="#63b8ff" points="84.58,-70.67 74.14,-72.47 83.42,-77.58 84.58,-70.67"/>
</a>
</g>
</g>
<!-- Node4 -->
<g id="Node000004" class="node">
<title>Node4</title>
<g id="a_Node000004"><a xlink:title=" ">
<polygon fill="#e0e0e0" stroke="#999999" points="138,-74 92,-74 92,-55 138,-55 138,-74"/>
<text text-anchor="middle" x="115" y="-62" font-family="Helvetica,sans-Serif" font-size="10.00">face.H</text>
</a>
</g>
</g>
<!-- Node2&#45;&gt;Node4 -->
<g id="edge3_Node000002_Node000004" class="edge">
<title>Node2&#45;&gt;Node4</title>
<g id="a_edge3_Node000002_Node000004"><a xlink:title=" ">
<path fill="none" stroke="#63b8ff" d="M344,-112.99C301.5,-105.51 223.91,-91.33 148.21,-74.15"/>
<polygon fill="#63b8ff" stroke="#63b8ff" points="148.55,-70.64 138.03,-71.82 146.99,-77.46 148.55,-70.64"/>
</a>
</g>
</g>
<!-- Node5 -->
<g id="Node000005" class="node">
<title>Node5</title>
<g id="a_Node000005"><a xlink:title=" ">
<polygon fill="#e0e0e0" stroke="#999999" points="221.5,-74 156.5,-74 156.5,-55 221.5,-55 221.5,-74"/>
<text text-anchor="middle" x="189" y="-62" font-family="Helvetica,sans-Serif" font-size="10.00">HashSet.H</text>
</a>
</g>
</g>
<!-- Node2&#45;&gt;Node5 -->
<g id="edge4_Node000002_Node000005" class="edge">
<title>Node2&#45;&gt;Node5</title>
<g id="a_edge4_Node000002_Node000005"><a xlink:title=" ">
<path fill="none" stroke="#63b8ff" d="M345.96,-109.98C314.29,-101.01 264.23,-86.82 229.19,-76.89"/>
<polygon fill="#63b8ff" stroke="#63b8ff" points="229.86,-73.44 219.28,-74.08 227.95,-80.18 229.86,-73.44"/>
</a>
</g>
</g>
<!-- Node6 -->
<g id="Node000006" class="node">
<title>Node6</title>
<g id="a_Node000006"><a xlink:title=" ">
<polygon fill="#e0e0e0" stroke="#999999" points="311,-19 229,-19 229,0 311,0 311,-19"/>
<text text-anchor="middle" x="270" y="-7" font-family="Helvetica,sans-Serif" font-size="10.00">DynamicList.H</text>
</a>
</g>
</g>
<!-- Node2&#45;&gt;Node6 -->
<g id="edge5_Node000002_Node000006" class="edge">
<title>Node2&#45;&gt;Node6</title>
<g id="a_edge5_Node000002_Node000006"><a xlink:title=" ">
<path fill="none" stroke="#63b8ff" d="M343.76,-114.65C318.71,-109.77 285.52,-98.77 269,-74 260.21,-60.83 261.6,-42.45 264.51,-28.85"/>
<polygon fill="#63b8ff" stroke="#63b8ff" points="267.9,-29.72 267.01,-19.17 261.12,-27.98 267.9,-29.72"/>
</a>
</g>
</g>
<!-- Node7 -->
<g id="Node000007" class="node">
<title>Node7</title>
<g id="a_Node000007"><a xlink:title=" ">
<polygon fill="#e0e0e0" stroke="#999999" points="367.5,-74 278.5,-74 278.5,-55 367.5,-55 367.5,-74"/>
<text text-anchor="middle" x="323" y="-62" font-family="Helvetica,sans-Serif" font-size="10.00">primitivePatch.H</text>
</a>
</g>
</g>
<!-- Node2&#45;&gt;Node7 -->
<g id="edge6_Node000002_Node000007" class="edge">
<title>Node2&#45;&gt;Node7</title>
<g id="a_edge6_Node000002_Node000007"><a xlink:title=" ">
<path fill="none" stroke="#63b8ff" d="M367.25,-109.75C359.53,-102.03 348.1,-90.6 338.78,-81.28"/>
<polygon fill="#63b8ff" stroke="#63b8ff" points="341.14,-78.69 331.59,-74.09 336.19,-83.64 341.14,-78.69"/>
</a>
</g>
</g>
<!-- Node8 -->
<g id="Node000008" class="node">
<title>Node8</title>
<g id="a_Node000008"><a xlink:title=" ">
<polygon fill="#e0e0e0" stroke="#999999" points="472,-74 386,-74 386,-55 472,-55 472,-74"/>
<text text-anchor="middle" x="429" y="-62" font-family="Helvetica,sans-Serif" font-size="10.00">removeFaces.H</text>
</a>
</g>
</g>
<!-- Node2&#45;&gt;Node8 -->
<g id="edge7_Node000002_Node000008" class="edge">
<title>Node2&#45;&gt;Node8</title>
<g id="a_edge7_Node000002_Node000008"><a xlink:title=" ">
<path fill="none" stroke="#63b8ff" d="M384.75,-109.75C392.47,-102.03 403.9,-90.6 413.22,-81.28"/>
<polygon fill="#63b8ff" stroke="#63b8ff" points="415.81,-83.64 420.41,-74.09 410.86,-78.69 415.81,-83.64"/>
</a>
</g>
</g>
<!-- Node9 -->
<g id="Node000009" class="node">
<title>Node9</title>
<g id="a_Node000009"><a xlink:href="refinementHistory4_8H.html" target="_top" xlink:title=" ">
<polygon fill="white" stroke="#666666" points="600,-74 490,-74 490,-55 600,-55 600,-74"/>
<text text-anchor="middle" x="545" y="-62" font-family="Helvetica,sans-Serif" font-size="10.00">refinementHistory4.H</text>
</a>
</g>
</g>
<!-- Node2&#45;&gt;Node9 -->
<g id="edge8_Node000002_Node000009" class="edge">
<title>Node2&#45;&gt;Node9</title>
<g id="a_edge8_Node000002_Node000009"><a xlink:title=" ">
<path fill="none" stroke="#63b8ff" d="M403.15,-109.98C431.53,-101.09 476.23,-87.07 507.86,-77.15"/>
<polygon fill="#63b8ff" stroke="#63b8ff" points="509.14,-80.41 517.63,-74.08 507.05,-73.73 509.14,-80.41"/>
</a>
</g>
</g>
<!-- Node16 -->
<g id="Node000016" class="node">
<title>Node16</title>
<g id="a_Node000016"><a xlink:title=" ">
<polygon fill="#e0e0e0" stroke="#999999" points="713.5,-74 618.5,-74 618.5,-55 713.5,-55 713.5,-74"/>
<text text-anchor="middle" x="666" y="-62" font-family="Helvetica,sans-Serif" font-size="10.00">PackedBoolList.H</text>
</a>
</g>
</g>
<!-- Node2&#45;&gt;Node16 -->
<g id="edge16_Node000002_Node000016" class="edge">
<title>Node2&#45;&gt;Node16</title>
<g id="a_edge16_Node000002_Node000016"><a xlink:title=" ">
<path fill="none" stroke="#63b8ff" d="M408.21,-111.73C411.18,-111.14 414.14,-110.55 417,-110 482.35,-97.39 557.6,-84.11 608.11,-75.38"/>
<polygon fill="#63b8ff" stroke="#63b8ff" points="608.93,-78.79 618.19,-73.64 607.74,-71.89 608.93,-78.79"/>
</a>
</g>
</g>
<!-- Node17 -->
<g id="Node000017" class="node">
<title>Node17</title>
<g id="a_Node000017"><a xlink:title=" ">
<polygon fill="#e0e0e0" stroke="#999999" points="874.5,-74 731.5,-74 731.5,-55 874.5,-55 874.5,-74"/>
<text text-anchor="middle" x="803" y="-62" font-family="Helvetica,sans-Serif" font-size="10.00">uniformDimensionedFields.H</text>
</a>
</g>
</g>
<!-- Node2&#45;&gt;Node17 -->
<g id="edge17_Node000002_Node000017" class="edge">
<title>Node2&#45;&gt;Node17</title>
<g id="a_edge17_Node000002_Node000017"><a xlink:title=" ">
<path fill="none" stroke="#63b8ff" d="M408.18,-111.54C411.15,-110.99 414.13,-110.46 417,-110 446.21,-105.3 616.61,-86.15 721.01,-74.56"/>
<polygon fill="#63b8ff" stroke="#63b8ff" points="721.65,-78.01 731.21,-73.42 720.88,-71.05 721.65,-78.01"/>
</a>
</g>
</g>
<!-- Node18 -->
<g id="Node000018" class="node">
<title>Node18</title>
<g id="a_Node000018"><a xlink:title=" ">
<polygon fill="#e0e0e0" stroke="#999999" points="979,-74 893,-74 893,-55 979,-55 979,-74"/>
<text text-anchor="middle" x="936" y="-62" font-family="Helvetica,sans-Serif" font-size="10.00">cellShapeList.H</text>
</a>
</g>
</g>
<!-- Node2&#45;&gt;Node18 -->
<g id="edge18_Node000002_Node000018" class="edge">
<title>Node2&#45;&gt;Node18</title>
<g id="a_edge18_Node000002_Node000018"><a xlink:title=" ">
<path fill="none" stroke="#63b8ff" d="M408.16,-111.43C411.14,-110.9 414.12,-110.41 417,-110 619.89,-81.27 675.58,-98.26 882.92,-74.02"/>
<polygon fill="#63b8ff" stroke="#63b8ff" points="883.39,-77.49 892.91,-72.83 882.57,-70.54 883.39,-77.49"/>
</a>
</g>
</g>
<!-- Node9&#45;&gt;Node6 -->
<g id="edge9_Node000009_Node000006" class="edge">
<title>Node9&#45;&gt;Node6</title>
<g id="a_edge9_Node000009_Node000006"><a xlink:title=" ">
<path fill="none" stroke="#63b8ff" d="M500.82,-54.98C451.85,-45.55 372.99,-30.35 321.33,-20.39"/>
<polygon fill="#63b8ff" stroke="#63b8ff" points="321.86,-16.93 311.37,-18.47 320.53,-23.8 321.86,-16.93"/>
</a>
</g>
</g>
<!-- Node10 -->
<g id="Node000010" class="node">
<title>Node10</title>
<g id="a_Node000010"><a xlink:title=" ">
<polygon fill="#e0e0e0" stroke="#999999" points="402.5,-19 339.5,-19 339.5,0 402.5,0 402.5,-19"/>
<text text-anchor="middle" x="371" y="-7" font-family="Helvetica,sans-Serif" font-size="10.00">labelList.H</text>
</a>
</g>
</g>
<!-- Node9&#45;&gt;Node10 -->
<g id="edge10_Node000009_Node000010" class="edge">
<title>Node9&#45;&gt;Node10</title>
<g id="a_edge10_Node000009_Node000010"><a xlink:title=" ">
<path fill="none" stroke="#63b8ff" d="M517.04,-54.98C487.7,-46.05 441.4,-31.94 408.81,-22.02"/>
<polygon fill="#63b8ff" stroke="#63b8ff" points="409.76,-18.65 399.18,-19.08 407.72,-25.34 409.76,-18.65"/>
</a>
</g>
</g>
<!-- Node11 -->
<g id="Node000011" class="node">
<title>Node11</title>
<g id="a_Node000011"><a xlink:title=" ">
<polygon fill="#e0e0e0" stroke="#999999" points="487.5,-19 420.5,-19 420.5,0 487.5,0 487.5,-19"/>
<text text-anchor="middle" x="454" y="-7" font-family="Helvetica,sans-Serif" font-size="10.00">FixedList.H</text>
</a>
</g>
</g>
<!-- Node9&#45;&gt;Node11 -->
<g id="edge11_Node000009_Node000011" class="edge">
<title>Node9&#45;&gt;Node11</title>
<g id="a_edge11_Node000009_Node000011"><a xlink:title=" ">
<path fill="none" stroke="#63b8ff" d="M530.38,-54.98C516.14,-46.69 494.25,-33.94 477.55,-24.22"/>
<polygon fill="#63b8ff" stroke="#63b8ff" points="479.29,-21.18 468.89,-19.17 475.77,-27.23 479.29,-21.18"/>
</a>
</g>
</g>
<!-- Node12 -->
<g id="Node000012" class="node">
<title>Node12</title>
<g id="a_Node000012"><a xlink:title=" ">
<polygon fill="#e0e0e0" stroke="#999999" points="564,-19 506,-19 506,0 564,0 564,-19"/>
<text text-anchor="middle" x="535" y="-7" font-family="Helvetica,sans-Serif" font-size="10.00">autoPtr.H</text>
</a>
</g>
</g>
<!-- Node9&#45;&gt;Node12 -->
<g id="edge12_Node000009_Node000012" class="edge">
<title>Node9&#45;&gt;Node12</title>
<g id="a_edge12_Node000009_Node000012"><a xlink:title=" ">
<path fill="none" stroke="#63b8ff" d="M543.35,-54.75C542.04,-47.8 540.16,-37.85 538.52,-29.13"/>
<polygon fill="#63b8ff" stroke="#63b8ff" points="541.91,-28.27 536.62,-19.09 535.04,-29.56 541.91,-28.27"/>
</a>
</g>
</g>
<!-- Node13 -->
<g id="Node000013" class="node">
<title>Node13</title>
<g id="a_Node000013"><a xlink:title=" ">
<polygon fill="#e0e0e0" stroke="#999999" points="659.5,-19 582.5,-19 582.5,0 659.5,0 659.5,-19"/>
<text text-anchor="middle" x="621" y="-7" font-family="Helvetica,sans-Serif" font-size="10.00">regIOobject.H</text>
</a>
</g>
</g>
<!-- Node9&#45;&gt;Node13 -->
<g id="edge13_Node000009_Node000013" class="edge">
<title>Node9&#45;&gt;Node13</title>
<g id="a_edge13_Node000009_Node000013"><a xlink:title=" ">
<path fill="none" stroke="#63b8ff" d="M557.21,-54.98C568.78,-46.92 586.38,-34.65 600.16,-25.03"/>
<polygon fill="#63b8ff" stroke="#63b8ff" points="602.37,-27.76 608.57,-19.17 598.36,-22.02 602.37,-27.76"/>
</a>
</g>
</g>
<!-- Node14 -->
<g id="Node000014" class="node">
<title>Node14</title>
<g id="a_Node000014"><a xlink:title=" ">
<polygon fill="#e0e0e0" stroke="#999999" points="738.5,-19 677.5,-19 677.5,0 738.5,0 738.5,-19"/>
<text text-anchor="middle" x="708" y="-7" font-family="Helvetica,sans-Serif" font-size="10.00">boolList.H</text>
</a>
</g>
</g>
<!-- Node9&#45;&gt;Node14 -->
<g id="edge14_Node000009_Node000014" class="edge">
<title>Node9&#45;&gt;Node14</title>
<g id="a_edge14_Node000009_Node000014"><a xlink:title=" ">
<path fill="none" stroke="#63b8ff" d="M571.19,-54.98C598.44,-46.13 641.3,-32.19 671.78,-22.28"/>
<polygon fill="#63b8ff" stroke="#63b8ff" points="673.18,-25.5 681.61,-19.08 671.01,-18.85 673.18,-25.5"/>
</a>
</g>
</g>
<!-- Node15 -->
<g id="Node000015" class="node">
<title>Node15</title>
<g id="a_Node000015"><a xlink:title=" ">
<polygon fill="#e0e0e0" stroke="#999999" points="821,-19 757,-19 757,0 821,0 821,-19"/>
<text text-anchor="middle" x="789" y="-7" font-family="Helvetica,sans-Serif" font-size="10.00">labelPair.H</text>
</a>
</g>
</g>
<!-- Node9&#45;&gt;Node15 -->
<g id="edge15_Node000009_Node000015" class="edge">
<title>Node9&#45;&gt;Node15</title>
<g id="a_edge15_Node000009_Node000015"><a xlink:title=" ">
<path fill="none" stroke="#63b8ff" d="M584.2,-54.98C628.79,-45.3 701.31,-29.55 747.02,-19.62"/>
<polygon fill="#63b8ff" stroke="#63b8ff" points="747.88,-23.01 756.91,-17.47 746.39,-16.17 747.88,-23.01"/>
</a>
</g>
</g>
</g>
</svg>
