<?xml version="1.0" encoding="UTF-8" standalone="no"?>
<!DOCTYPE svg PUBLIC "-//W3C//DTD SVG 1.1//EN"
 "http://www.w3.org/Graphics/SVG/1.1/DTD/svg11.dtd">
<!-- Generated by graphviz version 2.43.0 (0)
 -->
<!-- Title: Graphical Class Hierarchy Pages: 1 -->
<svg width="268pt" height="86pt"
 viewBox="0.00 0.00 268.00 86.00" xmlns="http://www.w3.org/2000/svg" xmlns:xlink="http://www.w3.org/1999/xlink">
<g id="graph0" class="graph" transform="scale(1 1) rotate(0) translate(4 82)">
<title>Graphical Class Hierarchy</title>
<!-- Node0 -->
<g id="Node000000" class="node">
<title>Node0</title>
<g id="a_Node000000"><a xlink:title=" ">
<polygon fill="#e0e0e0" stroke="#999999" points="94,-48.5 0,-48.5 0,-29.5 94,-29.5 94,-48.5"/>
<text text-anchor="middle" x="47" y="-36.5" font-family="Helvetica,sans-Serif" font-size="10.00">fvMeshDistributor</text>
</a>
</g>
</g>
<!-- Node1 -->
<g id="Node000001" class="node">
<title>Node1</title>
<g id="a_Node000001"><a xlink:href="classFoam_1_1fvMeshDistributors_1_1distributorMPI.html" target="_top" xlink:title=" ">
<polygon fill="white" stroke="#666666" points="260,-78 130,-78 130,-48 260,-48 260,-78"/>
<text text-anchor="start" x="138" y="-66" font-family="Helvetica,sans-Serif" font-size="10.00">Foam::fvMeshDistributors</text>
<text text-anchor="middle" x="195" y="-55" font-family="Helvetica,sans-Serif" font-size="10.00">::distributorMPI</text>
</a>
</g>
</g>
<!-- Node0&#45;&gt;Node1 -->
<g id="edge2_Node000000_Node000001" class="edge">
<title>Node0&#45;&gt;Node1</title>
<g id="a_edge2_Node000000_Node000001"><a xlink:title=" ">
<path fill="none" stroke="#63b8ff" d="M104.27,-48.25C112.68,-49.63 121.4,-51.07 129.96,-52.47"/>
<polygon fill="#63b8ff" stroke="#63b8ff" points="104.63,-44.76 94.2,-46.59 103.5,-51.67 104.63,-44.76"/>
</a>
</g>
</g>
<!-- Node2 -->
<g id="Node000002" class="node">
<title>Node2</title>
<g id="a_Node000002"><a xlink:href="classFoam_1_1fvMeshDistributors_1_1distributorRollingMPI.html" target="_top" xlink:title=" ">
<polygon fill="white" stroke="#666666" points="260,-30 130,-30 130,0 260,0 260,-30"/>
<text text-anchor="start" x="138" y="-18" font-family="Helvetica,sans-Serif" font-size="10.00">Foam::fvMeshDistributors</text>
<text text-anchor="middle" x="195" y="-7" font-family="Helvetica,sans-Serif" font-size="10.00">::distributorRollingMPI</text>
</a>
</g>
</g>
<!-- Node0&#45;&gt;Node2 -->
<g id="edge3_Node000000_Node000002" class="edge">
<title>Node0&#45;&gt;Node2</title>
<g id="a_edge3_Node000000_Node000002"><a xlink:title=" ">
<path fill="none" stroke="#63b8ff" d="M104.27,-29.75C112.68,-28.37 121.4,-26.93 129.96,-25.53"/>
<polygon fill="#63b8ff" stroke="#63b8ff" points="103.5,-26.33 94.2,-31.41 104.63,-33.24 103.5,-26.33"/>
</a>
</g>
</g>
</g>
</svg>
