<?xml version="1.0" encoding="UTF-8" standalone="no"?>
<!DOCTYPE svg PUBLIC "-//W3C//DTD SVG 1.1//EN"
 "http://www.w3.org/Graphics/SVG/1.1/DTD/svg11.dtd">
<!-- Generated by graphviz version 2.43.0 (0)
 -->
<!-- Title: Graphical Class Hierarchy Pages: 1 -->
<svg width="294pt" height="134pt"
 viewBox="0.00 0.00 294.00 134.00" xmlns="http://www.w3.org/2000/svg" xmlns:xlink="http://www.w3.org/1999/xlink">
<g id="graph0" class="graph" transform="scale(1 1) rotate(0) translate(4 130)">
<title>Graphical Class Hierarchy</title>
<!-- Node0 -->
<g id="Node000000" class="node">
<title>Node0</title>
<g id="a_Node000000"><a xlink:title=" ">
<polygon fill="#e0e0e0" stroke="#999999" points="107,-72.5 0,-72.5 0,-53.5 107,-53.5 107,-72.5"/>
<text text-anchor="middle" x="53.5" y="-60.5" font-family="Helvetica,sans-Serif" font-size="10.00">fvMeshTopoChanger</text>
</a>
</g>
</g>
<!-- Node1 -->
<g id="Node000001" class="node">
<title>Node1</title>
<g id="a_Node000001"><a xlink:href="classFoam_1_1fvMeshTopoChangers_1_1multiFieldRefiner2D.html" target="_top" xlink:title=" ">
<polygon fill="white" stroke="#666666" points="286,-126 143,-126 143,-96 286,-96 286,-126"/>
<text text-anchor="start" x="151" y="-114" font-family="Helvetica,sans-Serif" font-size="10.00">Foam::fvMeshTopoChangers</text>
<text text-anchor="middle" x="214.5" y="-103" font-family="Helvetica,sans-Serif" font-size="10.00">::multiFieldRefiner2D</text>
</a>
</g>
</g>
<!-- Node0&#45;&gt;Node1 -->
<g id="edge4_Node000000_Node000001" class="edge">
<title>Node0&#45;&gt;Node1</title>
<g id="a_edge4_Node000000_Node000001"><a xlink:title=" ">
<path fill="none" stroke="#63b8ff" d="M96.05,-75.54C116.73,-81.79 141.89,-89.38 163.6,-95.94"/>
<polygon fill="#63b8ff" stroke="#63b8ff" points="96.88,-72.14 86.29,-72.6 94.86,-78.84 96.88,-72.14"/>
</a>
</g>
</g>
<!-- Node2 -->
<g id="Node000002" class="node">
<title>Node2</title>
<g id="a_Node000002"><a xlink:href="classFoam_1_1fvMeshTopoChangers_1_1multiFieldRefiner3D.html" target="_top" xlink:title=" ">
<polygon fill="white" stroke="#666666" points="286,-78 143,-78 143,-48 286,-48 286,-78"/>
<text text-anchor="start" x="151" y="-66" font-family="Helvetica,sans-Serif" font-size="10.00">Foam::fvMeshTopoChangers</text>
<text text-anchor="middle" x="214.5" y="-55" font-family="Helvetica,sans-Serif" font-size="10.00">::multiFieldRefiner3D</text>
</a>
</g>
</g>
<!-- Node0&#45;&gt;Node2 -->
<g id="edge5_Node000000_Node000002" class="edge">
<title>Node0&#45;&gt;Node2</title>
<g id="a_edge5_Node000000_Node000002"><a xlink:title=" ">
<path fill="none" stroke="#63b8ff" d="M117.15,-63C125.6,-63 134.32,-63 142.9,-63"/>
<polygon fill="#63b8ff" stroke="#63b8ff" points="117,-59.5 107,-63 117,-66.5 117,-59.5"/>
</a>
</g>
</g>
<!-- Node3 -->
<g id="Node000003" class="node">
<title>Node3</title>
<g id="a_Node000003"><a xlink:href="classFoam_1_1fvMeshTopoChangers_1_1refiner2D.html" target="_top" xlink:title=" ">
<polygon fill="white" stroke="#666666" points="286,-30 143,-30 143,0 286,0 286,-30"/>
<text text-anchor="start" x="151" y="-18" font-family="Helvetica,sans-Serif" font-size="10.00">Foam::fvMeshTopoChangers</text>
<text text-anchor="middle" x="214.5" y="-7" font-family="Helvetica,sans-Serif" font-size="10.00">::refiner2D</text>
</a>
</g>
</g>
<!-- Node0&#45;&gt;Node3 -->
<g id="edge6_Node000000_Node000003" class="edge">
<title>Node0&#45;&gt;Node3</title>
<g id="a_edge6_Node000000_Node000003"><a xlink:title=" ">
<path fill="none" stroke="#63b8ff" d="M96.05,-50.46C116.73,-44.21 141.89,-36.62 163.6,-30.06"/>
<polygon fill="#63b8ff" stroke="#63b8ff" points="94.86,-47.16 86.29,-53.4 96.88,-53.86 94.86,-47.16"/>
</a>
</g>
</g>
</g>
</svg>
