<?xml version="1.0" encoding="UTF-8" standalone="no"?>
<!DOCTYPE svg PUBLIC "-//W3C//DTD SVG 1.1//EN"
 "http://www.w3.org/Graphics/SVG/1.1/DTD/svg11.dtd">
<!-- Generated by graphviz version 2.43.0 (0)
 -->
<!-- Title: Foam::rankTimes Pages: 1 -->
<svg width="405pt" height="98pt"
 viewBox="0.00 0.00 405.00 97.50" xmlns="http://www.w3.org/2000/svg" xmlns:xlink="http://www.w3.org/1999/xlink">
<g id="graph0" class="graph" transform="scale(1 1) rotate(0) translate(4 93.5)">
<title>Foam::rankTimes</title>
<!-- Node1 -->
<g id="Node000001" class="node">
<title>Node1</title>
<g id="a_Node000001"><a xlink:title=" ">
<polygon fill="#999999" stroke="#666666" points="397,-57 304,-57 304,-38 397,-38 397,-57"/>
<text text-anchor="middle" x="350.5" y="-45" font-family="Helvetica,sans-Serif" font-size="10.00">Foam::rankTimes</text>
</a>
</g>
</g>
<!-- Node2 -->
<g id="Node000002" class="node">
<title>Node2</title>
<g id="a_Node000002"><a xlink:href="namespaceFoam.html#a779c4da5cd9d61fa770b78faf74178e3" target="_top" xlink:title=" ">
<polygon fill="white" stroke="#666666" points="268,-57 166,-57 166,-38 268,-38 268,-57"/>
<text text-anchor="middle" x="217" y="-45" font-family="Helvetica,sans-Serif" font-size="10.00">Foam::getMPIStats</text>
</a>
</g>
</g>
<!-- Node1&#45;&gt;Node2 -->
<g id="edge1_Node000001_Node000002" class="edge">
<title>Node1&#45;&gt;Node2</title>
<g id="a_edge1_Node000001_Node000002"><a xlink:title=" ">
<path fill="none" stroke="#63b8ff" d="M293.65,-47.5C285.14,-47.5 276.41,-47.5 268.03,-47.5"/>
<polygon fill="#63b8ff" stroke="#63b8ff" points="293.88,-51 303.88,-47.5 293.88,-44 293.88,-51"/>
</a>
</g>
</g>
<!-- Node3 -->
<g id="Node000003" class="node">
<title>Node3</title>
<g id="a_Node000003"><a xlink:href="classFoam_1_1fvMeshDistributors_1_1distributorMPI.html#aab5532f5814163b23354e6c1c0137042" target="_top" xlink:title=" ">
<polygon fill="white" stroke="#666666" points="130,-89.5 0,-89.5 0,-59.5 130,-59.5 130,-89.5"/>
<text text-anchor="start" x="8" y="-77.5" font-family="Helvetica,sans-Serif" font-size="10.00">Foam::fvMeshDistributors</text>
<text text-anchor="middle" x="65" y="-66.5" font-family="Helvetica,sans-Serif" font-size="10.00">::distributorMPI::update</text>
</a>
</g>
</g>
<!-- Node2&#45;&gt;Node3 -->
<g id="edge2_Node000002_Node000003" class="edge">
<title>Node2&#45;&gt;Node3</title>
<g id="a_edge2_Node000002_Node000003"><a xlink:title=" ">
<path fill="none" stroke="#63b8ff" d="M155.56,-58.38C147.17,-59.89 138.53,-61.44 130.08,-62.96"/>
<polygon fill="#63b8ff" stroke="#63b8ff" points="156.41,-61.78 165.63,-56.57 155.17,-54.89 156.41,-61.78"/>
</a>
</g>
</g>
<!-- Node4 -->
<g id="Node000004" class="node">
<title>Node4</title>
<g id="a_Node000004"><a xlink:href="classFoam_1_1fvMeshDistributors_1_1distributorRollingMPI.html#ab521a5007aa7d5325e6ecd905cea25a0" target="_top" xlink:title=" ">
<polygon fill="white" stroke="#666666" points="130,-41 0,-41 0,0 130,0 130,-41"/>
<text text-anchor="start" x="8" y="-29" font-family="Helvetica,sans-Serif" font-size="10.00">Foam::fvMeshDistributors</text>
<text text-anchor="start" x="8" y="-18" font-family="Helvetica,sans-Serif" font-size="10.00">::distributorRollingMPI</text>
<text text-anchor="middle" x="65" y="-7" font-family="Helvetica,sans-Serif" font-size="10.00">::update</text>
</a>
</g>
</g>
<!-- Node2&#45;&gt;Node4 -->
<g id="edge3_Node000002_Node000004" class="edge">
<title>Node2&#45;&gt;Node4</title>
<g id="a_edge3_Node000002_Node000004"><a xlink:title=" ">
<path fill="none" stroke="#63b8ff" d="M155.56,-36.62C147.17,-35.11 138.53,-33.56 130.08,-32.04"/>
<polygon fill="#63b8ff" stroke="#63b8ff" points="155.17,-40.11 165.63,-38.43 156.41,-33.22 155.17,-40.11"/>
</a>
</g>
</g>
</g>
</svg>
