<?xml version="1.0" encoding="UTF-8" standalone="no"?>
<!DOCTYPE svg PUBLIC "-//W3C//DTD SVG 1.1//EN"
 "http://www.w3.org/Graphics/SVG/1.1/DTD/svg11.dtd">
<!-- Generated by graphviz version 2.43.0 (0)
 -->
<!-- Title: Foam::getMPIStats Pages: 1 -->
<svg width="282pt" height="138pt"
 viewBox="0.00 0.00 282.00 138.00" xmlns="http://www.w3.org/2000/svg" xmlns:xlink="http://www.w3.org/1999/xlink">
<g id="graph0" class="graph" transform="scale(1 1) rotate(0) translate(4 134)">
<title>Foam::getMPIStats</title>
<!-- Node1 -->
<g id="Node000001" class="node">
<title>Node1</title>
<g id="a_Node000001"><a xlink:title=" ">
<polygon fill="#999999" stroke="#666666" points="102,-74 0,-74 0,-55 102,-55 102,-74"/>
<text text-anchor="middle" x="51" y="-62" font-family="Helvetica,sans-Serif" font-size="10.00">Foam::getMPIStats</text>
</a>
</g>
</g>
<!-- Node2 -->
<g id="Node000002" class="node">
<title>Node2</title>
<g id="a_Node000002"><a xlink:href="namespaceFoam.html#a062bf82f84bf3078fa2eb1835777c33f" target="_top" xlink:title=" ">
<polygon fill="white" stroke="#666666" points="264,-130 148,-130 148,-111 264,-111 264,-130"/>
<text text-anchor="middle" x="206" y="-118" font-family="Helvetica,sans-Serif" font-size="10.00">Foam::prevRankTimes</text>
</a>
</g>
</g>
<!-- Node1&#45;&gt;Node2 -->
<g id="edge1_Node000001_Node000002" class="edge">
<title>Node1&#45;&gt;Node2</title>
<g id="a_edge1_Node000001_Node000002"><a xlink:title=" ">
<path fill="none" stroke="#63b8ff" d="M71.46,-74.13C88.67,-82.39 114.6,-94.24 138,-102.5 143.6,-104.48 149.53,-106.36 155.46,-108.11"/>
<polygon fill="#63b8ff" stroke="#63b8ff" points="154.79,-111.56 165.37,-110.93 156.71,-104.83 154.79,-111.56"/>
</a>
</g>
</g>
<!-- Node3 -->
<g id="Node000003" class="node">
<title>Node3</title>
<g id="a_Node000003"><a xlink:href="namespaceFoam.html#a417291a4c78876a1f80a6b6a2aad4634" target="_top" xlink:title=" ">
<polygon fill="white" stroke="#666666" points="274,-93 138,-93 138,-74 274,-74 274,-93"/>
<text text-anchor="middle" x="206" y="-81" font-family="Helvetica,sans-Serif" font-size="10.00">Foam::prevRankWaitTimes</text>
</a>
</g>
</g>
<!-- Node1&#45;&gt;Node3 -->
<g id="edge2_Node000001_Node000003" class="edge">
<title>Node1&#45;&gt;Node3</title>
<g id="a_edge2_Node000001_Node000003"><a xlink:title=" ">
<path fill="none" stroke="#63b8ff" d="M102.1,-70.72C110.3,-71.74 118.97,-72.82 127.65,-73.89"/>
<polygon fill="#63b8ff" stroke="#63b8ff" points="127.47,-77.4 137.83,-75.16 128.33,-70.45 127.47,-77.4"/>
</a>
</g>
</g>
<!-- Node4 -->
<g id="Node000004" class="node">
<title>Node4</title>
<g id="a_Node000004"><a xlink:href="namespaceFoam.html#a08d408856c805b0bb4446710726e009e" target="_top" xlink:title=" ">
<polygon fill="white" stroke="#666666" points="252.5,-56 159.5,-56 159.5,-37 252.5,-37 252.5,-56"/>
<text text-anchor="middle" x="206" y="-44" font-family="Helvetica,sans-Serif" font-size="10.00">Foam::rankTimes</text>
</a>
</g>
</g>
<!-- Node1&#45;&gt;Node4 -->
<g id="edge3_Node000001_Node000004" class="edge">
<title>Node1&#45;&gt;Node4</title>
<g id="a_edge3_Node000001_Node000004"><a xlink:title=" ">
<path fill="none" stroke="#63b8ff" d="M102.1,-58.61C117.25,-56.82 133.99,-54.85 149.47,-53.03"/>
<polygon fill="#63b8ff" stroke="#63b8ff" points="149.92,-56.5 159.44,-51.86 149.1,-49.55 149.92,-56.5"/>
</a>
</g>
</g>
<!-- Node5 -->
<g id="Node000005" class="node">
<title>Node5</title>
<g id="a_Node000005"><a xlink:href="namespaceFoam.html#a06c8001bcbc4685dfaac232b1dee6646" target="_top" xlink:title=" ">
<polygon fill="white" stroke="#666666" points="262.5,-19 149.5,-19 149.5,0 262.5,0 262.5,-19"/>
<text text-anchor="middle" x="206" y="-7" font-family="Helvetica,sans-Serif" font-size="10.00">Foam::rankWaitTimes</text>
</a>
</g>
</g>
<!-- Node1&#45;&gt;Node5 -->
<g id="edge4_Node000001_Node000005" class="edge">
<title>Node1&#45;&gt;Node5</title>
<g id="a_edge4_Node000001_Node000005"><a xlink:title=" ">
<path fill="none" stroke="#63b8ff" d="M72.93,-54.91C90.18,-47.2 115.39,-36.41 138,-28.5 144.52,-26.22 151.46,-24.01 158.32,-21.96"/>
<polygon fill="#63b8ff" stroke="#63b8ff" points="159.62,-25.22 168.24,-19.07 157.66,-18.5 159.62,-25.22"/>
</a>
</g>
</g>
</g>
</svg>
