<?xml version="1.0" encoding="UTF-8" standalone="no"?>
<!DOCTYPE svg PUBLIC "-//W3C//DTD SVG 1.1//EN"
 "http://www.w3.org/Graphics/SVG/1.1/DTD/svg11.dtd">
<!-- Generated by graphviz version 2.43.0 (0)
 -->
<!-- Title: libfvMeshTopoChangers/applications/utilities/parallelProcessing/reconstructParMesh2D/reconstructParMesh2D.C Pages: 1 -->
<svg width="1912pt" height="181pt"
 viewBox="0.00 0.00 1912.00 181.00" xmlns="http://www.w3.org/2000/svg" xmlns:xlink="http://www.w3.org/1999/xlink">
<g id="graph0" class="graph" transform="scale(1 1) rotate(0) translate(4 177)">
<title>libfvMeshTopoChangers/applications/utilities/parallelProcessing/reconstructParMesh2D/reconstructParMesh2D.C</title>
<!-- Node1 -->
<g id="Node000001" class="node">
<title>Node1</title>
<g id="a_Node000001"><a xlink:title=" ">
<polygon fill="#999999" stroke="#666666" points="990,-173 808,-173 808,-121 990,-121 990,-173"/>
<text text-anchor="start" x="816" y="-161" font-family="Helvetica,sans-Serif" font-size="10.00">libfvMeshTopoChangers</text>
<text text-anchor="start" x="816" y="-150" font-family="Helvetica,sans-Serif" font-size="10.00">/applications/utilities</text>
<text text-anchor="start" x="816" y="-139" font-family="Helvetica,sans-Serif" font-size="10.00">/parallelProcessing/reconstruct</text>
<text text-anchor="middle" x="899" y="-128" font-family="Helvetica,sans-Serif" font-size="10.00">ParMesh2D/reconstructParMesh2D.C</text>
</a>
</g>
</g>
<!-- Node2 -->
<g id="Node000002" class="node">
<title>Node2</title>
<g id="a_Node000002"><a xlink:title=" ">
<polygon fill="#e0e0e0" stroke="#999999" points="56,-79.5 0,-79.5 0,-60.5 56,-60.5 56,-79.5"/>
<text text-anchor="middle" x="28" y="-67.5" font-family="Helvetica,sans-Serif" font-size="10.00">argList.H</text>
</a>
</g>
</g>
<!-- Node1&#45;&gt;Node2 -->
<g id="edge1_Node000001_Node000002" class="edge">
<title>Node1&#45;&gt;Node2</title>
<g id="a_edge1_Node000001_Node000002"><a xlink:title=" ">
<path fill="none" stroke="#63b8ff" d="M807.71,-142.65C621.65,-135.26 204.37,-115.78 65,-85 62.48,-84.44 59.9,-83.75 57.33,-82.97"/>
<polygon fill="#63b8ff" stroke="#63b8ff" points="58.24,-79.58 47.65,-79.64 55.97,-86.2 58.24,-79.58"/>
</a>
</g>
</g>
<!-- Node3 -->
<g id="Node000003" class="node">
<title>Node3</title>
<g id="a_Node000003"><a xlink:title=" ">
<polygon fill="#e0e0e0" stroke="#999999" points="155.5,-79.5 74.5,-79.5 74.5,-60.5 155.5,-60.5 155.5,-79.5"/>
<text text-anchor="middle" x="115" y="-67.5" font-family="Helvetica,sans-Serif" font-size="10.00">timeSelector.H</text>
</a>
</g>
</g>
<!-- Node1&#45;&gt;Node3 -->
<g id="edge2_Node000001_Node000003" class="edge">
<title>Node1&#45;&gt;Node3</title>
<g id="a_edge2_Node000001_Node000003"><a xlink:title=" ">
<path fill="none" stroke="#63b8ff" d="M807.88,-143.98C668.41,-139.65 394.05,-126.2 165,-85 160.59,-84.21 156.01,-83.19 151.48,-82.08"/>
<polygon fill="#63b8ff" stroke="#63b8ff" points="152.33,-78.68 141.77,-79.51 150.54,-85.45 152.33,-78.68"/>
</a>
</g>
</g>
<!-- Node4 -->
<g id="Node000004" class="node">
<title>Node4</title>
<g id="a_Node000004"><a xlink:title=" ">
<polygon fill="#e0e0e0" stroke="#999999" points="254,-79.5 174,-79.5 174,-60.5 254,-60.5 254,-79.5"/>
<text text-anchor="middle" x="214" y="-67.5" font-family="Helvetica,sans-Serif" font-size="10.00">IOobjectList.H</text>
</a>
</g>
</g>
<!-- Node1&#45;&gt;Node4 -->
<g id="edge3_Node000001_Node000004" class="edge">
<title>Node1&#45;&gt;Node4</title>
<g id="a_edge3_Node000001_Node000004"><a xlink:title=" ">
<path fill="none" stroke="#63b8ff" d="M807.95,-142.5C683.82,-136.53 454.96,-121.31 263,-85 258.84,-84.21 254.53,-83.23 250.26,-82.16"/>
<polygon fill="#63b8ff" stroke="#63b8ff" points="251.06,-78.75 240.49,-79.52 249.24,-85.51 251.06,-78.75"/>
</a>
</g>
</g>
<!-- Node5 -->
<g id="Node000005" class="node">
<title>Node5</title>
<g id="a_Node000005"><a xlink:title=" ">
<polygon fill="#e0e0e0" stroke="#999999" points="346,-79.5 272,-79.5 272,-60.5 346,-60.5 346,-79.5"/>
<text text-anchor="middle" x="309" y="-67.5" font-family="Helvetica,sans-Serif" font-size="10.00">labelIOList.H</text>
</a>
</g>
</g>
<!-- Node1&#45;&gt;Node5 -->
<g id="edge4_Node000001_Node000005" class="edge">
<title>Node1&#45;&gt;Node5</title>
<g id="a_edge4_Node000001_Node000005"><a xlink:title=" ">
<path fill="none" stroke="#63b8ff" d="M807.72,-140.9C698.99,-133.65 512.3,-117.47 355,-85 351.35,-84.25 347.58,-83.33 343.83,-82.33"/>
<polygon fill="#63b8ff" stroke="#63b8ff" points="344.67,-78.93 334.09,-79.55 342.74,-85.66 344.67,-78.93"/>
</a>
</g>
</g>
<!-- Node6 -->
<g id="Node000006" class="node">
<title>Node6</title>
<g id="a_Node000006"><a xlink:title=" ">
<polygon fill="#e0e0e0" stroke="#999999" points="479.5,-79.5 364.5,-79.5 364.5,-60.5 479.5,-60.5 479.5,-79.5"/>
<text text-anchor="middle" x="422" y="-67.5" font-family="Helvetica,sans-Serif" font-size="10.00">processorPolyPatch.H</text>
</a>
</g>
</g>
<!-- Node1&#45;&gt;Node6 -->
<g id="edge5_Node000001_Node000006" class="edge">
<title>Node1&#45;&gt;Node6</title>
<g id="a_edge5_Node000001_Node000006"><a xlink:title=" ">
<path fill="none" stroke="#63b8ff" d="M807.73,-134.1C724.27,-122.82 597.51,-104.72 488,-85 482.24,-83.96 476.21,-82.8 470.24,-81.59"/>
<polygon fill="#63b8ff" stroke="#63b8ff" points="470.81,-78.14 460.31,-79.54 469.4,-84.99 470.81,-78.14"/>
</a>
</g>
</g>
<!-- Node7 -->
<g id="Node000007" class="node">
<title>Node7</title>
<g id="a_Node000007"><a xlink:title=" ">
<polygon fill="#e0e0e0" stroke="#999999" points="614.5,-79.5 497.5,-79.5 497.5,-60.5 614.5,-60.5 614.5,-79.5"/>
<text text-anchor="middle" x="556" y="-67.5" font-family="Helvetica,sans-Serif" font-size="10.00">mapAddedPolyMesh.H</text>
</a>
</g>
</g>
<!-- Node1&#45;&gt;Node7 -->
<g id="edge6_Node000001_Node000007" class="edge">
<title>Node1&#45;&gt;Node7</title>
<g id="a_edge6_Node000001_Node000007"><a xlink:title=" ">
<path fill="none" stroke="#63b8ff" d="M807.98,-126.1C742.91,-111.87 657.85,-93.27 605.08,-81.73"/>
<polygon fill="#63b8ff" stroke="#63b8ff" points="605.81,-78.31 595.3,-79.59 604.32,-85.15 605.81,-78.31"/>
</a>
</g>
</g>
<!-- Node8 -->
<g id="Node000008" class="node">
<title>Node8</title>
<g id="a_Node000008"><a xlink:title=" ">
<polygon fill="#e0e0e0" stroke="#999999" points="727,-79.5 633,-79.5 633,-60.5 727,-60.5 727,-79.5"/>
<text text-anchor="middle" x="680" y="-67.5" font-family="Helvetica,sans-Serif" font-size="10.00">polyMeshAdder.H</text>
</a>
</g>
</g>
<!-- Node1&#45;&gt;Node8 -->
<g id="edge7_Node000001_Node000008" class="edge">
<title>Node1&#45;&gt;Node8</title>
<g id="a_edge7_Node000001_Node000008"><a xlink:title=" ">
<path fill="none" stroke="#63b8ff" d="M825.77,-120.92C788.23,-108.07 744.29,-93.02 714.54,-82.83"/>
<polygon fill="#63b8ff" stroke="#63b8ff" points="715.62,-79.5 705.02,-79.57 713.35,-86.12 715.62,-79.5"/>
</a>
</g>
</g>
<!-- Node9 -->
<g id="Node000009" class="node">
<title>Node9</title>
<g id="a_Node000009"><a xlink:title=" ">
<polygon fill="#e0e0e0" stroke="#999999" points="838.5,-79.5 745.5,-79.5 745.5,-60.5 838.5,-60.5 838.5,-79.5"/>
<text text-anchor="middle" x="792" y="-67.5" font-family="Helvetica,sans-Serif" font-size="10.00">faceCoupleInfo.H</text>
</a>
</g>
</g>
<!-- Node1&#45;&gt;Node9 -->
<g id="edge8_Node000001_Node000009" class="edge">
<title>Node1&#45;&gt;Node9</title>
<g id="a_edge8_Node000001_Node000009"><a xlink:title=" ">
<path fill="none" stroke="#63b8ff" d="M863.07,-120.82C846.34,-109.09 827.03,-95.55 812.76,-85.55"/>
<polygon fill="#63b8ff" stroke="#63b8ff" points="814.39,-82.42 804.19,-79.54 810.37,-88.15 814.39,-82.42"/>
</a>
</g>
</g>
<!-- Node10 -->
<g id="Node000010" class="node">
<title>Node10</title>
<g id="a_Node000010"><a xlink:title=" ">
<polygon fill="#e0e0e0" stroke="#999999" points="941,-79.5 857,-79.5 857,-60.5 941,-60.5 941,-79.5"/>
<text text-anchor="middle" x="899" y="-67.5" font-family="Helvetica,sans-Serif" font-size="10.00">fvMeshAdder.H</text>
</a>
</g>
</g>
<!-- Node1&#45;&gt;Node10 -->
<g id="edge9_Node000001_Node000010" class="edge">
<title>Node1&#45;&gt;Node10</title>
<g id="a_edge9_Node000001_Node000010"><a xlink:title=" ">
<path fill="none" stroke="#63b8ff" d="M899,-120.61C899,-110.58 899,-99.25 899,-89.96"/>
<polygon fill="#63b8ff" stroke="#63b8ff" points="902.5,-89.85 899,-79.85 895.5,-89.85 902.5,-89.85"/>
</a>
</g>
</g>
<!-- Node11 -->
<g id="Node000011" class="node">
<title>Node11</title>
<g id="a_Node000011"><a xlink:title=" ">
<polygon fill="#e0e0e0" stroke="#999999" points="1059,-79.5 959,-79.5 959,-60.5 1059,-60.5 1059,-79.5"/>
<text text-anchor="middle" x="1009" y="-67.5" font-family="Helvetica,sans-Serif" font-size="10.00">polyTopoChange.H</text>
</a>
</g>
</g>
<!-- Node1&#45;&gt;Node11 -->
<g id="edge10_Node000001_Node000011" class="edge">
<title>Node1&#45;&gt;Node11</title>
<g id="a_edge10_Node000001_Node000011"><a xlink:title=" ">
<path fill="none" stroke="#63b8ff" d="M935.93,-120.82C953.3,-108.98 973.37,-95.29 988.08,-85.27"/>
<polygon fill="#63b8ff" stroke="#63b8ff" points="990.18,-88.07 996.47,-79.54 986.23,-82.29 990.18,-88.07"/>
</a>
</g>
</g>
<!-- Node12 -->
<g id="Node000012" class="node">
<title>Node12</title>
<g id="a_Node000012"><a xlink:title=" ">
<polygon fill="#e0e0e0" stroke="#999999" points="1205,-85 1077,-85 1077,-55 1205,-55 1205,-85"/>
<text text-anchor="start" x="1085" y="-73" font-family="Helvetica,sans-Serif" font-size="10.00">extrapolatedCalculatedFv</text>
<text text-anchor="middle" x="1141" y="-62" font-family="Helvetica,sans-Serif" font-size="10.00">PatchFields.H</text>
</a>
</g>
</g>
<!-- Node1&#45;&gt;Node12 -->
<g id="edge11_Node000001_Node000012" class="edge">
<title>Node1&#45;&gt;Node12</title>
<g id="a_edge11_Node000001_Node000012"><a xlink:title=" ">
<path fill="none" stroke="#63b8ff" d="M979.92,-120.92C1014.76,-110.12 1054.6,-97.78 1085.94,-88.06"/>
<polygon fill="#63b8ff" stroke="#63b8ff" points="1087.28,-91.31 1095.8,-85.01 1085.21,-84.63 1087.28,-91.31"/>
</a>
</g>
</g>
<!-- Node13 -->
<g id="Node000013" class="node">
<title>Node13</title>
<g id="a_Node000013"><a xlink:title=" ">
<polygon fill="#e0e0e0" stroke="#999999" points="1321,-79.5 1223,-79.5 1223,-60.5 1321,-60.5 1321,-79.5"/>
<text text-anchor="middle" x="1272" y="-67.5" font-family="Helvetica,sans-Serif" font-size="10.00">regionProperties.H</text>
</a>
</g>
</g>
<!-- Node1&#45;&gt;Node13 -->
<g id="edge12_Node000001_Node000013" class="edge">
<title>Node1&#45;&gt;Node13</title>
<g id="a_edge12_Node000001_Node000013"><a xlink:title=" ">
<path fill="none" stroke="#63b8ff" d="M990.2,-129.48C1053.22,-117.78 1138.88,-101.33 1214,-85 1218.45,-84.03 1223.08,-82.99 1227.69,-81.91"/>
<polygon fill="#63b8ff" stroke="#63b8ff" points="1228.78,-85.25 1237.71,-79.55 1227.17,-78.44 1228.78,-85.25"/>
</a>
</g>
</g>
<!-- Node14 -->
<g id="Node000014" class="node">
<title>Node14</title>
<g id="a_Node000014"><a xlink:href="refinementHistory4_8H.html" target="_top" xlink:title=" ">
<polygon fill="white" stroke="#666666" points="1449,-79.5 1339,-79.5 1339,-60.5 1449,-60.5 1449,-79.5"/>
<text text-anchor="middle" x="1394" y="-67.5" font-family="Helvetica,sans-Serif" font-size="10.00">refinementHistory4.H</text>
</a>
</g>
</g>
<!-- Node1&#45;&gt;Node14 -->
<g id="edge13_Node000001_Node000014" class="edge">
<title>Node1&#45;&gt;Node14</title>
<g id="a_edge13_Node000001_Node000014"><a xlink:title=" ">
<path fill="none" stroke="#63b8ff" d="M990.13,-135.11C1077.58,-124.19 1213.23,-106.01 1330,-85 1335.53,-84.01 1341.3,-82.87 1347.03,-81.7"/>
<polygon fill="#63b8ff" stroke="#63b8ff" points="1348.15,-85.04 1357.21,-79.54 1346.7,-78.19 1348.15,-85.04"/>
</a>
</g>
</g>
<!-- Node22 -->
<g id="Node000022" class="node">
<title>Node22</title>
<g id="a_Node000022"><a xlink:title=" ">
<polygon fill="#e0e0e0" stroke="#999999" points="1569,-79.5 1467,-79.5 1467,-60.5 1569,-60.5 1569,-79.5"/>
<text text-anchor="middle" x="1518" y="-67.5" font-family="Helvetica,sans-Serif" font-size="10.00">addRegionOption.H</text>
</a>
</g>
</g>
<!-- Node1&#45;&gt;Node22 -->
<g id="edge21_Node000001_Node000022" class="edge">
<title>Node1&#45;&gt;Node22</title>
<g id="a_edge21_Node000001_Node000022"><a xlink:title=" ">
<path fill="none" stroke="#63b8ff" d="M990.48,-139.42C1101.57,-130.65 1294.4,-112.91 1458,-85 1463.4,-84.08 1469.05,-82.96 1474.62,-81.77"/>
<polygon fill="#63b8ff" stroke="#63b8ff" points="1475.51,-85.16 1484.51,-79.57 1473.99,-78.33 1475.51,-85.16"/>
</a>
</g>
</g>
<!-- Node23 -->
<g id="Node000023" class="node">
<title>Node23</title>
<g id="a_Node000023"><a xlink:title=" ">
<polygon fill="#e0e0e0" stroke="#999999" points="1706.5,-79.5 1587.5,-79.5 1587.5,-60.5 1706.5,-60.5 1706.5,-79.5"/>
<text text-anchor="middle" x="1647" y="-67.5" font-family="Helvetica,sans-Serif" font-size="10.00">addAllRegionsOption.H</text>
</a>
</g>
</g>
<!-- Node1&#45;&gt;Node23 -->
<g id="edge22_Node000001_Node000023" class="edge">
<title>Node1&#45;&gt;Node23</title>
<g id="a_edge22_Node000001_Node000023"><a xlink:title=" ">
<path fill="none" stroke="#63b8ff" d="M990.26,-141.02C1120.96,-133.15 1368.8,-115.52 1578,-85 1584.74,-84.02 1591.83,-82.8 1598.78,-81.49"/>
<polygon fill="#63b8ff" stroke="#63b8ff" points="1599.67,-84.88 1608.81,-79.53 1598.32,-78.01 1599.67,-84.88"/>
</a>
</g>
</g>
<!-- Node24 -->
<g id="Node000024" class="node">
<title>Node24</title>
<g id="a_Node000024"><a xlink:title=" ">
<polygon fill="#e0e0e0" stroke="#999999" points="1809.5,-79.5 1724.5,-79.5 1724.5,-60.5 1809.5,-60.5 1809.5,-79.5"/>
<text text-anchor="middle" x="1767" y="-67.5" font-family="Helvetica,sans-Serif" font-size="10.00">setRootCase.H</text>
</a>
</g>
</g>
<!-- Node1&#45;&gt;Node24 -->
<g id="edge23_Node000001_Node000024" class="edge">
<title>Node1&#45;&gt;Node24</title>
<g id="a_edge23_Node000001_Node000024"><a xlink:title=" ">
<path fill="none" stroke="#63b8ff" d="M990.07,-144.93C1141.73,-141.87 1455.14,-130.11 1716,-85 1720.5,-84.22 1725.17,-83.22 1729.79,-82.11"/>
<polygon fill="#63b8ff" stroke="#63b8ff" points="1730.89,-85.44 1739.69,-79.54 1729.14,-78.66 1730.89,-85.44"/>
</a>
</g>
</g>
<!-- Node25 -->
<g id="Node000025" class="node">
<title>Node25</title>
<g id="a_Node000025"><a xlink:title=" ">
<polygon fill="#e0e0e0" stroke="#999999" points="1904,-79.5 1828,-79.5 1828,-60.5 1904,-60.5 1904,-79.5"/>
<text text-anchor="middle" x="1866" y="-67.5" font-family="Helvetica,sans-Serif" font-size="10.00">createTime.H</text>
</a>
</g>
</g>
<!-- Node1&#45;&gt;Node25 -->
<g id="edge24_Node000001_Node000025" class="edge">
<title>Node1&#45;&gt;Node25</title>
<g id="a_edge24_Node000001_Node000025"><a xlink:title=" ">
<path fill="none" stroke="#63b8ff" d="M990.25,-146.66C1156.45,-146.38 1519.07,-138.91 1819,-85 1822.94,-84.29 1827.02,-83.37 1831.05,-82.34"/>
<polygon fill="#63b8ff" stroke="#63b8ff" points="1832.19,-85.66 1840.88,-79.61 1830.31,-78.91 1832.19,-85.66"/>
</a>
</g>
</g>
<!-- Node15 -->
<g id="Node000015" class="node">
<title>Node15</title>
<g id="a_Node000015"><a xlink:title=" ">
<polygon fill="#e0e0e0" stroke="#999999" points="1180,-19 1098,-19 1098,0 1180,0 1180,-19"/>
<text text-anchor="middle" x="1139" y="-7" font-family="Helvetica,sans-Serif" font-size="10.00">DynamicList.H</text>
</a>
</g>
</g>
<!-- Node14&#45;&gt;Node15 -->
<g id="edge14_Node000014_Node000015" class="edge">
<title>Node14&#45;&gt;Node15</title>
<g id="a_edge14_Node000014_Node000015"><a xlink:title=" ">
<path fill="none" stroke="#63b8ff" d="M1356.92,-60.49C1311.69,-50.12 1235.18,-32.57 1185.9,-21.26"/>
<polygon fill="#63b8ff" stroke="#63b8ff" points="1186.65,-17.84 1176.12,-19.02 1185.09,-24.66 1186.65,-17.84"/>
</a>
</g>
</g>
<!-- Node16 -->
<g id="Node000016" class="node">
<title>Node16</title>
<g id="a_Node000016"><a xlink:title=" ">
<polygon fill="#e0e0e0" stroke="#999999" points="1261.5,-19 1198.5,-19 1198.5,0 1261.5,0 1261.5,-19"/>
<text text-anchor="middle" x="1230" y="-7" font-family="Helvetica,sans-Serif" font-size="10.00">labelList.H</text>
</a>
</g>
</g>
<!-- Node14&#45;&gt;Node16 -->
<g id="edge15_Node000014_Node000016" class="edge">
<title>Node14&#45;&gt;Node16</title>
<g id="a_edge15_Node000014_Node000016"><a xlink:title=" ">
<path fill="none" stroke="#63b8ff" d="M1370.15,-60.49C1342.1,-50.49 1295.33,-33.8 1263.6,-22.49"/>
<polygon fill="#63b8ff" stroke="#63b8ff" points="1264.47,-19.08 1253.88,-19.02 1262.12,-25.67 1264.47,-19.08"/>
</a>
</g>
</g>
<!-- Node17 -->
<g id="Node000017" class="node">
<title>Node17</title>
<g id="a_Node000017"><a xlink:title=" ">
<polygon fill="#e0e0e0" stroke="#999999" points="1346.5,-19 1279.5,-19 1279.5,0 1346.5,0 1346.5,-19"/>
<text text-anchor="middle" x="1313" y="-7" font-family="Helvetica,sans-Serif" font-size="10.00">FixedList.H</text>
</a>
</g>
</g>
<!-- Node14&#45;&gt;Node17 -->
<g id="edge16_Node000014_Node000017" class="edge">
<title>Node14&#45;&gt;Node17</title>
<g id="a_edge16_Node000014_Node000017"><a xlink:title=" ">
<path fill="none" stroke="#63b8ff" d="M1382.05,-60.37C1369.25,-51.12 1348.7,-36.28 1333.35,-25.19"/>
<polygon fill="#63b8ff" stroke="#63b8ff" points="1335.16,-22.18 1325,-19.17 1331.06,-27.86 1335.16,-22.18"/>
</a>
</g>
</g>
<!-- Node18 -->
<g id="Node000018" class="node">
<title>Node18</title>
<g id="a_Node000018"><a xlink:title=" ">
<polygon fill="#e0e0e0" stroke="#999999" points="1423,-19 1365,-19 1365,0 1423,0 1423,-19"/>
<text text-anchor="middle" x="1394" y="-7" font-family="Helvetica,sans-Serif" font-size="10.00">autoPtr.H</text>
</a>
</g>
</g>
<!-- Node14&#45;&gt;Node18 -->
<g id="edge17_Node000014_Node000018" class="edge">
<title>Node14&#45;&gt;Node18</title>
<g id="a_edge17_Node000014_Node000018"><a xlink:title=" ">
<path fill="none" stroke="#63b8ff" d="M1394,-60.37C1394,-52.25 1394,-39.81 1394,-29.39"/>
<polygon fill="#63b8ff" stroke="#63b8ff" points="1397.5,-29.17 1394,-19.17 1390.5,-29.17 1397.5,-29.17"/>
</a>
</g>
</g>
<!-- Node19 -->
<g id="Node000019" class="node">
<title>Node19</title>
<g id="a_Node000019"><a xlink:title=" ">
<polygon fill="#e0e0e0" stroke="#999999" points="1518.5,-19 1441.5,-19 1441.5,0 1518.5,0 1518.5,-19"/>
<text text-anchor="middle" x="1480" y="-7" font-family="Helvetica,sans-Serif" font-size="10.00">regIOobject.H</text>
</a>
</g>
</g>
<!-- Node14&#45;&gt;Node19 -->
<g id="edge18_Node000014_Node000019" class="edge">
<title>Node14&#45;&gt;Node19</title>
<g id="a_edge18_Node000014_Node000019"><a xlink:title=" ">
<path fill="none" stroke="#63b8ff" d="M1406.69,-60.37C1420.41,-51.04 1442.5,-36.01 1458.85,-24.88"/>
<polygon fill="#63b8ff" stroke="#63b8ff" points="1460.96,-27.69 1467.26,-19.17 1457.02,-21.9 1460.96,-27.69"/>
</a>
</g>
</g>
<!-- Node20 -->
<g id="Node000020" class="node">
<title>Node20</title>
<g id="a_Node000020"><a xlink:title=" ">
<polygon fill="#e0e0e0" stroke="#999999" points="1597.5,-19 1536.5,-19 1536.5,0 1597.5,0 1597.5,-19"/>
<text text-anchor="middle" x="1567" y="-7" font-family="Helvetica,sans-Serif" font-size="10.00">boolList.H</text>
</a>
</g>
</g>
<!-- Node14&#45;&gt;Node20 -->
<g id="edge19_Node000014_Node000020" class="edge">
<title>Node14&#45;&gt;Node20</title>
<g id="a_edge19_Node000014_Node000020"><a xlink:title=" ">
<path fill="none" stroke="#63b8ff" d="M1419.16,-60.49C1448.88,-50.44 1498.52,-33.66 1531.99,-22.34"/>
<polygon fill="#63b8ff" stroke="#63b8ff" points="1533.46,-25.54 1541.81,-19.02 1531.22,-18.9 1533.46,-25.54"/>
</a>
</g>
</g>
<!-- Node21 -->
<g id="Node000021" class="node">
<title>Node21</title>
<g id="a_Node000021"><a xlink:title=" ">
<polygon fill="#e0e0e0" stroke="#999999" points="1680,-19 1616,-19 1616,0 1680,0 1680,-19"/>
<text text-anchor="middle" x="1648" y="-7" font-family="Helvetica,sans-Serif" font-size="10.00">labelPair.H</text>
</a>
</g>
</g>
<!-- Node14&#45;&gt;Node21 -->
<g id="edge20_Node000014_Node000021" class="edge">
<title>Node14&#45;&gt;Node21</title>
<g id="a_edge20_Node000014_Node000021"><a xlink:title=" ">
<path fill="none" stroke="#63b8ff" d="M1430.93,-60.49C1477.43,-49.78 1557.12,-31.43 1605.93,-20.19"/>
<polygon fill="#63b8ff" stroke="#63b8ff" points="1606.89,-23.56 1615.85,-17.9 1605.32,-16.74 1606.89,-23.56"/>
</a>
</g>
</g>
</g>
</svg>
