<?xml version="1.0" encoding="UTF-8" standalone="no"?>
<!DOCTYPE svg PUBLIC "-//W3C//DTD SVG 1.1//EN"
 "http://www.w3.org/Graphics/SVG/1.1/DTD/svg11.dtd">
<!-- Generated by graphviz version 2.43.0 (0)
 -->
<!-- Title: main Pages: 1 -->
<svg width="204pt" height="286pt"
 viewBox="0.00 0.00 204.00 286.00" xmlns="http://www.w3.org/2000/svg" xmlns:xlink="http://www.w3.org/1999/xlink">
<g id="graph0" class="graph" transform="scale(1 1) rotate(0) translate(4 282)">
<title>main</title>
<!-- Node1 -->
<g id="Node000001" class="node">
<title>Node1</title>
<g id="a_Node000001"><a xlink:title=" ">
<polygon fill="#999999" stroke="#666666" points="38,-148 0,-148 0,-129 38,-129 38,-148"/>
<text text-anchor="middle" x="19" y="-136" font-family="Helvetica,sans-Serif" font-size="10.00">main</text>
</a>
</g>
</g>
<!-- Node2 -->
<g id="Node000002" class="node">
<title>Node2</title>
<g id="a_Node000002"><a xlink:href="reconstructParMesh3D_8C.html#a8fe3b2b1b48a948f6b5da00748559946" target="_top" xlink:title=" ">
<polygon fill="white" stroke="#666666" points="196,-278 74,-278 74,-259 196,-259 196,-278"/>
<text text-anchor="middle" x="135" y="-266" font-family="Helvetica,sans-Serif" font-size="10.00">determineCoupledFaces</text>
</a>
</g>
</g>
<!-- Node1&#45;&gt;Node2 -->
<g id="edge1_Node000001_Node000002" class="edge">
<title>Node1&#45;&gt;Node2</title>
<g id="a_edge1_Node000001_Node000002"><a xlink:title=" ">
<path fill="none" stroke="#63b8ff" d="M21.91,-148.21C26.67,-169.88 41.16,-222.47 74,-250.5 75.36,-251.66 76.8,-252.75 78.3,-253.77"/>
<polygon fill="#63b8ff" stroke="#63b8ff" points="76.97,-257.04 87.4,-258.87 80.39,-250.93 76.97,-257.04"/>
</a>
</g>
</g>
<!-- Node3 -->
<g id="Node000003" class="node">
<title>Node3</title>
<g id="a_Node000003"><a xlink:href="reconstructParMesh3D_8C.html#abc08552547ed590ce23bb82751cf823d" target="_top" xlink:title=" ">
<polygon fill="white" stroke="#666666" points="172.5,-241 97.5,-241 97.5,-222 172.5,-222 172.5,-241"/>
<text text-anchor="middle" x="135" y="-229" font-family="Helvetica,sans-Serif" font-size="10.00">loadCellLevel</text>
</a>
</g>
</g>
<!-- Node1&#45;&gt;Node3 -->
<g id="edge2_Node000001_Node000003" class="edge">
<title>Node1&#45;&gt;Node3</title>
<g id="a_edge2_Node000001_Node000003"><a xlink:title=" ">
<path fill="none" stroke="#63b8ff" d="M24.33,-148.11C32.01,-164.1 49.57,-196.09 74,-213.5 78.21,-216.5 82.92,-219.01 87.81,-221.1"/>
<polygon fill="#63b8ff" stroke="#63b8ff" points="86.74,-224.44 97.34,-224.63 89.18,-217.87 86.74,-224.44"/>
</a>
</g>
</g>
<!-- Node4 -->
<g id="Node000004" class="node">
<title>Node4</title>
<g id="a_Node000004"><a xlink:href="reconstructParMesh3D_8C.html#a953e59be47dc8e7b49f8c1d8d9e55296" target="_top" xlink:title=" ">
<polygon fill="white" stroke="#666666" points="175,-204 95,-204 95,-185 175,-185 175,-204"/>
<text text-anchor="middle" x="135" y="-192" font-family="Helvetica,sans-Serif" font-size="10.00">loadPointLevel</text>
</a>
</g>
</g>
<!-- Node1&#45;&gt;Node4 -->
<g id="edge3_Node000001_Node000004" class="edge">
<title>Node1&#45;&gt;Node4</title>
<g id="a_edge3_Node000001_Node000004"><a xlink:title=" ">
<path fill="none" stroke="#63b8ff" d="M31.32,-148.12C41.81,-156.6 58.12,-168.78 74,-176.5 77.8,-178.34 81.82,-180.04 85.92,-181.6"/>
<polygon fill="#63b8ff" stroke="#63b8ff" points="84.94,-184.96 95.53,-184.97 87.25,-178.36 84.94,-184.96"/>
</a>
</g>
</g>
<!-- Node5 -->
<g id="Node000005" class="node">
<title>Node5</title>
<g id="a_Node000005"><a xlink:href="reconstructParMesh3D_8C.html#a6f47496bbcab6eaae66268a98d9b0b2f" target="_top" xlink:title=" ">
<polygon fill="white" stroke="#666666" points="193,-167 77,-167 77,-148 193,-148 193,-167"/>
<text text-anchor="middle" x="135" y="-155" font-family="Helvetica,sans-Serif" font-size="10.00">loadRefinementHistory</text>
</a>
</g>
</g>
<!-- Node1&#45;&gt;Node5 -->
<g id="edge4_Node000001_Node000005" class="edge">
<title>Node1&#45;&gt;Node5</title>
<g id="a_edge4_Node000001_Node000005"><a xlink:title=" ">
<path fill="none" stroke="#63b8ff" d="M38.06,-141.51C46.06,-142.84 56.01,-144.5 66.45,-146.24"/>
<polygon fill="#63b8ff" stroke="#63b8ff" points="66.12,-149.73 76.56,-147.93 67.27,-142.83 66.12,-149.73"/>
</a>
</g>
</g>
<!-- Node6 -->
<g id="Node000006" class="node">
<title>Node6</title>
<g id="a_Node000006"><a xlink:href="reconstructParMesh3D_8C.html#aa9b553476e62c6b717082b751e681e12" target="_top" xlink:title=" ">
<polygon fill="white" stroke="#666666" points="187,-130 83,-130 83,-111 187,-111 187,-130"/>
<text text-anchor="middle" x="135" y="-118" font-family="Helvetica,sans-Serif" font-size="10.00">writeCellDistribution</text>
</a>
</g>
</g>
<!-- Node1&#45;&gt;Node6 -->
<g id="edge5_Node000001_Node000006" class="edge">
<title>Node1&#45;&gt;Node6</title>
<g id="a_edge5_Node000001_Node000006"><a xlink:title=" ">
<path fill="none" stroke="#63b8ff" d="M38.06,-135.65C47.58,-134.15 59.86,-132.21 72.44,-130.22"/>
<polygon fill="#63b8ff" stroke="#63b8ff" points="73.21,-133.64 82.54,-128.62 72.12,-126.73 73.21,-133.64"/>
</a>
</g>
</g>
<!-- Node7 -->
<g id="Node000007" class="node">
<title>Node7</title>
<g id="a_Node000007"><a xlink:href="reconstructParMesh3D_8C.html#a66f197ad356d7646a06ff7264597f8ce" target="_top" xlink:title=" ">
<polygon fill="white" stroke="#666666" points="174,-93 96,-93 96,-74 174,-74 174,-93"/>
<text text-anchor="middle" x="135" y="-81" font-family="Helvetica,sans-Serif" font-size="10.00">writeCellLevel</text>
</a>
</g>
</g>
<!-- Node1&#45;&gt;Node7 -->
<g id="edge6_Node000001_Node000007" class="edge">
<title>Node1&#45;&gt;Node7</title>
<g id="a_edge6_Node000001_Node000007"><a xlink:title=" ">
<path fill="none" stroke="#63b8ff" d="M32.27,-128.86C42.84,-120.91 58.76,-109.81 74,-102.5 78.62,-100.28 83.57,-98.24 88.56,-96.38"/>
<polygon fill="#63b8ff" stroke="#63b8ff" points="89.85,-99.64 98.14,-93.04 87.55,-93.03 89.85,-99.64"/>
</a>
</g>
</g>
<!-- Node8 -->
<g id="Node000008" class="node">
<title>Node8</title>
<g id="a_Node000008"><a xlink:href="reconstructParMesh3D_8C.html#af3b614edd1c9a48aa31f538954d49634" target="_top" xlink:title=" ">
<polygon fill="white" stroke="#666666" points="176.5,-56 93.5,-56 93.5,-37 176.5,-37 176.5,-56"/>
<text text-anchor="middle" x="135" y="-44" font-family="Helvetica,sans-Serif" font-size="10.00">writePointLevel</text>
</a>
</g>
</g>
<!-- Node1&#45;&gt;Node8 -->
<g id="edge7_Node000001_Node000008" class="edge">
<title>Node1&#45;&gt;Node8</title>
<g id="a_edge7_Node000001_Node000008"><a xlink:title=" ">
<path fill="none" stroke="#63b8ff" d="M24.55,-128.93C32.45,-113.36 50.14,-82.54 74,-65.5 77.07,-63.31 80.4,-61.36 83.87,-59.63"/>
<polygon fill="#63b8ff" stroke="#63b8ff" points="85.51,-62.74 93.29,-55.55 82.72,-56.32 85.51,-62.74"/>
</a>
</g>
</g>
<!-- Node9 -->
<g id="Node000009" class="node">
<title>Node9</title>
<g id="a_Node000009"><a xlink:href="reconstructParMesh3D_8C.html#a864f75cdc2733b4bc4c85afcfdb2a423" target="_top" xlink:title=" ">
<polygon fill="white" stroke="#666666" points="194.5,-19 75.5,-19 75.5,0 194.5,0 194.5,-19"/>
<text text-anchor="middle" x="135" y="-7" font-family="Helvetica,sans-Serif" font-size="10.00">writeRefinementHistory</text>
</a>
</g>
</g>
<!-- Node1&#45;&gt;Node9 -->
<g id="edge8_Node000001_Node000009" class="edge">
<title>Node1&#45;&gt;Node9</title>
<g id="a_edge8_Node000001_Node000009"><a xlink:title=" ">
<path fill="none" stroke="#63b8ff" d="M21.99,-129C26.93,-107.78 41.75,-56.25 74,-28.5 75.96,-26.82 78.06,-25.28 80.28,-23.88"/>
<polygon fill="#63b8ff" stroke="#63b8ff" points="82.04,-26.91 89.24,-19.13 78.76,-20.72 82.04,-26.91"/>
</a>
</g>
</g>
</g>
</svg>
