<?xml version="1.0" encoding="UTF-8" standalone="no"?>
<!DOCTYPE svg PUBLIC "-//W3C//DTD SVG 1.1//EN"
 "http://www.w3.org/Graphics/SVG/1.1/DTD/svg11.dtd">
<!-- Generated by graphviz version 2.43.0 (0)
 -->
<!-- Title: libfvMeshTopoChangers/applications/utilities/parallelProcessing/reconstructParMesh3D/reconstructParMesh3D.C Pages: 1 -->
<svg width="1906pt" height="126pt"
 viewBox="0.00 0.00 1906.00 126.00" xmlns="http://www.w3.org/2000/svg" xmlns:xlink="http://www.w3.org/1999/xlink">
<g id="graph0" class="graph" transform="scale(1 1) rotate(0) translate(4 122)">
<title>libfvMeshTopoChangers/applications/utilities/parallelProcessing/reconstructParMesh3D/reconstructParMesh3D.C</title>
<!-- Node1 -->
<g id="Node000001" class="node">
<title>Node1</title>
<g id="a_Node000001"><a xlink:title=" ">
<polygon fill="#999999" stroke="#666666" points="990,-118 808,-118 808,-66 990,-66 990,-118"/>
<text text-anchor="start" x="816" y="-106" font-family="Helvetica,sans-Serif" font-size="10.00">libfvMeshTopoChangers</text>
<text text-anchor="start" x="816" y="-95" font-family="Helvetica,sans-Serif" font-size="10.00">/applications/utilities</text>
<text text-anchor="start" x="816" y="-84" font-family="Helvetica,sans-Serif" font-size="10.00">/parallelProcessing/reconstruct</text>
<text text-anchor="middle" x="899" y="-73" font-family="Helvetica,sans-Serif" font-size="10.00">ParMesh3D/reconstructParMesh3D.C</text>
</a>
</g>
</g>
<!-- Node2 -->
<g id="Node000002" class="node">
<title>Node2</title>
<g id="a_Node000002"><a xlink:title=" ">
<polygon fill="#e0e0e0" stroke="#999999" points="56,-24.5 0,-24.5 0,-5.5 56,-5.5 56,-24.5"/>
<text text-anchor="middle" x="28" y="-12.5" font-family="Helvetica,sans-Serif" font-size="10.00">argList.H</text>
</a>
</g>
</g>
<!-- Node1&#45;&gt;Node2 -->
<g id="edge1_Node000001_Node000002" class="edge">
<title>Node1&#45;&gt;Node2</title>
<g id="a_edge1_Node000001_Node000002"><a xlink:title=" ">
<path fill="none" stroke="#63b8ff" d="M807.71,-87.65C621.65,-80.26 204.37,-60.78 65,-30 62.48,-29.44 59.9,-28.75 57.33,-27.97"/>
<polygon fill="#63b8ff" stroke="#63b8ff" points="58.24,-24.58 47.65,-24.64 55.97,-31.2 58.24,-24.58"/>
</a>
</g>
</g>
<!-- Node3 -->
<g id="Node000003" class="node">
<title>Node3</title>
<g id="a_Node000003"><a xlink:title=" ">
<polygon fill="#e0e0e0" stroke="#999999" points="155.5,-24.5 74.5,-24.5 74.5,-5.5 155.5,-5.5 155.5,-24.5"/>
<text text-anchor="middle" x="115" y="-12.5" font-family="Helvetica,sans-Serif" font-size="10.00">timeSelector.H</text>
</a>
</g>
</g>
<!-- Node1&#45;&gt;Node3 -->
<g id="edge2_Node000001_Node000003" class="edge">
<title>Node1&#45;&gt;Node3</title>
<g id="a_edge2_Node000001_Node000003"><a xlink:title=" ">
<path fill="none" stroke="#63b8ff" d="M807.88,-88.98C668.41,-84.65 394.05,-71.2 165,-30 160.59,-29.21 156.01,-28.19 151.48,-27.08"/>
<polygon fill="#63b8ff" stroke="#63b8ff" points="152.33,-23.68 141.77,-24.51 150.54,-30.45 152.33,-23.68"/>
</a>
</g>
</g>
<!-- Node4 -->
<g id="Node000004" class="node">
<title>Node4</title>
<g id="a_Node000004"><a xlink:title=" ">
<polygon fill="#e0e0e0" stroke="#999999" points="254,-24.5 174,-24.5 174,-5.5 254,-5.5 254,-24.5"/>
<text text-anchor="middle" x="214" y="-12.5" font-family="Helvetica,sans-Serif" font-size="10.00">IOobjectList.H</text>
</a>
</g>
</g>
<!-- Node1&#45;&gt;Node4 -->
<g id="edge3_Node000001_Node000004" class="edge">
<title>Node1&#45;&gt;Node4</title>
<g id="a_edge3_Node000001_Node000004"><a xlink:title=" ">
<path fill="none" stroke="#63b8ff" d="M807.95,-87.5C683.82,-81.53 454.96,-66.31 263,-30 258.84,-29.21 254.53,-28.23 250.26,-27.16"/>
<polygon fill="#63b8ff" stroke="#63b8ff" points="251.06,-23.75 240.49,-24.52 249.24,-30.51 251.06,-23.75"/>
</a>
</g>
</g>
<!-- Node5 -->
<g id="Node000005" class="node">
<title>Node5</title>
<g id="a_Node000005"><a xlink:title=" ">
<polygon fill="#e0e0e0" stroke="#999999" points="346,-24.5 272,-24.5 272,-5.5 346,-5.5 346,-24.5"/>
<text text-anchor="middle" x="309" y="-12.5" font-family="Helvetica,sans-Serif" font-size="10.00">labelIOList.H</text>
</a>
</g>
</g>
<!-- Node1&#45;&gt;Node5 -->
<g id="edge4_Node000001_Node000005" class="edge">
<title>Node1&#45;&gt;Node5</title>
<g id="a_edge4_Node000001_Node000005"><a xlink:title=" ">
<path fill="none" stroke="#63b8ff" d="M807.72,-85.9C698.99,-78.65 512.3,-62.47 355,-30 351.35,-29.25 347.58,-28.33 343.83,-27.33"/>
<polygon fill="#63b8ff" stroke="#63b8ff" points="344.67,-23.93 334.09,-24.55 342.74,-30.66 344.67,-23.93"/>
</a>
</g>
</g>
<!-- Node6 -->
<g id="Node000006" class="node">
<title>Node6</title>
<g id="a_Node000006"><a xlink:title=" ">
<polygon fill="#e0e0e0" stroke="#999999" points="479.5,-24.5 364.5,-24.5 364.5,-5.5 479.5,-5.5 479.5,-24.5"/>
<text text-anchor="middle" x="422" y="-12.5" font-family="Helvetica,sans-Serif" font-size="10.00">processorPolyPatch.H</text>
</a>
</g>
</g>
<!-- Node1&#45;&gt;Node6 -->
<g id="edge5_Node000001_Node000006" class="edge">
<title>Node1&#45;&gt;Node6</title>
<g id="a_edge5_Node000001_Node000006"><a xlink:title=" ">
<path fill="none" stroke="#63b8ff" d="M807.73,-79.1C724.27,-67.82 597.51,-49.72 488,-30 482.24,-28.96 476.21,-27.8 470.24,-26.59"/>
<polygon fill="#63b8ff" stroke="#63b8ff" points="470.81,-23.14 460.31,-24.54 469.4,-29.99 470.81,-23.14"/>
</a>
</g>
</g>
<!-- Node7 -->
<g id="Node000007" class="node">
<title>Node7</title>
<g id="a_Node000007"><a xlink:title=" ">
<polygon fill="#e0e0e0" stroke="#999999" points="614.5,-24.5 497.5,-24.5 497.5,-5.5 614.5,-5.5 614.5,-24.5"/>
<text text-anchor="middle" x="556" y="-12.5" font-family="Helvetica,sans-Serif" font-size="10.00">mapAddedPolyMesh.H</text>
</a>
</g>
</g>
<!-- Node1&#45;&gt;Node7 -->
<g id="edge6_Node000001_Node000007" class="edge">
<title>Node1&#45;&gt;Node7</title>
<g id="a_edge6_Node000001_Node000007"><a xlink:title=" ">
<path fill="none" stroke="#63b8ff" d="M807.98,-71.1C742.91,-56.87 657.85,-38.27 605.08,-26.73"/>
<polygon fill="#63b8ff" stroke="#63b8ff" points="605.81,-23.31 595.3,-24.59 604.32,-30.15 605.81,-23.31"/>
</a>
</g>
</g>
<!-- Node8 -->
<g id="Node000008" class="node">
<title>Node8</title>
<g id="a_Node000008"><a xlink:title=" ">
<polygon fill="#e0e0e0" stroke="#999999" points="727,-24.5 633,-24.5 633,-5.5 727,-5.5 727,-24.5"/>
<text text-anchor="middle" x="680" y="-12.5" font-family="Helvetica,sans-Serif" font-size="10.00">polyMeshAdder.H</text>
</a>
</g>
</g>
<!-- Node1&#45;&gt;Node8 -->
<g id="edge7_Node000001_Node000008" class="edge">
<title>Node1&#45;&gt;Node8</title>
<g id="a_edge7_Node000001_Node000008"><a xlink:title=" ">
<path fill="none" stroke="#63b8ff" d="M825.77,-65.92C788.23,-53.07 744.29,-38.02 714.54,-27.83"/>
<polygon fill="#63b8ff" stroke="#63b8ff" points="715.62,-24.5 705.02,-24.57 713.35,-31.12 715.62,-24.5"/>
</a>
</g>
</g>
<!-- Node9 -->
<g id="Node000009" class="node">
<title>Node9</title>
<g id="a_Node000009"><a xlink:title=" ">
<polygon fill="#e0e0e0" stroke="#999999" points="838.5,-24.5 745.5,-24.5 745.5,-5.5 838.5,-5.5 838.5,-24.5"/>
<text text-anchor="middle" x="792" y="-12.5" font-family="Helvetica,sans-Serif" font-size="10.00">faceCoupleInfo.H</text>
</a>
</g>
</g>
<!-- Node1&#45;&gt;Node9 -->
<g id="edge8_Node000001_Node000009" class="edge">
<title>Node1&#45;&gt;Node9</title>
<g id="a_edge8_Node000001_Node000009"><a xlink:title=" ">
<path fill="none" stroke="#63b8ff" d="M863.07,-65.82C846.34,-54.09 827.03,-40.55 812.76,-30.55"/>
<polygon fill="#63b8ff" stroke="#63b8ff" points="814.39,-27.42 804.19,-24.54 810.37,-33.15 814.39,-27.42"/>
</a>
</g>
</g>
<!-- Node10 -->
<g id="Node000010" class="node">
<title>Node10</title>
<g id="a_Node000010"><a xlink:title=" ">
<polygon fill="#e0e0e0" stroke="#999999" points="941,-24.5 857,-24.5 857,-5.5 941,-5.5 941,-24.5"/>
<text text-anchor="middle" x="899" y="-12.5" font-family="Helvetica,sans-Serif" font-size="10.00">fvMeshAdder.H</text>
</a>
</g>
</g>
<!-- Node1&#45;&gt;Node10 -->
<g id="edge9_Node000001_Node000010" class="edge">
<title>Node1&#45;&gt;Node10</title>
<g id="a_edge9_Node000001_Node000010"><a xlink:title=" ">
<path fill="none" stroke="#63b8ff" d="M899,-65.61C899,-55.58 899,-44.25 899,-34.96"/>
<polygon fill="#63b8ff" stroke="#63b8ff" points="902.5,-34.85 899,-24.85 895.5,-34.85 902.5,-34.85"/>
</a>
</g>
</g>
<!-- Node11 -->
<g id="Node000011" class="node">
<title>Node11</title>
<g id="a_Node000011"><a xlink:title=" ">
<polygon fill="#e0e0e0" stroke="#999999" points="1059,-24.5 959,-24.5 959,-5.5 1059,-5.5 1059,-24.5"/>
<text text-anchor="middle" x="1009" y="-12.5" font-family="Helvetica,sans-Serif" font-size="10.00">polyTopoChange.H</text>
</a>
</g>
</g>
<!-- Node1&#45;&gt;Node11 -->
<g id="edge10_Node000001_Node000011" class="edge">
<title>Node1&#45;&gt;Node11</title>
<g id="a_edge10_Node000001_Node000011"><a xlink:title=" ">
<path fill="none" stroke="#63b8ff" d="M935.93,-65.82C953.3,-53.98 973.37,-40.29 988.08,-30.27"/>
<polygon fill="#63b8ff" stroke="#63b8ff" points="990.18,-33.07 996.47,-24.54 986.23,-27.29 990.18,-33.07"/>
</a>
</g>
</g>
<!-- Node12 -->
<g id="Node000012" class="node">
<title>Node12</title>
<g id="a_Node000012"><a xlink:title=" ">
<polygon fill="#e0e0e0" stroke="#999999" points="1205,-30 1077,-30 1077,0 1205,0 1205,-30"/>
<text text-anchor="start" x="1085" y="-18" font-family="Helvetica,sans-Serif" font-size="10.00">extrapolatedCalculatedFv</text>
<text text-anchor="middle" x="1141" y="-7" font-family="Helvetica,sans-Serif" font-size="10.00">PatchFields.H</text>
</a>
</g>
</g>
<!-- Node1&#45;&gt;Node12 -->
<g id="edge11_Node000001_Node000012" class="edge">
<title>Node1&#45;&gt;Node12</title>
<g id="a_edge11_Node000001_Node000012"><a xlink:title=" ">
<path fill="none" stroke="#63b8ff" d="M979.92,-65.92C1014.76,-55.12 1054.6,-42.78 1085.94,-33.06"/>
<polygon fill="#63b8ff" stroke="#63b8ff" points="1087.28,-36.31 1095.8,-30.01 1085.21,-29.63 1087.28,-36.31"/>
</a>
</g>
</g>
<!-- Node13 -->
<g id="Node000013" class="node">
<title>Node13</title>
<g id="a_Node000013"><a xlink:title=" ">
<polygon fill="#e0e0e0" stroke="#999999" points="1321,-24.5 1223,-24.5 1223,-5.5 1321,-5.5 1321,-24.5"/>
<text text-anchor="middle" x="1272" y="-12.5" font-family="Helvetica,sans-Serif" font-size="10.00">regionProperties.H</text>
</a>
</g>
</g>
<!-- Node1&#45;&gt;Node13 -->
<g id="edge12_Node000001_Node000013" class="edge">
<title>Node1&#45;&gt;Node13</title>
<g id="a_edge12_Node000001_Node000013"><a xlink:title=" ">
<path fill="none" stroke="#63b8ff" d="M990.2,-74.48C1053.22,-62.78 1138.88,-46.33 1214,-30 1218.45,-29.03 1223.08,-27.99 1227.69,-26.91"/>
<polygon fill="#63b8ff" stroke="#63b8ff" points="1228.78,-30.25 1237.71,-24.55 1227.17,-23.44 1228.78,-30.25"/>
</a>
</g>
</g>
<!-- Node14 -->
<g id="Node000014" class="node">
<title>Node14</title>
<g id="a_Node000014"><a xlink:title=" ">
<polygon fill="#e0e0e0" stroke="#999999" points="1442.5,-24.5 1339.5,-24.5 1339.5,-5.5 1442.5,-5.5 1442.5,-24.5"/>
<text text-anchor="middle" x="1391" y="-12.5" font-family="Helvetica,sans-Serif" font-size="10.00">refinementHistory.H</text>
</a>
</g>
</g>
<!-- Node1&#45;&gt;Node14 -->
<g id="edge13_Node000001_Node000014" class="edge">
<title>Node1&#45;&gt;Node14</title>
<g id="a_edge13_Node000001_Node000014"><a xlink:title=" ">
<path fill="none" stroke="#63b8ff" d="M990.17,-80.38C1077.66,-69.65 1213.34,-51.6 1330,-30 1335.34,-29.01 1340.92,-27.87 1346.45,-26.68"/>
<polygon fill="#63b8ff" stroke="#63b8ff" points="1347.26,-30.09 1356.27,-24.51 1345.75,-23.26 1347.26,-30.09"/>
</a>
</g>
</g>
<!-- Node15 -->
<g id="Node000015" class="node">
<title>Node15</title>
<g id="a_Node000015"><a xlink:title=" ">
<polygon fill="#e0e0e0" stroke="#999999" points="1563,-24.5 1461,-24.5 1461,-5.5 1563,-5.5 1563,-24.5"/>
<text text-anchor="middle" x="1512" y="-12.5" font-family="Helvetica,sans-Serif" font-size="10.00">addRegionOption.H</text>
</a>
</g>
</g>
<!-- Node1&#45;&gt;Node15 -->
<g id="edge14_Node000001_Node000015" class="edge">
<title>Node1&#45;&gt;Node15</title>
<g id="a_edge14_Node000001_Node000015"><a xlink:title=" ">
<path fill="none" stroke="#63b8ff" d="M990.47,-84.28C1100.52,-75.41 1290.63,-57.63 1452,-30 1457.4,-29.07 1463.05,-27.96 1468.62,-26.77"/>
<polygon fill="#63b8ff" stroke="#63b8ff" points="1469.51,-30.15 1478.51,-24.56 1467.98,-23.32 1469.51,-30.15"/>
</a>
</g>
</g>
<!-- Node16 -->
<g id="Node000016" class="node">
<title>Node16</title>
<g id="a_Node000016"><a xlink:title=" ">
<polygon fill="#e0e0e0" stroke="#999999" points="1700.5,-24.5 1581.5,-24.5 1581.5,-5.5 1700.5,-5.5 1700.5,-24.5"/>
<text text-anchor="middle" x="1641" y="-12.5" font-family="Helvetica,sans-Serif" font-size="10.00">addAllRegionsOption.H</text>
</a>
</g>
</g>
<!-- Node1&#45;&gt;Node16 -->
<g id="edge15_Node000001_Node000016" class="edge">
<title>Node1&#45;&gt;Node16</title>
<g id="a_edge15_Node000001_Node000016"><a xlink:title=" ">
<path fill="none" stroke="#63b8ff" d="M990.27,-85.92C1120.03,-77.96 1365.08,-60.28 1572,-30 1578.74,-29.01 1585.82,-27.79 1592.77,-26.49"/>
<polygon fill="#63b8ff" stroke="#63b8ff" points="1593.66,-29.88 1602.81,-24.53 1592.32,-23.01 1593.66,-29.88"/>
</a>
</g>
</g>
<!-- Node17 -->
<g id="Node000017" class="node">
<title>Node17</title>
<g id="a_Node000017"><a xlink:title=" ">
<polygon fill="#e0e0e0" stroke="#999999" points="1803.5,-24.5 1718.5,-24.5 1718.5,-5.5 1803.5,-5.5 1803.5,-24.5"/>
<text text-anchor="middle" x="1761" y="-12.5" font-family="Helvetica,sans-Serif" font-size="10.00">setRootCase.H</text>
</a>
</g>
</g>
<!-- Node1&#45;&gt;Node17 -->
<g id="edge16_Node000001_Node000017" class="edge">
<title>Node1&#45;&gt;Node17</title>
<g id="a_edge16_Node000001_Node000017"><a xlink:title=" ">
<path fill="none" stroke="#63b8ff" d="M990.01,-89.86C1140.78,-86.7 1451.4,-74.79 1710,-30 1714.5,-29.22 1719.17,-28.22 1723.79,-27.1"/>
<polygon fill="#63b8ff" stroke="#63b8ff" points="1724.89,-30.43 1733.69,-24.54 1723.13,-23.66 1724.89,-30.43"/>
</a>
</g>
</g>
<!-- Node18 -->
<g id="Node000018" class="node">
<title>Node18</title>
<g id="a_Node000018"><a xlink:title=" ">
<polygon fill="#e0e0e0" stroke="#999999" points="1898,-24.5 1822,-24.5 1822,-5.5 1898,-5.5 1898,-24.5"/>
<text text-anchor="middle" x="1860" y="-12.5" font-family="Helvetica,sans-Serif" font-size="10.00">createTime.H</text>
</a>
</g>
</g>
<!-- Node1&#45;&gt;Node18 -->
<g id="edge17_Node000001_Node000018" class="edge">
<title>Node1&#45;&gt;Node18</title>
<g id="a_edge17_Node000001_Node000018"><a xlink:title=" ">
<path fill="none" stroke="#63b8ff" d="M990.3,-91.6C1155.72,-91.21 1515.42,-83.56 1813,-30 1816.94,-29.29 1821.02,-28.37 1825.05,-27.34"/>
<polygon fill="#63b8ff" stroke="#63b8ff" points="1826.19,-30.66 1834.88,-24.61 1824.31,-23.91 1826.19,-30.66"/>
</a>
</g>
</g>
</g>
</svg>
