<?xml version="1.0" encoding="UTF-8" standalone="no"?>
<!DOCTYPE svg PUBLIC "-//W3C//DTD SVG 1.1//EN"
 "http://www.w3.org/Graphics/SVG/1.1/DTD/svg11.dtd">
<!-- Generated by graphviz version 2.43.0 (0)
 -->
<!-- Title: libfvMeshTopoChangers/libfvMeshTopoChangers2D/parallel/decompose/decompositionMethods/decompositionConstraints/refinementHistory/refinementHistory4Constraint.C Pages: 1 -->
<svg width="787pt" height="181pt"
 viewBox="0.00 0.00 786.50 181.00" xmlns="http://www.w3.org/2000/svg" xmlns:xlink="http://www.w3.org/1999/xlink">
<g id="graph0" class="graph" transform="scale(1 1) rotate(0) translate(4 177)">
<title>libfvMeshTopoChangers/libfvMeshTopoChangers2D/parallel/decompose/decompositionMethods/decompositionConstraints/refinementHistory/refinementHistory4Constraint.C</title>
<!-- Node1 -->
<g id="Node000001" class="node">
<title>Node1</title>
<g id="a_Node000001"><a xlink:title=" ">
<polygon fill="#999999" stroke="#666666" points="436.5,-173 198.5,-173 198.5,-110 436.5,-110 436.5,-173"/>
<text text-anchor="start" x="206.5" y="-161" font-family="Helvetica,sans-Serif" font-size="10.00">libfvMeshTopoChangers</text>
<text text-anchor="start" x="206.5" y="-150" font-family="Helvetica,sans-Serif" font-size="10.00">/libfvMeshTopoChangers2D</text>
<text text-anchor="start" x="206.5" y="-139" font-family="Helvetica,sans-Serif" font-size="10.00">/parallel/decompose/decomposition</text>
<text text-anchor="start" x="206.5" y="-128" font-family="Helvetica,sans-Serif" font-size="10.00">Methods/decompositionConstraints</text>
<text text-anchor="middle" x="317.5" y="-117" font-family="Helvetica,sans-Serif" font-size="10.00">/refinementHistory/refinementHistory4Constraint.C</text>
</a>
</g>
</g>
<!-- Node2 -->
<g id="Node000002" class="node">
<title>Node2</title>
<g id="a_Node000002"><a xlink:href="refinementHistory4Constraint_8H.html" target="_top" xlink:title=" ">
<polygon fill="white" stroke="#666666" points="155,-74 0,-74 0,-55 155,-55 155,-74"/>
<text text-anchor="middle" x="77.5" y="-62" font-family="Helvetica,sans-Serif" font-size="10.00">refinementHistory4Constraint.H</text>
</a>
</g>
</g>
<!-- Node1&#45;&gt;Node2 -->
<g id="edge1_Node000001_Node000002" class="edge">
<title>Node1&#45;&gt;Node2</title>
<g id="a_edge1_Node000001_Node000002"><a xlink:title=" ">
<path fill="none" stroke="#63b8ff" d="M219.88,-109.99C182.78,-98.4 142.72,-85.88 114.57,-77.08"/>
<polygon fill="#63b8ff" stroke="#63b8ff" points="115.36,-73.66 104.77,-74.02 113.27,-80.34 115.36,-73.66"/>
</a>
</g>
</g>
<!-- Node4 -->
<g id="Node000004" class="node">
<title>Node4</title>
<g id="a_Node000004"><a xlink:title=" ">
<polygon fill="#e0e0e0" stroke="#999999" points="330,-74 173,-74 173,-55 330,-55 330,-74"/>
<text text-anchor="middle" x="251.5" y="-62" font-family="Helvetica,sans-Serif" font-size="10.00">addToRunTimeSelectionTable.H</text>
</a>
</g>
</g>
<!-- Node1&#45;&gt;Node4 -->
<g id="edge3_Node000001_Node000004" class="edge">
<title>Node1&#45;&gt;Node4</title>
<g id="a_edge3_Node000001_Node000004"><a xlink:title=" ">
<path fill="none" stroke="#63b8ff" d="M290.66,-109.99C282.18,-100.36 273.14,-90.09 265.89,-81.85"/>
<polygon fill="#63b8ff" stroke="#63b8ff" points="268.3,-79.3 259.07,-74.1 263.05,-83.92 268.3,-79.3"/>
</a>
</g>
</g>
<!-- Node5 -->
<g id="Node000005" class="node">
<title>Node5</title>
<g id="a_Node000005"><a xlink:title=" ">
<polygon fill="#e0e0e0" stroke="#999999" points="419,-74 348,-74 348,-55 419,-55 419,-74"/>
<text text-anchor="middle" x="383.5" y="-62" font-family="Helvetica,sans-Serif" font-size="10.00">syncTools.H</text>
</a>
</g>
</g>
<!-- Node1&#45;&gt;Node5 -->
<g id="edge4_Node000001_Node000005" class="edge">
<title>Node1&#45;&gt;Node5</title>
<g id="a_edge4_Node000001_Node000005"><a xlink:title=" ">
<path fill="none" stroke="#63b8ff" d="M344.34,-109.99C352.82,-100.36 361.86,-90.09 369.11,-81.85"/>
<polygon fill="#63b8ff" stroke="#63b8ff" points="371.95,-83.92 375.93,-74.1 366.7,-79.3 371.95,-83.92"/>
</a>
</g>
</g>
<!-- Node6 -->
<g id="Node000006" class="node">
<title>Node6</title>
<g id="a_Node000006"><a xlink:href="refinementHistory4_8H.html" target="_top" xlink:title=" ">
<polygon fill="white" stroke="#666666" points="547.5,-74 437.5,-74 437.5,-55 547.5,-55 547.5,-74"/>
<text text-anchor="middle" x="492.5" y="-62" font-family="Helvetica,sans-Serif" font-size="10.00">refinementHistory4.H</text>
</a>
</g>
</g>
<!-- Node1&#45;&gt;Node6 -->
<g id="edge5_Node000001_Node000006" class="edge">
<title>Node1&#45;&gt;Node6</title>
<g id="a_edge5_Node000001_Node000006"><a xlink:title=" ">
<path fill="none" stroke="#63b8ff" d="M388.68,-109.99C414.7,-98.84 442.72,-86.83 463.09,-78.11"/>
<polygon fill="#63b8ff" stroke="#63b8ff" points="464.61,-81.26 472.43,-74.1 461.86,-74.83 464.61,-81.26"/>
</a>
</g>
</g>
<!-- Node3 -->
<g id="Node000003" class="node">
<title>Node3</title>
<g id="a_Node000003"><a xlink:title=" ">
<polygon fill="#e0e0e0" stroke="#999999" points="145,-19 10,-19 10,0 145,0 145,-19"/>
<text text-anchor="middle" x="77.5" y="-7" font-family="Helvetica,sans-Serif" font-size="10.00">decompositionConstraint.H</text>
</a>
</g>
</g>
<!-- Node2&#45;&gt;Node3 -->
<g id="edge2_Node000002_Node000003" class="edge">
<title>Node2&#45;&gt;Node3</title>
<g id="a_edge2_Node000002_Node000003"><a xlink:title=" ">
<path fill="none" stroke="#63b8ff" d="M77.5,-54.75C77.5,-47.8 77.5,-37.85 77.5,-29.13"/>
<polygon fill="#63b8ff" stroke="#63b8ff" points="81,-29.09 77.5,-19.09 74,-29.09 81,-29.09"/>
</a>
</g>
</g>
<!-- Node7 -->
<g id="Node000007" class="node">
<title>Node7</title>
<g id="a_Node000007"><a xlink:title=" ">
<polygon fill="#e0e0e0" stroke="#999999" points="278.5,-19 196.5,-19 196.5,0 278.5,0 278.5,-19"/>
<text text-anchor="middle" x="237.5" y="-7" font-family="Helvetica,sans-Serif" font-size="10.00">DynamicList.H</text>
</a>
</g>
</g>
<!-- Node6&#45;&gt;Node7 -->
<g id="edge6_Node000006_Node000007" class="edge">
<title>Node6&#45;&gt;Node7</title>
<g id="a_edge6_Node000006_Node000007"><a xlink:title=" ">
<path fill="none" stroke="#63b8ff" d="M451.53,-54.98C407.24,-45.78 336.56,-31.09 288.65,-21.13"/>
<polygon fill="#63b8ff" stroke="#63b8ff" points="289.29,-17.69 278.79,-19.08 287.87,-24.54 289.29,-17.69"/>
</a>
</g>
</g>
<!-- Node8 -->
<g id="Node000008" class="node">
<title>Node8</title>
<g id="a_Node000008"><a xlink:title=" ">
<polygon fill="#e0e0e0" stroke="#999999" points="360,-19 297,-19 297,0 360,0 360,-19"/>
<text text-anchor="middle" x="328.5" y="-7" font-family="Helvetica,sans-Serif" font-size="10.00">labelList.H</text>
</a>
</g>
</g>
<!-- Node6&#45;&gt;Node8 -->
<g id="edge7_Node000006_Node000008" class="edge">
<title>Node6&#45;&gt;Node8</title>
<g id="a_edge7_Node000006_Node000008"><a xlink:title=" ">
<path fill="none" stroke="#63b8ff" d="M466.15,-54.98C438.74,-46.13 395.61,-32.19 364.94,-22.28"/>
<polygon fill="#63b8ff" stroke="#63b8ff" points="365.65,-18.83 355.06,-19.08 363.5,-25.49 365.65,-18.83"/>
</a>
</g>
</g>
<!-- Node9 -->
<g id="Node000009" class="node">
<title>Node9</title>
<g id="a_Node000009"><a xlink:title=" ">
<polygon fill="#e0e0e0" stroke="#999999" points="445,-19 378,-19 378,0 445,0 445,-19"/>
<text text-anchor="middle" x="411.5" y="-7" font-family="Helvetica,sans-Serif" font-size="10.00">FixedList.H</text>
</a>
</g>
</g>
<!-- Node6&#45;&gt;Node9 -->
<g id="edge8_Node000006_Node000009" class="edge">
<title>Node6&#45;&gt;Node9</title>
<g id="a_edge8_Node000006_Node000009"><a xlink:title=" ">
<path fill="none" stroke="#63b8ff" d="M479.49,-54.98C467.04,-46.84 448.04,-34.41 433.29,-24.76"/>
<polygon fill="#63b8ff" stroke="#63b8ff" points="435.04,-21.72 424.75,-19.17 431.2,-27.57 435.04,-21.72"/>
</a>
</g>
</g>
<!-- Node10 -->
<g id="Node000010" class="node">
<title>Node10</title>
<g id="a_Node000010"><a xlink:title=" ">
<polygon fill="#e0e0e0" stroke="#999999" points="521.5,-19 463.5,-19 463.5,0 521.5,0 521.5,-19"/>
<text text-anchor="middle" x="492.5" y="-7" font-family="Helvetica,sans-Serif" font-size="10.00">autoPtr.H</text>
</a>
</g>
</g>
<!-- Node6&#45;&gt;Node10 -->
<g id="edge9_Node000006_Node000010" class="edge">
<title>Node6&#45;&gt;Node10</title>
<g id="a_edge9_Node000006_Node000010"><a xlink:title=" ">
<path fill="none" stroke="#63b8ff" d="M492.5,-54.75C492.5,-47.8 492.5,-37.85 492.5,-29.13"/>
<polygon fill="#63b8ff" stroke="#63b8ff" points="496,-29.09 492.5,-19.09 489,-29.09 496,-29.09"/>
</a>
</g>
</g>
<!-- Node11 -->
<g id="Node000011" class="node">
<title>Node11</title>
<g id="a_Node000011"><a xlink:title=" ">
<polygon fill="#e0e0e0" stroke="#999999" points="617,-19 540,-19 540,0 617,0 617,-19"/>
<text text-anchor="middle" x="578.5" y="-7" font-family="Helvetica,sans-Serif" font-size="10.00">regIOobject.H</text>
</a>
</g>
</g>
<!-- Node6&#45;&gt;Node11 -->
<g id="edge10_Node000006_Node000011" class="edge">
<title>Node6&#45;&gt;Node11</title>
<g id="a_edge10_Node000006_Node000011"><a xlink:title=" ">
<path fill="none" stroke="#63b8ff" d="M506.32,-54.98C519.65,-46.77 540.08,-34.18 555.81,-24.49"/>
<polygon fill="#63b8ff" stroke="#63b8ff" points="557.75,-27.4 564.43,-19.17 554.08,-21.44 557.75,-27.4"/>
</a>
</g>
</g>
<!-- Node12 -->
<g id="Node000012" class="node">
<title>Node12</title>
<g id="a_Node000012"><a xlink:title=" ">
<polygon fill="#e0e0e0" stroke="#999999" points="696,-19 635,-19 635,0 696,0 696,-19"/>
<text text-anchor="middle" x="665.5" y="-7" font-family="Helvetica,sans-Serif" font-size="10.00">boolList.H</text>
</a>
</g>
</g>
<!-- Node6&#45;&gt;Node12 -->
<g id="edge11_Node000006_Node000012" class="edge">
<title>Node6&#45;&gt;Node12</title>
<g id="a_edge11_Node000006_Node000012"><a xlink:title=" ">
<path fill="none" stroke="#63b8ff" d="M520.3,-54.98C549.47,-46.05 595.5,-31.94 627.9,-22.02"/>
<polygon fill="#63b8ff" stroke="#63b8ff" points="628.95,-25.36 637.49,-19.08 626.9,-18.66 628.95,-25.36"/>
</a>
</g>
</g>
<!-- Node13 -->
<g id="Node000013" class="node">
<title>Node13</title>
<g id="a_Node000013"><a xlink:title=" ">
<polygon fill="#e0e0e0" stroke="#999999" points="778.5,-19 714.5,-19 714.5,0 778.5,0 778.5,-19"/>
<text text-anchor="middle" x="746.5" y="-7" font-family="Helvetica,sans-Serif" font-size="10.00">labelPair.H</text>
</a>
</g>
</g>
<!-- Node6&#45;&gt;Node13 -->
<g id="edge12_Node000006_Node000013" class="edge">
<title>Node6&#45;&gt;Node13</title>
<g id="a_edge12_Node000006_Node000013"><a xlink:title=" ">
<path fill="none" stroke="#63b8ff" d="M533.31,-54.98C580.21,-45.2 656.81,-29.21 704.29,-19.31"/>
<polygon fill="#63b8ff" stroke="#63b8ff" points="705.18,-22.7 714.25,-17.23 703.75,-15.85 705.18,-22.7"/>
</a>
</g>
</g>
</g>
</svg>
