<?xml version="1.0" encoding="UTF-8" standalone="no"?>
<!DOCTYPE svg PUBLIC "-//W3C//DTD SVG 1.1//EN"
 "http://www.w3.org/Graphics/SVG/1.1/DTD/svg11.dtd">
<!-- Generated by graphviz version 2.43.0 (0)
 -->
<!-- Title: libfvMeshTopoChangers/libfvMeshTopoChangers2D/dynamicMesh/polyTopoChange/polyTopoChange/hexRef4/refinementHistory4.H Pages: 1 -->
<svg width="1302pt" height="335pt"
 viewBox="0.00 0.00 1301.50 335.00" xmlns="http://www.w3.org/2000/svg" xmlns:xlink="http://www.w3.org/1999/xlink">
<g id="graph0" class="graph" transform="scale(1 1) rotate(0) translate(4 331)">
<title>libfvMeshTopoChangers/libfvMeshTopoChangers2D/dynamicMesh/polyTopoChange/polyTopoChange/hexRef4/refinementHistory4.H</title>
<!-- Node1 -->
<g id="Node000001" class="node">
<title>Node1</title>
<g id="a_Node000001"><a xlink:title=" ">
<polygon fill="#999999" stroke="#666666" points="697.5,-327 469.5,-327 469.5,-275 697.5,-275 697.5,-327"/>
<text text-anchor="start" x="477.5" y="-315" font-family="Helvetica,sans-Serif" font-size="10.00">libfvMeshTopoChangers</text>
<text text-anchor="start" x="477.5" y="-304" font-family="Helvetica,sans-Serif" font-size="10.00">/libfvMeshTopoChangers2D</text>
<text text-anchor="start" x="477.5" y="-293" font-family="Helvetica,sans-Serif" font-size="10.00">/dynamicMesh/polyTopoChange</text>
<text text-anchor="middle" x="583.5" y="-282" font-family="Helvetica,sans-Serif" font-size="10.00">/polyTopoChange/hexRef4/refinementHistory4.H</text>
</a>
</g>
</g>
<!-- Node2 -->
<g id="Node000002" class="node">
<title>Node2</title>
<g id="a_Node000002"><a xlink:href="decomposeParMesh2D_8C.html" target="_top" xlink:title=" ">
<polygon fill="white" stroke="#666666" points="169,-233.5 0,-233.5 0,-181.5 169,-181.5 169,-233.5"/>
<text text-anchor="start" x="8" y="-221.5" font-family="Helvetica,sans-Serif" font-size="10.00">libfvMeshTopoChangers</text>
<text text-anchor="start" x="8" y="-210.5" font-family="Helvetica,sans-Serif" font-size="10.00">/applications/utilities</text>
<text text-anchor="start" x="8" y="-199.5" font-family="Helvetica,sans-Serif" font-size="10.00">/parallelProcessing/decomposePar</text>
<text text-anchor="middle" x="84.5" y="-188.5" font-family="Helvetica,sans-Serif" font-size="10.00">Mesh2D/decomposeParMesh2D.C</text>
</a>
</g>
</g>
<!-- Node1&#45;&gt;Node2 -->
<g id="edge1_Node000001_Node000002" class="edge">
<title>Node1&#45;&gt;Node2</title>
<g id="a_edge1_Node000001_Node000002"><a xlink:title=" ">
<path fill="none" stroke="#63b8ff" d="M458.88,-286.6C378.26,-276.62 271.42,-260.91 178.5,-239 171.74,-237.4 164.76,-235.55 157.81,-233.56"/>
<polygon fill="#63b8ff" stroke="#63b8ff" points="458.72,-290.11 469.07,-287.85 459.57,-283.16 458.72,-290.11"/>
</a>
</g>
</g>
<!-- Node3 -->
<g id="Node000003" class="node">
<title>Node3</title>
<g id="a_Node000003"><a xlink:href="reconstructParMesh2D_8C.html" target="_top" xlink:title=" ">
<polygon fill="white" stroke="#666666" points="369.5,-233.5 187.5,-233.5 187.5,-181.5 369.5,-181.5 369.5,-233.5"/>
<text text-anchor="start" x="195.5" y="-221.5" font-family="Helvetica,sans-Serif" font-size="10.00">libfvMeshTopoChangers</text>
<text text-anchor="start" x="195.5" y="-210.5" font-family="Helvetica,sans-Serif" font-size="10.00">/applications/utilities</text>
<text text-anchor="start" x="195.5" y="-199.5" font-family="Helvetica,sans-Serif" font-size="10.00">/parallelProcessing/reconstruct</text>
<text text-anchor="middle" x="278.5" y="-188.5" font-family="Helvetica,sans-Serif" font-size="10.00">ParMesh2D/reconstructParMesh2D.C</text>
</a>
</g>
</g>
<!-- Node1&#45;&gt;Node3 -->
<g id="edge2_Node000001_Node000003" class="edge">
<title>Node1&#45;&gt;Node3</title>
<g id="a_edge2_Node000001_Node000003"><a xlink:title=" ">
<path fill="none" stroke="#63b8ff" d="M489.02,-272.03C454.25,-261.7 414.57,-249.87 378.5,-239 372.59,-237.22 366.49,-235.37 360.35,-233.51"/>
<polygon fill="#63b8ff" stroke="#63b8ff" points="488.1,-275.41 498.68,-274.9 490.09,-268.7 488.1,-275.41"/>
</a>
</g>
</g>
<!-- Node4 -->
<g id="Node000004" class="node">
<title>Node4</title>
<g id="a_Node000004"><a xlink:href="hexRef4_8H.html" target="_top" xlink:title=" ">
<polygon fill="white" stroke="#666666" points="569.5,-233.5 387.5,-233.5 387.5,-181.5 569.5,-181.5 569.5,-233.5"/>
<text text-anchor="start" x="395.5" y="-221.5" font-family="Helvetica,sans-Serif" font-size="10.00">libfvMeshTopoChangers</text>
<text text-anchor="start" x="395.5" y="-210.5" font-family="Helvetica,sans-Serif" font-size="10.00">/libfvMeshTopoChangers2D</text>
<text text-anchor="start" x="395.5" y="-199.5" font-family="Helvetica,sans-Serif" font-size="10.00">/dynamicMesh/polyTopoChange</text>
<text text-anchor="middle" x="478.5" y="-188.5" font-family="Helvetica,sans-Serif" font-size="10.00">/polyTopoChange/hexRef4/hexRef4.H</text>
</a>
</g>
</g>
<!-- Node1&#45;&gt;Node4 -->
<g id="edge3_Node000001_Node000004" class="edge">
<title>Node1&#45;&gt;Node4</title>
<g id="a_edge3_Node000001_Node000004"><a xlink:title=" ">
<path fill="none" stroke="#63b8ff" d="M546.98,-268.18C534.07,-256.92 519.73,-244.43 507.52,-233.79"/>
<polygon fill="#63b8ff" stroke="#63b8ff" points="544.97,-271.07 554.81,-275 549.57,-265.79 544.97,-271.07"/>
</a>
</g>
</g>
<!-- Node10 -->
<g id="Node000010" class="node">
<title>Node10</title>
<g id="a_Node000010"><a xlink:href="hexRef4Data_8C.html" target="_top" xlink:title=" ">
<polygon fill="white" stroke="#666666" points="791,-233.5 588,-233.5 588,-181.5 791,-181.5 791,-233.5"/>
<text text-anchor="start" x="596" y="-221.5" font-family="Helvetica,sans-Serif" font-size="10.00">libfvMeshTopoChangers</text>
<text text-anchor="start" x="596" y="-210.5" font-family="Helvetica,sans-Serif" font-size="10.00">/libfvMeshTopoChangers2D</text>
<text text-anchor="start" x="596" y="-199.5" font-family="Helvetica,sans-Serif" font-size="10.00">/dynamicMesh/polyTopoChange</text>
<text text-anchor="middle" x="689.5" y="-188.5" font-family="Helvetica,sans-Serif" font-size="10.00">/polyTopoChange/hexRef4/hexRef4Data.C</text>
</a>
</g>
</g>
<!-- Node1&#45;&gt;Node10 -->
<g id="edge9_Node000001_Node000010" class="edge">
<title>Node1&#45;&gt;Node10</title>
<g id="a_edge9_Node000001_Node000010"><a xlink:title=" ">
<path fill="none" stroke="#63b8ff" d="M620.36,-268.18C633.4,-256.92 647.88,-244.43 660.2,-233.79"/>
<polygon fill="#63b8ff" stroke="#63b8ff" points="617.75,-265.81 612.46,-275 622.32,-271.11 617.75,-265.81"/>
</a>
</g>
</g>
<!-- Node11 -->
<g id="Node000011" class="node">
<title>Node11</title>
<g id="a_Node000011"><a xlink:href="refinementHistory4_8C.html" target="_top" xlink:title=" ">
<polygon fill="white" stroke="#666666" points="1037.5,-233.5 809.5,-233.5 809.5,-181.5 1037.5,-181.5 1037.5,-233.5"/>
<text text-anchor="start" x="817.5" y="-221.5" font-family="Helvetica,sans-Serif" font-size="10.00">libfvMeshTopoChangers</text>
<text text-anchor="start" x="817.5" y="-210.5" font-family="Helvetica,sans-Serif" font-size="10.00">/libfvMeshTopoChangers2D</text>
<text text-anchor="start" x="817.5" y="-199.5" font-family="Helvetica,sans-Serif" font-size="10.00">/dynamicMesh/polyTopoChange</text>
<text text-anchor="middle" x="923.5" y="-188.5" font-family="Helvetica,sans-Serif" font-size="10.00">/polyTopoChange/hexRef4/refinementHistory4.C</text>
</a>
</g>
</g>
<!-- Node1&#45;&gt;Node11 -->
<g id="edge10_Node000001_Node000011" class="edge">
<title>Node1&#45;&gt;Node11</title>
<g id="a_edge10_Node000001_Node000011"><a xlink:title=" ">
<path fill="none" stroke="#63b8ff" d="M686.08,-272.4C731.97,-260.04 785.69,-245.59 830.41,-233.55"/>
<polygon fill="#63b8ff" stroke="#63b8ff" points="685.15,-269.02 676.41,-275 686.97,-275.78 685.15,-269.02"/>
</a>
</g>
</g>
<!-- Node12 -->
<g id="Node000012" class="node">
<title>Node12</title>
<g id="a_Node000012"><a xlink:href="refinementHistory4Constraint_8C.html" target="_top" xlink:title=" ">
<polygon fill="white" stroke="#666666" points="1293.5,-239 1055.5,-239 1055.5,-176 1293.5,-176 1293.5,-239"/>
<text text-anchor="start" x="1063.5" y="-227" font-family="Helvetica,sans-Serif" font-size="10.00">libfvMeshTopoChangers</text>
<text text-anchor="start" x="1063.5" y="-216" font-family="Helvetica,sans-Serif" font-size="10.00">/libfvMeshTopoChangers2D</text>
<text text-anchor="start" x="1063.5" y="-205" font-family="Helvetica,sans-Serif" font-size="10.00">/parallel/decompose/decomposition</text>
<text text-anchor="start" x="1063.5" y="-194" font-family="Helvetica,sans-Serif" font-size="10.00">Methods/decompositionConstraints</text>
<text text-anchor="middle" x="1174.5" y="-183" font-family="Helvetica,sans-Serif" font-size="10.00">/refinementHistory/refinementHistory4Constraint.C</text>
</a>
</g>
</g>
<!-- Node1&#45;&gt;Node12 -->
<g id="edge11_Node000001_Node000012" class="edge">
<title>Node1&#45;&gt;Node12</title>
<g id="a_edge11_Node000001_Node000012"><a xlink:title=" ">
<path fill="none" stroke="#63b8ff" d="M707.77,-287.14C801.31,-276.61 932.45,-260.04 1046.5,-239 1049.42,-238.46 1052.37,-237.9 1055.35,-237.32"/>
<polygon fill="#63b8ff" stroke="#63b8ff" points="707.25,-283.68 697.7,-288.27 708.03,-290.63 707.25,-283.68"/>
</a>
</g>
</g>
<!-- Node5 -->
<g id="Node000005" class="node">
<title>Node5</title>
<g id="a_Node000005"><a xlink:href="hexRef4_8C.html" target="_top" xlink:title=" ">
<polygon fill="white" stroke="#666666" points="354.5,-140 172.5,-140 172.5,-88 354.5,-88 354.5,-140"/>
<text text-anchor="start" x="180.5" y="-128" font-family="Helvetica,sans-Serif" font-size="10.00">libfvMeshTopoChangers</text>
<text text-anchor="start" x="180.5" y="-117" font-family="Helvetica,sans-Serif" font-size="10.00">/libfvMeshTopoChangers2D</text>
<text text-anchor="start" x="180.5" y="-106" font-family="Helvetica,sans-Serif" font-size="10.00">/dynamicMesh/polyTopoChange</text>
<text text-anchor="middle" x="263.5" y="-95" font-family="Helvetica,sans-Serif" font-size="10.00">/polyTopoChange/hexRef4/hexRef4.C</text>
</a>
</g>
</g>
<!-- Node4&#45;&gt;Node5 -->
<g id="edge4_Node000004_Node000005" class="edge">
<title>Node4&#45;&gt;Node5</title>
<g id="a_edge4_Node000004_Node000005"><a xlink:title=" ">
<path fill="none" stroke="#63b8ff" d="M410.36,-177.5C382.14,-165.49 349.73,-151.7 322.55,-140.13"/>
<polygon fill="#63b8ff" stroke="#63b8ff" points="409.18,-180.8 419.75,-181.5 411.92,-174.36 409.18,-180.8"/>
</a>
</g>
</g>
<!-- Node6 -->
<g id="Node000006" class="node">
<title>Node6</title>
<g id="a_Node000006"><a xlink:href="fvMeshTopoChangersMultiFieldRefiner2D_8H.html" target="_top" xlink:title=" ">
<polygon fill="white" stroke="#666666" points="584.5,-140 372.5,-140 372.5,-88 584.5,-88 584.5,-140"/>
<text text-anchor="start" x="380.5" y="-128" font-family="Helvetica,sans-Serif" font-size="10.00">libfvMeshTopoChangers</text>
<text text-anchor="start" x="380.5" y="-117" font-family="Helvetica,sans-Serif" font-size="10.00">/libfvMeshTopoChangers2D</text>
<text text-anchor="start" x="380.5" y="-106" font-family="Helvetica,sans-Serif" font-size="10.00">/fvMeshTopoChangers/refiner2D</text>
<text text-anchor="middle" x="478.5" y="-95" font-family="Helvetica,sans-Serif" font-size="10.00">/fvMeshTopoChangersMultiFieldRefiner2D.H</text>
</a>
</g>
</g>
<!-- Node4&#45;&gt;Node6 -->
<g id="edge5_Node000004_Node000006" class="edge">
<title>Node4&#45;&gt;Node6</title>
<g id="a_edge5_Node000004_Node000006"><a xlink:title=" ">
<path fill="none" stroke="#63b8ff" d="M478.5,-171.46C478.5,-161.08 478.5,-149.92 478.5,-140.29"/>
<polygon fill="#63b8ff" stroke="#63b8ff" points="475,-171.5 478.5,-181.5 482,-171.5 475,-171.5"/>
</a>
</g>
</g>
<!-- Node8 -->
<g id="Node000008" class="node">
<title>Node8</title>
<g id="a_Node000008"><a xlink:href="fvMeshTopoChangersRefiner2D_8H.html" target="_top" xlink:title=" ">
<polygon fill="white" stroke="#666666" points="772.5,-140 602.5,-140 602.5,-88 772.5,-88 772.5,-140"/>
<text text-anchor="start" x="610.5" y="-128" font-family="Helvetica,sans-Serif" font-size="10.00">libfvMeshTopoChangers</text>
<text text-anchor="start" x="610.5" y="-117" font-family="Helvetica,sans-Serif" font-size="10.00">/libfvMeshTopoChangers2D</text>
<text text-anchor="start" x="610.5" y="-106" font-family="Helvetica,sans-Serif" font-size="10.00">/fvMeshTopoChangers/refiner2D</text>
<text text-anchor="middle" x="687.5" y="-95" font-family="Helvetica,sans-Serif" font-size="10.00">/fvMeshTopoChangersRefiner2D.H</text>
</a>
</g>
</g>
<!-- Node4&#45;&gt;Node8 -->
<g id="edge7_Node000004_Node000008" class="edge">
<title>Node4&#45;&gt;Node8</title>
<g id="a_edge7_Node000004_Node000008"><a xlink:title=" ">
<path fill="none" stroke="#63b8ff" d="M545.1,-177.34C572.44,-165.37 603.79,-151.65 630.1,-140.13"/>
<polygon fill="#63b8ff" stroke="#63b8ff" points="543.37,-174.28 535.61,-181.5 546.17,-180.69 543.37,-174.28"/>
</a>
</g>
</g>
<!-- Node7 -->
<g id="Node000007" class="node">
<title>Node7</title>
<g id="a_Node000007"><a xlink:href="fvMeshTopoChangersMultiFieldRefiner2D_8C.html" target="_top" xlink:title=" ">
<polygon fill="white" stroke="#666666" points="584.5,-52 372.5,-52 372.5,0 584.5,0 584.5,-52"/>
<text text-anchor="start" x="380.5" y="-40" font-family="Helvetica,sans-Serif" font-size="10.00">libfvMeshTopoChangers</text>
<text text-anchor="start" x="380.5" y="-29" font-family="Helvetica,sans-Serif" font-size="10.00">/libfvMeshTopoChangers2D</text>
<text text-anchor="start" x="380.5" y="-18" font-family="Helvetica,sans-Serif" font-size="10.00">/fvMeshTopoChangers/refiner2D</text>
<text text-anchor="middle" x="478.5" y="-7" font-family="Helvetica,sans-Serif" font-size="10.00">/fvMeshTopoChangersMultiFieldRefiner2D.C</text>
</a>
</g>
</g>
<!-- Node6&#45;&gt;Node7 -->
<g id="edge6_Node000006_Node000007" class="edge">
<title>Node6&#45;&gt;Node7</title>
<g id="a_edge6_Node000006_Node000007"><a xlink:title=" ">
<path fill="none" stroke="#63b8ff" d="M478.5,-77.56C478.5,-69.04 478.5,-60.1 478.5,-52.16"/>
<polygon fill="#63b8ff" stroke="#63b8ff" points="475,-77.66 478.5,-87.66 482,-77.66 475,-77.66"/>
</a>
</g>
</g>
<!-- Node9 -->
<g id="Node000009" class="node">
<title>Node9</title>
<g id="a_Node000009"><a xlink:href="fvMeshTopoChangersRefiner2D_8C.html" target="_top" xlink:title=" ">
<polygon fill="white" stroke="#666666" points="772.5,-52 602.5,-52 602.5,0 772.5,0 772.5,-52"/>
<text text-anchor="start" x="610.5" y="-40" font-family="Helvetica,sans-Serif" font-size="10.00">libfvMeshTopoChangers</text>
<text text-anchor="start" x="610.5" y="-29" font-family="Helvetica,sans-Serif" font-size="10.00">/libfvMeshTopoChangers2D</text>
<text text-anchor="start" x="610.5" y="-18" font-family="Helvetica,sans-Serif" font-size="10.00">/fvMeshTopoChangers/refiner2D</text>
<text text-anchor="middle" x="687.5" y="-7" font-family="Helvetica,sans-Serif" font-size="10.00">/fvMeshTopoChangersRefiner2D.C</text>
</a>
</g>
</g>
<!-- Node8&#45;&gt;Node9 -->
<g id="edge8_Node000008_Node000009" class="edge">
<title>Node8&#45;&gt;Node9</title>
<g id="a_edge8_Node000008_Node000009"><a xlink:title=" ">
<path fill="none" stroke="#63b8ff" d="M687.5,-77.56C687.5,-69.04 687.5,-60.1 687.5,-52.16"/>
<polygon fill="#63b8ff" stroke="#63b8ff" points="684,-77.66 687.5,-87.66 691,-77.66 684,-77.66"/>
</a>
</g>
</g>
</g>
</svg>
