<?xml version="1.0" encoding="UTF-8" standalone="no"?>
<!DOCTYPE svg PUBLIC "-//W3C//DTD SVG 1.1//EN"
 "http://www.w3.org/Graphics/SVG/1.1/DTD/svg11.dtd">
<!-- Generated by graphviz version 2.43.0 (0)
 -->
<!-- Title: libfvMeshTopoChangers/libfvMeshTopoChangers2D/dynamicMesh/polyTopoChange/polyTopoChange/hexRef4/refinementHistory4.H Pages: 1 -->
<svg width="590pt" height="115pt"
 viewBox="0.00 0.00 590.00 115.00" xmlns="http://www.w3.org/2000/svg" xmlns:xlink="http://www.w3.org/1999/xlink">
<g id="graph0" class="graph" transform="scale(1 1) rotate(0) translate(4 111)">
<title>libfvMeshTopoChangers/libfvMeshTopoChangers2D/dynamicMesh/polyTopoChange/polyTopoChange/hexRef4/refinementHistory4.H</title>
<!-- Node1 -->
<g id="Node000001" class="node">
<title>Node1</title>
<g id="a_Node000001"><a xlink:title=" ">
<polygon fill="#999999" stroke="#666666" points="410,-107 182,-107 182,-55 410,-55 410,-107"/>
<text text-anchor="start" x="190" y="-95" font-family="Helvetica,sans-Serif" font-size="10.00">libfvMeshTopoChangers</text>
<text text-anchor="start" x="190" y="-84" font-family="Helvetica,sans-Serif" font-size="10.00">/libfvMeshTopoChangers2D</text>
<text text-anchor="start" x="190" y="-73" font-family="Helvetica,sans-Serif" font-size="10.00">/dynamicMesh/polyTopoChange</text>
<text text-anchor="middle" x="296" y="-62" font-family="Helvetica,sans-Serif" font-size="10.00">/polyTopoChange/hexRef4/refinementHistory4.H</text>
</a>
</g>
</g>
<!-- Node2 -->
<g id="Node000002" class="node">
<title>Node2</title>
<g id="a_Node000002"><a xlink:title=" ">
<polygon fill="#e0e0e0" stroke="#999999" points="82,-19 0,-19 0,0 82,0 82,-19"/>
<text text-anchor="middle" x="41" y="-7" font-family="Helvetica,sans-Serif" font-size="10.00">DynamicList.H</text>
</a>
</g>
</g>
<!-- Node1&#45;&gt;Node2 -->
<g id="edge1_Node000001_Node000002" class="edge">
<title>Node1&#45;&gt;Node2</title>
<g id="a_edge1_Node000001_Node000002"><a xlink:title=" ">
<path fill="none" stroke="#63b8ff" d="M203.94,-54.91C162.18,-43.53 114.91,-30.64 82.08,-21.7"/>
<polygon fill="#63b8ff" stroke="#63b8ff" points="82.95,-18.31 72.38,-19.05 81.11,-25.06 82.95,-18.31"/>
</a>
</g>
</g>
<!-- Node3 -->
<g id="Node000003" class="node">
<title>Node3</title>
<g id="a_Node000003"><a xlink:title=" ">
<polygon fill="#e0e0e0" stroke="#999999" points="163.5,-19 100.5,-19 100.5,0 163.5,0 163.5,-19"/>
<text text-anchor="middle" x="132" y="-7" font-family="Helvetica,sans-Serif" font-size="10.00">labelList.H</text>
</a>
</g>
</g>
<!-- Node1&#45;&gt;Node3 -->
<g id="edge2_Node000001_Node000003" class="edge">
<title>Node1&#45;&gt;Node3</title>
<g id="a_edge2_Node000001_Node000003"><a xlink:title=" ">
<path fill="none" stroke="#63b8ff" d="M236.79,-54.91C211.29,-44.1 182.59,-31.94 161.68,-23.08"/>
<polygon fill="#63b8ff" stroke="#63b8ff" points="162.95,-19.81 152.38,-19.14 160.22,-26.26 162.95,-19.81"/>
</a>
</g>
</g>
<!-- Node4 -->
<g id="Node000004" class="node">
<title>Node4</title>
<g id="a_Node000004"><a xlink:title=" ">
<polygon fill="#e0e0e0" stroke="#999999" points="248.5,-19 181.5,-19 181.5,0 248.5,0 248.5,-19"/>
<text text-anchor="middle" x="215" y="-7" font-family="Helvetica,sans-Serif" font-size="10.00">FixedList.H</text>
</a>
</g>
</g>
<!-- Node1&#45;&gt;Node4 -->
<g id="edge3_Node000001_Node000004" class="edge">
<title>Node1&#45;&gt;Node4</title>
<g id="a_edge3_Node000001_Node000004"><a xlink:title=" ">
<path fill="none" stroke="#63b8ff" d="M266.76,-54.91C255.43,-45.19 242.82,-34.37 232.89,-25.85"/>
<polygon fill="#63b8ff" stroke="#63b8ff" points="235.13,-23.16 225.26,-19.3 230.57,-28.47 235.13,-23.16"/>
</a>
</g>
</g>
<!-- Node5 -->
<g id="Node000005" class="node">
<title>Node5</title>
<g id="a_Node000005"><a xlink:title=" ">
<polygon fill="#e0e0e0" stroke="#999999" points="325,-19 267,-19 267,0 325,0 325,-19"/>
<text text-anchor="middle" x="296" y="-7" font-family="Helvetica,sans-Serif" font-size="10.00">autoPtr.H</text>
</a>
</g>
</g>
<!-- Node1&#45;&gt;Node5 -->
<g id="edge4_Node000001_Node000005" class="edge">
<title>Node1&#45;&gt;Node5</title>
<g id="a_edge4_Node000001_Node000005"><a xlink:title=" ">
<path fill="none" stroke="#63b8ff" d="M296,-54.91C296,-46.55 296,-37.38 296,-29.55"/>
<polygon fill="#63b8ff" stroke="#63b8ff" points="299.5,-29.3 296,-19.3 292.5,-29.3 299.5,-29.3"/>
</a>
</g>
</g>
<!-- Node6 -->
<g id="Node000006" class="node">
<title>Node6</title>
<g id="a_Node000006"><a xlink:title=" ">
<polygon fill="#e0e0e0" stroke="#999999" points="420.5,-19 343.5,-19 343.5,0 420.5,0 420.5,-19"/>
<text text-anchor="middle" x="382" y="-7" font-family="Helvetica,sans-Serif" font-size="10.00">regIOobject.H</text>
</a>
</g>
</g>
<!-- Node1&#45;&gt;Node6 -->
<g id="edge5_Node000001_Node000006" class="edge">
<title>Node1&#45;&gt;Node6</title>
<g id="a_edge5_Node000001_Node000006"><a xlink:title=" ">
<path fill="none" stroke="#63b8ff" d="M327.05,-54.91C339.2,-45.09 352.73,-34.16 363.32,-25.59"/>
<polygon fill="#63b8ff" stroke="#63b8ff" points="365.53,-28.31 371.11,-19.3 361.13,-22.87 365.53,-28.31"/>
</a>
</g>
</g>
<!-- Node7 -->
<g id="Node000007" class="node">
<title>Node7</title>
<g id="a_Node000007"><a xlink:title=" ">
<polygon fill="#e0e0e0" stroke="#999999" points="499.5,-19 438.5,-19 438.5,0 499.5,0 499.5,-19"/>
<text text-anchor="middle" x="469" y="-7" font-family="Helvetica,sans-Serif" font-size="10.00">boolList.H</text>
</a>
</g>
</g>
<!-- Node1&#45;&gt;Node7 -->
<g id="edge6_Node000001_Node000007" class="edge">
<title>Node1&#45;&gt;Node7</title>
<g id="a_edge6_Node000001_Node000007"><a xlink:title=" ">
<path fill="none" stroke="#63b8ff" d="M358.46,-54.91C385.48,-44.05 415.91,-31.83 437.99,-22.96"/>
<polygon fill="#63b8ff" stroke="#63b8ff" points="439.53,-26.11 447.5,-19.14 436.92,-19.62 439.53,-26.11"/>
</a>
</g>
</g>
<!-- Node8 -->
<g id="Node000008" class="node">
<title>Node8</title>
<g id="a_Node000008"><a xlink:title=" ">
<polygon fill="#e0e0e0" stroke="#999999" points="582,-19 518,-19 518,0 582,0 582,-19"/>
<text text-anchor="middle" x="550" y="-7" font-family="Helvetica,sans-Serif" font-size="10.00">labelPair.H</text>
</a>
</g>
</g>
<!-- Node1&#45;&gt;Node8 -->
<g id="edge7_Node000001_Node000008" class="edge">
<title>Node1&#45;&gt;Node8</title>
<g id="a_edge7_Node000001_Node000008"><a xlink:title=" ">
<path fill="none" stroke="#63b8ff" d="M387.7,-54.91C429.3,-43.53 476.38,-30.64 509.08,-21.7"/>
<polygon fill="#63b8ff" stroke="#63b8ff" points="510.02,-25.07 518.74,-19.05 508.17,-18.32 510.02,-25.07"/>
</a>
</g>
</g>
</g>
</svg>
